<svg width="13" height="16" viewBox="0 0 13 16" fill="none" xmlns="http://www.w3.org/2000/svg">
<path d="M3.29957 11.375C3.5622 11.1519 3.76875 10.9691 3.91922 10.8266C4.07242 10.6815 4.19963 10.5309 4.30086 10.375C4.40208 10.2191 4.45269 10.0632 4.45269 9.90726C4.45269 9.74597 4.41302 9.61962 4.33369 9.52823C4.25709 9.43683 4.13534 9.39113 3.96846 9.39113C3.80705 9.39113 3.68121 9.4422 3.59093 9.54435C3.50338 9.64382 3.45687 9.77823 3.4514 9.94758H3C3.00821 9.64113 3.10122 9.40726 3.27905 9.24597C3.45961 9.08199 3.68805 9 3.96436 9C4.26256 9 4.4951 9.08065 4.66198 9.24194C4.8316 9.40323 4.91641 9.61828 4.91641 9.8871C4.91641 10.0806 4.86579 10.2675 4.76457 10.4476C4.66608 10.625 4.54708 10.7849 4.40755 10.9274C4.27076 11.0672 4.09568 11.2298 3.88229 11.4153L3.69762 11.5766H4.99848V11.9597H3.0041V11.625L3.29957 11.375Z" fill="#3C3F40"/>
<path d="M7.1494 9.19758V9.57258H5.93883V10.3992H6.88267V10.7742H5.93883V12H5.47101V9.19758H7.1494Z" fill="#3C3F40"/>
<path d="M9.30238 11.4274H8.10822L7.90303 12H7.4147L8.43651 9.19355H8.97819L10 12H9.50756L9.30238 11.4274ZM9.17106 11.0524L8.70735 9.75L8.23953 11.0524H9.17106Z" fill="#3C3F40"/>
<path d="M10.6923 6.38464H2.07692C1.48215 6.38464 1 6.8668 1 7.46157V13.9231C1 14.5179 1.48215 15 2.07692 15H10.6923C11.2871 15 11.7692 14.5179 11.7692 13.9231V7.46157C11.7692 6.8668 11.2871 6.38464 10.6923 6.38464Z" stroke="#3C3F40" stroke-linecap="round" stroke-linejoin="round"/>
<path d="M10.1542 6.38462V4.76923C10.1542 3.76957 9.75707 2.81085 9.0502 2.10398C8.34333 1.39711 7.38462 1 6.38495 1C5.38529 1 4.42657 1.39711 3.71971 2.10398C3.01284 2.81085 2.61572 3.76957 2.61572 4.76923V6.38462" stroke="#3C3F40" stroke-linecap="round" stroke-linejoin="round"/>
</svg>
