<svg width="122" height="32" viewBox="0 0 122 32" fill="none" xmlns="http://www.w3.org/2000/svg">
<g clip-path="url(#clip0_1_700)">
<path d="M80.6397 26.7258C79.56 26.7258 78.6446 26.4646 77.8974 25.9423C76.8491 26.4646 75.785 26.7258 74.7014 26.7258H70.6252C69.4986 26.7258 68.6849 26.2814 68.192 25.3965C66.8737 26.2853 65.5046 26.7258 64.0924 26.7258H61.7335V25.3965H62.0895C62.6763 25.3965 63.2631 25.2016 63.842 24.8157C64.421 24.4259 64.8317 23.845 65.0704 23.0693L67.3823 14.3998C67.5427 13.8307 67.84 13.3785 68.2781 13.0471C68.7162 12.7158 69.2209 12.5482 69.792 12.5482H73.8447L71.0086 23.0732C70.946 23.3422 70.9147 23.5878 70.9147 23.81C70.9147 24.2232 71.0321 24.5545 71.2707 24.8079C71.6189 25.2055 72.1039 25.4004 72.7259 25.4004C73.3127 25.4004 73.8995 25.2055 74.4784 24.8196C75.0574 24.4298 75.4682 23.8489 75.7068 23.0732L78.5429 12.4546C78.7033 11.9011 79.0006 11.4567 79.4387 11.1254C79.8769 10.794 80.3815 10.6264 80.9526 10.6264H84.9819L81.645 23.0498C81.5981 23.272 81.5746 23.4786 81.5746 23.6657C81.5746 24.0633 81.6841 24.4103 81.9071 24.7104C82.224 25.1704 82.7091 25.4004 83.3623 25.4004C83.9491 25.4004 84.5359 25.2055 85.1149 24.8196C85.6938 24.4298 86.1046 23.8489 86.3432 23.0732L89.7035 10.5055C89.8639 9.95201 90.1612 9.50762 90.5993 9.17627C91.0375 8.84493 91.5421 8.67731 92.1132 8.67731H96.1425L92.8995 20.8162C92.4066 22.4963 91.4326 23.8996 89.9773 25.034C88.5221 26.1645 86.9769 26.7336 85.3418 26.7336H80.6436L80.6397 26.7258Z" stroke="currentColor" fill="currentColor"/>
<path d="M81.821 8.07699C82.3373 7.66378 82.6816 7.15702 82.8576 6.55671C82.9045 6.3501 82.928 6.1513 82.928 5.96419C82.928 5.60166 82.8341 5.28201 82.6424 5.01303C82.3412 4.59983 81.8953 4.39713 81.3085 4.39713C80.7217 4.39713 80.1428 4.60373 79.6264 5.01303C79.11 5.42624 78.7579 5.9408 78.5663 6.55671C78.5193 6.74772 78.4958 6.92703 78.4958 7.10245C78.4958 7.46888 78.5976 7.79242 78.8049 8.07699C79.1061 8.49019 79.5521 8.6929 80.1388 8.6929C80.7256 8.6929 81.3046 8.4863 81.821 8.07699Z" fill="currentColor" stroke="currentColor"/>
<path d="M85.3573 3.68376C85.8815 3.27056 86.2297 2.7638 86.4057 2.16348C86.4526 1.95688 86.4761 1.76587 86.4761 1.59435C86.4761 1.23182 86.3744 0.904374 86.1671 0.619808C85.8659 0.206603 85.4199 0.00389862 84.8331 0.00389862C84.2463 0.00389862 83.6908 0.210501 83.1627 0.619808C82.6386 1.03301 82.2904 1.54757 82.1144 2.16348C82.0674 2.35449 82.0439 2.5377 82.0439 2.70922C82.0439 3.07565 82.1457 3.3992 82.353 3.68376C82.6542 4.09697 83.1002 4.29967 83.6869 4.29967C84.2737 4.29967 84.8292 4.09307 85.3573 3.68376Z" fill="currentColor" stroke="currentColor"/>
<path d="M86.6209 8.07699C87.1451 7.66378 87.4932 7.15702 87.6692 6.55671C87.7162 6.3501 87.7397 6.16299 87.7397 5.98757C87.7397 5.62505 87.638 5.2976 87.4306 5.01303C87.1294 4.59983 86.6834 4.39713 86.0967 4.39713C85.5099 4.39713 84.9505 4.60373 84.4263 5.01303C83.9021 5.42624 83.5539 5.9408 83.3779 6.55671C83.331 6.74772 83.3075 6.92703 83.3075 7.10245C83.3075 7.46888 83.4092 7.79242 83.6165 8.07699C83.9021 8.49019 84.3481 8.6929 84.9505 8.6929C85.5529 8.6929 86.0967 8.4863 86.6209 8.07699Z" fill="currentColor" stroke="currentColor"/>
<path d="M100.567 23.0654C100.391 23.8412 100.496 24.4181 100.876 24.8001C101.24 25.1977 101.717 25.3926 102.308 25.3926L101.928 26.7219H100.211C99.9879 26.7219 99.7727 26.7063 99.5654 26.6751C99.0255 28.0862 98.118 29.2869 96.8466 30.2848C95.3992 31.4231 93.8579 31.9961 92.2228 31.9961H89.4336L89.6722 31.0917C89.7818 30.7916 89.9734 30.6395 90.2434 30.6395C90.8301 30.6395 91.4169 30.4485 91.9959 30.0704C92.5748 29.6884 92.9856 29.1115 93.2242 28.3357L97.9928 10.5211C98.1532 9.9676 98.4505 9.52321 98.8886 9.19186C99.3268 8.86052 99.8314 8.6929 100.403 8.6929H104.432L102.621 15.4406L100.571 23.0654H100.567Z" fill="currentColor" stroke="currentColor"/>
<path d="M101.928 26.7258V25.3965H104.479C103.716 24.574 103.336 23.5683 103.336 22.3793C103.336 21.8882 103.399 21.3658 103.528 20.8123C104.784 16.1072 105.715 12.6651 106.317 10.4783C106.478 9.92471 106.771 9.48032 107.197 9.14898C107.628 8.81764 108.128 8.65002 108.7 8.65002H117.45C119.086 8.65002 120.255 9.12169 120.956 10.065C121.656 11.0084 122.004 11.9868 122.004 13.0004C122.004 13.4915 121.933 14.0139 121.789 14.5674L120.048 21.0774C119.508 22.6912 118.526 24.04 117.102 25.1158C115.678 26.1917 114.172 26.7297 112.584 26.7297H101.928V26.7258ZM112.416 24.7182C112.987 24.266 113.37 23.7086 113.558 23.042L116.441 12.3299C116.488 12.1077 116.512 11.9011 116.512 11.714C116.512 11.3164 116.41 10.9694 116.203 10.6693C115.87 10.2093 115.377 9.97929 114.724 9.97929C114.071 9.97929 113.484 10.2054 112.913 10.6576C112.342 11.1098 111.95 11.6672 111.743 12.3338L108.86 23.0459C108.813 23.2681 108.79 23.4747 108.79 23.6618C108.79 24.0594 108.899 24.4064 109.122 24.7065C109.455 25.1665 109.94 25.3965 110.577 25.3965C111.215 25.3965 111.841 25.1704 112.412 24.7182H112.416Z" fill="currentColor" stroke="currentColor"/>
<path d="M15.6358 13.2499C15.6984 11.9245 15.2016 11.0006 14.1532 10.4744C13.5664 10.1859 12.8623 10.0417 12.0447 10.0417C10.476 10.0417 9.02472 10.6303 7.69077 11.8114C6.35291 12.9926 5.35146 14.7662 4.68644 17.1324C4.02925 19.5181 4.10357 21.206 4.91333 22.1961C5.72309 23.1863 6.82624 23.6813 8.21496 23.6813C9.60368 23.6813 10.8085 23.2876 11.9039 22.5041C12.9992 21.7206 13.8207 20.6914 14.3723 19.4206H9.86969L10.7812 16.1852H18.8866L15.984 26.5933H13.2887L13.5547 24.1725C12.5063 25.0925 11.6222 25.7435 10.8907 26.1216C9.63107 26.7804 8.21888 27.1078 6.65412 27.1078C4.07619 27.1078 2.21022 26.219 1.06012 24.4376C-0.15256 22.6483 -0.324683 20.2003 0.539843 17.0973C1.41611 13.9554 2.98477 11.4411 5.24975 9.5466C7.51474 7.65209 10.0731 6.70484 12.9249 6.70484C15.3972 6.70484 17.2084 7.32854 18.3585 8.57985C19.5086 9.83116 19.935 11.3904 19.6338 13.2576H15.6319L15.6358 13.2499Z" fill="currentColor" stroke="currentColor"/>
<path d="M34.1704 14.661C34.5029 15.5108 34.5889 16.497 34.4364 17.6197C34.3581 18.2785 34.1351 19.2257 33.7753 20.4614H23.9251C23.577 21.8999 23.7452 22.9095 24.4376 23.4864C24.8522 23.845 25.4273 24.0244 26.1588 24.0244C26.9334 24.0244 27.6258 23.8061 28.236 23.3656C28.5607 23.1278 28.8854 22.8003 29.214 22.3793H33.0555C32.719 23.2291 32.0306 24.0945 30.9978 24.9716C29.3744 26.3672 27.4536 27.0649 25.2356 27.0649C23.4048 27.0649 21.9535 26.4763 20.8817 25.303C19.8098 24.1257 19.6416 22.2156 20.381 19.5649C21.0734 17.0817 22.2352 15.1794 23.8664 13.8541C25.4977 12.5287 27.3206 11.866 29.3392 11.866C30.5362 11.866 31.5533 12.0882 32.3904 12.5365C33.2276 12.9848 33.8222 13.6903 34.1704 14.6532V14.661ZM24.7075 17.99H30.5558C30.7709 16.9999 30.677 16.2475 30.2741 15.733C29.8712 15.2184 29.2688 14.965 28.4707 14.965C27.5984 14.965 26.8473 15.2379 26.2175 15.7798C25.5877 16.3255 25.083 17.0622 24.7036 17.99H24.7075Z" fill="currentColor" stroke="currentColor"/>
<path d="M36.3376 15.0547L37.0808 12.3845H39.0876L40.2103 8.38494H43.9345L42.8117 12.3845H45.1471L44.4039 15.0547H42.0685L39.9443 22.6327C39.7839 23.2213 39.7566 23.5878 39.8661 23.732C39.9756 23.8762 40.4138 23.9503 41.1805 23.9503C41.2939 23.9503 41.4152 23.9503 41.5443 23.9425C41.6734 23.9386 41.8025 23.9308 41.9355 23.923L41.1453 26.7258L39.3458 26.7921C37.5542 26.8544 36.4275 26.5465 35.962 25.8721C35.6647 25.4433 35.6373 24.7806 35.8799 23.884L38.3483 15.0547H36.3415H36.3376Z" fill="currentColor" stroke="currentColor"/>
<path d="M52.7205 15.963C52.8769 15.4367 52.7987 15.0703 52.4936 14.8715C52.1845 14.6727 51.676 14.5713 50.9679 14.5713C50.1699 14.5713 49.544 14.7662 49.0941 15.1599C48.7773 15.4523 48.5035 15.846 48.2726 16.3411H45.5852L45.55 16.4658L44.9241 18.7852C45.2175 18.5591 45.5382 18.3603 45.8903 18.1849C46.6727 17.799 47.7406 17.5222 49.0981 17.3585L50.2834 17.2182C50.9366 17.1402 51.4139 17.0428 51.719 16.9219C52.2589 16.7192 52.5914 16.3996 52.7244 15.9669L52.7205 15.963Z" fill="currentColor" stroke="currentColor"/>
<path d="M50.1621 19.3388L49.368 19.4791C48.613 19.6039 48.0575 19.7598 47.6937 19.9391C47.0834 20.247 46.6844 20.7226 46.4967 21.3697C46.3206 21.9427 46.3558 22.3598 46.5984 22.6132C46.8409 22.8705 47.193 22.9953 47.6507 22.9953C48.3783 22.9953 49.1098 22.7847 49.8491 22.356C50.5885 21.9311 51.1401 21.1553 51.5 20.0287L51.8638 18.7774C51.6173 18.91 51.3709 19.0191 51.1244 19.101C50.8819 19.1828 50.5572 19.2608 50.1582 19.331L50.1621 19.3388Z" fill="currentColor" stroke="currentColor"/>
<path d="M62.023 10.3457C61.1819 9.21525 59.9418 8.64612 58.3028 8.64612H49.5793C49.0081 8.64612 48.5035 8.81374 48.0654 9.14509C47.6272 9.47643 47.3299 9.92082 47.1695 10.4744L46.1407 14.2712C46.3402 14.0178 46.5515 13.78 46.7862 13.5617C48.0184 12.4273 49.7201 11.8621 51.8912 11.8621C53.3034 11.8621 54.4769 12.1428 55.4119 12.7002C56.3429 13.2576 56.5815 14.314 56.1199 15.8655L54.3596 21.7673C54.2383 22.1766 54.1014 22.6717 53.9488 23.2564C53.8393 23.6969 53.8158 23.9971 53.8784 24.153C53.941 24.3089 54.0662 24.4415 54.254 24.5428L54.117 25.0379H50.4438C50.4164 24.7767 50.4203 24.535 50.4438 24.305C50.4712 24.075 50.5142 23.8178 50.5807 23.5254C49.9626 24.0283 49.2976 24.4571 48.5895 24.8118C47.7328 25.2289 46.8448 25.4394 45.9295 25.4394C44.795 25.4394 43.9461 25.1236 43.3789 24.496L42.7804 26.7219H53.4364C54.8838 26.7219 56.2647 26.2697 57.583 25.3692C57.6299 25.4784 57.6925 25.5836 57.7747 25.6772C58.2832 26.375 59.0304 26.7219 60.0162 26.7219H61.7335L62.1168 25.3926C61.5301 25.3926 61.0489 25.1977 60.6734 24.8118C60.2978 24.422 60.2 23.8412 60.3761 23.0654L60.9237 21.0228C60.955 20.9292 61.0176 20.7226 61.1154 20.4069C61.2249 19.9625 61.3697 19.4206 61.5457 18.7813C61.7218 18.1381 61.89 17.4949 62.0582 16.844C62.2264 16.193 62.3711 15.6472 62.5002 15.2028C62.5785 14.8715 62.6332 14.6571 62.6684 14.5596C63.0831 12.8795 62.8679 11.4762 62.023 10.3418V10.3457Z" fill="currentColor" stroke="currentColor"/>
</g>
<defs>
<clipPath id="clip0_1_700">
<rect width="122" height="32" fill="white"/>
</clipPath>
</defs>
</svg>
