<svg width="42" height="42" viewBox="0 0 42 42" fill="none" xmlns="http://www.w3.org/2000/svg">
<rect width="42" height="42" rx="21" fill="white"/>
<g clip-path="url(#clip0_1753_1168)">
<path d="M12.1835 20.5586C11.9414 20.8008 11.9414 21.1992 12.1835 21.4414L19.0552 28.3164C19.2972 28.5586 19.6955 28.5586 19.9376 28.3164C20.1796 28.0742 20.1796 27.6758 19.9376 27.4336L14.1318 21.625H28.8668C29.2104 21.625 29.4915 21.3437 29.4915 21C29.4915 20.6562 29.2104 20.375 28.8668 20.375H14.1318L19.9376 14.5664C20.1796 14.3242 20.1796 13.9258 19.9376 13.6836C19.6955 13.4414 19.2972 13.4414 19.0552 13.6836L12.1835 20.5586Z" fill="black"/>
</g>
<defs>
<clipPath id="clip0_1753_1168">
<rect width="17.4915" height="20" fill="white" transform="translate(12 11)"/>
</clipPath>
</defs>
</svg>
