<svg width="10" height="18" viewBox="0 0 10 18" fill="none" xmlns="http://www.w3.org/2000/svg">
<path d="M9.99437 7.93848L9.75451 9.76885C9.71393 10.0746 9.44146 10.3046 9.11827 10.3046H5.99865V17.9573C5.66966 17.9855 5.33632 18 4.99936 18C4.24572 18 3.5102 17.9284 2.79932 17.792V10.3046H0.400006C0.179713 10.3046 0 10.1331 0 9.9231V7.63273C0 7.4227 0.179713 7.25123 0.400006 7.25123H2.79932V3.81637C2.79932 1.70848 4.58993 0 6.79939 0H9.59871C9.819 0 9.99872 0.171467 9.99872 0.381498V2.67187C9.99872 2.8819 9.819 3.05337 9.59871 3.05337H7.59868C6.71533 3.05337 5.99937 3.73649 5.99937 4.58005V7.25192H9.35885C9.74436 7.25192 10.0422 7.5742 9.99509 7.93917L9.99437 7.93848Z" fill="#373737"/>
</svg>
