<svg width="17" height="18" viewBox="0 0 17 18" fill="none" xmlns="http://www.w3.org/2000/svg">
<path d="M12.8966 0H4.1034C1.8376 0 0 1.84383 0 4.11731V12.9403C0 15.2138 1.8376 17.0576 4.1034 17.0576H12.8966C15.1624 17.0576 17 15.2138 17 12.9403V4.11731C17 1.84383 15.1624 0 12.8966 0ZM15.5343 12.6457C15.5343 14.2694 14.2212 15.587 12.603 15.587H4.3962C2.77801 15.587 1.46486 14.2694 1.46486 12.6457V4.41111C1.46486 2.78743 2.77801 1.46982 4.3962 1.46982H12.603C14.2212 1.46982 15.5343 2.78743 15.5343 4.41111V12.6457Z" fill="#373737"/>
<path d="M8.50753 4.11694C6.08106 4.11694 4.11133 6.09335 4.11133 8.52805C4.11133 10.9628 6.08106 12.9392 8.50753 12.9392C10.934 12.9392 12.9037 10.9628 12.9037 8.52805C12.9037 6.09335 10.934 4.11694 8.50753 4.11694ZM8.50753 11.4693C6.8926 11.4693 5.57618 10.1485 5.57618 8.52805C5.57618 6.90764 6.8926 5.58677 8.50753 5.58677C10.1225 5.58677 11.4389 6.90764 11.4389 8.52805C11.4389 10.1485 10.1225 11.4693 8.50753 11.4693Z" fill="#373737"/>
<path d="M13.1976 4.70585C13.6832 4.70585 14.0768 4.31086 14.0768 3.82363C14.0768 3.33639 13.6832 2.94141 13.1976 2.94141C12.712 2.94141 12.3184 3.33639 12.3184 3.82363C12.3184 4.31086 12.712 4.70585 13.1976 4.70585Z" fill="#373737"/>
</svg>
