<svg width="14" height="15" viewBox="0 0 14 15" fill="none" xmlns="http://www.w3.org/2000/svg">
<path d="M1.8634 3.73942C2.89252 3.73942 3.72679 2.90232 3.72679 1.86971C3.72679 0.837096 2.89252 0 1.8634 0C0.834276 0 0 0.837096 0 1.86971C0 2.90232 0.834276 3.73942 1.8634 3.73942Z" fill="#373737"/>
<path d="M3.27712 4.98499H0.44963C0.372818 4.98499 0.310547 5.04746 0.310547 5.12454V14.1933C0.310547 14.2703 0.372818 14.3328 0.44963 14.3328H3.27712C3.35393 14.3328 3.4162 14.2703 3.4162 14.1933V5.12454C3.4162 5.04746 3.35393 4.98499 3.27712 4.98499Z" fill="#373737"/>
<path d="M13.9749 8.41325V13.7104C13.9749 14.0531 13.6953 14.3336 13.3538 14.3336H11.4904C11.1489 14.3336 10.8693 14.0531 10.8693 13.7104V9.34775C10.8693 8.48778 10.1739 7.79002 9.31681 7.79002C8.45975 7.79002 7.76434 8.48778 7.76434 9.34775V13.7104C7.76434 14.0531 7.48473 14.3336 7.14322 14.3336H5.27982C4.9383 14.3336 4.65869 14.0531 4.65869 13.7104V5.60832C4.65869 5.26565 4.9383 4.98508 5.27982 4.98508H7.14322C7.48473 4.98508 7.76434 5.26565 7.76434 5.60832V6.00725C8.38547 5.19989 9.41365 4.67383 10.5591 4.67383C12.2732 4.67383 13.9749 5.9203 13.9749 8.41325Z" fill="#373737"/>
</svg>
