<svg width="16" height="16" viewBox="0 0 16 16" fill="none" xmlns="http://www.w3.org/2000/svg">
<path d="M6.62945 9.88339C6.88549 10.1394 7.3309 10.1394 7.58961 9.88339L10.3927 7.08025C10.6568 6.81354 10.6568 6.38414 10.3954 6.11742C10.1367 5.86138 9.68329 5.86405 9.43525 6.11742L7.10953 8.44315L6.57077 7.90172C6.27739 7.61367 5.83998 7.66968 5.60795 7.90172C5.3439 8.16843 5.3439 8.59784 5.60795 8.86455L6.62945 9.88605V9.88339Z" fill="white"/>
<path d="M15.3723 9.11791C15.0549 8.8352 14.8762 8.42713 14.8762 8.00039C14.8762 7.57366 15.0549 7.16559 15.3723 6.88287C15.9751 6.33612 16.1644 5.50131 15.8524 4.74919C15.5403 3.99706 14.8149 3.53832 14.0041 3.58099C13.58 3.59966 13.1639 3.43963 12.8599 3.14092C12.5612 2.83687 12.4011 2.4208 12.4198 1.99673C12.4625 1.18593 12.0037 0.460471 11.2516 0.148419C10.4995 -0.163633 9.66467 0.0257316 9.11791 0.628499C8.8352 0.945885 8.42713 1.12458 8.00039 1.12458C7.57366 1.12458 7.16559 0.945885 6.88287 0.628499C6.33612 0.0257316 5.50131 -0.163633 4.74919 0.148419C3.99706 0.460471 3.53832 1.18593 3.58099 1.99673C3.59966 2.4208 3.43963 2.83687 3.14092 3.14092C2.83687 3.43963 2.4208 3.60233 1.99673 3.58099C1.18593 3.53565 0.460471 3.99706 0.148419 4.74919C-0.163633 5.50131 0.0257316 6.33612 0.628499 6.88287C0.945885 7.16559 1.12458 7.57366 1.12458 8.00039C1.12458 8.42713 0.945885 8.8352 0.628499 9.11791C0.0257316 9.66467 -0.163633 10.4995 0.148419 11.2516C0.460471 12.0037 1.18593 12.4625 1.99673 12.4225C2.4208 12.4011 2.83687 12.5612 3.14092 12.8599C3.43963 13.1639 3.59966 13.58 3.58099 14.0041C3.53832 14.8149 3.99706 15.5403 4.74919 15.8524C4.98923 15.9537 5.23727 16.0017 5.48264 16.0017C6.00539 16.0017 6.50948 15.783 6.88287 15.3723C7.16559 15.0549 7.57366 14.8762 8.00039 14.8762C8.42713 14.8762 8.8352 15.0549 9.11791 15.3723C9.66467 15.9751 10.5021 16.1644 11.2516 15.8524C12.0037 15.5403 12.4625 14.8149 12.4198 14.0041C12.4011 13.58 12.5612 13.1639 12.8599 12.8599C13.1639 12.5612 13.58 12.3958 14.0041 12.4225C14.8175 12.4651 15.5403 12.0037 15.8524 11.2516C16.1644 10.4995 15.9751 9.66467 15.3723 9.11791ZM10.3955 7.08024L7.59233 9.88338C7.33362 10.1394 6.88821 10.1394 6.63217 9.88338L5.61066 8.86187C5.34662 8.59516 5.34662 8.16575 5.61066 7.90171C5.8427 7.667 6.28011 7.61366 6.57349 7.90171L7.11225 8.44313L9.43797 6.11741C9.68601 5.86404 10.1394 5.86137 10.3981 6.11741C10.6595 6.38412 10.6595 6.81353 10.3955 7.08024Z" fill="#2B78E4"/>
</svg>
