<svg width="13" height="16" viewBox="0 0 13 16" fill="none" xmlns="http://www.w3.org/2000/svg">
<path d="M9.36538 2.11536H11.0385C11.3343 2.11536 11.618 2.23287 11.8272 2.44204C12.0363 2.65122 12.1538 2.93492 12.1538 3.23074V14.3846C12.1538 14.6804 12.0363 14.9641 11.8272 15.1733C11.618 15.3825 11.3343 15.5 11.0385 15.5H2.11538C1.81957 15.5 1.53586 15.3825 1.32669 15.1733C1.11751 14.9641 1 14.6804 1 14.3846V3.23074C1 2.93492 1.11751 2.65122 1.32669 2.44204C1.53586 2.23287 1.81957 2.11536 2.11538 2.11536H3.78846" stroke="#3C3F40" stroke-linecap="round" stroke-linejoin="round"/>
<path d="M8.25011 1H4.90396C4.28795 1 3.78857 1.49937 3.78857 2.11538V2.67308C3.78857 3.28909 4.28795 3.78846 4.90396 3.78846H8.25011C8.86612 3.78846 9.3655 3.28909 9.3655 2.67308V2.11538C9.3655 1.49937 8.86612 1 8.25011 1Z" stroke="#3C3F40" stroke-linecap="round" stroke-linejoin="round"/>
<path d="M3.78857 6.5769H9.3655" stroke="#3C3F40" stroke-linecap="round" stroke-linejoin="round"/>
<path d="M3.78857 9.36536H9.3655" stroke="#3C3F40" stroke-linecap="round" stroke-linejoin="round"/>
<path d="M3.78857 12.1538H9.3655" stroke="#3C3F40" stroke-linecap="round" stroke-linejoin="round"/>
</svg>
