<svg width="49" height="49" viewBox="0 0 49 49" fill="none" xmlns="http://www.w3.org/2000/svg">
<path d="M4.61538 8.23071C3.65652 8.23071 2.73694 8.61162 2.05892 9.28963C1.38091 9.96765 1 10.8872 1 11.8461V44.3846C1 45.3434 1.38091 46.263 2.05892 46.941C2.73694 47.619 3.65652 47.9999 4.61538 47.9999H44.3846C45.3435 47.9999 46.2631 47.619 46.9411 46.941C47.6191 46.263 48 45.3434 48 44.3846V11.8461C48 10.8872 47.6191 9.96765 46.9411 9.28963C46.2631 8.61162 45.3435 8.23071 44.3846 8.23071H37.1538" stroke="#272B2C" stroke-width="1.5" stroke-linecap="round" stroke-linejoin="round"/>
<path d="M11.8462 1V15.4615" stroke="#272B2C" stroke-width="1.5" stroke-linecap="round" stroke-linejoin="round"/>
<path d="M37.1538 1V15.4615" stroke="#272B2C" stroke-width="1.5" stroke-linecap="round" stroke-linejoin="round"/>
<path d="M11.8462 8.23071H29.9231" stroke="#272B2C" stroke-width="1.5" stroke-linecap="round" stroke-linejoin="round"/>
<path d="M11.8463 28.1154C12.8446 28.1154 13.654 27.3061 13.654 26.3077C13.654 25.3093 12.8446 24.5 11.8463 24.5C10.8479 24.5 10.0386 25.3093 10.0386 26.3077C10.0386 27.3061 10.8479 28.1154 11.8463 28.1154Z" stroke="#272B2C" stroke-width="1.5" stroke-linecap="round" stroke-linejoin="round"/>
<path d="M24.5001 28.1154C25.4984 28.1154 26.3078 27.3061 26.3078 26.3077C26.3078 25.3093 25.4984 24.5 24.5001 24.5C23.5017 24.5 22.6924 25.3093 22.6924 26.3077C22.6924 27.3061 23.5017 28.1154 24.5001 28.1154Z" stroke="#272B2C" stroke-width="1.5" stroke-linecap="round" stroke-linejoin="round"/>
<path d="M37.1539 28.1154C38.1522 28.1154 38.9616 27.3061 38.9616 26.3077C38.9616 25.3093 38.1522 24.5 37.1539 24.5C36.1555 24.5 35.3462 25.3093 35.3462 26.3077C35.3462 27.3061 36.1555 28.1154 37.1539 28.1154Z" stroke="#272B2C" stroke-width="1.5" stroke-linecap="round" stroke-linejoin="round"/>
<path d="M11.8463 38.9616C12.8446 38.9616 13.654 38.1522 13.654 37.1539C13.654 36.1555 12.8446 35.3462 11.8463 35.3462C10.8479 35.3462 10.0386 36.1555 10.0386 37.1539C10.0386 38.1522 10.8479 38.9616 11.8463 38.9616Z" stroke="#272B2C" stroke-width="1.5" stroke-linecap="round" stroke-linejoin="round"/>
</svg>
