<svg width="20" height="20" viewBox="0 0 20 20" fill="none" xmlns="http://www.w3.org/2000/svg">
<path d="M12.4261 18.295C13.277 18.8448 14.291 19.0844 15.2975 18.9735C16.304 18.8626 17.2418 18.408 17.953 17.6861L18.5748 17.0772C18.8474 16.798 19 16.423 19 16.0324C19 15.6419 18.8474 15.2669 18.5748 14.9876L15.9357 12.3721C15.6592 12.1 15.287 11.9475 14.8994 11.9475C14.5117 11.9475 14.1396 12.1 13.8631 12.3721V12.3721C13.5843 12.6452 13.2098 12.798 12.8199 12.798C12.4299 12.798 12.0555 12.6452 11.7767 12.3721L7.6315 8.22059C7.49322 8.08411 7.38341 7.92145 7.30846 7.74209C7.23351 7.56272 7.19491 7.37022 7.19491 7.17578C7.19491 6.98134 7.23351 6.78884 7.30846 6.60947C7.38341 6.4301 7.49322 6.26745 7.6315 6.13097V6.13097C7.90322 5.85406 8.05548 5.48134 8.05548 5.09308C8.05548 4.70483 7.90322 4.33211 7.6315 4.05519L5.00622 1.42588C4.7274 1.15286 4.35295 1 3.96301 1C3.57308 1 3.19863 1.15286 2.91981 1.42588L2.31185 2.04861C1.59107 2.76094 1.13715 3.7001 1.02643 4.70819C0.915715 5.71628 1.15494 6.7318 1.70389 7.58402C4.56413 11.8058 8.20345 15.4413 12.4261 18.295V18.295Z" stroke="currentColor" stroke-linecap="round" stroke-linejoin="round"/>
</svg>
