<svg width="15" height="11" viewBox="0 0 15 11" fill="none" xmlns="http://www.w3.org/2000/svg">
<path d="M13.1571 2.30303L10.3744 3.49082V2.06547C10.3744 1.81345 10.2705 1.57176 10.0854 1.39355C9.90034 1.21535 9.64935 1.11523 9.38764 1.11523H1.98678C1.72507 1.11523 1.47408 1.21535 1.28902 1.39355C1.10396 1.57176 1 1.81345 1 2.06547V8.71711C1 8.96913 1.10396 9.21083 1.28902 9.38903C1.47408 9.56723 1.72507 9.66735 1.98678 9.66735H9.38764C9.64935 9.66735 9.90034 9.56723 10.0854 9.38903C10.2705 9.21083 10.3744 8.96913 10.3744 8.71711V7.29176L13.1571 8.47955C13.2322 8.50743 13.3131 8.51723 13.393 8.5081C13.4728 8.49896 13.5492 8.47117 13.6153 8.42714C13.6815 8.38311 13.7354 8.32418 13.7725 8.25548C13.8096 8.18677 13.8287 8.11038 13.8282 8.03294V2.74964C13.8287 2.6722 13.8096 2.59581 13.7725 2.5271C13.7354 2.4584 13.6815 2.39947 13.6153 2.35544C13.5492 2.31141 13.4728 2.28362 13.393 2.27449C13.3131 2.26535 13.2322 2.27515 13.1571 2.30303V2.30303Z" stroke="#F66F5F" stroke-linecap="round" stroke-linejoin="round"/>
</svg>
