<svg width="20" height="19" viewBox="0 0 20 19" fill="none" xmlns="http://www.w3.org/2000/svg">
<path d="M5.07164 10.1787C5.4464 10.1787 5.75021 9.87487 5.75021 9.5001C5.75021 9.12534 5.4464 8.82153 5.07164 8.82153C4.69687 8.82153 4.39307 9.12534 4.39307 9.5001C4.39307 9.87487 4.69687 10.1787 5.07164 10.1787Z" stroke="currentColor" stroke-linecap="round" stroke-linejoin="round"/>
<path d="M9.48228 10.1787C9.85705 10.1787 10.1609 9.87487 10.1609 9.5001C10.1609 9.12534 9.85705 8.82153 9.48228 8.82153C9.10752 8.82153 8.80371 9.12534 8.80371 9.5001C8.80371 9.87487 9.10752 10.1787 9.48228 10.1787Z" stroke="currentColor" stroke-linecap="round" stroke-linejoin="round"/>
<path d="M13.8929 10.1787C14.2677 10.1787 14.5715 9.87487 14.5715 9.5001C14.5715 9.12534 14.2677 8.82153 13.8929 8.82153C13.5182 8.82153 13.2144 9.12534 13.2144 9.5001C13.2144 9.87487 13.5182 10.1787 13.8929 10.1787Z" stroke="currentColor" stroke-linecap="round" stroke-linejoin="round"/>
<path d="M9.82143 0.678712C8.22575 0.679209 6.6601 1.11251 5.29121 1.93246C3.92232 2.75241 2.80147 3.9283 2.04803 5.3349C1.2946 6.7415 0.936799 8.32611 1.01274 9.91998C1.08869 11.5138 1.59553 13.0573 2.47929 14.3859L1 18.3216L5.95357 17.4259C7.14637 18.0087 8.45536 18.3149 9.78295 18.3215C11.1105 18.328 12.4225 18.0349 13.621 17.4638C14.8195 16.8928 15.8737 16.0586 16.7049 15.0234C17.5362 13.9882 18.1231 12.7788 18.4218 11.4852C18.7206 10.1917 18.7235 8.84739 18.4304 7.55254C18.1373 6.2577 17.5557 5.04571 16.729 4.00692C15.9022 2.96814 14.8517 2.12935 13.6557 1.55308C12.4597 0.976811 11.149 0.677929 9.82143 0.678712V0.678712Z" stroke="currentColor" stroke-linecap="round" stroke-linejoin="round"/>
</svg>
