<svg width="20" height="19" viewBox="0 0 20 19" fill="none" xmlns="http://www.w3.org/2000/svg">
<path d="M5.07142 10.1787C5.44619 10.1787 5.75 9.87487 5.75 9.5001C5.75 9.12534 5.44619 8.82153 5.07142 8.82153C4.69666 8.82153 4.39285 9.12534 4.39285 9.5001C4.39285 9.87487 4.69666 10.1787 5.07142 10.1787Z" stroke="#898989" stroke-linecap="round" stroke-linejoin="round"/>
<path d="M9.48215 10.1787C9.85691 10.1787 10.1607 9.87487 10.1607 9.5001C10.1607 9.12534 9.85691 8.82153 9.48215 8.82153C9.10738 8.82153 8.80357 9.12534 8.80357 9.5001C8.80357 9.87487 9.10738 10.1787 9.48215 10.1787Z" stroke="#898989" stroke-linecap="round" stroke-linejoin="round"/>
<path d="M13.8929 10.1787C14.2676 10.1787 14.5714 9.87487 14.5714 9.5001C14.5714 9.12534 14.2676 8.82153 13.8929 8.82153C13.5181 8.82153 13.2143 9.12534 13.2143 9.5001C13.2143 9.87487 13.5181 10.1787 13.8929 10.1787Z" stroke="#898989" stroke-linecap="round" stroke-linejoin="round"/>
<path d="M9.82143 0.678712C8.22575 0.679209 6.6601 1.11251 5.29121 1.93246C3.92232 2.75241 2.80147 3.9283 2.04803 5.3349C1.2946 6.7415 0.936799 8.32611 1.01274 9.91998C1.08869 11.5138 1.59553 13.0573 2.47929 14.3859L1 18.3216L5.95357 17.4259C7.14637 18.0087 8.45536 18.3149 9.78295 18.3215C11.1105 18.328 12.4225 18.0349 13.621 17.4638C14.8195 16.8928 15.8737 16.0586 16.7049 15.0234C17.5362 13.9882 18.1231 12.7788 18.4218 11.4852C18.7206 10.1917 18.7235 8.84739 18.4304 7.55254C18.1373 6.2577 17.5557 5.04571 16.729 4.00692C15.9022 2.96814 14.8517 2.12935 13.6557 1.55308C12.4597 0.976811 11.149 0.677929 9.82143 0.678712V0.678712Z" stroke="#898989" stroke-linecap="round" stroke-linejoin="round"/>
</svg>
