<svg width="21" height="19" viewBox="0 0 21 19" fill="none" xmlns="http://www.w3.org/2000/svg">
<path d="M19.4929 14.9055C13.6408 14.0723 7.70019 14.0723 1.84809 14.9055C1.74328 14.9203 1.63651 14.9126 1.53492 14.8828C1.43333 14.8531 1.33925 14.802 1.25898 14.733C1.17871 14.664 1.11409 14.5787 1.06944 14.4827C1.02479 14.3867 1.00114 14.2823 1.00007 14.1765V1.73879C0.998633 1.63217 1.02061 1.52653 1.06445 1.42932C1.10828 1.33211 1.17291 1.2457 1.25378 1.17619C1.33464 1.10667 1.42977 1.05575 1.53245 1.027C1.63514 0.998245 1.74289 0.992373 1.84809 1.00979C7.70124 1.82807 13.6398 1.82807 19.4929 1.00979C19.5969 0.992586 19.7033 0.998122 19.8049 1.02602C19.9066 1.05392 20.0009 1.10351 20.0815 1.17139C20.1621 1.23926 20.2271 1.32381 20.2718 1.4192C20.3166 1.51458 20.3402 1.61854 20.3409 1.72392V14.1616C20.342 14.2687 20.3199 14.3748 20.2762 14.4725C20.2325 14.5703 20.1682 14.6575 20.0876 14.7281C20.0071 14.7988 19.9123 14.8512 19.8096 14.8818C19.707 14.9124 19.599 14.9205 19.4929 14.9055V14.9055Z" stroke="currentColor" stroke-linecap="round" stroke-linejoin="round"/>
<path d="M10.6705 14.2806V18" stroke="currentColor" stroke-linecap="round" stroke-linejoin="round"/>
<path d="M6.95111 18.0001H14.3899" stroke="currentColor" stroke-linecap="round" stroke-linejoin="round"/>
</svg>
