<svg width="17" height="17" viewBox="0 0 17 17" fill="none" xmlns="http://www.w3.org/2000/svg">
<path d="M2.15385 16C1.84783 16 1.55434 15.8784 1.33795 15.662C1.12157 15.4457 1 15.1522 1 14.8462V2.15385C1 1.84783 1.12157 1.55434 1.33795 1.33795C1.55434 1.12157 1.84783 1 2.15385 1H14.8462C15.1522 1 15.4457 1.12157 15.662 1.33795C15.8784 1.55434 16 1.84783 16 2.15385V14.8462C16 15.1522 15.8784 15.4457 15.662 15.662C15.4457 15.8784 15.1522 16 14.8462 16" stroke="#3C3F40" stroke-linecap="round" stroke-linejoin="round"/>
<path d="M1 4.46155H16" stroke="#3C3F40" stroke-linecap="round" stroke-linejoin="round"/>
<path d="M7.86533 8.92693C7.915 8.799 8.00218 8.68906 8.11543 8.61155C8.22868 8.53403 8.36271 8.49255 8.49995 8.49255C8.63718 8.49255 8.77122 8.53403 8.88447 8.61155C8.99771 8.68906 9.08489 8.799 9.13456 8.92693L9.87302 10.8077H11.8461C11.9751 10.8175 12.0988 10.8633 12.2031 10.9399C12.3074 11.0165 12.3882 11.1207 12.4362 11.2409C12.4843 11.361 12.4977 11.4922 12.475 11.6196C12.4522 11.747 12.3943 11.8654 12.3076 11.9615L10.5653 13.5308L11.3038 15.0077C11.3706 15.1374 11.3933 15.2853 11.3683 15.429C11.3433 15.5728 11.272 15.7044 11.1653 15.8039C11.0594 15.9046 10.9247 15.9698 10.7799 15.9905C10.6352 16.0112 10.4876 15.9863 10.3576 15.9192L8.49995 14.9039L6.64225 15.9192C6.51232 15.9863 6.36473 16.0112 6.21998 15.9905C6.07524 15.9698 5.94053 15.9046 5.83456 15.8039C5.72786 15.7044 5.65659 15.5728 5.6316 15.429C5.6066 15.2853 5.62925 15.1374 5.6961 15.0077L6.43456 13.5308L4.69225 11.9615C4.60562 11.8654 4.54765 11.747 4.52492 11.6196C4.5022 11.4922 4.51562 11.361 4.56368 11.2409C4.61173 11.1207 4.69249 11.0165 4.7968 10.9399C4.9011 10.8633 5.02478 10.8175 5.15379 10.8077H7.12687L7.86533 8.92693Z" stroke="#3C3F40" stroke-linecap="round" stroke-linejoin="round"/>
</svg>
