<svg width="17" height="15" viewBox="0 0 17 15" fill="none" xmlns="http://www.w3.org/2000/svg">
<path d="M13.6923 1.01904H15.4231C15.5761 1.01904 15.7228 1.07983 15.831 1.18802C15.9392 1.29621 16 1.44296 16 1.59597V10.8267C16 10.9797 15.9392 11.1265 15.831 11.2347C15.7228 11.3429 15.5761 11.4037 15.4231 11.4037H1.57692C1.42391 11.4037 1.27717 11.3429 1.16898 11.2347C1.06078 11.1265 1 10.9797 1 10.8267V1.59597C1 1.44296 1.06078 1.29621 1.16898 1.18802C1.27717 1.07983 1.42391 1.01904 1.57692 1.01904H3.30769" stroke="#3C3F40" stroke-linecap="round" stroke-linejoin="round"/>
<path d="M7.34623 11.4036L6.19238 14.2882" stroke="#3C3F40" stroke-linecap="round" stroke-linejoin="round"/>
<path d="M9.65381 11.4036L10.8077 14.2882" stroke="#3C3F40" stroke-linecap="round" stroke-linejoin="round"/>
<path d="M5.03857 14.2882H11.9617" stroke="#3C3F40" stroke-linecap="round" stroke-linejoin="round"/>
<path d="M7.8654 1.43437C7.91507 1.30644 8.00225 1.19651 8.1155 1.11899C8.22875 1.04148 8.36278 1 8.50002 1C8.63725 1 8.77129 1.04148 8.88454 1.11899C8.99778 1.19651 9.08496 1.30644 9.13463 1.43437L9.87309 3.32668H11.8462C11.9865 3.32875 12.1229 3.37269 12.2381 3.45287C12.3532 3.53305 12.4417 3.64582 12.4923 3.77668C12.5313 3.89945 12.5346 4.03075 12.5019 4.15534C12.4693 4.27993 12.4019 4.39269 12.3077 4.48053L10.5654 6.02668L11.3039 7.50361C11.3707 7.63327 11.3934 7.78122 11.3684 7.92494C11.3434 8.06866 11.2721 8.20028 11.1654 8.29976C11.0613 8.40366 10.9264 8.47105 10.7808 8.49185C10.6352 8.51265 10.4867 8.48574 10.3577 8.41514L8.50002 7.39976L6.64232 8.41514C6.5133 8.48574 6.36488 8.51265 6.21928 8.49185C6.07368 8.47105 5.93873 8.40366 5.83463 8.29976C5.72793 8.20028 5.65666 8.06866 5.63167 7.92494C5.60667 7.78122 5.62932 7.63327 5.69617 7.50361L6.43463 6.02668L4.69232 4.48053C4.5892 4.38894 4.51632 4.26818 4.48336 4.13425C4.45039 4.00031 4.45888 3.85953 4.50771 3.73053C4.56529 3.60829 4.65683 3.50522 4.77141 3.43361C4.88599 3.36199 5.01876 3.32488 5.15386 3.32668H7.12694L7.8654 1.43437Z" stroke="#3C3F40" stroke-linecap="round" stroke-linejoin="round"/>
</svg>
