<svg width="29" height="29" viewBox="0 0 29 29" fill="none" xmlns="http://www.w3.org/2000/svg">
<path d="M14.3275 17.4031V27.655" stroke="currentColor" stroke-linecap="round" stroke-linejoin="round"/>
<path d="M9.20154 27.655H19.4535" stroke="currentColor" stroke-linecap="round" stroke-linejoin="round"/>
<path d="M7.15117 11.252C5.51978 11.252 3.9552 10.6039 2.80163 9.45033C1.64807 8.29677 1 6.73219 1 5.1008V3.05042H8.17636V11.252H7.15117Z" stroke="currentColor" stroke-linecap="round" stroke-linejoin="round"/>
<path d="M21.5038 11.252C23.1352 11.252 24.6998 10.6039 25.8534 9.45033C27.0069 8.29677 27.655 6.73219 27.655 5.1008V3.05042H20.4786V11.252H21.5038Z" stroke="currentColor" stroke-linecap="round" stroke-linejoin="round"/>
<path d="M20.4787 11.2519C20.4787 12.8833 19.8307 14.4479 18.6771 15.6015C17.5235 16.755 15.9589 17.4031 14.3276 17.4031C12.6962 17.4031 11.1316 16.755 9.97803 15.6015C8.82446 14.4479 8.17639 12.8833 8.17639 11.2519V1H20.4787V11.2519Z" stroke="currentColor" stroke-linecap="round" stroke-linejoin="round"/>
</svg>
