<svg width="27" height="27" viewBox="0 0 27 27" fill="none" xmlns="http://www.w3.org/2000/svg">
<path d="M12.4518 17.0813V17.7199C12.4518 20.9925 9.91381 23.6738 6.70482 23.9209V25.5422H8.78012C9.04452 25.5422 9.25904 25.7567 9.25904 26.0211C9.25904 26.2855 9.04452 26.5 8.78012 26.5H3.67169C3.40729 26.5 3.19277 26.2855 3.19277 26.0211C3.19277 25.7567 3.40729 25.5422 3.67169 25.5422H5.74699V23.9209C2.53793 23.6752 0 20.99 0 17.7199V17.0813C0 16.8169 0.214516 16.6024 0.478916 16.6024C0.743316 16.6024 0.957832 16.8169 0.957832 17.0813V17.7199C0.957832 20.6258 3.31997 22.988 6.22591 22.988C9.13184 22.988 11.494 20.6258 11.494 17.7199V17.0813C11.494 16.8169 11.7085 16.6024 11.9729 16.6024C12.2373 16.6024 12.4518 16.8169 12.4518 17.0813ZM14.0482 11.9729V6.22591C14.0482 2.79368 16.8419 0 20.2741 0C23.7063 0 26.5 2.79368 26.5 6.22591C26.5 9.65814 23.7063 12.4518 20.2741 12.4518H14.5271C14.2627 12.4518 14.0482 12.2373 14.0482 11.9729ZM15.006 11.494H20.2741C23.18 11.494 25.5422 9.13184 25.5422 6.22591C25.5422 3.31997 23.18 0.957832 20.2741 0.957832C17.3682 0.957832 15.006 3.31997 15.006 6.22591V11.494ZM20.753 6.22974C20.753 5.96534 20.536 5.74709 20.2704 5.74709C20.006 5.74709 19.7877 5.96409 19.7877 6.22974C19.7877 6.49414 20.0047 6.71239 20.2704 6.71239C20.536 6.71114 20.753 6.49413 20.753 6.22974ZM17.7236 5.74709C17.4592 5.74709 17.241 5.96409 17.241 6.22974C17.241 6.49414 17.458 6.71239 17.7236 6.71239C17.988 6.71239 18.2063 6.49538 18.2063 6.22974C18.205 5.96409 17.988 5.74709 17.7236 5.74709ZM22.8321 6.71114C23.0965 6.71114 23.3147 6.49413 23.3147 6.22849C23.3147 5.96409 23.0977 5.74584 22.8321 5.74584C22.5677 5.74584 22.3494 5.96285 22.3494 6.22849C22.3494 6.49414 22.5664 6.71114 22.8321 6.71114ZM9.8975 12.6114V17.7198C9.8975 19.744 8.24996 21.3915 6.22581 21.3915C4.20166 21.3915 2.55412 19.744 2.55412 17.7198V12.6114C2.55412 10.5872 4.20166 8.9397 6.22581 8.9397C8.24996 8.9397 9.8975 10.5872 9.8975 12.6114ZM8.93966 12.6114C8.93966 11.1135 7.72367 9.89753 6.22581 9.89753C4.72795 9.89753 3.51195 11.1135 3.51195 12.6114V17.7198C3.51195 19.2177 4.72795 20.4337 6.22581 20.4337C7.72367 20.4337 8.93966 19.2177 8.93966 17.7198V12.6114ZM24.7439 14.0481C24.4795 14.0481 24.265 14.2626 24.265 14.527V21.5511C24.265 22.3431 23.6202 22.9879 22.8282 22.9879H15.6831L17.4204 21.2506C17.6088 21.0623 17.6088 20.7592 17.4204 20.5734C17.2321 20.3888 16.929 20.385 16.7432 20.5734L14.189 23.1276C14.1441 23.1725 14.1092 23.2261 14.0842 23.2835C14.0842 23.2872 14.0842 23.2897 14.0805 23.2897C14.058 23.3446 14.0456 23.402 14.0456 23.4656C14.0456 23.5292 14.058 23.5865 14.0805 23.6414C14.0805 23.6452 14.0805 23.6476 14.0842 23.6476C14.1092 23.705 14.1454 23.7599 14.189 23.8035L16.7432 26.3578C16.8355 26.4501 16.9602 26.4987 17.0812 26.4987C17.2022 26.4987 17.3269 26.4513 17.4192 26.3578C17.6075 26.1694 17.6075 25.8664 17.4192 25.6805L15.6819 23.9432L22.8283 23.9457C24.1503 23.9457 25.2228 22.8694 25.2228 21.5511V14.527C25.2228 14.2626 25.0083 14.0481 24.7439 14.0481ZM2.39448 7.98187C2.65888 7.98187 2.8734 7.76735 2.8734 7.50295V4.94873C2.8734 4.15677 3.51818 3.51199 4.31015 3.51199H10.1781L8.44083 5.2493C8.25251 5.43762 8.25251 5.7407 8.44083 5.92652C8.53312 6.01881 8.65784 6.06745 8.77881 6.06745C8.89979 6.06745 9.02451 6.02006 9.1168 5.92652L11.671 3.3723C11.7159 3.3274 11.7508 3.27378 11.7758 3.2164C11.7758 3.21266 11.7758 3.21017 11.7795 3.21017C11.802 3.15529 11.8144 3.09792 11.8144 3.03432C11.8144 2.97071 11.802 2.91334 11.7795 2.85847C11.7795 2.85472 11.7795 2.85223 11.7758 2.85223C11.7508 2.79486 11.7147 2.73999 11.671 2.69633L9.1168 0.142116C8.92848 -0.0462064 8.6254 -0.0462064 8.43958 0.142116C8.255 0.330438 8.25126 0.633516 8.43958 0.819335L10.1769 2.55665L4.31018 2.55416C2.98818 2.55416 1.9156 3.63047 1.9156 4.94873V7.50295C1.9156 7.76735 2.13008 7.98187 2.39448 7.98187Z" fill="white"/>
</svg>
