<svg width="27" height="18" viewBox="0 0 27 18" fill="none" xmlns="http://www.w3.org/2000/svg">
<path d="M6.38182 17.9174C6.11213 18.1197 5.72727 17.9273 5.72727 17.5902V14.5442C2.4116 13.7927 0 10.8295 0 7.36333C0 3.29668 3.29681 0 7.36364 0H19.6364C23.7032 0 27 3.29668 27 7.36333C27 11.43 23.7032 14.7267 19.6364 14.7267H10.6364L6.38182 17.9174ZM6.54545 16.772L10.2546 13.9903C10.3254 13.9372 10.4115 13.9085 10.5 13.9085H19.6364C23.2513 13.9085 26.1818 10.9781 26.1818 7.36333C26.1818 3.74853 23.2513 0.818148 19.6364 0.818148H7.36364C3.74868 0.818148 0.818182 3.74853 0.818182 7.36333C0.818182 10.5478 3.10864 13.2551 6.20807 13.8069C6.40328 13.8417 6.54545 14.0114 6.54545 14.2097V16.772ZM9.12936 4.52081L11.6111 5.348C11.9212 4.6037 12.6565 4.09074 13.5 4.09074H16.3636C17.4921 4.09074 18.4091 5.00551 18.4091 6.13329V8.59338C18.4091 9.72173 17.4932 10.6359 16.3636 10.6359H13.5C12.6574 10.6359 11.9217 10.1227 11.6113 9.37859L9.12936 10.2059C8.86446 10.2942 8.59091 10.097 8.59091 9.81778V4.90889C8.59091 4.62967 8.86446 4.43252 9.12936 4.52081ZM9.40909 5.47646V9.25021L11.7554 8.46816C11.9945 8.38845 12.2482 8.54187 12.2886 8.79067C12.384 9.37845 12.8966 9.81778 13.5 9.81778H16.3636C17.0417 9.81778 17.5909 9.26955 17.5909 8.59338V6.13329C17.5909 5.45779 17.0407 4.90889 16.3636 4.90889H13.5C12.8956 4.90889 12.3838 5.34768 12.2885 5.93584C12.2482 6.18472 11.9945 6.33823 11.7553 6.2585L9.40909 5.47646Z" fill="white"/>
</svg>
