<svg width="24" height="27" viewBox="0 0 24 27" fill="none" xmlns="http://www.w3.org/2000/svg">
<path d="M24 17.4512V18.7683C24 21.7446 21.7006 24.1782 18.8108 24.349V26.3414H21.0811C21.2597 26.3414 21.4054 26.4893 21.4054 26.6707C21.4054 26.852 21.2597 26.9999 21.0811 26.9999H15.8919C15.7133 26.9999 15.5676 26.852 15.5676 26.6707C15.5676 26.4893 15.7133 26.3414 15.8919 26.3414H18.1622V24.349C15.2724 24.178 12.973 21.7445 12.973 18.7683V17.4512C12.973 17.2698 13.1187 17.1219 13.2973 17.1219C13.476 17.1219 13.6217 17.2698 13.6217 17.4512V18.7683C13.6217 21.4911 15.8045 23.7073 18.4865 23.7073C21.1685 23.7073 23.3514 21.4911 23.3514 18.7683V17.4512C23.3514 17.2698 23.497 17.1219 23.6757 17.1219C23.8543 17.1219 24 17.2698 24 17.4512ZM18.4865 10.5365C20.0954 10.5365 21.4054 11.8665 21.4054 13.4999V18.7683C21.4054 20.4017 20.0954 21.7317 18.4865 21.7317C16.8776 21.7317 15.5676 20.4017 15.5676 18.7683V13.4999C15.5676 11.8665 16.8776 10.5365 18.4865 10.5365ZM18.4865 11.195C17.2348 11.195 16.2162 12.2291 16.2162 13.4999V18.7683C16.2162 20.039 17.2348 21.0731 18.4865 21.0731C19.7382 21.0731 20.7568 20.039 20.7568 18.7683V13.4999C20.7568 12.2291 19.7382 11.195 18.4865 11.195ZM13.6217 26.6707C13.6217 26.8521 13.476 27 13.2973 27H1.61782C0.725933 27 0 26.263 0 25.3575V1.6425C0 0.737005 0.725933 0 1.61782 0H14.5946C14.6364 0 14.6795 0.0102897 14.7175 0.0257242C14.7568 0.0424449 14.7923 0.0655955 14.8214 0.097752L20.0106 5.36607C20.0397 5.39565 20.0663 5.43167 20.0815 5.47154C20.098 5.51141 20.1081 5.55514 20.1081 5.59759V7.57321C20.1081 7.75456 19.9624 7.90248 19.7838 7.90248C19.6052 7.90248 19.4595 7.75456 19.4595 7.57321V5.92686H15.888C14.9961 5.92686 14.2702 5.18985 14.2702 4.28436V0.65844H1.61772C1.08311 0.65844 0.648549 1.0996 0.648549 1.6424V25.3538C0.648549 25.8965 1.08308 26.3377 1.61772 26.3377H13.2972C13.4759 26.3416 13.6217 26.4894 13.6217 26.6707ZM15.8881 5.26819H18.9983L14.919 1.12268V4.28031C14.919 4.82696 15.3535 5.26819 15.8881 5.26819ZM3.56775 5.92673H11.3515C11.5301 5.92673 11.6758 5.77881 11.6758 5.59746C11.6758 5.4161 11.5301 5.26819 11.3515 5.26819H3.56775C3.38912 5.26819 3.24342 5.4161 3.24342 5.59746C3.24342 5.77881 3.38912 5.92673 3.56775 5.92673ZM14.2704 10.8658C14.2704 10.6844 14.1247 10.5365 13.9461 10.5365H3.56775C3.38912 10.5365 3.24342 10.6844 3.24342 10.8658C3.24342 11.0471 3.38912 11.195 3.56775 11.195H13.9461C14.1247 11.195 14.2704 11.0471 14.2704 10.8658ZM10.7029 15.8048H3.56775C3.38912 15.8048 3.24342 15.9527 3.24342 16.1341C3.24342 16.3154 3.38912 16.4634 3.56775 16.4634H10.7029C10.8815 16.4634 11.0272 16.3154 11.0272 16.1341C11.0272 15.9527 10.8815 15.8048 10.7029 15.8048ZM10.7029 21.0731H3.56775C3.38912 21.0731 3.24342 21.2211 3.24342 21.4024C3.24342 21.5838 3.38912 21.7317 3.56775 21.7317H10.7029C10.8815 21.7317 11.0272 21.5838 11.0272 21.4024C11.0272 21.2211 10.8815 21.0731 10.7029 21.0731Z" fill="#FDFDFD"/>
</svg>
