<svg width="225" height="186" viewBox="0 0 225 186" fill="none" xmlns="http://www.w3.org/2000/svg">
<g clip-path="url(#clip0_1_1243)">
<path d="M192.949 183.003C202.472 163.892 210.381 144.018 216.592 123.588C228.833 82.3459 232.144 22.8204 195.326 5.12772C164.155 -9.85676 127.845 15.6168 127.845 15.6168C127.845 15.6168 86.6315 -15.1082 43.8378 9.62305C4.36867 32.416 26.212 82.9233 26.212 82.9233C19.4147 86.7611 13.5808 92.0984 9.15322 98.5299C4.72564 104.961 1.82085 112.318 0.659433 120.041C-4.83574 155.784 25.3053 182.893 25.3053 182.893L192.949 183.003Z" fill="#EFE5D9"/>
<path d="M11.7047 186.027H205.41C205.941 186.024 206.449 185.811 206.824 185.436C207.199 185.06 207.412 184.552 207.415 184.02V183.539C207.415 183.007 207.204 182.496 206.828 182.12C206.452 181.744 205.942 181.532 205.41 181.532H11.7047C11.4413 181.532 11.1805 181.584 10.9371 181.685C10.6938 181.786 10.4727 181.934 10.2864 182.12C10.1002 182.306 9.95244 182.528 9.85164 182.771C9.75085 183.015 9.69897 183.276 9.69897 183.539V184.02C9.69897 184.284 9.75085 184.545 9.85164 184.788C9.95244 185.032 10.1002 185.253 10.2864 185.44C10.4727 185.626 10.6938 185.774 10.9371 185.875C11.1805 185.976 11.4413 186.027 11.7047 186.027Z" fill="#403F51"/>
<path d="M40.4309 181.573H107.225C109.751 181.555 112.17 180.543 113.956 178.755C115.743 176.967 116.755 174.547 116.773 172.019V28.4843C116.773 25.9439 115.769 23.5066 113.98 21.7039C112.192 19.9012 109.763 18.8793 107.225 18.8612H40.4309C37.8947 18.8829 35.4698 19.9064 33.6841 21.7087C31.8985 23.511 30.8966 25.9463 30.8967 28.4843V172.019C30.9147 174.545 31.9245 176.963 33.7082 178.75C35.4919 180.538 37.9066 181.552 40.4309 181.573Z" fill="#363644"/>
<path d="M111.978 162.052V30.0789C111.978 28.4419 111.328 26.8719 110.171 25.7143C109.015 24.5567 107.446 23.9064 105.81 23.9064H41.8458C41.0358 23.9064 40.2337 24.0661 39.4853 24.3763C38.7369 24.6865 38.0569 25.1411 37.4842 25.7143C36.9114 26.2875 36.457 26.9679 36.147 27.7168C35.837 28.4657 35.6775 29.2683 35.6775 30.0789V162.052C35.6775 162.863 35.837 163.666 36.147 164.414C36.457 165.163 36.9114 165.844 37.4842 166.417C38.0569 166.99 38.7369 167.445 39.4853 167.755C40.2337 168.065 41.0358 168.225 41.8458 168.225H105.81C107.446 168.225 109.015 167.575 110.171 166.417C111.328 165.259 111.978 163.689 111.978 162.052Z" fill="#F8F2FF"/>
<path d="M94.4757 69.3685C94.4757 69.3685 83.2519 67.6639 73.4842 67.3064C66.4401 67.4564 59.4178 68.1458 52.4789 69.3685C52.6298 71.7115 51.8473 74.019 50.3026 75.7863C48.758 77.5535 46.5768 78.6368 44.2361 78.7991H43.8789C43.8789 78.7991 45.3901 102.417 49.7862 114.281C54.1824 126.145 73.5254 133.183 73.5254 133.183C73.5254 133.183 92.8821 126.158 97.2645 114.281C101.647 102.403 103.172 78.7991 103.172 78.7991C102.008 78.7723 100.861 78.5164 99.7962 78.0459C98.7314 77.5754 97.7696 76.8995 96.9659 76.0569C96.1621 75.2143 95.5321 74.2215 95.112 73.1352C94.6918 72.0489 94.4896 70.8904 94.517 69.7259C94.5101 69.6023 94.5101 69.4784 94.517 69.3548" fill="#403F51"/>
<path d="M73.4841 127.863C66.5327 124.839 57.3695 119.326 54.9516 112.741C51.8606 104.369 50.2395 89.3708 49.6213 82.3322C51.5324 81.566 53.2375 80.3623 54.5997 78.8177C55.962 77.2731 56.9436 75.4305 57.4657 73.4377C62.7325 72.6291 68.0469 72.1699 73.3742 72.063C79.1442 72.2829 85.5186 72.9978 89.5301 73.5064C90.0597 75.4802 91.042 77.3031 92.399 78.8304C93.7559 80.3577 95.4501 81.5473 97.3469 82.3047C96.715 89.3433 95.1076 104.3 92.0029 112.727C89.5987 119.243 80.4493 124.756 73.4841 127.781" fill="#8080A4"/>
<path d="M81.5348 91.9827V89.4532C81.4489 87.3724 80.5625 85.4055 79.0608 83.9636C77.5592 82.5217 75.5586 81.7166 73.4775 81.7166C71.3964 81.7166 69.3958 82.5217 67.8942 83.9636C66.3925 85.4055 65.5061 87.3724 65.4202 89.4532V91.9827C64.732 92.3605 64.159 92.918 63.7622 93.5958C63.3655 94.2736 63.1599 95.0464 63.1672 95.8319V105.194C63.1672 106.361 63.6303 107.479 64.4548 108.304C65.2792 109.129 66.3974 109.593 67.5633 109.593H79.4054C80.5713 109.593 81.6895 109.129 82.514 108.304C83.3384 107.479 83.8016 106.361 83.8016 105.194V95.8182C83.8002 95.0344 83.5909 94.2651 83.195 93.5888C82.7992 92.9125 82.231 92.3535 81.5485 91.969M67.5633 91.4191H67.4946V89.4532C67.4558 88.641 67.5821 87.8294 67.8659 87.0675C68.1497 86.3056 68.5852 85.6093 69.1458 85.0208C69.7065 84.4322 70.3807 83.9637 71.1276 83.6436C71.8746 83.3235 72.6787 83.1584 73.4912 83.1584C74.3038 83.1584 75.1079 83.3235 75.8548 83.6436C76.6018 83.9637 77.276 84.4322 77.8367 85.0208C78.3973 85.6093 78.8328 86.3056 79.1166 87.0675C79.4004 87.8294 79.5267 88.641 79.4878 89.4532V91.4191H67.5633Z" fill="#403F51"/>
<path d="M75.5724 98.3614C75.579 97.9719 75.4774 97.5882 75.2788 97.2531C75.0803 96.918 74.7926 96.6446 74.448 96.4635C74.1033 96.2824 73.7151 96.2007 73.3267 96.2274C72.9383 96.2541 72.565 96.3882 72.2483 96.6148C71.9316 96.8414 71.684 97.1515 71.5332 97.5106C71.3823 97.8698 71.334 98.2638 71.3938 98.6487C71.4536 99.0337 71.6191 99.3944 71.8717 99.6908C72.1244 99.9872 72.4544 100.208 72.8248 100.327L71.767 104.754H75.2977L74.2398 100.327C74.6429 100.18 74.9909 99.913 75.2367 99.5613C75.4825 99.2096 75.6141 98.7906 75.6136 98.3614" fill="#8080A4"/>
<path d="M147.889 60.639C147.718 61.344 147.368 61.9928 146.872 62.5224C147.12 63.9143 147.446 65.2912 147.848 66.6466C147.848 66.6466 150.925 77.823 151.104 78.4279L158.866 87.7073L155.239 92.7525C155.239 92.7525 147.078 82.4421 146.749 81.8235C146.419 81.2049 144.001 65.643 143.809 64.282C143.809 64.282 142.902 62.7561 142.353 61.78C141.763 60.2315 141.398 58.6067 141.267 56.9548C141.267 55.8 141.803 56.886 141.803 56.886C141.803 56.886 142.27 59.0168 142.435 58.9481C142.6 58.8794 142.243 57.7521 142.188 56.4736C142.188 56.1437 142.916 56.0887 142.916 56.4736C142.959 56.8254 143.023 57.1744 143.108 57.5184C143.162 57.8796 143.235 58.2376 143.328 58.5907C143.328 58.5907 143.465 58.6732 143.465 58.3295C143.372 57.6916 143.312 57.0491 143.287 56.4049C143.287 56.0474 143.287 55.3188 143.287 55.3188C143.287 55.3188 144.029 54.9477 143.932 55.4288C143.99 55.7924 144.013 56.1607 144.001 56.5286C144.001 56.5286 144.29 58.0958 144.523 58.0683C144.606 57.4071 144.647 56.7413 144.647 56.0749C144.643 55.9631 144.662 55.8517 144.704 55.7479C144.746 55.6442 144.809 55.5503 144.889 55.4725C144.969 55.3947 145.065 55.3347 145.17 55.2964C145.275 55.2581 145.387 55.2423 145.499 55.2501C145.499 55.2501 145.499 55.965 145.499 56.2124C145.499 56.4599 145.609 57.3259 145.609 57.3259C145.609 57.3259 146.007 59.8829 146.213 59.8279C146.419 59.7729 146.927 59.5117 146.955 59.333C146.982 59.1543 146.639 58.2057 146.666 57.9583C146.694 57.7108 146.996 57.7383 147.23 57.7658C147.463 57.7933 147.903 59.3605 147.903 59.3605C148 59.8136 148 60.2821 147.903 60.7352" fill="#E2A290"/>
<path d="M146.213 59.7455C145.828 59.7918 145.465 59.9495 145.169 60.1991C144.661 60.6115 144.578 61.8488 144.578 61.8488C144.443 61.3192 144.41 60.7685 144.482 60.2266C144.647 59.6492 145.65 59.498 146.213 59.7455Z" fill="#D7735A"/>
<path d="M184.308 53.5179C184.464 53.5042 184.62 53.5042 184.775 53.5179C184.933 53.6174 185.068 53.7501 185.17 53.9067C185.272 54.0634 185.339 54.2403 185.366 54.4253C185.366 55.0301 185.545 54.9752 185.545 54.9752L185.915 57.7246L185.586 58.6457C185.218 58.1368 184.91 57.588 184.665 57.0097C184.226 55.635 183.937 53.6692 184.308 53.4904" fill="#E2A290"/>
<path d="M197.14 50.0674L134.934 55.7038L134.385 48.5415L130.675 48.8302L131.225 55.9925L126.472 56.3636L125.867 48.569L121.086 48.9401L121.691 56.7348L112.376 57.4497L112.775 62.5774L123.147 61.78L123.985 72.6266L137.05 71.6231L136.212 60.7765L197.552 55.0302L197.14 50.0674Z" fill="#8080A4"/>
<path d="M204.778 35.3166C198.239 35.3166 192.963 42.7814 192.963 51.992C192.963 61.2027 198.252 68.6674 204.778 68.6674C211.303 68.6674 216.592 61.2027 216.592 51.992C216.592 42.7814 211.29 35.3166 204.778 35.3166ZM204.778 61.9863C200.862 61.9863 197.689 57.5047 197.689 51.9783C197.689 46.4519 200.862 41.984 204.778 41.984C208.693 41.984 211.853 46.4656 211.853 51.9783C211.853 57.4909 208.679 61.9863 204.778 61.9863Z" fill="#8080A4"/>
<path d="M188.691 52.6794C188.691 52.6794 188.292 50.8785 188.141 50.3699C187.99 49.8612 187.152 48.8027 187.028 48.9951C186.961 49.1246 186.926 49.2684 186.926 49.4144C186.926 49.5604 186.961 49.7042 187.028 49.8337C187.166 50.0674 187.605 51.4147 187.605 51.4147L187.701 53.298C187.62 52.6445 187.496 51.997 187.331 51.3597C187.095 50.8282 186.815 50.3177 186.493 49.8337L185.737 49.1051C185.72 49.0824 185.699 49.0639 185.674 49.0512C185.649 49.0384 185.621 49.0318 185.593 49.0318C185.565 49.0318 185.537 49.0384 185.512 49.0512C185.487 49.0639 185.465 49.0824 185.448 49.1051C185.438 49.1316 185.438 49.1612 185.448 49.1876C185.435 49.2418 185.435 49.2984 185.448 49.3526C185.525 49.6896 185.686 50.0017 185.916 50.2599C186.203 50.6845 186.429 51.1472 186.589 51.6346C186.731 52.2003 186.777 52.7857 186.726 53.3668C186.644 53.3668 186.506 52.1982 186.355 51.8408C186.134 51.4244 185.857 51.0404 185.531 50.6998C185.284 50.4248 184.583 49.8062 184.281 49.8062C183.978 49.8062 184.748 50.8235 184.803 50.9198L185.503 51.9783C185.503 51.9783 185.833 53.4355 185.655 53.4355C185.476 53.4355 183.869 50.5761 183.772 51.071C183.676 51.5659 184.679 53.2293 184.775 53.5592C184.871 53.8892 185.16 56.3087 185.352 57.9858C185.352 58.4945 185.751 58.8932 185.682 59.1543L181.753 75.651C181.753 75.651 178.689 80.1051 177.81 81.2599C176.931 82.4146 174.843 85.5628 174.843 85.5628L179.995 88.6284L187.344 76.5858C187.344 76.5858 188.897 57.5322 188.924 57.5184L188.691 52.6794Z" fill="#E2A290"/>
<path d="M137.132 155.784C136.832 157.749 136.676 159.734 136.665 161.722C136.665 161.97 136.761 163.097 136.775 163.235C134.661 164.231 132.411 164.907 130.098 165.242C130.772 164.032 132.077 164.128 132.255 163.62C132.403 161.32 132.264 159.011 131.843 156.746C133.684 157.2 135.305 156.306 137.132 155.839" fill="#E2A290"/>
<path d="M158.467 164.032C159.005 165.781 159.718 167.472 160.597 169.077C160.679 169.215 161.338 169.655 161.421 169.792C159.759 172.005 159.237 175.511 157.135 177.188C157.135 175.813 157.931 173.201 157.849 172.665C156.947 170.509 155.774 168.477 154.36 166.616C156.214 166.231 157.039 165.242 158.481 164.032" fill="#E2A290"/>
<path d="M160.116 170.081C160.164 169.925 160.243 169.781 160.347 169.656C160.452 169.531 160.58 169.428 160.724 169.353C160.868 169.277 161.026 169.231 161.188 169.217C161.35 169.203 161.513 169.221 161.668 169.27C162.286 169.586 163.111 169.916 163.729 170.259C164.347 170.603 164.512 171.139 164.498 171.249C164.498 171.579 158.426 181.037 156.008 181.532C155.019 181.738 156.654 173.779 157.684 172.94C158.715 172.102 159.154 172.844 160.061 170.053" fill="#363644"/>
<path d="M136.115 162.561C136.261 162.485 136.421 162.438 136.585 162.424C136.749 162.409 136.915 162.428 137.072 162.478C137.229 162.527 137.374 162.608 137.5 162.714C137.626 162.82 137.73 162.951 137.805 163.097C138.011 163.757 138.327 164.554 138.506 165.214C138.584 165.417 138.607 165.637 138.574 165.852C138.54 166.067 138.45 166.269 138.313 166.438C138.052 166.658 125.647 168.252 124.795 167.702C123.944 167.153 130.936 162.767 132.283 162.891C133.629 163.015 133.382 163.839 136.088 162.533" fill="#363644"/>
<path d="M157.67 117.992L170.447 121.979L154.428 134.09L138.877 136.909C138.877 136.909 137.682 151.316 137.585 157.048C135.626 157.899 133.512 158.339 131.376 158.341C130.208 150.381 129.027 133.953 130.442 131.423C131.664 129.251 157.657 117.992 157.657 117.992" fill="#8080A4"/>
<path d="M160.94 119.903C161.407 118.695 161.667 117.417 161.709 116.123L169.952 121.8L172.384 123.175C172.384 123.175 172.878 129.169 169.76 132.798C166.641 136.427 151.901 146.106 151.901 146.106C151.901 146.106 157.121 159.578 159.553 164.609C158.144 166.205 156.398 167.469 154.442 168.307C152.217 164.678 140.196 148.099 140.704 144.415C141.116 141.665 160.267 121.168 160.94 119.903Z" fill="#AEAEDA"/>
<path d="M175.598 83.267C175.598 83.267 170.873 87.9548 168.194 89.0683C167.354 89.3942 166.484 89.6382 165.597 89.7969C162.85 89.9481 155.912 83.3082 155.912 83.3082C155.912 83.3082 152.134 88.4222 152.162 89.1645C152.189 89.9069 156.503 94.1135 156.764 95.722C157.602 100.712 156.228 118.226 156.228 118.226C159.951 121.127 172.59 123.588 172.59 123.588C172.59 123.588 175.337 96.588 175.557 96.3956C177.658 93.821 179.521 91.0601 181.121 88.1472C181.437 86.7725 175.626 83.2807 175.626 83.2807" fill="#A5753E"/>
<path d="M164.8 87.5011L164.168 90.0856C164.168 90.0856 164.031 92.3264 165.061 92.5326C166.325 92.7663 168.18 90.8967 168.18 90.8967L169.265 83.6244L164.8 87.5011Z" fill="#E2A290"/>
<path d="M169.251 83.6519L164.8 87.5011L164.32 89.4257C165.584 88.9956 166.71 88.2324 167.578 87.2164C168.446 86.2003 169.024 84.969 169.251 83.6519Z" fill="#D7735A"/>
<path d="M164.786 76.9707C164.243 76.984 163.718 77.1658 163.282 77.4908C162.847 77.8159 162.523 78.2682 162.355 78.7854C161.927 80.0027 161.601 81.2534 161.379 82.5246C160.912 85.2741 162.506 87.8723 163.88 88.0235C165.206 88.0764 166.503 87.6231 167.508 86.7553C168.513 85.8875 169.151 84.6701 169.293 83.3494C169.609 81.6448 170.021 79.4315 168.619 78.263C167.527 77.3876 166.172 76.9036 164.773 76.8882" fill="#E2A290"/>
<path d="M168.853 86.4151C168.853 86.4151 173.73 82.0709 173.936 78.6754C174.142 75.2798 171.01 73.4514 168.331 73.3552C167.234 73.3137 166.135 73.369 165.048 73.5202C162.3 73.8639 160.624 75.0599 161.229 77.2594C162.053 80.2151 167.63 77.7268 168.771 78.6341C169.911 79.5415 168.194 81.2186 169.1 81.906C170.007 82.5933 169.526 82.3459 169.238 83.5831C169.048 84.5177 168.92 85.4637 168.853 86.4151Z" fill="#363644"/>
<path d="M170.721 82.4834C170.612 83.2945 170.103 83.8581 169.622 83.8581C169.142 83.8581 168.826 83.0745 168.949 82.2634C169.073 81.4523 169.567 80.8887 170.048 80.8887C170.529 80.8887 170.845 81.686 170.721 82.4971" fill="#E2A290"/>
<path d="M146.955 57.6009C147.478 58.2616 147.832 59.0403 147.985 59.8692C147.946 60.5069 147.763 61.1275 147.449 61.6838L145.32 60.0754C145.704 59.8662 146.072 59.6272 146.419 59.3605C146.666 59.0993 146.048 58.1783 146.213 57.8071C146.378 57.4359 146.694 57.2297 146.955 57.6009Z" fill="#E2A290"/>
</g>
<defs>
<clipPath id="clip0_1_1243">
<rect width="225" height="186" fill="white"/>
</clipPath>
</defs>
</svg>
