<svg width="190" height="186" viewBox="0 0 190 186" fill="none" xmlns="http://www.w3.org/2000/svg">
<mask id="mask0_1_1032" style="mask-type:luminance" maskUnits="userSpaceOnUse" x="0" y="0" width="190" height="186">
<path d="M189.521 0H0V185.315H189.521V0Z" fill="white"/>
</mask>
<g mask="url(#mask0_1_1032)">
<path d="M184.313 101.903C178.927 118.27 167.32 136.144 150.245 142.034C124.447 150.841 122.137 172.043 75.3001 171.906C68.4645 171.917 61.6481 171.182 54.9713 169.715C51.7251 168.983 48.5287 168.046 45.4016 166.907C17.663 156.895 2.47451 133.049 0.287147 107.573C-2.5701 74.0576 20.1922 57.156 35.0252 47.1985C49.8583 37.2411 66.7694 0.232846 112.813 3.14554e-06C119.844 -0.0545784 126.857 0.699096 133.716 2.24625C149.342 5.83476 165.433 14.5047 175.085 27.722C175.823 28.7081 176.52 29.7216 177.177 30.7626C190.205 51.0884 191.695 79.6184 184.354 101.903" fill="#F6EFDF"/>
<g opacity="0.7">
<mask id="mask1_1_1032" style="mask-type:luminance" maskUnits="userSpaceOnUse" x="0" y="0" width="189" height="172">
<path d="M188.715 0H0V171.906H188.715V0Z" fill="white"/>
</mask>
<g mask="url(#mask1_1_1032)">
<path d="M184.313 101.903C178.927 118.27 167.32 136.144 150.245 142.034C124.447 150.841 122.137 172.043 75.3001 171.906C68.4645 171.917 61.6481 171.182 54.9713 169.715C51.7251 168.983 48.5287 168.046 45.4016 166.907C17.663 156.895 2.47451 133.049 0.287147 107.573C-2.5701 74.0576 20.1922 57.156 35.0252 47.1985C49.8583 37.2411 66.7694 0.232846 112.813 3.14554e-06C119.844 -0.0545784 126.857 0.699096 133.716 2.24625C149.342 5.83476 165.433 14.5047 175.085 27.722C175.823 28.7081 176.52 29.7216 177.177 30.7626C190.205 51.0884 191.695 79.6184 184.354 101.903" fill="#EFE5D9"/>
</g>
</g>
</g>
<mask id="mask2_1_1032" style="mask-type:luminance" maskUnits="userSpaceOnUse" x="0" y="0" width="190" height="186">
<path d="M189.521 0H0V185.315H189.521V0Z" fill="white"/>
</mask>
<g mask="url(#mask2_1_1032)">
<path d="M189.316 185.123H3.84155" stroke="#2E353A" stroke-linecap="round" stroke-linejoin="round"/>
<path d="M115.807 14.4911V151.923C115.807 153.739 115.087 155.481 113.805 156.765C112.523 158.05 110.785 158.771 108.972 158.771H49.7215C47.9086 158.771 46.17 158.05 44.8881 156.765C43.6061 155.481 42.886 153.739 42.886 151.923V14.4911C42.886 12.6748 43.6061 10.9329 44.8881 9.64856C46.17 8.36426 47.9086 7.64275 49.7215 7.64275H75.1633V7.71123C75.8058 9.99857 77.255 11.4915 78.8818 11.4915H79.8115C81.4246 11.4915 82.8874 9.99857 83.5163 7.71123V7.64275H108.944C110.757 7.64275 112.496 8.36426 113.778 9.64856C115.06 10.9329 115.78 12.6748 115.78 14.4911" fill="white"/>
<path d="M115.807 14.4911V151.923C115.807 153.739 115.087 155.481 113.805 156.765C112.523 158.05 110.785 158.771 108.972 158.771H49.7215C47.9086 158.771 46.17 158.05 44.8881 156.765C43.6061 155.481 42.886 153.739 42.886 151.923V14.4911C42.886 12.6748 43.6061 10.9329 44.8881 9.64856C46.17 8.36426 47.9086 7.64275 49.7215 7.64275H75.1633V7.71123C75.8058 9.99857 77.255 11.4915 78.8818 11.4915H79.8115C81.4246 11.4915 82.8874 9.99857 83.5163 7.71123V7.64275H108.944C110.757 7.64275 112.496 8.36426 113.778 9.64856C115.06 10.9329 115.78 12.6748 115.78 14.4911H115.807Z" stroke="#2E353A" stroke-miterlimit="10"/>
<path d="M90.5569 105.245H69.4078C68.8954 105.241 68.4051 105.035 68.044 104.67C67.6829 104.306 67.4802 103.813 67.4802 103.3V99.3416C67.4802 98.8294 67.6833 98.3382 68.0448 97.976C68.4063 97.6138 68.8966 97.4103 69.4078 97.4103H90.5569C90.8101 97.4103 91.0607 97.4603 91.2946 97.5573C91.5285 97.6544 91.741 97.7967 91.9199 97.976C92.0989 98.1553 92.241 98.3682 92.3378 98.6025C92.4347 98.8368 92.4846 99.088 92.4846 99.3416V103.272C92.4846 103.786 92.2819 104.279 91.9208 104.643C91.5597 105.007 91.0694 105.214 90.5569 105.217" fill="#A5753E"/>
<path d="M42.9133 115.997V151.923C42.9133 153.739 43.6335 155.481 44.9154 156.765C46.1973 158.05 47.936 158.771 49.7488 158.771H109.026C110.839 158.771 112.578 158.05 113.86 156.765C115.142 155.481 115.862 153.739 115.862 151.923V115.997H42.9133Z" fill="#D9D9D9"/>
<path d="M42.9133 115.997V151.923C42.9133 153.739 43.6335 155.481 44.9154 156.765C46.1973 158.05 47.936 158.771 49.7488 158.771H109.026C110.839 158.771 112.578 158.05 113.86 156.765C115.142 155.481 115.862 153.739 115.862 151.923V115.997H42.9133Z" stroke="#2E353A" stroke-linecap="round" stroke-linejoin="round"/>
<path d="M65.115 127.064H46.9326C46.692 127.06 46.4625 126.962 46.2937 126.79C46.1249 126.618 46.0302 126.387 46.0303 126.146V121.256C46.0303 121.016 46.1253 120.786 46.2946 120.617C46.4638 120.447 46.6933 120.352 46.9326 120.352H65.115C65.3543 120.352 65.5838 120.447 65.7531 120.617C65.9223 120.786 66.0173 121.016 66.0173 121.256V126.16C66.0173 126.401 65.9227 126.632 65.7539 126.804C65.5851 126.975 65.3556 127.074 65.115 127.077" fill="white"/>
<path d="M87.481 127.063H69.3122C69.0693 127.063 68.8363 126.967 68.6645 126.795C68.4927 126.623 68.3962 126.389 68.3962 126.146V121.256C68.3962 121.136 68.42 121.018 68.4662 120.907C68.5124 120.796 68.5801 120.696 68.6653 120.612C68.7506 120.528 68.8516 120.462 68.9627 120.417C69.0738 120.372 69.1926 120.35 69.3122 120.352H87.481C87.6 120.35 87.7182 120.372 87.8285 120.417C87.9388 120.462 88.039 120.529 88.1231 120.613C88.2073 120.697 88.2737 120.798 88.3183 120.908C88.363 121.019 88.3851 121.137 88.3833 121.256V126.16C88.3851 126.279 88.3631 126.398 88.3186 126.51C88.274 126.621 88.2078 126.722 88.1239 126.808C88.0399 126.893 87.9398 126.961 87.8295 127.007C87.7191 127.053 87.6007 127.077 87.481 127.077" fill="white"/>
<path d="M109.847 127.063H91.6779C91.5577 127.063 91.4385 127.04 91.3274 126.994C91.2163 126.948 91.1153 126.88 91.0302 126.795C90.9452 126.71 90.8777 126.608 90.8317 126.497C90.7856 126.386 90.762 126.266 90.762 126.146V121.256C90.7619 121.136 90.7857 121.018 90.8319 120.907C90.8781 120.796 90.9458 120.696 91.0311 120.612C91.1163 120.528 91.2174 120.462 91.3284 120.417C91.4395 120.372 91.5583 120.35 91.6779 120.352H109.847C109.966 120.35 110.084 120.372 110.194 120.417C110.305 120.462 110.405 120.529 110.489 120.613C110.573 120.697 110.639 120.798 110.684 120.908C110.729 121.019 110.751 121.137 110.749 121.256V126.16C110.751 126.279 110.729 126.398 110.684 126.51C110.64 126.621 110.574 126.722 110.49 126.808C110.406 126.893 110.306 126.961 110.195 127.007C110.085 127.053 109.966 127.077 109.847 127.077" fill="white"/>
<path d="M65.115 135.651H46.9326C46.8141 135.651 46.6967 135.628 46.5873 135.582C46.4778 135.537 46.3783 135.47 46.2946 135.387C46.2108 135.303 46.1443 135.203 46.0989 135.093C46.0536 134.984 46.0303 134.866 46.0303 134.747V129.844C46.0302 129.603 46.1249 129.372 46.2937 129.2C46.4625 129.028 46.692 128.93 46.9326 128.926H65.115C65.3556 128.93 65.5851 129.028 65.7539 129.2C65.9227 129.372 66.0173 129.603 66.0173 129.844V134.747C66.0173 134.866 65.994 134.984 65.9486 135.093C65.9033 135.203 65.8368 135.303 65.7531 135.387C65.6693 135.47 65.5698 135.537 65.4603 135.582C65.3509 135.628 65.2335 135.651 65.115 135.651Z" fill="white"/>
<path d="M87.481 135.651H69.3122C69.1926 135.653 69.0738 135.631 68.9627 135.586C68.8516 135.542 68.7506 135.476 68.6653 135.391C68.5801 135.307 68.5124 135.207 68.4662 135.096C68.42 134.986 68.3962 134.867 68.3962 134.747V129.844C68.3962 129.601 68.4927 129.367 68.6645 129.195C68.8363 129.023 69.0693 128.926 69.3122 128.926H87.481C87.6007 128.926 87.7191 128.95 87.8295 128.996C87.9398 129.043 88.0399 129.11 88.1239 129.196C88.2078 129.281 88.274 129.383 88.3186 129.494C88.3631 129.605 88.3851 129.724 88.3833 129.844V134.747C88.3851 134.867 88.363 134.985 88.3183 135.095C88.2737 135.206 88.2073 135.306 88.1231 135.391C88.039 135.475 87.9388 135.541 87.8285 135.586C87.7182 135.631 87.6 135.653 87.481 135.651Z" fill="white"/>
<path d="M109.847 135.651H91.6779C91.5583 135.653 91.4395 135.631 91.3284 135.586C91.2174 135.542 91.1163 135.476 91.0311 135.391C90.9458 135.307 90.8781 135.207 90.8319 135.096C90.7857 134.986 90.7619 134.867 90.762 134.747V129.844C90.762 129.723 90.7856 129.604 90.8317 129.493C90.8777 129.381 90.9452 129.28 91.0302 129.195C91.1153 129.11 91.2163 129.042 91.3274 128.996C91.4385 128.95 91.5577 128.926 91.6779 128.926H109.847C109.966 128.926 110.085 128.95 110.195 128.996C110.306 129.043 110.406 129.11 110.49 129.196C110.574 129.281 110.64 129.383 110.684 129.494C110.729 129.605 110.751 129.724 110.749 129.844V134.747C110.751 134.867 110.729 134.985 110.684 135.095C110.639 135.206 110.573 135.306 110.489 135.391C110.405 135.475 110.305 135.541 110.194 135.586C110.084 135.631 109.966 135.653 109.847 135.651Z" fill="white"/>
<path d="M65.115 144.253H46.9326C46.6944 144.249 46.4669 144.153 46.2985 143.984C46.13 143.815 46.0338 143.587 46.0303 143.349V138.432C46.0338 138.193 46.13 137.965 46.2985 137.796C46.4669 137.628 46.6944 137.531 46.9326 137.528H65.115C65.3532 137.531 65.5807 137.628 65.7491 137.796C65.9176 137.965 66.0138 138.193 66.0173 138.432V143.349C66.0138 143.587 65.9176 143.815 65.7491 143.984C65.5807 144.153 65.3532 144.249 65.115 144.253Z" fill="white"/>
<path d="M87.481 144.253H69.3122C69.0716 144.253 68.8407 144.158 68.6693 143.989C68.4979 143.82 68.3998 143.59 68.3962 143.349V138.432C68.3998 138.191 68.4979 137.961 68.6693 137.792C68.8407 137.622 69.0716 137.528 69.3122 137.528H87.481C87.7203 137.528 87.9498 137.623 88.119 137.792C88.2882 137.962 88.3833 138.192 88.3833 138.432V143.349C88.3833 143.589 88.2882 143.818 88.119 143.988C87.9498 144.157 87.7203 144.253 87.481 144.253Z" fill="white"/>
<path d="M109.847 144.253H91.6779C91.4374 144.253 91.2064 144.158 91.035 143.989C90.8636 143.82 90.7656 143.59 90.762 143.349V138.432C90.7656 138.191 90.8636 137.961 91.035 137.792C91.2064 137.622 91.4374 137.528 91.6779 137.528H109.847C109.965 137.528 110.083 137.551 110.192 137.597C110.301 137.642 110.401 137.709 110.485 137.792C110.569 137.876 110.635 137.976 110.68 138.086C110.726 138.195 110.749 138.313 110.749 138.432V143.349C110.749 143.467 110.726 143.585 110.68 143.695C110.635 143.804 110.569 143.904 110.485 143.988C110.401 144.072 110.301 144.138 110.192 144.184C110.083 144.229 109.965 144.253 109.847 144.253Z" fill="white"/>
<path d="M87.481 152.854H69.3122C69.0693 152.854 68.8363 152.758 68.6645 152.585C68.4927 152.413 68.3962 152.18 68.3962 151.937V147.033C68.3962 146.79 68.4927 146.556 68.6645 146.384C68.8363 146.212 69.0693 146.115 69.3122 146.115H87.481C87.6007 146.115 87.7191 146.139 87.8295 146.186C87.9398 146.232 88.0399 146.3 88.1239 146.385C88.2079 146.47 88.274 146.572 88.3186 146.683C88.3631 146.794 88.3851 146.913 88.3833 147.033V151.937C88.3851 152.056 88.3631 152.175 88.3186 152.287C88.274 152.398 88.2079 152.499 88.1239 152.585C88.0399 152.67 87.9398 152.738 87.8295 152.784C87.7191 152.83 87.6007 152.854 87.481 152.854Z" fill="white"/>
<path d="M108.343 152.854H95.8748L93.1406 149.718L95.8748 146.115H108.343V152.854Z" fill="white"/>
<path d="M80.1532 38.7888L79.9755 38.6519L79.7978 38.7888C79.7978 38.7888 70.6108 44.021 66.4685 46.007C66.4685 46.007 68.4508 57.1971 69.8863 62.2511C71.3217 67.3052 76.9132 70.0171 79.9755 71.8388C83.0378 70.0308 88.6156 67.3189 90.0647 62.2511C91.5138 57.1834 93.4825 46.007 93.4825 46.007C89.3811 44.021 80.1532 38.7888 80.1532 38.7888Z" fill="#A5753E"/>
<path d="M79.0321 60.4295L72.9485 55.1974C72.6639 54.9595 72.4853 54.618 72.452 54.2481C72.4186 53.8782 72.5333 53.5102 72.7708 53.2251C73.0083 52.9399 73.3491 52.761 73.7183 52.7276C74.0875 52.6942 74.4548 52.8091 74.7394 53.047L78.7314 56.4712L85.5669 48.6641C85.6888 48.5261 85.8373 48.4141 86.0034 48.3349C86.1696 48.2558 86.3499 48.211 86.5337 48.2033C86.7176 48.1957 86.901 48.2252 87.0732 48.2903C87.2453 48.3554 87.4025 48.4545 87.5355 48.5819C87.8091 48.82 87.9772 49.1571 88.0028 49.5192C88.0285 49.8813 87.9095 50.2388 87.6722 50.5132L79.0321 60.4295Z" fill="white"/>
<path d="M64.3359 86.3709H63.0371C62.1126 86.3709 61.2258 86.0029 60.5721 85.3479C59.9183 84.6929 59.551 83.8045 59.551 82.8782V81.536C59.551 80.6084 59.9179 79.7186 60.5712 79.0614C61.2246 78.4043 62.1113 78.0333 63.0371 78.0296H64.3359C65.2641 78.0296 66.1543 78.399 66.8106 79.0566C67.4669 79.7142 67.8357 80.606 67.8357 81.536V82.9056C67.8321 83.8332 67.4617 84.7215 66.8058 85.3761C66.1498 86.0307 65.2617 86.3983 64.3359 86.3983" fill="white"/>
<path d="M67.822 82.2345C67.822 79.9425 65.9674 78.0844 63.6797 78.0844C61.3919 78.0844 59.5374 79.9425 59.5374 82.2345C59.5374 84.5265 61.3919 86.3846 63.6797 86.3846C65.9674 86.3846 67.822 84.5265 67.822 82.2345Z" stroke="#2E353A" stroke-miterlimit="10"/>
<path d="M75.5051 86.3709H74.2063C73.7485 86.3709 73.2952 86.2805 72.8723 86.105C72.4493 85.9295 72.065 85.6722 71.7413 85.3479C71.4176 85.0236 71.1608 84.6385 70.9856 84.2148C70.8104 83.7911 70.7202 83.3369 70.7202 82.8782V81.536C70.7202 80.6084 71.0871 79.7186 71.7405 79.0614C72.3938 78.4043 73.2805 78.0333 74.2063 78.0296H75.5051C76.4333 78.0296 77.3235 78.399 77.9798 79.0566C78.6361 79.7142 79.0049 80.606 79.0049 81.536V82.9056C79.0012 83.8332 78.6309 84.7215 77.975 85.3761C77.319 86.0307 76.4309 86.3983 75.5051 86.3983" fill="white"/>
<path d="M78.9912 82.2345C78.9912 79.9425 77.1366 78.0844 74.8489 78.0844C72.5611 78.0844 70.7065 79.9425 70.7065 82.2345C70.7065 84.5265 72.5611 86.3846 74.8489 86.3846C77.1366 86.3846 78.9912 84.5265 78.9912 82.2345Z" stroke="#2E353A" stroke-miterlimit="10"/>
<path d="M86.6743 86.3709H85.3892C84.4717 86.3673 83.5926 86.0015 82.9426 85.3528C82.2925 84.7041 81.9239 83.8248 81.9167 82.9056V81.536C81.9167 80.606 82.2855 79.7142 82.9418 79.0566C83.5982 78.399 84.4883 78.0296 85.4165 78.0296H86.7016C87.6155 78.0511 88.4848 78.43 89.1235 79.0852C89.7622 79.7405 90.1196 80.6201 90.1194 81.536V82.9056C90.1194 83.3654 90.0287 83.8207 89.8527 84.2454C89.6766 84.67 89.4187 85.0557 89.0935 85.3802C88.7683 85.7047 88.3824 85.9616 87.9579 86.1363C87.5333 86.311 87.0785 86.4001 86.6196 86.3983" fill="white"/>
<path d="M90.174 82.2345C90.174 79.9425 88.3195 78.0844 86.0317 78.0844C83.744 78.0844 81.8894 79.9425 81.8894 82.2345C81.8894 84.5265 83.744 86.3846 86.0317 86.3846C88.3195 86.3846 90.174 84.5265 90.174 82.2345Z" stroke="#2E353A" stroke-miterlimit="10"/>
<path d="M97.8574 86.3709H96.4903C95.5644 86.3709 94.6763 86.0033 94.0204 85.3487C93.3644 84.6941 92.9941 83.8058 92.9905 82.8782V81.536C92.9905 80.606 93.3592 79.7142 94.0155 79.0566C94.6719 78.399 95.5621 78.0296 96.4903 78.0296H97.8574C98.7832 78.0333 99.6699 78.4043 100.323 79.0614C100.977 79.7186 101.343 80.6084 101.343 81.536V82.9056C101.343 83.3643 101.253 83.8185 101.078 84.2422C100.903 84.6659 100.646 85.051 100.322 85.3753C99.9987 85.6996 99.6144 85.9569 99.1914 86.1324C98.7685 86.3079 98.3152 86.3983 97.8574 86.3983" fill="white"/>
<path d="M97.2009 78.0707C98.2887 78.0707 99.3319 78.5036 100.101 79.2742C100.87 80.0448 101.302 81.09 101.302 82.1797C101.302 83.2695 100.87 84.3146 100.101 85.0852C99.3319 85.8558 98.2887 86.2887 97.2009 86.2887C96.1132 86.2887 95.07 85.8558 94.3009 85.0852C93.5317 84.3146 93.0996 83.2695 93.0996 82.1797C93.0996 81.09 93.5317 80.0448 94.3009 79.2742C95.07 78.5036 96.1132 78.0707 97.2009 78.0707Z" stroke="#2E353A" stroke-miterlimit="10"/>
<path d="M115.807 20.8874V14.4911C115.807 12.6748 115.087 10.9329 113.805 9.64856C112.523 8.36426 110.785 7.64275 108.972 7.64275H83.5436V7.71123C82.9011 9.99857 81.452 11.4915 79.8251 11.4915H78.8955C77.2823 11.4915 75.8195 9.99857 75.1906 7.71123V7.64275H49.7215C47.9086 7.64275 46.17 8.36426 44.8881 9.64856C43.6061 10.9329 42.886 12.6748 42.886 14.4911V20.8874H115.807Z" fill="#D9D9D9"/>
<path d="M115.807 20.8874V14.4911C115.807 12.6748 115.087 10.9329 113.805 9.64856C112.523 8.36426 110.785 7.64275 108.972 7.64275H83.5436V7.71123C82.9011 9.99857 81.452 11.4915 79.8251 11.4915H78.8955C77.2823 11.4915 75.8195 9.99857 75.1906 7.71123V7.64275H49.7215C47.9086 7.64275 46.17 8.36426 44.8881 9.64856C43.6061 10.9329 42.886 12.6748 42.886 14.4911V20.8874H115.807Z" stroke="#2E353A" stroke-linecap="round" stroke-linejoin="round"/>
<path d="M120.442 47.2944V33.5978H119.211V16.0251C119.211 13.1517 118.072 10.396 116.044 8.36425C114.016 6.33248 111.266 5.19104 108.398 5.19104H50.3231C47.4551 5.19104 44.7045 6.33248 42.6766 8.36425C40.6486 10.396 39.5093 13.1517 39.5093 16.0251V155.648C39.5093 158.522 40.6486 161.277 42.6766 163.309C44.7045 165.341 47.4551 166.482 50.3231 166.482H108.398C111.266 166.482 114.016 165.341 116.044 163.309C118.072 161.277 119.211 158.522 119.211 155.648V59.0187H120.442V50.9103H119.211V47.2944H120.442ZM115.807 147.882C115.807 149.305 115.528 150.714 114.984 152.028C114.441 153.343 113.644 154.537 112.64 155.543C111.636 156.549 110.444 157.347 109.132 157.892C107.82 158.436 106.414 158.716 104.994 158.716H53.7272C52.3071 158.716 50.9009 158.436 49.5889 157.892C48.2769 157.347 47.0848 156.549 46.0807 155.543C45.0765 154.537 44.28 153.343 43.7365 152.028C43.1931 150.714 42.9134 149.305 42.9134 147.882V18.5315C42.917 15.6606 44.0579 12.9084 46.0855 10.8796C48.1131 8.85079 50.8615 7.71123 53.7272 7.71123H75.1633V7.7797C75.8059 10.067 77.255 11.56 78.8819 11.56H79.8115C81.4247 11.56 82.8875 10.067 83.5164 7.7797V7.71123H104.953C107.818 7.71123 110.567 8.85079 112.594 10.8796C114.622 12.9084 115.763 15.6606 115.766 18.5315L115.807 147.882Z" fill="#9F8C4A"/>
<path d="M120.442 47.2944V33.5978H119.211V16.0251C119.211 13.1517 118.072 10.396 116.044 8.36425C114.016 6.33248 111.266 5.19104 108.398 5.19104H50.3231C47.4551 5.19104 44.7045 6.33248 42.6766 8.36425C40.6486 10.396 39.5093 13.1517 39.5093 16.0251V155.648C39.5093 158.522 40.6486 161.277 42.6766 163.309C44.7045 165.341 47.4551 166.482 50.3231 166.482H108.398C111.266 166.482 114.016 165.341 116.044 163.309C118.072 161.277 119.211 158.522 119.211 155.648V59.0187H120.442V50.9103H119.211V47.2944H120.442ZM115.807 147.882C115.807 149.305 115.528 150.714 114.984 152.028C114.441 153.343 113.644 154.537 112.64 155.543C111.636 156.549 110.444 157.347 109.132 157.892C107.82 158.436 106.414 158.716 104.994 158.716H53.7272C52.3071 158.716 50.9009 158.436 49.5889 157.892C48.2769 157.347 47.0848 156.549 46.0807 155.543C45.0765 154.537 44.28 153.343 43.7365 152.028C43.1931 150.714 42.9134 149.305 42.9134 147.882V18.5315C42.917 15.6606 44.0579 12.9084 46.0855 10.8796C48.1131 8.85079 50.8615 7.71123 53.7272 7.71123H75.1633V7.7797C75.8059 10.067 77.255 11.56 78.8819 11.56H79.8115C81.4247 11.56 82.8875 10.067 83.5164 7.7797V7.71123H104.953C107.818 7.71123 110.567 8.85079 112.594 10.8796C114.622 12.9084 115.763 15.6606 115.766 18.5315L115.807 147.882Z" stroke="black" stroke-miterlimit="10"/>
<path d="M107.523 6.68399H51.1843C49.8128 6.68398 48.4548 6.95528 47.1882 7.48235C45.9216 8.00941 44.7714 8.78186 43.8036 9.75536C42.8357 10.7289 42.0692 11.8843 41.5481 13.1553C41.027 14.4263 40.7615 15.7879 40.7669 17.1619V154.539C40.7651 155.911 41.0333 157.269 41.556 158.537C42.0787 159.805 42.8457 160.957 43.8133 161.928C44.7808 162.898 45.9298 163.668 47.1946 164.194C48.4593 164.719 49.8151 164.989 51.1843 164.989H107.523C108.893 164.991 110.25 164.722 111.516 164.198C112.783 163.673 113.933 162.903 114.902 161.933C115.871 160.962 116.64 159.809 117.163 158.54C117.687 157.272 117.955 155.912 117.954 154.539V17.1619C117.954 15.7902 117.684 14.4319 117.159 13.1647C116.635 11.8976 115.866 10.7464 114.898 9.7771C113.929 8.80777 112.779 8.03929 111.513 7.5156C110.248 6.9919 108.892 6.72328 107.523 6.72508M115.807 148.348C115.807 149.72 115.537 151.078 115.013 152.345C114.489 153.612 113.72 154.764 112.751 155.733C111.782 156.702 110.632 157.471 109.367 157.994C108.102 158.518 106.745 158.787 105.376 158.785H53.3306C51.9621 158.787 50.6066 158.518 49.3419 157.994C48.0772 157.47 46.9281 156.702 45.9604 155.732C44.9927 154.762 44.2255 153.611 43.7026 152.344C43.1797 151.077 42.9115 149.719 42.9133 148.348V18.107C42.9133 16.7364 43.1827 15.3792 43.7063 14.113C44.2298 12.8467 44.9971 11.6962 45.9644 10.727C46.9318 9.75787 48.0802 8.9891 49.3441 8.4646C50.608 7.9401 51.9626 7.67015 53.3306 7.67015H75.2043V7.73861C75.8468 10.0259 77.2959 11.5189 78.9228 11.5189H79.8524C81.4656 11.5189 82.9284 10.0259 83.5573 7.73861V7.67015H105.431C106.8 7.66835 108.156 7.93697 109.422 8.46067C110.687 8.98436 111.837 9.75284 112.806 10.7222C113.775 11.6915 114.543 12.8426 115.068 14.1098C115.592 15.3769 115.862 16.7352 115.862 18.107L115.807 148.348Z" fill="#2E353A"/>
<path d="M107.523 6.684H51.1843C49.8128 6.68399 48.4548 6.95529 47.1882 7.48236C45.9217 8.00942 44.7714 8.78187 43.8036 9.75537C42.8357 10.7289 42.0692 11.8843 41.5481 13.1553C41.027 14.4263 40.7615 15.7879 40.7669 17.1619V154.539C40.7651 155.911 41.0333 157.269 41.556 158.537C42.0787 159.805 42.8457 160.957 43.8133 161.928C44.7808 162.898 45.9298 163.668 47.1946 164.194C48.4593 164.719 49.8151 164.989 51.1843 164.989H107.523C108.893 164.991 110.25 164.722 111.516 164.198C112.783 163.673 113.933 162.903 114.902 161.933C115.871 160.962 116.64 159.809 117.163 158.54C117.687 157.272 117.955 155.912 117.954 154.539V17.1619C117.959 15.7867 117.693 14.424 117.171 13.1521C116.649 11.8802 115.881 10.7242 114.912 9.75052C113.943 8.77684 112.791 8.00466 111.523 7.47841C110.255 6.95215 108.895 6.68218 107.523 6.684ZM115.807 148.307C115.807 149.679 115.537 151.037 115.013 152.304C114.489 153.571 113.72 154.722 112.751 155.692C111.782 156.661 110.632 157.43 109.367 157.953C108.102 158.477 106.745 158.746 105.376 158.744H53.3306C51.9621 158.746 50.6066 158.477 49.3419 157.953C48.0772 157.429 46.9281 156.66 45.9604 155.691C44.9927 154.721 44.2255 153.57 43.7026 152.303C43.1797 151.036 42.9115 149.678 42.9133 148.307V18.107C42.9133 16.7364 43.1827 15.3792 43.7063 14.113C44.2298 12.8467 44.9971 11.6962 45.9644 10.727C46.9318 9.75788 48.0802 8.9891 49.3441 8.46461C50.608 7.94011 51.9626 7.67016 53.3306 7.67016H75.2043V7.73862C75.8468 10.026 77.2959 11.5189 78.9228 11.5189H79.8524C81.4656 11.5189 82.9284 10.026 83.5573 7.73862V7.67016H105.431C106.8 7.66836 108.156 7.93698 109.422 8.46068C110.687 8.98437 111.837 9.75285 112.806 10.7222C113.775 11.6915 114.543 12.8427 115.068 14.1098C115.592 15.3769 115.862 16.7352 115.862 18.107L115.807 148.307Z" stroke="#2E353A" stroke-linecap="round" stroke-linejoin="round"/>
<path d="M80.1532 8.19061C80.1532 7.92052 80.0471 7.66129 79.8577 7.46903C79.6684 7.27678 79.4111 7.16696 79.1415 7.16336C78.8707 7.16691 78.612 7.27627 78.4204 7.46816C78.2289 7.66004 78.1198 7.91927 78.1162 8.19061C78.1198 8.46067 78.2294 8.71845 78.4213 8.90814C78.6132 9.09784 78.872 9.20419 79.1415 9.20416C79.2744 9.20416 79.4059 9.17794 79.5287 9.127C79.6514 9.07607 79.7629 9.00143 79.8569 8.90731C79.9508 8.81319 80.0253 8.70145 80.0762 8.57848C80.127 8.45551 80.1532 8.32371 80.1532 8.19061Z" fill="white"/>
<path d="M49.3935 12.0804C49.3935 13.1077 48.2314 13.4501 48.2314 14.2582V14.3267H49.3524V14.6691H47.8623V14.4226C47.8623 13.3268 49.0107 13.0529 49.0107 12.1489C49.0107 11.8065 48.8876 11.6148 48.6142 11.6148C48.3408 11.6148 48.2178 11.8202 48.2178 12.1215V12.4228H47.8623V12.1489C47.8623 11.6284 48.0947 11.2723 48.6142 11.2723C49.1337 11.2723 49.3935 11.6148 49.3935 12.1352" fill="#2E353A"/>
<path d="M51.2526 12.0804V12.1626C51.2673 12.3076 51.2355 12.4536 51.1617 12.5792C51.088 12.7048 50.9761 12.8036 50.8425 12.8611C50.9759 12.9228 51.087 13.0244 51.1605 13.152C51.2339 13.2795 51.2661 13.4268 51.2526 13.5734V13.8336C51.2526 14.3541 51.0065 14.6965 50.487 14.6965C49.9675 14.6965 49.7214 14.3541 49.7214 13.8336V13.6008H50.0769V13.861C50.0769 14.1623 50.1999 14.3541 50.4733 14.3541C50.7468 14.3541 50.8698 14.176 50.8698 13.8199V13.5597C50.8698 13.231 50.7331 13.0666 50.446 13.0529H50.2409V12.7105H50.4733C50.5272 12.7123 50.5809 12.7035 50.6314 12.6845C50.6818 12.6655 50.7281 12.6368 50.7674 12.5999C50.8068 12.563 50.8385 12.5187 50.8608 12.4695C50.883 12.4203 50.8954 12.3673 50.8971 12.3133C50.9036 12.2909 50.9036 12.2672 50.8971 12.2448V12.0941C50.8971 11.738 50.7741 11.56 50.5007 11.56C50.2273 11.56 50.1042 11.7517 50.1042 12.0531V12.2311H49.7488V12.0804C49.7488 11.56 49.9949 11.2176 50.5144 11.2176C51.0339 11.2176 51.2799 11.56 51.2799 12.0804" fill="#2E353A"/>
<path d="M51.9909 12.8064H51.6218V12.3407H51.9909V12.8064ZM51.9909 14.6691H51.6218V14.1897H51.9909V14.6691Z" fill="#2E353A"/>
<path d="M52.7566 12.642C52.8077 12.5533 52.8815 12.4798 52.9704 12.4293C53.0594 12.3787 53.1601 12.3529 53.2624 12.3544C53.6999 12.3544 53.8913 12.6831 53.8913 13.1625V13.8336C53.8913 14.3541 53.6452 14.6965 53.1257 14.6965C52.6062 14.6965 52.3601 14.3541 52.3601 13.8336V13.6145H52.7155V13.861C52.7155 14.176 52.8522 14.3541 53.112 14.3541C53.3717 14.3541 53.5221 14.176 53.5221 13.861V13.2036C53.5221 12.8885 53.3854 12.7105 53.112 12.7105C53.0163 12.7067 52.9229 12.7403 52.8515 12.8042C52.7801 12.868 52.7362 12.9572 52.7292 13.0529V13.1351H52.3738L52.4695 11.2312H53.8366V11.5737H52.8386L52.7566 12.642Z" fill="#2E353A"/>
<path d="M55.7914 12.0667V12.1352H55.436V12.0393C55.436 11.738 55.2993 11.56 55.0258 11.56C54.7524 11.56 54.6157 11.738 54.6157 12.1078V12.8611C54.6566 12.7508 54.7318 12.6566 54.8303 12.5925C54.9288 12.5283 55.0453 12.4977 55.1625 12.505C55.6 12.505 55.7914 12.8201 55.7914 13.3131V13.8336C55.7914 14.3541 55.5317 14.6965 55.0122 14.6965C54.4927 14.6965 54.2329 14.3541 54.2329 13.8336V12.0941C54.2329 11.5463 54.4653 11.2176 55.0122 11.2176C55.559 11.2176 55.7777 11.5463 55.7777 12.0667M54.602 13.3542V13.861C54.602 14.1623 54.7387 14.3541 55.0122 14.3541C55.2856 14.3541 55.4223 14.1623 55.4223 13.861V13.3542C55.4223 13.0392 55.2856 12.8611 55.0122 12.8611C54.7387 12.8611 54.602 13.0392 54.602 13.3542Z" fill="#2E353A"/>
<path d="M92.9768 12.2311H92.0198V14.6417H92.9768V12.2311Z" fill="#2E353A"/>
<path d="M94.248 11.738H93.291V14.628H94.248V11.738Z" fill="#2E353A"/>
<path d="M95.5331 11.3956H94.5762V14.628H95.5331V11.3956Z" fill="#2E353A"/>
<path d="M96.8183 10.8067H95.8613V14.6417H96.8183V10.8067Z" fill="#2E353A"/>
<path d="M108.726 14.5595H102.957V11.0258H108.726V14.5595ZM103.257 14.2445H108.384V11.3545H103.257V14.2445Z" fill="#2E353A"/>
<path d="M106.798 11.7106H103.75V13.9021H106.798V11.7106Z" fill="#2E353A"/>
<path d="M109.245 12.3818H108.521V13.2173H109.245V12.3818Z" fill="#2E353A"/>
<path d="M100.837 13.7925H100.728C100.44 13.5821 100.093 13.4688 99.737 13.4688C99.3807 13.4688 99.0336 13.5821 98.7458 13.7925C98.7028 13.8165 98.6529 13.8253 98.6043 13.8174C98.5556 13.8095 98.5111 13.7853 98.4779 13.7488C98.4446 13.7124 98.4247 13.6658 98.4212 13.6165C98.4177 13.5673 98.431 13.5183 98.4587 13.4775C98.8179 13.2085 99.2544 13.0632 99.7028 13.0632C100.151 13.0632 100.588 13.2085 100.947 13.4775C100.972 13.49 100.994 13.5079 101.012 13.5299C101.03 13.552 101.042 13.5777 101.049 13.6052C101.055 13.6327 101.056 13.6613 101.05 13.6889C101.044 13.7166 101.032 13.7426 101.015 13.7651C101.001 13.7998 100.976 13.8291 100.944 13.8488C100.912 13.8685 100.875 13.8776 100.837 13.8747" fill="#2E353A"/>
<path d="M101.275 13.0529C101.24 13.0667 101.201 13.0667 101.166 13.0529C100.749 12.755 100.249 12.5949 99.7371 12.5949C99.2249 12.5949 98.7254 12.755 98.3084 13.0529C98.2892 13.0736 98.2659 13.0902 98.2401 13.1015C98.2142 13.1128 98.1863 13.1187 98.158 13.1187C98.1298 13.1187 98.1019 13.1128 98.076 13.1015C98.0501 13.0902 98.0268 13.0736 98.0076 13.0529C97.9895 13.0351 97.975 13.0137 97.9652 12.9902C97.9553 12.9667 97.9502 12.9414 97.9502 12.9159C97.9502 12.8904 97.9553 12.8652 97.9652 12.8417C97.975 12.8181 97.9895 12.7968 98.0076 12.779C98.4949 12.4258 99.081 12.2357 99.6824 12.2357C100.284 12.2357 100.87 12.4258 101.357 12.779C101.383 12.7929 101.405 12.8122 101.423 12.8355C101.44 12.8588 101.453 12.8856 101.459 12.9141C101.466 12.9426 101.466 12.9722 101.46 13.0009C101.454 13.0295 101.443 13.0566 101.425 13.0803C101.406 13.1094 101.379 13.1333 101.348 13.15C101.317 13.1667 101.283 13.1757 101.248 13.1762" fill="#2E353A"/>
<path d="M101.671 12.2311H101.562C101.033 11.8407 100.394 11.63 99.7369 11.63C99.0801 11.63 98.4405 11.8407 97.9118 12.2311C97.8712 12.2696 97.8174 12.2911 97.7614 12.2911C97.7055 12.2911 97.6517 12.2696 97.6111 12.2311C97.5764 12.1912 97.5574 12.1401 97.5574 12.0873C97.5574 12.0344 97.5764 11.9834 97.6111 11.9435C98.2094 11.5151 98.9264 11.2849 99.6617 11.2849C100.397 11.2849 101.114 11.5151 101.712 11.9435C101.736 11.9575 101.757 11.9762 101.773 11.9984C101.789 12.0206 101.801 12.0459 101.807 12.0727C101.814 12.0996 101.815 12.1275 101.81 12.1547C101.806 12.1819 101.796 12.2079 101.781 12.2311C101.763 12.2627 101.737 12.2893 101.706 12.3085C101.675 12.3276 101.639 12.3387 101.603 12.3407" fill="#2E353A"/>
<path d="M100.195 14.1623C100.195 14.3076 100.137 14.447 100.035 14.5497C99.9322 14.6525 99.7931 14.7102 99.6481 14.7102C99.5031 14.7102 99.364 14.6525 99.2614 14.5497C99.1589 14.447 99.1013 14.3076 99.1013 14.1623C99.0994 14.0899 99.1122 14.0178 99.1391 13.9505C99.1659 13.8831 99.206 13.822 99.2572 13.7707C99.3084 13.7195 99.3694 13.6792 99.4366 13.6523C99.5038 13.6255 99.5758 13.6126 99.6481 13.6145C99.7204 13.6126 99.7924 13.6255 99.8596 13.6523C99.9268 13.6792 99.9878 13.7195 100.039 13.7707C100.09 13.822 100.13 13.8831 100.157 13.9505C100.184 14.0178 100.197 14.0899 100.195 14.1623Z" fill="#2E353A"/>
</g>
<mask id="mask3_1_1032" style="mask-type:luminance" maskUnits="userSpaceOnUse" x="0" y="0" width="190" height="186">
<path d="M189.521 0H0V185.315H189.521V0Z" fill="white"/>
</mask>
<g mask="url(#mask3_1_1032)">
<path d="M102.669 149.649L104.624 147.691C104.726 147.578 104.782 147.432 104.781 147.28C104.78 147.129 104.722 146.983 104.618 146.873C104.515 146.762 104.374 146.694 104.223 146.684C104.072 146.673 103.922 146.719 103.804 146.814L101.849 148.759L99.9077 146.814C99.795 146.702 99.6427 146.639 99.4839 146.639C99.3251 146.639 99.1728 146.702 99.0601 146.814C98.9515 146.929 98.8909 147.081 98.8909 147.239C98.8909 147.397 98.9515 147.549 99.0601 147.663L101.015 149.622L99.0601 151.567C98.9515 151.681 98.8909 151.833 98.8909 151.991C98.8909 152.149 98.9515 152.301 99.0601 152.416C99.115 152.473 99.1808 152.519 99.2536 152.55C99.3264 152.581 99.4048 152.597 99.4839 152.597C99.5631 152.597 99.6414 152.581 99.7142 152.55C99.7871 152.519 99.8529 152.473 99.9077 152.416L101.849 150.471L103.804 152.416C103.918 152.525 104.07 152.585 104.228 152.585C104.386 152.585 104.537 152.525 104.652 152.416C104.75 152.302 104.804 152.156 104.804 152.005C104.804 151.854 104.75 151.708 104.652 151.594L102.669 149.649Z" fill="#2E353A"/>
<path d="M54.9848 126.009V122.064H54.8481L54.6157 122.133H54.3833H54.2466V121.516L54.4517 121.434L54.7114 121.311L54.9848 121.16C55.055 121.108 55.1192 121.048 55.1762 120.982H55.8051V125.845L54.9848 126.009Z" fill="#2E353A"/>
<path d="M77.3369 126.009V125.365L78.54 123.502C78.6285 123.379 78.7107 123.251 78.7861 123.119C78.8633 122.998 78.9275 122.87 78.9775 122.735C79.03 122.59 79.0577 122.438 79.0595 122.283C79.0604 122.141 79.0276 122 78.9638 121.872C78.9302 121.825 78.8847 121.787 78.8318 121.763C78.779 121.739 78.7207 121.73 78.663 121.735C78.6081 121.733 78.5532 121.741 78.5015 121.76C78.4499 121.778 78.4025 121.808 78.3622 121.845C78.2889 121.922 78.2371 122.016 78.2119 122.119C78.1992 122.247 78.1992 122.375 78.2119 122.503V122.708H77.3916V122.626C77.3892 122.364 77.4356 122.104 77.5283 121.859C77.6037 121.648 77.7483 121.469 77.9384 121.352C78.1591 121.214 78.4168 121.147 78.6767 121.16C78.8471 121.147 79.0184 121.171 79.1788 121.23C79.3392 121.289 79.485 121.382 79.6063 121.503C79.8226 121.763 79.9346 122.095 79.9207 122.434C79.9212 122.62 79.8936 122.804 79.8387 122.982C79.7751 123.144 79.6973 123.299 79.6063 123.448C79.5156 123.604 79.4152 123.755 79.3055 123.9L78.3212 125.406H79.784V126.077L77.3369 126.009Z" fill="#2E353A"/>
<path d="M100.701 126.077C100.444 126.08 100.19 126.019 99.9626 125.899C99.7814 125.784 99.6386 125.617 99.5525 125.42C99.4719 125.182 99.4303 124.932 99.4294 124.68V124.516H100.25V124.653C100.236 124.78 100.236 124.909 100.25 125.036C100.27 125.13 100.317 125.216 100.386 125.283C100.423 125.316 100.467 125.34 100.514 125.354C100.561 125.368 100.611 125.372 100.66 125.365C100.709 125.37 100.758 125.366 100.805 125.352C100.852 125.337 100.895 125.314 100.933 125.283C101.006 125.21 101.05 125.112 101.056 125.009C101.071 124.872 101.071 124.735 101.056 124.598C101.114 124.401 101.114 124.192 101.056 123.995C101.008 123.92 100.941 123.859 100.862 123.818C100.783 123.777 100.694 123.758 100.605 123.763H100.468V123.091H100.591C100.678 123.101 100.764 123.089 100.845 123.058C100.926 123.028 100.998 122.978 101.056 122.913C101.151 122.747 101.194 122.556 101.179 122.366C101.182 122.201 101.149 122.037 101.084 121.886C101.048 121.826 100.995 121.777 100.932 121.748C100.868 121.719 100.797 121.709 100.728 121.722C100.658 121.708 100.585 121.719 100.522 121.754C100.459 121.789 100.411 121.846 100.386 121.914C100.32 122.069 100.287 122.237 100.291 122.407V122.626H99.4705V122.393C99.4594 122.147 99.5112 121.901 99.6209 121.681C99.7099 121.492 99.8589 121.338 100.045 121.242C100.256 121.134 100.491 121.082 100.728 121.092C100.97 121.079 101.21 121.131 101.425 121.242C101.605 121.34 101.752 121.487 101.849 121.667C101.953 121.885 102.004 122.124 102 122.366C102.012 122.615 101.95 122.863 101.822 123.078C101.717 123.251 101.551 123.378 101.357 123.434C101.484 123.477 101.597 123.553 101.685 123.653C101.796 123.758 101.876 123.89 101.918 124.037C101.973 124.219 102 124.408 102 124.598C102.001 124.863 101.959 125.127 101.877 125.379C101.793 125.588 101.651 125.769 101.466 125.899C101.242 126.027 100.986 126.089 100.728 126.077" fill="#2E353A"/>
<path d="M55.3813 134.61V133.419H53.9321V132.706L55.1899 129.748H56.1605V132.761H56.6527V133.419H56.1605V134.61H55.3813ZM54.5747 132.761H55.3266V130.652L54.5747 132.761Z" fill="#2E353A"/>
<path d="M78.5946 134.693C78.3325 134.702 78.0726 134.641 77.8427 134.514C77.6639 134.388 77.5336 134.205 77.4735 133.994C77.4073 133.744 77.3751 133.486 77.3778 133.227H78.1844C78.1844 133.364 78.1844 133.515 78.1844 133.665C78.2013 133.772 78.2488 133.872 78.3211 133.953C78.3605 133.991 78.4082 134.019 78.4603 134.036C78.5125 134.053 78.5678 134.057 78.6219 134.049C78.6776 134.054 78.7336 134.043 78.784 134.019C78.8345 133.995 78.8776 133.958 78.909 133.912C78.9781 133.801 79.0159 133.673 79.0184 133.542C79.0334 133.351 79.0334 133.158 79.0184 132.967C79.0184 132.802 79.0184 132.638 79.0184 132.474C78.9991 132.359 78.9522 132.251 78.8817 132.159C78.8475 132.113 78.8014 132.077 78.7484 132.055C78.6954 132.033 78.6375 132.027 78.5809 132.035C78.5272 132.035 78.4741 132.046 78.4247 132.068C78.3754 132.089 78.3308 132.12 78.2938 132.159C78.2135 132.243 78.1568 132.347 78.1298 132.46H77.4189V129.721H79.6062V130.46H78.1161V131.624C78.1847 131.545 78.275 131.488 78.3758 131.46C78.496 131.405 78.6266 131.377 78.7586 131.378C78.9773 131.349 79.1985 131.408 79.3738 131.542C79.55 131.668 79.6759 131.853 79.7293 132.063C79.8142 132.328 79.8512 132.606 79.8386 132.885C79.8522 133.117 79.8522 133.35 79.8386 133.583C79.8123 133.781 79.7472 133.972 79.6472 134.145C79.5559 134.301 79.4235 134.429 79.2645 134.514C79.0604 134.614 78.8349 134.661 78.6082 134.651" fill="#2E353A"/>
<path d="M100.728 134.679C100.477 134.697 100.227 134.63 100.019 134.488C99.8106 134.346 99.6559 134.139 99.5798 133.898C99.4987 133.636 99.4572 133.364 99.4568 133.09V131.378C99.4517 131.091 99.4886 130.805 99.5661 130.529C99.623 130.291 99.7577 130.078 99.9489 129.926C100.171 129.766 100.442 129.689 100.715 129.707C100.955 129.69 101.195 129.737 101.412 129.844C101.589 129.929 101.729 130.075 101.808 130.255C101.89 130.464 101.931 130.687 101.931 130.912V130.994H101.138C101.14 130.831 101.112 130.669 101.056 130.515C101.026 130.457 100.978 130.409 100.919 130.38C100.86 130.35 100.793 130.34 100.728 130.351C100.681 130.348 100.633 130.356 100.589 130.372C100.544 130.389 100.503 130.414 100.468 130.447C100.393 130.536 100.346 130.646 100.332 130.762C100.318 130.958 100.318 131.154 100.332 131.351V131.926C100.389 131.829 100.475 131.753 100.578 131.707C100.708 131.653 100.847 131.625 100.988 131.624C101.208 131.606 101.427 131.67 101.603 131.803C101.763 131.927 101.878 132.1 101.931 132.296C102.004 132.53 102.036 132.776 102.027 133.022C102.041 133.31 101.999 133.598 101.904 133.871C101.845 134.121 101.698 134.341 101.489 134.49C101.28 134.638 101.024 134.706 100.769 134.679M100.769 134.035C100.818 134.041 100.868 134.034 100.913 134.014C100.959 133.995 100.999 133.965 101.029 133.925C101.072 133.817 101.081 133.697 101.056 133.583C101.07 133.437 101.07 133.291 101.056 133.145C101.064 132.985 101.064 132.825 101.056 132.665C101.054 132.547 101.015 132.433 100.947 132.337C100.911 132.293 100.865 132.258 100.812 132.237C100.76 132.215 100.703 132.207 100.646 132.213C100.588 132.201 100.527 132.201 100.468 132.213C100.414 132.237 100.363 132.27 100.318 132.309L100.209 132.433V133.2C100.195 133.322 100.195 133.446 100.209 133.569C100.229 133.671 100.276 133.766 100.345 133.843C100.382 133.879 100.424 133.907 100.471 133.925C100.518 133.944 100.568 133.954 100.619 133.953" fill="#2E353A"/>
<path d="M54.479 143.171L55.4496 138.952H54.0825V138.322H56.2015V138.829L55.2309 143.171H54.479Z" fill="#2E353A"/>
<path d="M78.5809 143.294C78.3192 143.328 78.0533 143.285 77.8154 143.171C77.6283 143.044 77.485 142.862 77.4052 142.65C77.3214 142.399 77.2843 142.134 77.2958 141.87C77.2891 141.742 77.2891 141.614 77.2958 141.486C77.3225 141.376 77.3639 141.27 77.4189 141.171C77.4653 141.076 77.5252 140.988 77.5966 140.911C77.6694 140.84 77.7523 140.78 77.8427 140.733C77.6928 140.627 77.5708 140.486 77.4872 140.322C77.3762 140.116 77.3197 139.885 77.3232 139.651C77.3209 139.415 77.3675 139.182 77.4599 138.966C77.5419 138.781 77.6808 138.627 77.8564 138.528C78.0695 138.424 78.3032 138.371 78.5399 138.371C78.7766 138.371 79.0103 138.424 79.2235 138.528C79.3994 138.633 79.538 138.791 79.6199 138.98C79.7093 139.196 79.7512 139.43 79.743 139.664C79.7483 139.893 79.6966 140.119 79.5926 140.322C79.509 140.486 79.387 140.627 79.2371 140.733C79.3303 140.781 79.4137 140.846 79.4832 140.924C79.5575 140.995 79.6178 141.078 79.661 141.171C79.7159 141.275 79.7572 141.385 79.784 141.5C79.7981 141.627 79.7981 141.756 79.784 141.883C79.7844 142.144 79.7429 142.403 79.661 142.65C79.5899 142.863 79.4505 143.046 79.2645 143.171C79.0356 143.301 78.7759 143.368 78.5126 143.362M78.5126 142.732C78.5683 142.733 78.6236 142.722 78.6752 142.701C78.7268 142.68 78.7738 142.649 78.8133 142.609C78.8794 142.521 78.9218 142.417 78.9364 142.308C78.95 142.18 78.95 142.052 78.9364 141.924C78.9568 141.797 78.9568 141.668 78.9364 141.541C78.9195 141.426 78.8723 141.317 78.7997 141.226C78.7626 141.187 78.7181 141.156 78.6688 141.135C78.6194 141.113 78.5663 141.103 78.5126 141.103C78.4589 141.103 78.4058 141.113 78.3564 141.135C78.3071 141.156 78.2625 141.187 78.2255 141.226C78.1606 141.316 78.1142 141.419 78.0888 141.527C78.076 141.659 78.076 141.792 78.0888 141.924C78.0747 142.052 78.0747 142.18 78.0888 142.308C78.0994 142.421 78.1475 142.527 78.2255 142.609C78.2608 142.649 78.3054 142.681 78.3555 142.7C78.4055 142.719 78.4594 142.725 78.5126 142.719M78.5126 140.404C78.5589 140.403 78.6045 140.393 78.6468 140.375C78.6891 140.356 78.7272 140.328 78.7587 140.294C78.8159 140.211 78.8575 140.119 78.8817 140.021C78.889 139.888 78.889 139.756 78.8817 139.623C78.8891 139.473 78.861 139.323 78.7997 139.185C78.7719 139.127 78.7268 139.078 78.6705 139.046C78.6143 139.014 78.5496 139.001 78.4852 139.007C78.4228 139.002 78.3603 139.016 78.3064 139.048C78.2525 139.08 78.2099 139.128 78.1845 139.185C78.1126 139.319 78.0795 139.471 78.0888 139.623C78.0695 139.755 78.0695 139.889 78.0888 140.021C78.1148 140.12 78.1613 140.214 78.2255 140.294C78.2543 140.328 78.29 140.355 78.33 140.374C78.3701 140.393 78.4136 140.403 78.4579 140.404" fill="#2E353A"/>
<path d="M78.5811 151.745C78.3348 151.751 78.0922 151.685 77.8838 151.553C77.6916 151.441 77.5425 151.267 77.46 151.06C77.3676 150.829 77.3211 150.583 77.3233 150.334V148.17C77.3211 147.917 77.3675 147.666 77.46 147.43C77.5407 147.223 77.684 147.046 77.8702 146.924C78.0919 146.808 78.3381 146.748 78.5879 146.748C78.8377 146.748 79.0839 146.808 79.3056 146.924C79.4883 147.049 79.6307 147.225 79.7157 147.43C79.8083 147.666 79.8547 147.917 79.8525 148.17V150.334C79.8546 150.583 79.8082 150.829 79.7157 151.06C79.6248 151.262 79.4776 151.433 79.2919 151.553C79.0769 151.681 78.8311 151.747 78.5811 151.745ZM78.5811 151.019C78.6322 151.026 78.6842 151.019 78.7321 151C78.7799 150.981 78.8221 150.95 78.8545 150.909C78.9202 150.831 78.9628 150.736 78.9775 150.635C78.9916 150.531 78.9916 150.425 78.9775 150.32V148.184C78.9907 148.074 78.9907 147.964 78.9775 147.855C78.9614 147.757 78.924 147.663 78.8682 147.581C78.7922 147.51 78.692 147.47 78.5879 147.47C78.4838 147.47 78.3836 147.51 78.3076 147.581C78.2419 147.659 78.1993 147.754 78.1846 147.855C78.1778 147.964 78.1778 148.074 78.1846 148.184V150.32C78.1772 150.425 78.1772 150.531 78.1846 150.635C78.2114 150.732 78.2529 150.825 78.3076 150.909C78.3408 150.949 78.3831 150.979 78.4308 150.998C78.4784 151.017 78.53 151.024 78.5811 151.019Z" fill="#2E353A"/>
<path d="M100.646 143.294C100.41 143.304 100.176 143.257 99.9624 143.157C99.7878 143.062 99.6487 142.913 99.5659 142.732C99.4691 142.523 99.4268 142.292 99.4429 142.061V141.993H100.236C100.225 142.16 100.248 142.328 100.304 142.486C100.344 142.541 100.398 142.585 100.461 142.611C100.523 142.638 100.592 142.647 100.66 142.637C100.705 142.641 100.752 142.635 100.794 142.619C100.837 142.602 100.875 142.575 100.906 142.541C100.981 142.451 101.028 142.342 101.042 142.226C101.056 142.034 101.056 141.842 101.042 141.65V141.061C100.985 141.158 100.899 141.235 100.796 141.281C100.667 141.337 100.527 141.365 100.386 141.363C100.167 141.374 99.9505 141.311 99.771 141.185C99.6142 141.046 99.5004 140.866 99.4429 140.664C99.2973 140.149 99.2973 139.604 99.4429 139.089C99.5215 138.866 99.6642 138.67 99.853 138.528C100.07 138.379 100.329 138.307 100.591 138.322C100.847 138.307 101.101 138.374 101.316 138.514C101.511 138.65 101.656 138.848 101.726 139.075C101.819 139.335 101.865 139.608 101.863 139.884V141.609C101.861 141.896 101.824 142.181 101.753 142.459C101.695 142.716 101.544 142.943 101.33 143.097C101.116 143.25 100.853 143.321 100.591 143.294M100.591 140.733C100.689 140.739 100.786 140.71 100.865 140.651L101.056 140.431V139.678C101.07 139.551 101.07 139.422 101.056 139.295C101.038 139.195 100.996 139.101 100.933 139.021C100.859 138.951 100.761 138.912 100.66 138.911C100.562 138.912 100.469 138.951 100.4 139.021C100.331 139.108 100.289 139.212 100.277 139.322C100.263 139.472 100.263 139.624 100.277 139.774C100.277 139.938 100.277 140.103 100.277 140.24C100.278 140.358 100.316 140.473 100.386 140.568C100.42 140.614 100.466 140.65 100.519 140.672C100.572 140.694 100.63 140.7 100.687 140.692" fill="#2E353A"/>
<path d="M73.1125 103.67V98.8074H75.1495V99.4374H74.0012V100.807H74.9035V101.423H74.0012V103.026H75.1632V103.642L73.1125 103.67Z" fill="white"/>
<path d="M75.6829 103.67V98.8074H76.2981L77.4738 101.547V98.8074H78.1983V103.67H77.6241L76.4484 100.711V103.615L75.6829 103.67Z" fill="white"/>
<path d="M79.4287 103.67V99.4648H78.6631V98.8074H81.0692V99.4648H80.3036V103.67H79.4287Z" fill="white"/>
<path d="M81.5066 103.67V98.8074H83.5436V99.4374H82.3952V100.807H83.2838V101.423H82.3815V103.026H83.5436V103.642L81.5066 103.67Z" fill="white"/>
<path d="M84.0767 103.67V98.8074H85.2387C85.5212 98.8071 85.8023 98.8487 86.0727 98.9306C86.2836 98.9975 86.4633 99.1386 86.5785 99.3279C86.7114 99.5606 86.7732 99.8273 86.7562 100.095C86.7771 100.268 86.7771 100.442 86.7562 100.615C86.7368 100.764 86.6766 100.904 86.5825 101.02C86.4884 101.136 86.3639 101.223 86.223 101.273L86.9066 103.67H86.018L85.4301 101.437H85.02V103.67H84.0767ZM84.9653 100.93H85.2387C85.3794 100.93 85.5187 100.902 85.6489 100.848C85.7477 100.8 85.8254 100.717 85.8676 100.615C85.9102 100.478 85.9332 100.335 85.9359 100.191C85.9463 99.9985 85.8987 99.8076 85.7992 99.6429C85.7323 99.5749 85.6506 99.5235 85.5604 99.4926C85.4703 99.4617 85.3742 99.4522 85.2797 99.4648H84.9516L84.9653 100.93Z" fill="white"/>
<path d="M61.1503 33.5978L60.3027 29.3792H60.9863L61.5331 32.3651L62.0526 29.3792H62.7772L61.9296 33.5978H61.1503Z" fill="#2E353A"/>
<path d="M63.1875 33.5978V29.3792H64.9511V29.9271H63.9531V31.1324H64.7323V31.6803H63.9531V33.0499H64.9511V33.5978H63.1875Z" fill="#2E353A"/>
<path d="M65.4021 33.5978V29.3793H66.4138C66.6553 29.3744 66.8958 29.4115 67.1246 29.4888C67.3114 29.5446 67.4716 29.6663 67.5758 29.8313C67.6864 30.0369 67.7384 30.2691 67.7262 30.5024C67.7397 30.6528 67.7397 30.804 67.7262 30.9544C67.6999 31.0801 67.6436 31.1976 67.5621 31.2968C67.4851 31.3974 67.3806 31.4735 67.2614 31.5159L67.8355 33.5978H67.07L66.5641 31.6666H66.2087V33.5978H65.4021ZM66.1677 31.1735H66.4138C66.5307 31.201 66.6523 31.201 66.7692 31.1735C66.8526 31.1264 66.9194 31.0547 66.9606 30.9681C66.9805 30.8456 66.9805 30.7207 66.9606 30.5983C66.9758 30.4291 66.9323 30.2598 66.8376 30.1189C66.7825 30.0592 66.7143 30.0132 66.6383 29.9847C66.5623 29.9561 66.4807 29.9458 66.4001 29.9545H66.1267L66.1677 31.1735Z" fill="#2E353A"/>
<path d="M69.0795 29.4203H68.3276V33.6389H69.0795V29.4203Z" fill="#2E353A"/>
<path d="M69.7358 33.5978V29.3792H71.4584V29.9134H70.5014V31.1461H71.2807V31.6803H70.5014V33.5978H69.7358Z" fill="#2E353A"/>
<path d="M72.6342 29.4203H71.8823V33.6389H72.6342V29.4203Z" fill="#2E353A"/>
<path d="M74.4113 33.68C74.1579 33.6891 73.9071 33.6274 73.6867 33.5019C73.5155 33.3771 73.3905 33.1988 73.3313 32.9952C73.2541 32.7611 73.2171 32.5157 73.2219 32.2692V30.7626C73.2168 30.5117 73.2538 30.2617 73.3313 30.023C73.3549 29.9124 73.4011 29.8078 73.467 29.7159C73.5329 29.624 73.617 29.5467 73.714 29.4888C73.9285 29.3903 74.1617 29.3394 74.3976 29.3394C74.6335 29.3394 74.8667 29.3903 75.0812 29.4888C75.2444 29.5857 75.3698 29.7355 75.4366 29.9134C75.5093 30.1199 75.5418 30.3384 75.5323 30.5572V30.9133H74.7941V30.5435C74.808 30.4389 74.808 30.333 74.7941 30.2284C74.7942 30.1852 74.7858 30.1424 74.7694 30.1025C74.7529 30.0625 74.7288 30.0262 74.6984 29.9956C74.6213 29.9325 74.5245 29.8985 74.4249 29.8997C74.3207 29.8952 74.2185 29.9293 74.1378 29.9956C74.0706 30.0618 74.0273 30.1485 74.0148 30.2421C74.0081 30.3562 74.0081 30.4705 74.0148 30.5846V32.4199C74.0014 32.5428 74.0014 32.6668 74.0148 32.7897C74.0329 32.8805 74.0811 32.9626 74.1515 33.0226C74.235 33.0554 74.3278 33.0554 74.4113 33.0226C74.4611 33.0286 74.5117 33.0231 74.5591 33.0065C74.6065 32.9899 74.6495 32.9626 74.6847 32.9267C74.74 32.8595 74.7776 32.7794 74.7941 32.6938C74.8009 32.5798 74.8009 32.4655 74.7941 32.3514V31.9679H75.5323V32.3103C75.5351 32.5376 75.5028 32.764 75.4366 32.9815C75.3723 33.1641 75.2529 33.322 75.0948 33.4335C74.8811 33.5494 74.6405 33.6061 74.3976 33.5978" fill="#2E353A"/>
<path d="M75.874 33.5978L76.708 29.3792H77.5282L78.3758 33.5978H77.6649L77.5009 32.6253H76.7626L76.5986 33.5978H75.874ZM76.8447 32.1323H77.4189L77.1318 30.3654L76.8447 32.1323Z" fill="#2E353A"/>
<path d="M79.0185 33.5978V29.9545H78.3486V29.3792H80.4403V29.9545H79.7841V33.5978H79.0185Z" fill="#2E353A"/>
<path d="M81.6022 29.4203H80.8503V33.6389H81.6022V29.4203Z" fill="#2E353A"/>
<path d="M83.3932 33.68C83.1458 33.6907 82.9001 33.6339 82.6823 33.5156C82.5087 33.4023 82.3786 33.2333 82.3132 33.0362C82.2314 32.7983 82.1898 32.5483 82.1902 32.2966V30.7215C82.19 30.4743 82.2316 30.2289 82.3132 29.9956C82.3714 29.7983 82.5037 29.6314 82.6823 29.5299C82.9062 29.4219 83.1515 29.3658 83.4 29.3658C83.6486 29.3658 83.8939 29.4219 84.1178 29.5299C84.2997 29.6309 84.4365 29.7974 84.5006 29.9956C84.5844 30.228 84.6216 30.4747 84.6099 30.7215V32.2966C84.6206 32.5479 84.5835 32.7989 84.5006 33.0362C84.4247 33.2277 84.2908 33.3906 84.1178 33.5019C83.8974 33.6274 83.6465 33.6891 83.3932 33.68ZM83.3932 33.1047C83.4441 33.1127 83.4962 33.1095 83.5458 33.0953C83.5954 33.0811 83.6413 33.0563 83.6803 33.0225C83.7466 32.9669 83.7903 32.889 83.8034 32.8034C83.8165 32.6942 83.8165 32.5838 83.8034 32.4747V30.5435C83.8168 30.4389 83.8168 30.333 83.8034 30.2284C83.7903 30.1428 83.7466 30.0649 83.6803 30.0093C83.6413 29.9756 83.5954 29.9507 83.5458 29.9365C83.4962 29.9223 83.4441 29.9191 83.3932 29.9271C83.2952 29.9208 83.1982 29.95 83.1198 30.0093C83.0583 30.0687 83.0155 30.1449 82.9968 30.2284C82.99 30.3333 82.99 30.4386 82.9968 30.5435V32.4884C82.99 32.5933 82.99 32.6985 82.9968 32.8034C83.013 32.8918 83.0559 32.9731 83.1198 33.0362C83.2008 33.0901 83.296 33.1187 83.3932 33.1184" fill="#2E353A"/>
<path d="M85.1841 33.5978V29.3792H85.7172L86.7289 31.7898V29.3792H87.3851V33.5978H86.8793L85.8403 31.0776V33.5978H85.1841Z" fill="#2E353A"/>
<path d="M90.3927 33.68C90.1436 33.691 89.8965 33.6291 89.6818 33.5019C89.5032 33.3817 89.3725 33.2023 89.3127 32.9951C89.242 32.7596 89.2052 32.5152 89.2033 32.2692V30.7626C89.1983 30.5117 89.2353 30.2617 89.3127 30.023C89.3685 29.8175 89.5006 29.6411 89.6818 29.5299C89.8958 29.4296 90.1292 29.3777 90.3654 29.3777C90.6016 29.3777 90.835 29.4296 91.0489 29.5299C91.2122 29.6268 91.3376 29.7766 91.4044 29.9545C91.4749 30.1619 91.5118 30.3792 91.5137 30.5982V30.9544H90.7755V30.5846C90.7829 30.4797 90.7829 30.3744 90.7755 30.2695C90.7756 30.2263 90.7672 30.1835 90.7508 30.1436C90.7344 30.1036 90.7103 30.0673 90.6798 30.0367C90.6431 30.003 90.5999 29.9772 90.5529 29.9607C90.5059 29.9443 90.4561 29.9375 90.4064 29.9408C90.3025 29.9387 90.2011 29.9726 90.1193 30.0367C90.0854 30.0682 90.0582 30.1063 90.0394 30.1487C90.0206 30.1911 90.0106 30.2369 90.01 30.2832C89.9965 30.397 89.9965 30.5119 90.01 30.6256V32.461C89.9896 32.5834 89.9896 32.7084 90.01 32.8308C90.0337 32.9194 90.0809 32.9998 90.1466 33.0636C90.2349 33.0961 90.3318 33.0961 90.4201 33.0636C90.4698 33.0678 90.5199 33.0614 90.567 33.0449C90.6141 33.0283 90.6572 33.0021 90.6935 32.9677C90.745 32.8997 90.7779 32.8195 90.7892 32.7349C90.8035 32.6212 90.8035 32.5062 90.7892 32.3925V32.009H91.4864V32.3514C91.4961 32.5791 91.4636 32.8067 91.3907 33.0225C91.3309 33.2075 91.2104 33.3668 91.0489 33.4745C90.8352 33.5904 90.5946 33.6472 90.3517 33.6389" fill="#2E353A"/>
<path d="M93.2089 33.68C92.9615 33.6907 92.7157 33.6339 92.498 33.5156C92.3207 33.403 92.186 33.2343 92.1152 33.0362C92.0452 32.7959 92.0084 32.547 92.0059 32.2966V30.7215C92.0077 30.4756 92.0445 30.2311 92.1152 29.9956C92.1838 29.7999 92.3194 29.6349 92.498 29.5299C92.7219 29.4219 92.9672 29.3658 93.2158 29.3658C93.4643 29.3658 93.7096 29.4219 93.9335 29.5299C94.1121 29.6314 94.2444 29.7983 94.3026 29.9956C94.3907 30.2271 94.4325 30.4738 94.4256 30.7215V32.2966C94.4315 32.5487 94.3898 32.7997 94.3026 33.0362C94.2365 33.2293 94.1062 33.3937 93.9335 33.5019C93.7131 33.6274 93.4622 33.6891 93.2089 33.68ZM93.2089 33.1047C93.2599 33.1127 93.3119 33.1095 93.3615 33.0953C93.4111 33.0811 93.457 33.0563 93.496 33.0225C93.5622 32.9669 93.606 32.889 93.619 32.8034C93.6258 32.6939 93.6258 32.5841 93.619 32.4747V30.5435C93.6258 30.4386 93.6258 30.3333 93.619 30.2284C93.6003 30.1449 93.5575 30.0687 93.496 30.0093C93.457 29.9756 93.4111 29.9507 93.3615 29.9365C93.3119 29.9223 93.2599 29.9191 93.2089 29.9271C93.1109 29.9208 93.0139 29.95 92.9355 30.0093C92.874 30.0687 92.8312 30.1449 92.8124 30.2284C92.8057 30.3333 92.8057 30.4386 92.8124 30.5435V32.4884C92.8057 32.5933 92.8057 32.6985 92.8124 32.8034C92.8287 32.8918 92.8716 32.9731 92.9355 33.0362C93.0165 33.0901 93.1117 33.1187 93.2089 33.1184" fill="#2E353A"/>
<path d="M94.9863 33.5978V29.3792H95.9843C96.2553 29.3689 96.5254 29.4156 96.7772 29.5162C96.9651 29.6041 97.112 29.761 97.1874 29.9545C97.2833 30.1886 97.3254 30.4415 97.3104 30.6941V32.2281C97.3241 32.4897 97.2821 32.7511 97.1874 32.9951C97.1137 33.193 96.9668 33.3549 96.7772 33.4471C96.5359 33.5523 96.2747 33.6037 96.0117 33.5978H94.9863ZM95.7656 33.0499H95.998C96.1267 33.064 96.2565 33.0351 96.3671 32.9677C96.4075 32.9339 96.4404 32.8922 96.4639 32.845C96.4875 32.7979 96.5011 32.7464 96.5038 32.6938C96.517 32.548 96.517 32.4013 96.5038 32.2555V30.6393C96.5174 30.5027 96.5174 30.3651 96.5038 30.2284C96.4826 30.1392 96.4289 30.0611 96.3534 30.0093C96.2398 29.9497 96.1125 29.9213 95.9843 29.9271H95.7519L95.7656 33.0499Z" fill="#2E353A"/>
<path d="M97.8708 33.5978V29.3792H99.6891V29.9271H98.7048V31.1324H99.484V31.6803H98.7048V33.0499H99.6891V33.5978H97.8708Z" fill="#2E353A"/>
</g>
<mask id="mask4_1_1032" style="mask-type:luminance" maskUnits="userSpaceOnUse" x="0" y="0" width="190" height="186">
<path d="M189.521 0H0V185.315H189.521V0Z" fill="white"/>
</mask>
<g mask="url(#mask4_1_1032)">
<path d="M154.77 0.493042V20.1751" stroke="#2E353A" stroke-linecap="round" stroke-linejoin="round" stroke-dasharray="5 5"/>
<path d="M154.77 53.7729V70.3595C154.77 71.6617 154.514 72.9512 154.016 74.1543C153.519 75.3574 152.79 76.4506 151.871 77.3714C150.952 78.2922 149.861 79.0226 148.66 79.521C147.459 80.0193 146.172 80.2758 144.872 80.2758H124.037" stroke="#2E353A" stroke-linecap="round" stroke-linejoin="round" stroke-dasharray="5 5"/>
<path d="M124.762 77.7967L120.456 80.2895L124.762 82.7823V77.7967Z" fill="#2E353A"/>
<path d="M141.456 21.7009L136.236 47.1097L171.653 54.4128L176.873 29.004L141.456 21.7009Z" fill="#2E353A"/>
<path d="M139.617 19.3365L134.397 44.7453L169.815 52.0484L175.035 26.6396L139.617 19.3365Z" fill="white"/>
<path d="M139.617 19.3365L134.397 44.7453L169.815 52.0484L175.035 26.6396L139.617 19.3365Z" stroke="#2E353A" stroke-miterlimit="10"/>
<path d="M139.608 19.3259L154.715 35.6797L175.03 26.6262" stroke="#2E353A" stroke-linecap="round" stroke-linejoin="round"/>
</g>
<mask id="mask5_1_1032" style="mask-type:luminance" maskUnits="userSpaceOnUse" x="0" y="0" width="190" height="186">
<path d="M189.521 0H0V185.315H189.521V0Z" fill="white"/>
</mask>
<g mask="url(#mask5_1_1032)">
<path d="M149.206 162.346C144.691 156.499 139.464 151.24 133.648 146.691C125.008 140.281 117.598 137.651 115.561 138.267C114.109 138.82 112.803 139.701 111.747 140.842L87.6041 165.085C87.6041 165.085 79.6475 171.386 78.7589 171.934C76.3914 173.479 73.8774 174.786 71.2535 175.837C68.738 176.631 64.6094 176.508 64.5957 177.275C64.582 178.042 65.1289 178.645 66.3593 179.152C68.6419 180.058 71.057 180.586 73.5092 180.713C75.381 180.753 77.2425 181.001 79.0597 181.453C79.9073 181.672 82.368 182.822 82.9696 181.864C83.5711 180.905 84.4187 175.467 84.6101 174.892C84.8015 174.317 92.471 168.783 97.83 166.154C103.189 163.524 109.751 159.209 111.638 157.141C113.524 155.073 116.3 151.895 116.3 151.895C120.349 155.693 124.205 159.693 127.852 163.88C132.165 169.372 137.774 173.703 144.175 176.481C152.788 180.494 155.959 177.22 156.479 173.961C156.998 170.701 149.137 162.305 149.137 162.305" fill="white"/>
<path d="M149.206 162.346C144.691 156.499 139.464 151.24 133.648 146.691C125.008 140.281 117.598 137.651 115.561 138.267C114.109 138.82 112.803 139.701 111.747 140.842L87.6041 165.085C87.6041 165.085 79.6475 171.386 78.7589 171.934C76.3914 173.479 73.8774 174.786 71.2535 175.837C68.738 176.631 64.6094 176.508 64.5957 177.275C64.582 178.042 65.1289 178.645 66.3593 179.152C68.6419 180.058 71.057 180.586 73.5092 180.713C75.381 180.753 77.2425 181.001 79.0597 181.453C79.9073 181.672 82.368 182.822 82.9696 181.864C83.5711 180.905 84.4187 175.467 84.6101 174.892C84.8015 174.317 92.471 168.783 97.83 166.154C103.189 163.524 109.751 159.209 111.638 157.141C113.524 155.073 116.3 151.895 116.3 151.895C120.349 155.693 124.205 159.693 127.852 163.88C132.165 169.372 137.774 173.703 144.175 176.481C152.788 180.494 155.959 177.22 156.479 173.961C156.998 170.701 149.206 162.346 149.206 162.346Z" stroke="#2E353A" stroke-linecap="round" stroke-linejoin="round"/>
<path d="M133.634 146.691C125.008 140.281 117.598 137.651 115.561 138.267C114.107 138.823 112.797 139.703 111.733 140.842L87.8911 164.839C88.2654 165.859 88.8477 166.791 89.6009 167.574C90.354 168.356 91.2616 168.974 92.2659 169.386C94.0628 168.224 95.9201 167.159 97.83 166.195C103.189 163.565 109.751 159.25 111.624 157.182C113.497 155.114 116.3 151.936 116.3 151.936C120.348 155.73 124.2 159.73 127.838 163.921C130.804 167.756 138.775 178.508 148.003 180.919C164.914 185.384 164.326 176.741 164.914 173.495C165.502 170.249 149.192 162.346 149.192 162.346C144.681 156.496 139.454 151.236 133.634 146.691Z" fill="#2E353A"/>
<path d="M133.634 146.691C125.008 140.281 117.598 137.651 115.561 138.267C114.107 138.823 112.797 139.703 111.733 140.842L87.8911 164.839C88.2654 165.859 88.8477 166.791 89.6009 167.574C90.354 168.356 91.2616 168.974 92.2659 169.386C94.0628 168.224 95.9201 167.159 97.83 166.195C103.189 163.565 109.751 159.25 111.624 157.182C113.497 155.114 116.3 151.936 116.3 151.936C120.348 155.73 124.2 159.73 127.838 163.921C130.804 167.756 138.775 178.508 148.003 180.919C164.914 185.384 164.326 176.741 164.914 173.495C165.502 170.249 149.192 162.346 149.192 162.346C144.681 156.496 139.454 151.236 133.634 146.691Z" stroke="#2E353A" stroke-linecap="round" stroke-linejoin="round"/>
<path d="M64.5957 177.316C64.5957 178.083 65.1289 178.686 66.3593 179.193C68.6419 180.099 71.057 180.627 73.5092 180.754C75.381 180.794 77.2425 181.043 79.0597 181.494C79.9073 181.713 82.368 182.863 82.9832 181.905C83.6657 179.8 84.1733 177.642 84.5007 175.454C82.5814 175.414 80.6822 175.053 78.8819 174.385C79.0203 173.583 78.9783 172.759 78.7589 171.975C76.3917 173.524 73.8777 174.836 71.2535 175.892C68.738 176.673 64.6094 176.549 64.5957 177.33" fill="white"/>
<path d="M64.5957 177.316C64.5957 178.083 65.1289 178.686 66.3593 179.193C68.6419 180.099 71.057 180.627 73.5092 180.754C75.381 180.794 77.2425 181.043 79.0597 181.494C79.9073 181.713 82.368 182.863 82.9832 181.905C83.6657 179.8 84.1733 177.642 84.5007 175.454C82.5814 175.414 80.6822 175.053 78.8819 174.385C79.0203 173.583 78.9783 172.759 78.7589 171.975C76.3917 173.524 73.8777 174.836 71.2535 175.892C68.738 176.673 64.6094 176.549 64.5957 177.316Z" stroke="#2E353A" stroke-linecap="round" stroke-linejoin="round"/>
<path d="M178.886 126.803C174.591 123.009 170.878 118.602 167.867 113.723C164.285 107.587 165.256 105.628 162.562 100.793C159.869 95.9584 155.959 93.6026 150.655 94.6709C147.783 95.1761 145.206 96.7457 143.437 99.0676C143.286 99.273 143.136 99.4785 142.958 99.6839C142.192 100.588 139.732 103.957 137.9 111.833C135.699 121.325 135.781 125.981 139.13 128.2C142.48 130.419 144.845 129.433 145.829 130.488C146.813 131.542 147.196 132.857 146.321 132.857C146.093 132.864 145.866 132.824 145.655 132.739C145.443 132.655 145.251 132.527 145.091 132.364C145.091 132.364 146.964 135.227 148.768 134.405C150.573 133.583 152.596 130.652 151.297 126.721C149.985 123.557 148.165 120.628 145.911 118.051C145.337 117.311 144.188 108.82 144.188 108.82C144.188 108.82 144.271 105.957 147.456 106.929C150.641 107.902 154.975 109.669 156.356 112.572C157.736 115.476 162.89 121.9 167.375 123.858C171.859 125.817 173.663 127.625 175.29 132.446C176.109 134.494 176.661 136.639 176.931 138.829C177.924 138.326 178.796 137.612 179.486 136.737C180.175 135.862 180.666 134.846 180.923 133.761C181.579 130.241 181.169 128.858 178.886 126.803ZM139.458 126.968C137.913 125.255 138.884 122.146 138.884 122.146C138.392 126.557 143.464 128.995 143.464 128.995C141.947 128.754 140.546 128.04 139.458 126.954" fill="#2E353A"/>
<path d="M178.886 126.803C174.591 123.009 170.878 118.602 167.867 113.723C164.285 107.587 165.256 105.628 162.562 100.793C159.869 95.9584 155.959 93.6026 150.655 94.6709C147.783 95.1761 145.206 96.7457 143.437 99.0676C143.286 99.273 143.136 99.4785 142.958 99.6839C142.192 100.588 139.732 103.957 137.9 111.833C135.699 121.325 135.781 125.981 139.13 128.2C142.48 130.419 144.845 129.433 145.829 130.488C146.813 131.542 147.196 132.857 146.321 132.857C146.093 132.864 145.866 132.824 145.655 132.739C145.443 132.655 145.251 132.527 145.091 132.364C145.091 132.364 146.964 135.227 148.768 134.405C150.573 133.583 152.596 130.652 151.297 126.721C149.985 123.557 148.165 120.628 145.911 118.051C145.337 117.311 144.188 108.82 144.188 108.82C144.188 108.82 144.271 105.957 147.456 106.929C150.641 107.902 154.975 109.669 156.356 112.572C157.736 115.476 162.89 121.9 167.375 123.858C171.859 125.817 173.663 127.625 175.29 132.446C176.109 134.494 176.661 136.639 176.931 138.829C177.924 138.326 178.796 137.612 179.486 136.737C180.175 135.862 180.666 134.846 180.923 133.761C181.579 130.241 181.182 128.844 178.886 126.803ZM139.472 126.968C137.913 125.255 138.898 122.146 138.898 122.146C138.406 126.557 143.464 128.995 143.464 128.995C141.952 128.751 140.556 128.037 139.472 126.954V126.968Z" stroke="#2E353A" stroke-linecap="round" stroke-linejoin="round"/>
<path d="M149.561 163.099C149.561 163.099 138.72 161.182 136.041 162.14C133.361 163.099 126.348 174.632 125.104 175.974C124.644 176.535 124.075 176.994 123.43 177.324C122.786 177.654 122.08 177.847 121.358 177.892C120.209 177.892 116.081 177.125 113.688 177.604C111.296 178.083 108.316 179.617 108.603 181.055C108.89 182.494 110.23 183.178 114.645 183.795C118.183 184.2 121.764 183.637 125.008 182.165C126.252 181.494 127.742 180.521 128.07 180.33C130.064 179.809 131.994 179.07 133.826 178.124C135.251 177.137 136.599 176.043 137.859 174.851C137.859 174.851 146.061 178.604 149.083 180.234C152.375 181.864 155.968 182.796 159.637 182.973C163.01 182.913 166.363 182.43 169.617 181.535C170.76 180.908 171.731 180.009 172.446 178.918C173.162 177.826 173.598 176.576 173.718 175.275C173.718 172.303 174.032 168.14 173.062 167.961C172.091 167.783 171.216 168.167 170.259 168.071C169.302 167.975 164.025 165.003 162.685 164.428C161.346 163.852 149.534 163.058 149.534 163.058" fill="#2E353A"/>
<path d="M149.561 163.099C149.561 163.099 138.72 161.182 136.041 162.14C133.361 163.099 126.348 174.632 125.104 175.974C124.644 176.534 124.075 176.994 123.43 177.324C122.786 177.654 122.08 177.847 121.358 177.892C120.209 177.892 116.081 177.125 113.688 177.604C111.296 178.083 108.316 179.617 108.603 181.055C108.89 182.494 110.23 183.178 114.645 183.795C118.183 184.2 121.764 183.637 125.008 182.165C126.252 181.494 127.742 180.521 128.07 180.33C130.064 179.809 131.994 179.07 133.826 178.124C135.251 177.137 136.599 176.043 137.859 174.851C137.859 174.851 146.061 178.604 149.083 180.234C152.375 181.864 155.968 182.796 159.637 182.973C163.01 182.913 166.363 182.43 169.617 181.535C170.76 180.908 171.731 180.009 172.446 178.918C173.162 177.826 173.598 176.576 173.718 175.275C173.718 172.303 174.032 168.14 173.062 167.961C172.091 167.783 171.216 168.167 170.259 168.071C169.302 167.975 164.025 165.003 162.685 164.428C161.346 163.852 149.561 163.099 149.561 163.099Z" stroke="#2E353A" stroke-linecap="round" stroke-linejoin="round"/>
<path d="M132.773 165.565C133.795 164.361 134.886 163.217 136.041 162.14C137.23 161.182 146.13 162.14 146.13 162.14" stroke="white" stroke-linecap="round" stroke-linejoin="round"/>
<path d="M131.133 167.523C131.133 167.523 131.543 167.03 132.131 166.359" stroke="white" stroke-linecap="round" stroke-linejoin="round"/>
<path d="M124.803 176.262C123.911 177.237 122.676 177.826 121.358 177.905C120.209 177.905 116.081 177.125 113.688 177.604C111.296 178.083 108.316 179.631 108.603 181.069C108.89 182.507 110.23 183.178 114.645 183.809C118.184 184.209 121.766 183.641 125.008 182.165C126.225 181.507 127.619 180.59 128.043 180.357C127.235 179.952 126.526 179.374 125.966 178.664C125.406 177.954 125.009 177.129 124.803 176.248" fill="white"/>
<path d="M124.803 176.262C123.911 177.237 122.676 177.826 121.358 177.905C120.209 177.905 116.081 177.125 113.688 177.604C111.296 178.083 108.316 179.631 108.603 181.069C108.89 182.507 110.23 183.178 114.645 183.809C118.184 184.209 121.766 183.641 125.008 182.165C126.225 181.507 127.619 180.59 128.043 180.357C127.236 179.954 126.528 179.378 125.968 178.67C125.408 177.963 125.011 177.14 124.803 176.262Z" stroke="#2E353A" stroke-linecap="round" stroke-linejoin="round"/>
<path d="M121.645 179.919C121.18 179.165 121.645 178.344 122.178 177.809C121.908 177.863 121.633 177.895 121.358 177.905C120.21 177.905 116.095 177.125 113.688 177.604C111.282 178.083 108.316 179.631 108.603 181.069C108.89 182.507 110.23 183.178 114.645 183.808C118.184 184.209 121.766 183.641 125.008 182.165L125.596 181.836C124.084 181.68 122.68 180.979 121.645 179.864" fill="white"/>
<path d="M121.645 179.919C121.18 179.165 121.645 178.344 122.178 177.809C121.908 177.863 121.633 177.895 121.358 177.905C120.21 177.905 116.095 177.125 113.688 177.604C111.282 178.083 108.316 179.631 108.603 181.069C108.89 182.507 110.23 183.178 114.645 183.808C118.184 184.209 121.766 183.641 125.008 182.165L125.596 181.836C124.091 181.694 122.689 181.014 121.645 179.919Z" stroke="#2E353A" stroke-linecap="round" stroke-linejoin="round"/>
<path d="M151.215 123.379C151.215 123.379 143.71 123.461 142.89 126.324C142.07 129.186 142.808 143.239 142.739 147.91C142.671 152.58 142.657 155.593 143.218 156.744C143.778 157.894 147.142 160.004 147.388 160.086C147.634 160.168 147.306 162.702 147.306 162.702C147.306 162.702 153.102 163.442 156.369 163.524C159.765 163.69 163.007 164.987 165.584 167.208C168.605 169.578 170.56 171.139 170.56 171.139L172.447 169.085C172.789 172.487 173.305 175.87 173.991 179.22C174.213 180.212 174.778 181.093 175.586 181.708C176.395 182.322 177.394 182.629 178.407 182.576C179.227 182.576 181.907 182.494 181.907 182.494C180.493 179.875 179.242 177.172 178.161 174.399C177.013 171.125 176.274 168.345 176.274 168.345C176.715 167.458 176.913 166.471 176.849 165.482C176.849 163.524 176.439 162.373 176.521 160.415C176.603 158.456 180.116 149.868 178.64 140.308C177.163 130.748 177.669 127.981 174.073 126.159C170.478 124.338 162.644 123.132 160.402 122.968C158.16 122.804 151.174 123.379 151.174 123.379" fill="#A5753E"/>
<path d="M145.911 118.065C145.698 117.604 145.55 117.115 145.474 116.613C144.023 114.326 142.797 111.904 141.81 109.381C141.195 107.244 141.673 103.19 141.987 101.067C140.04 104.411 138.655 108.053 137.886 111.847C135.685 121.325 135.767 125.995 139.117 128.2C142.466 130.405 144.831 129.433 145.815 130.488C146.8 131.542 147.182 132.857 146.308 132.857C146.079 132.867 145.852 132.828 145.639 132.743C145.427 132.658 145.236 132.529 145.077 132.364C145.077 132.364 146.95 135.227 148.755 134.418C150.028 133.657 150.985 132.461 151.45 131.049C151.914 129.638 151.855 128.106 151.284 126.735C149.975 123.568 148.156 120.639 145.897 118.065M139.445 126.968C137.9 125.256 138.87 122.146 138.87 122.146C138.378 126.557 143.437 128.995 143.437 128.995C141.922 128.752 140.524 128.033 139.445 126.94" fill="#2E353A"/>
<path d="M145.911 118.065C145.698 117.604 145.55 117.115 145.474 116.613C144.023 114.326 142.797 111.904 141.81 109.381C141.195 107.244 141.673 103.19 141.987 101.067C140.04 104.411 138.655 108.053 137.886 111.847C135.685 121.325 135.767 125.995 139.117 128.2C142.466 130.405 144.831 129.433 145.815 130.488C146.8 131.542 147.182 132.857 146.308 132.857C146.079 132.867 145.852 132.828 145.639 132.743C145.427 132.658 145.236 132.529 145.077 132.364C145.077 132.364 146.95 135.227 148.755 134.418C150.028 133.657 150.985 132.461 151.45 131.049C151.914 129.638 151.855 128.106 151.284 126.735C149.984 123.567 148.168 120.637 145.911 118.065ZM139.472 126.968C137.913 125.256 138.898 122.146 138.898 122.146C138.406 126.557 143.464 128.995 143.464 128.995C141.951 128.747 140.554 128.028 139.472 126.94V126.968Z" stroke="#2E353A" stroke-linecap="round" stroke-linejoin="round"/>
<path d="M161.592 161.168L163.916 161.51" stroke="#2E353A" stroke-linecap="round" stroke-linejoin="round"/>
<path d="M148.358 148.649C148.358 148.649 146.718 158.525 147.415 158.922C147.88 159.196 155.166 160.291 159.91 160.976" stroke="#2E353A" stroke-linecap="round" stroke-linejoin="round"/>
<path d="M148.098 159.36L147.305 162.702" stroke="#2E353A" stroke-linecap="round" stroke-linejoin="round"/>
<path d="M165.72 165.592C165.72 165.592 170.642 167.29 173.089 167.989C175.536 168.687 175.823 168.441 175.823 168.441" stroke="#2E353A" stroke-linecap="round" stroke-linejoin="round"/>
<path d="M157.463 130.748L161.141 132.843L161.236 129.748" stroke="#2E353A" stroke-linecap="round" stroke-linejoin="round"/>
<path d="M152.432 130.351L151.735 130.898" stroke="#2E353A" stroke-linecap="round" stroke-linejoin="round"/>
<path d="M147.798 137.035L147.757 135.144" stroke="#2E353A" stroke-linecap="round" stroke-linejoin="round"/>
<path d="M146.061 104.642C146.061 104.642 141.81 108.368 141.81 109.381C142.296 111.826 142.94 114.237 143.737 116.599C144.407 118.503 145.463 120.248 146.841 121.722C148.02 122.961 149.445 123.941 151.024 124.598C151.456 124.549 151.875 124.414 152.254 124.201C152.254 124.201 152.569 130.57 153.621 132.816C154.674 135.062 155.248 134.994 155.481 134.446C155.713 133.898 158.584 124.516 158.584 124.516L159.951 117.846L157.107 110.299C157.107 110.299 153.006 106.655 150.272 105.724C148.948 105.231 147.572 104.891 146.171 104.711" fill="white"/>
<path d="M146.061 104.642C146.061 104.642 141.81 108.368 141.81 109.381C142.296 111.826 142.94 114.237 143.737 116.599C144.407 118.503 145.463 120.248 146.841 121.722C148.02 122.961 149.445 123.941 151.024 124.598C151.456 124.549 151.875 124.414 152.254 124.201C152.254 124.201 152.569 130.57 153.621 132.816C154.674 135.062 155.248 134.994 155.481 134.446C155.713 133.898 158.584 124.516 158.584 124.516L159.951 117.846L157.107 110.299C157.107 110.299 153.006 106.655 150.272 105.724C148.916 105.199 147.502 104.836 146.061 104.642Z" stroke="#2E353A" stroke-linecap="round" stroke-linejoin="round"/>
<path d="M148.468 118.065C148.468 118.065 148.468 119.434 148.7 119.544C148.932 119.654 149.944 119.927 150.245 119.16" stroke="#2E353A" stroke-linecap="round" stroke-linejoin="round"/>
<path d="M149.315 121.092C149.315 121.092 151.639 121.407 152.419 119.722" stroke="#2E353A" stroke-linecap="round" stroke-linejoin="round"/>
<path d="M152.254 124.201C153.703 123.051 155.027 121.752 156.205 120.325C156.205 120.325 154.66 123.968 154.196 124.899C153.933 125.429 153.7 125.973 153.498 126.529L152.254 124.201Z" fill="#2E353A"/>
<path d="M152.254 124.201C153.703 123.051 155.027 121.752 156.205 120.325C156.205 120.325 154.66 123.968 154.196 124.899C153.933 125.429 153.7 125.973 153.498 126.529L152.254 124.201Z" stroke="#2E353A" stroke-linecap="round" stroke-linejoin="round"/>
<path d="M150.86 114.504C150.86 114.504 152.952 115.12 153.813 113.805" stroke="#2E353A" stroke-linecap="round" stroke-linejoin="round"/>
<path d="M149.93 112.641C151.122 111.944 152.514 111.669 153.881 111.86" stroke="#2E353A" stroke-linecap="round" stroke-linejoin="round"/>
<path d="M144.435 115.435C144.795 115.654 145.216 115.75 145.635 115.708C146.055 115.666 146.449 115.488 146.759 115.202" stroke="#2E353A" stroke-linecap="round" stroke-linejoin="round"/>
<path d="M146.608 113.49C146.163 113.257 145.665 113.142 145.162 113.156C144.659 113.17 144.169 113.314 143.737 113.572" stroke="#2E353A" stroke-linecap="round" stroke-linejoin="round"/>
<path d="M168.359 133.268C167.868 134.966 167.674 136.736 167.785 138.5C167.921 141.605 167.867 144.716 167.621 147.814C167.621 148.143 165.83 148.964 165.912 149.54C166.021 150.089 166.158 150.633 166.322 151.169L163.711 150.115L160.197 154.772C162.483 156.838 165.007 158.622 167.716 160.086C172.447 162.702 175.714 161.88 175.714 161.88C175.714 161.88 177.587 150.348 177.833 145.198C178.079 140.048 179.2 133.254 177.423 128.433C176.056 124.667 169.835 124.187 168.441 130.638" fill="#A5753E"/>
<path d="M166.896 151.389C166.896 151.389 173.731 149.677 173.663 150.252C173.595 150.827 171.298 151.074 171.298 151.074" fill="#9F8C4A"/>
<path d="M167.621 151.663C167.621 151.663 172.679 152.238 173.581 154.402L167.621 151.663Z" fill="#9F8C4A"/>
<path d="M172.72 156.47C173.011 156.658 173.329 156.801 173.663 156.895L172.72 156.47Z" fill="#9F8C4A"/>
<path d="M167.224 152.402C167.224 152.402 169.958 154.621 171.886 155.95L167.224 152.402Z" fill="#9F8C4A"/>
<path d="M135.617 137.322C135.617 137.322 133.771 141.267 134.468 141.911C135.166 142.554 139.349 146.595 139.745 146.8C140.142 147.006 141.29 150.485 141.878 151.827C142.466 153.169 142.835 156.319 143.97 156.758C145.104 157.196 147.552 154.868 147.606 153.676C147.668 153.096 147.602 152.51 147.413 151.959C147.224 151.407 146.917 150.904 146.513 150.485C145.419 148.937 142.931 143.951 142.931 143.951L136.095 136.528L135.617 137.322Z" fill="white"/>
<path d="M135.617 137.322C135.617 137.322 133.771 141.267 134.468 141.911C135.166 142.554 139.349 146.595 139.745 146.8C140.142 147.006 141.29 150.485 141.878 151.827C142.466 153.169 142.835 156.319 143.97 156.758C145.104 157.196 147.552 154.868 147.606 153.676C147.668 153.096 147.602 152.51 147.413 151.959C147.224 151.407 146.917 150.904 146.513 150.485C145.419 148.937 142.931 143.951 142.931 143.951L136.095 136.528L135.617 137.322Z" stroke="#2E353A" stroke-linecap="round" stroke-linejoin="round"/>
<path d="M132.5 132.446L140.21 145.006L146.13 145.8L140.361 134.391L132.5 132.446Z" fill="#2E353A"/>
<path d="M132.5 132.446L140.21 145.006L146.13 145.8L140.361 134.391L132.5 132.446Z" stroke="#2E353A" stroke-linecap="round" stroke-linejoin="round"/>
<path d="M163.711 150.115C163.711 150.115 154.893 143.897 152.61 142.335C151.469 141.59 150.377 140.771 149.343 139.883C149.228 139.098 148.948 138.347 148.522 137.678C148.255 137.369 147.91 137.137 147.523 137.007C147.135 136.877 146.721 136.854 146.321 136.939C145.46 137.117 144.571 137.117 143.71 136.939C143.054 136.706 141.823 134.651 141.659 135.569C141.535 135.968 141.54 136.395 141.673 136.791C141.805 137.187 142.059 137.531 142.398 137.774C143.104 138.237 143.873 138.596 144.681 138.842C145.009 139.007 144.161 139.13 144.161 139.13C142.848 139.599 141.443 139.753 140.06 139.582C138.692 139.406 137.354 139.046 136.082 138.514C135.521 138.349 135.603 139.171 136.246 139.651C136.888 140.13 137.312 140.39 137.312 140.39C137.312 140.39 135.275 140.061 135.521 140.719C135.767 141.376 136.656 141.952 137.23 142.363C137.804 142.773 138.296 143.308 138.857 143.732C139.417 144.157 139.431 145.102 140.224 145.609C141.017 146.115 140.798 146.047 142.89 146.239C145.073 146.437 147.269 146.437 149.452 146.239L160.143 154.826L163.711 150.115Z" fill="white"/>
<path d="M163.711 150.115C163.711 150.115 154.893 143.897 152.61 142.335C151.469 141.59 150.377 140.771 149.343 139.883C149.228 139.098 148.948 138.347 148.522 137.678C148.255 137.369 147.91 137.137 147.523 137.007C147.135 136.877 146.721 136.854 146.321 136.939C145.46 137.117 144.571 137.117 143.71 136.939C143.054 136.706 141.823 134.651 141.659 135.569C141.535 135.968 141.54 136.395 141.673 136.791C141.805 137.187 142.059 137.531 142.398 137.774C143.104 138.237 143.873 138.596 144.681 138.842C145.009 139.007 144.161 139.13 144.161 139.13C142.848 139.599 141.443 139.753 140.06 139.582C138.692 139.406 137.354 139.046 136.082 138.514C135.521 138.349 135.603 139.171 136.246 139.651C136.888 140.13 137.312 140.39 137.312 140.39C137.312 140.39 135.275 140.061 135.521 140.719C135.767 141.376 136.656 141.952 137.23 142.363C137.804 142.773 138.296 143.308 138.857 143.732C139.417 144.157 139.431 145.102 140.224 145.609C141.017 146.115 140.798 146.047 142.89 146.239C145.073 146.437 147.269 146.437 149.452 146.239L160.143 154.826L163.711 150.115Z" stroke="#2E353A" stroke-linecap="round" stroke-linejoin="round"/>
<path d="M137.339 140.431C138.108 140.816 138.903 141.146 139.718 141.417H144.12" stroke="#2E353A" stroke-linecap="round" stroke-linejoin="round"/>
<path d="M136.916 142.157C137.384 142.22 137.843 142.34 138.283 142.513C139.173 142.813 140.088 143.033 141.017 143.171C141.878 143.171 142.739 143.253 143.601 143.171" stroke="#2E353A" stroke-linecap="round" stroke-linejoin="round"/>
<path d="M138.898 143.732C138.898 143.732 141.181 144.855 141.632 144.951C142.544 144.966 143.457 144.934 144.366 144.855" stroke="#2E353A" stroke-linecap="round" stroke-linejoin="round"/>
<path d="M165.666 118.051C162.715 114.887 160.013 111.499 157.586 107.916C157.586 107.916 156.684 120.763 158.652 126.242C160.621 131.72 167.785 129.419 170.314 128.036C172.843 126.653 173.745 125.584 175.304 125.831C171.778 123.658 168.54 121.049 165.666 118.065" fill="#2E353A"/>
<path d="M165.666 118.051C162.715 114.887 160.013 111.499 157.586 107.916C157.586 107.916 156.684 120.763 158.652 126.242C160.621 131.72 167.785 129.419 170.314 128.036C172.843 126.653 173.745 125.584 175.304 125.831C171.774 123.658 168.536 121.044 165.666 118.051Z" stroke="#2E353A" stroke-linecap="round" stroke-linejoin="round"/>
<path d="M147.278 103.998C144.435 100.602 146.061 104.642 146.061 104.642C146.061 104.642 151.53 109.86 157.067 110.23C157.067 110.23 150.135 107.381 147.278 103.998Z" fill="#2E353A"/>
<path d="M147.278 103.998C144.435 100.602 146.061 104.642 146.061 104.642C146.061 104.642 151.53 109.86 157.067 110.23C157.108 110.299 150.135 107.381 147.278 103.998Z" stroke="#2E353A" stroke-linecap="round" stroke-linejoin="round"/>
</g>
</svg>
