<svg width="175" height="186" viewBox="0 0 175 186" fill="none" xmlns="http://www.w3.org/2000/svg">
<g clip-path="url(#clip0_1_857)">
<mask id="mask0_1_857" style="mask-type:luminance" maskUnits="userSpaceOnUse" x="0" y="0" width="175" height="186">
<path d="M175 0H0V186H175V0Z" fill="white"/>
</mask>
<g mask="url(#mask0_1_857)">
<mask id="mask1_1_857" style="mask-type:luminance" maskUnits="userSpaceOnUse" x="0" y="0" width="175" height="186">
<path d="M175 0H0V186H175V0Z" fill="white"/>
</mask>
<g mask="url(#mask1_1_857)">
<path d="M167.379 81.278V80.9072C167.379 80.66 167.379 80.3029 167.379 79.8359C167.379 78.902 167.379 77.5423 167.379 75.8393V75.908H146.783C146.783 75.908 146.673 76.0041 146.893 75.7981V81.2917L146.783 81.1819H161.461H165.8H161.489H146.742H146.646V75.6883L146.742 75.5921H167.338H167.407C167.407 77.3226 167.407 78.6823 167.407 79.6299V80.6874V80.9621C167.414 80.9746 167.418 80.9888 167.418 81.0033C167.418 81.0178 167.414 81.032 167.407 81.0445" fill="#DEDEDE"/>
<path d="M91.4752 167.143L86.8066 169.148L87.1225 141.515C87.2143 140.467 87.0639 139.411 86.683 138.43C86.3021 137.449 85.7008 136.569 84.9255 135.857C83.5866 134.148 81.7515 132.896 79.6723 132.273C77.5931 131.65 75.3721 131.687 73.3145 132.378C71.2569 133.069 69.4639 134.381 68.1819 136.133C66.9 137.884 66.192 139.99 66.1554 142.161L65.8808 166.882H61.3496L61.8027 141.048C62.1458 137.361 63.7626 133.908 66.3751 131.284C78.9938 121.285 91.9008 131.613 91.7772 142.546L91.4752 167.143Z" fill="#F4F4F4"/>
<path d="M91.4751 167.143V166.649C91.4751 166.333 91.4751 165.852 91.4751 165.275C91.4751 164.012 91.4751 162.158 91.4751 159.782C91.4751 157.406 91.4751 154.494 91.5575 151.102C91.5575 149.413 91.5575 147.613 91.5575 145.691C91.6695 143.674 91.5959 141.651 91.3378 139.648C90.9483 137.456 90.0604 135.384 88.7426 133.591C88.5779 133.357 88.4131 133.124 88.2208 132.891L87.6441 132.231C87.246 131.792 86.8194 131.379 86.3672 130.995C86.1433 130.796 85.9096 130.608 85.6669 130.432L84.9254 129.883C84.4122 129.539 83.8754 129.231 83.3189 128.963C82.1926 128.387 80.9975 127.958 79.7626 127.685L78.8015 127.534L78.3209 127.452H77.8266H76.8517H75.8631C72.2958 127.625 68.9082 129.069 66.3121 131.522C63.7159 133.975 62.0824 137.276 61.7065 140.829C61.5829 142.312 61.6104 143.837 61.583 145.361C61.583 151.5 61.4456 157.845 61.3633 164.341C61.3633 165.207 61.3633 166.072 61.3633 166.923L61.2671 166.814H65.7983L65.6885 166.923C65.6885 162.007 65.7983 157.2 65.8533 152.53C65.8533 150.195 65.8533 147.902 65.9356 145.663V142.298C65.9609 141.184 66.1458 140.078 66.4849 139.016C67.1848 136.956 68.4915 135.155 70.2334 133.852C70.4531 133.701 70.6453 133.536 70.8788 133.399L71.5516 133C72.4754 132.523 73.459 132.172 74.4762 131.957C74.7234 131.957 74.9706 131.888 75.2314 131.847H75.6022H75.9866C76.9819 131.792 77.98 131.875 78.9525 132.094C79.909 132.316 80.8323 132.662 81.6987 133.124C83.3403 134.034 84.7136 135.36 85.6806 136.97C86.6139 138.469 87.1349 140.189 87.191 141.955C87.191 142.161 87.191 142.367 87.191 142.587V143.205C87.191 143.617 87.191 144.029 87.191 144.427C87.191 145.237 87.191 146.034 87.191 146.817C87.191 149.93 87.1544 152.787 87.0812 155.387C87.0812 160.537 86.9576 164.589 86.9164 167.267H90.3354H86.9027C86.9027 164.52 86.9027 160.537 86.9988 155.373C86.9988 152.791 87.0308 149.939 87.0949 146.817C87.0949 146.034 87.0949 145.237 87.0949 144.427C87.0949 144.029 87.0949 143.617 87.0949 143.205V142.587C87.0949 142.381 87.0949 142.175 87.0949 141.955C87.0348 140.224 86.5236 138.538 85.612 137.066C84.6553 135.485 83.3013 134.183 81.685 133.289C80.8185 132.83 79.895 132.488 78.9388 132.272C77.9807 132.051 76.9952 131.972 76.0141 132.039H75.6434H75.2726C75.0237 132.062 74.7761 132.099 74.5312 132.149C73.5361 132.358 72.5749 132.705 71.6752 133.179L71.0023 133.577C70.7826 133.701 70.5904 133.866 70.3707 134.017C68.6559 135.297 67.3721 137.069 66.6908 139.098C66.3607 140.139 66.1804 141.221 66.1553 142.312C66.1553 143.424 66.1553 144.551 66.1553 145.677C66.1553 147.943 66.1553 150.237 66.073 152.544C66.073 157.213 65.9631 162.02 65.9082 166.937V167.033H65.8121H61.2809H61.171V166.923C61.171 166.058 61.171 165.193 61.171 164.328C61.2397 157.831 61.3221 151.486 61.3907 145.361C61.3907 143.823 61.3907 142.312 61.5143 140.801C61.7408 138.599 62.4485 136.473 63.5875 134.574C64.7264 132.675 66.2687 131.05 68.1051 129.814C70.4011 128.249 73.0875 127.355 75.8631 127.232H76.8654H78.0051L78.623 127.314L79.5704 127.466L80.0098 127.562C81.1866 127.833 82.3257 128.248 83.4013 128.798C83.9608 129.074 84.502 129.386 85.0216 129.732C85.2799 129.899 85.5275 130.083 85.763 130.281C86.0129 130.458 86.2514 130.651 86.477 130.858C86.9373 131.247 87.3687 131.669 87.7677 132.121L88.3582 132.781L88.8799 133.495C90.2105 135.308 91.1034 137.404 91.4888 139.62C91.7495 141.637 91.8185 143.674 91.6948 145.704C91.6948 147.627 91.6948 149.44 91.6261 151.129C91.6261 154.522 91.5437 157.433 91.5025 159.823C91.4613 162.213 91.5025 164.039 91.4201 165.317C91.4201 165.948 91.4201 166.415 91.4201 166.69C91.4201 166.965 91.4201 167.171 91.4201 167.171" fill="#DEDEDE"/>
<path d="M96.9674 185.876L55.7748 185.409L56.1592 150.662L97.2146 151.129C97.6346 151.137 98.0348 151.309 98.328 151.61C98.6211 151.911 98.7836 152.316 98.7799 152.736L98.4229 184.462C98.4018 184.833 98.2392 185.183 97.9685 185.438C97.6978 185.694 97.3396 185.836 96.9674 185.835" fill="#DEDEDE"/>
<path d="M91.2691 185.876L55.5688 185.464C55.335 185.463 55.1039 185.415 54.8888 185.323C54.6737 185.231 54.4788 185.098 54.3154 184.931C54.152 184.764 54.0234 184.566 53.9368 184.348C53.8503 184.131 53.8076 183.899 53.8112 183.665L54.1545 152.42C54.1618 151.964 54.3491 151.529 54.6758 151.21C55.0024 150.891 55.4418 150.714 55.8983 150.717L92.0106 151.129C92.236 151.131 92.4588 151.177 92.6663 151.265C92.8739 151.353 93.0621 151.481 93.2202 151.642C93.3783 151.803 93.5032 151.993 93.5878 152.202C93.6724 152.411 93.715 152.634 93.7132 152.86L93.3562 183.789C93.3544 184.066 93.2978 184.34 93.1897 184.595C93.0816 184.85 92.9241 185.082 92.7263 185.276C92.5285 185.47 92.2943 185.623 92.0371 185.726C91.7799 185.829 91.5049 185.88 91.2279 185.876" fill="#E9E9E9"/>
<path d="M79.337 165.275C79.348 163.988 78.8482 162.749 77.9473 161.83C77.0464 160.911 75.8179 160.387 74.5312 160.372H74.3938C73.1445 160.41 71.9564 160.922 71.0713 161.805C70.1862 162.688 69.6706 163.875 69.6292 165.124C69.6099 166.186 69.9392 167.224 70.5668 168.08C71.1943 168.936 72.0854 169.562 73.1031 169.863L69.8626 176.51L78.2247 176.757L75.7532 169.89C76.771 169.615 77.6715 169.016 78.3182 168.183C78.9649 167.351 79.3226 166.33 79.337 165.275Z" fill="#DEDEDE"/>
<path d="M93.4386 182.594C93.4386 182.594 93.4386 176.537 93.5484 169.08C93.6583 161.622 93.8093 155.565 93.8643 155.565C93.9192 155.565 93.8643 161.608 93.7544 169.08C93.6446 176.551 93.4935 182.594 93.4386 182.594Z" fill="#F9F9F9"/>
<path d="M84.6234 152.049C84.6234 152.049 79.2958 152.173 72.7325 152.187C66.1691 152.201 60.8416 152.187 60.8416 152.091C60.8416 151.995 66.1554 151.981 72.7325 151.967C79.3096 151.953 84.6234 151.967 84.6234 152.049Z" fill="white"/>
<path d="M69.4371 167.761C69.3554 167.668 69.2904 167.561 69.2449 167.445C69.0918 167.153 68.9721 166.844 68.8879 166.525C68.5902 165.462 68.6196 164.334 68.9723 163.288C69.325 162.242 69.9846 161.326 70.8651 160.661C71.1326 160.465 71.4176 160.295 71.7164 160.153C71.8252 160.097 71.9406 160.056 72.0597 160.029C72.0597 160.029 71.5929 160.262 70.9612 160.784C70.1271 161.45 69.5014 162.34 69.1582 163.35C68.815 164.361 68.7689 165.448 69.0252 166.484C69.2174 167.281 69.4783 167.734 69.4371 167.747" fill="white"/>
<path d="M71.3319 170.082C71.3319 170.082 71.0161 170 70.7003 169.808C70.3845 169.615 70.151 169.396 70.1648 169.354C70.1785 169.313 70.4806 169.354 70.8101 169.629C71.1397 169.904 71.3594 170.027 71.3319 170.082Z" fill="white"/>
<path d="M75.3825 128.427L74.5586 128.523C73.8144 128.623 73.0797 128.784 72.3617 129.004C69.9902 129.694 67.8637 131.044 66.23 132.897C64.5964 134.75 63.5229 137.029 63.1346 139.469C63.0093 140.204 62.945 140.948 62.9423 141.694C62.9423 142.23 62.9423 142.518 62.9423 142.518C62.9356 142.45 62.9356 142.381 62.9423 142.312C62.9423 142.175 62.9423 141.969 62.9423 141.708C62.9148 140.955 62.9562 140.201 63.0659 139.455C63.4203 136.97 64.4928 134.643 66.1515 132.759C67.8103 130.876 69.9831 129.518 72.4029 128.853C73.13 128.647 73.8747 128.509 74.6273 128.441C74.8331 128.429 75.0394 128.429 75.2452 128.441C75.3132 128.427 75.3832 128.427 75.4512 128.441" fill="white"/>
<path d="M62.7364 146.267C62.5991 145.431 62.5991 144.577 62.7364 143.74C62.8737 144.577 62.8737 145.431 62.7364 146.267Z" fill="white"/>
<path d="M88.8251 28.3196H68.2288V33.772H88.8251V28.3196Z" fill="#F4F4F4"/>
<path d="M80.0785 39.5128C80.0647 39.4775 80.0647 39.4383 80.0785 39.4029V39.1282C80.0785 38.881 80.0785 38.5239 80.0785 38.057C80.0785 37.1231 80.0785 35.7634 80.0785 34.0604H59.4822C59.4822 34.0604 59.3723 34.1565 59.5783 33.9505V39.4441L59.4822 39.3343H74.1605H78.4857H74.1742H59.4272H59.4822V33.8406L59.592 33.7308H80.1883V33.7994C80.1883 35.5162 80.1883 36.8896 80.1883 37.8373C80.1883 38.2905 80.1883 38.6338 80.1883 38.8948V39.2519" fill="#DEDEDE"/>
<path d="M162.889 122.439H142.293V127.891H162.889V122.439Z" fill="#F4F4F4"/>
<path d="M154.225 133.687V133.316C154.225 133.055 154.225 132.698 154.225 132.245C154.225 131.311 154.225 129.951 154.225 128.248V128.317H133.629L133.739 128.207V133.701L133.643 133.591H148.321H152.646H148.335L133.629 133.687H133.519V128.193L133.629 128.084H154.225V128.193C154.225 129.91 154.225 131.284 154.225 132.231V133.605" fill="#DEDEDE"/>
<path d="M27.9012 19.777V19.4062C27.9012 19.1452 27.9012 18.7881 27.9012 18.3349C27.9012 17.3873 27.9012 16.0414 27.9012 14.3383H7.30485C7.30485 14.3383 7.20874 14.4482 7.4147 14.2422V19.7358L7.30485 19.6946H21.9832H26.3084H21.9969H7.22247H7.12634V14.201H7.30485H27.9012V14.2697C27.9012 15.9864 27.9012 17.3598 27.9012 18.3075C27.9012 18.7607 27.9012 19.1178 27.9012 19.365V19.7221" fill="#DEDEDE"/>
<path d="M150.669 11.9486V11.5778C150.669 11.3168 150.669 10.9597 150.669 10.5065C150.669 9.55887 150.669 8.21293 150.669 6.50991H130.073C130.073 6.50991 129.977 6.6198 130.182 6.41379V11.9074L130.073 11.8113H144.751H149.09H150.669C150.654 11.8185 150.638 11.8223 150.621 11.8223C150.604 11.8223 150.588 11.8185 150.573 11.8113H149.2H144.902H130.141H130.018V6.31764L130.128 6.20776H150.724H150.793C150.793 7.92452 150.793 9.29792 150.793 10.2456C150.793 10.6988 150.793 11.0559 150.793 11.3031V11.6602" fill="#DEDEDE"/>
<path d="M153.456 6.49619V6.40006C153.463 6.30403 153.463 6.20768 153.456 6.11164C153.456 5.83696 153.456 5.47987 153.456 5.01291C153.456 4.05153 153.456 2.7056 153.456 1.04378L153.525 1.12618H141.167L141.263 1.0163V6.50992L141.167 6.41379H150.024H152.605H150.051H141.126H141.016V0.920178L141.126 0.810303H153.484H153.566V0.892704C153.566 2.56826 153.566 3.92792 153.566 4.90304C153.566 5.35626 153.566 5.71335 153.566 5.97429C153.573 6.0978 153.573 6.2216 153.566 6.34512" fill="#DEDEDE"/>
<path d="M20.7062 141.927C20.6924 141.892 20.6924 141.853 20.7062 141.818V141.543C20.7062 141.296 20.7062 140.939 20.7062 140.472C20.7062 139.538 20.7062 138.178 20.7062 136.475L20.7748 136.544H0.178508C0.178508 136.544 0.0686711 136.64 0.274634 136.434V141.927L0.178508 141.818H14.8568H19.182H14.8705H0.123594H0V136.324L0.0961262 136.228H20.6924H20.7611C20.7611 137.958 20.7611 139.318 20.7611 140.266C20.7611 140.719 20.7611 141.076 20.7611 141.323V141.598C20.7675 141.613 20.7708 141.629 20.7708 141.646C20.7708 141.662 20.7675 141.679 20.7611 141.694" fill="#DEDEDE"/>
<path d="M23.4936 136.434C23.4869 136.398 23.4869 136.36 23.4936 136.324C23.4992 136.228 23.4992 136.132 23.4936 136.036C23.4936 135.775 23.4936 135.404 23.4936 134.937C23.4936 133.976 23.4936 132.63 23.4936 130.981L23.5622 131.05H11.2044L11.3143 130.954V136.448L11.2182 136.351H20.0608H22.6423H20.0883H11.1632H11.0671V130.858L11.177 130.748H23.5348H23.6034V130.83C23.6034 132.506 23.6034 133.866 23.6034 134.841C23.6034 135.294 23.6034 135.651 23.6034 135.912C23.6105 136.031 23.6105 136.15 23.6034 136.269" fill="#DEDEDE"/>
<path d="M85.5708 97.0996V96.7151C85.5708 96.4678 85.5708 96.1108 85.5708 95.6438C85.5708 94.7099 85.5708 93.3502 85.5708 91.6472L85.6394 91.7159H65.0431C65.0431 91.7159 64.9333 91.812 65.153 91.606V97.0996L65.0431 96.9897H79.7214H84.0604H79.7489H65.0019H64.8921V91.4961L64.9882 91.4H85.5845C85.5845 93.1305 85.5845 94.4901 85.5845 95.4378C85.5845 95.891 85.5845 96.2481 85.5845 96.4953V96.77C85.5918 96.785 85.5956 96.8014 85.5956 96.8181C85.5956 96.8347 85.5918 96.8512 85.5845 96.8661" fill="#DEDEDE"/>
<path d="M88.3169 91.6472V91.5373C88.3229 91.4413 88.3229 91.345 88.3169 91.2489C88.3169 90.988 88.3169 90.6171 88.3169 90.1502C88.3169 89.1888 88.3169 87.8429 88.3169 86.1811L88.3856 86.2635H76.0278L76.1377 86.1673V91.6609L76.0278 91.5648H84.8842H87.4656H84.9117H75.9866H75.8905V86.0712L75.9866 85.9613H88.3444H88.4268V86.0437C88.4268 87.7193 88.4268 89.0789 88.4268 90.054C88.4268 90.4935 88.4268 90.8643 88.4268 91.1253C88.4341 91.2442 88.4341 91.3635 88.4268 91.4824" fill="#DEDEDE"/>
</g>
<mask id="mask2_1_857" style="mask-type:luminance" maskUnits="userSpaceOnUse" x="0" y="0" width="175" height="186">
<path d="M175 0H0V186H175V0Z" fill="white"/>
</mask>
<g mask="url(#mask2_1_857)">
<path d="M167.448 185.876C167.448 185.876 131.748 185.986 87.809 185.986C43.8702 185.986 8.16992 185.986 8.16992 185.876C8.16992 185.767 43.8702 185.767 87.809 185.767C131.748 185.767 167.448 185.767 167.448 185.876Z" fill="#2E353A"/>
</g>
<mask id="mask3_1_857" style="mask-type:luminance" maskUnits="userSpaceOnUse" x="0" y="0" width="175" height="186">
<path d="M175 0H0V186H175V0Z" fill="white"/>
</mask>
<g mask="url(#mask3_1_857)">
<path d="M9.29574 162.529L1.68884 172.87L14.4998 182.402C15.3373 181.124 10.5315 173.736 10.5315 173.736L15.6806 167.308L9.29574 162.529Z" fill="#4D5A64"/>
<path d="M6.98898 170.178C6.83724 170.122 6.66967 170.124 6.51958 170.185C6.3695 170.246 6.24786 170.361 6.17885 170.508C6.11834 170.656 6.11745 170.821 6.17633 170.97C6.23521 171.118 6.3493 171.238 6.49467 171.305C6.65534 171.365 6.83296 171.362 6.99121 171.295C7.14945 171.229 7.27637 171.104 7.34598 170.948C7.38973 170.785 7.37005 170.613 7.29096 170.465C7.21187 170.317 7.07932 170.205 6.92033 170.151" fill="white"/>
<path d="M1.66138 172.843L2.47149 171.73L14.4448 181.344C14.4448 181.344 14.8293 182.017 14.4448 182.361L1.66138 172.843Z" fill="#2E353A"/>
<path d="M10.7924 173.777C10.7924 173.777 10.4079 173.639 9.9411 173.598C9.47425 173.557 9.11725 173.708 9.08979 173.598C9.06233 173.488 9.4056 173.241 9.96857 173.282C10.5315 173.323 10.8473 173.681 10.7924 173.736" fill="#2E353A"/>
<path d="M11.7124 175.329C11.7124 175.397 11.3417 175.329 10.9297 175.411C10.5178 175.493 10.2432 175.754 10.1883 175.699C10.1334 175.645 10.353 175.274 10.8611 175.15C11.3691 175.027 11.7536 175.274 11.7124 175.329Z" fill="#2E353A"/>
<path d="M11.2867 177.499C11.218 177.499 11.3691 177.087 11.781 176.867C12.1929 176.647 12.5911 176.73 12.5774 176.798C12.5637 176.867 12.2479 176.922 11.9046 177.114C11.5613 177.306 11.3553 177.54 11.2867 177.499Z" fill="#2E353A"/>
<path d="M11.7948 172.142C11.7261 172.142 11.5064 171.881 11.1357 171.648C10.765 171.414 10.408 171.318 10.408 171.236C10.408 171.154 10.8473 171.126 11.2867 171.414C11.7261 171.703 11.8634 172.115 11.7948 172.142Z" fill="#2E353A"/>
<path d="M40.2589 119.225C40.4923 120.516 40.8493 131.586 41.0828 137.354C41.3162 143.122 40.7395 146.034 40.0804 147.339C39.4213 148.643 14.3488 167.116 12.4402 171.538L6.11023 166.415C6.11023 166.415 15.406 149.701 19.388 146.652C23.3699 143.603 31.0043 140.829 31.0043 140.829L28.8348 108.966L39.2428 108.403L40.2589 119.225Z" fill="#2E353A"/>
<path d="M16.9164 172.692L16.8065 185.533L32.7755 185.753C32.6931 184.228 24.537 181.056 24.537 181.056L24.9489 172.815L16.9164 172.692Z" fill="#4D5A64"/>
<path d="M19.6626 180.287C19.509 180.334 19.3776 180.435 19.2919 180.571C19.2063 180.707 19.1722 180.869 19.1958 181.028C19.2378 181.182 19.3355 181.315 19.4699 181.402C19.6043 181.488 19.7659 181.521 19.9235 181.495C20.087 181.447 20.2274 181.341 20.3184 181.197C20.4094 181.053 20.4447 180.881 20.4178 180.712C20.3616 180.553 20.2454 180.422 20.0939 180.348C19.9425 180.274 19.768 180.261 19.6077 180.314" fill="white"/>
<path d="M16.9164 185.561V184.187L32.2538 184.984C32.2538 184.984 32.9678 185.313 32.8717 185.808L16.9164 185.561Z" fill="#2E353A"/>
<path d="M24.7979 180.973C24.7979 181.056 24.3997 181.083 24.0152 181.33C23.6307 181.578 23.411 181.894 23.3424 181.866C23.2737 181.839 23.3424 181.385 23.8642 181.097C24.3859 180.809 24.8116 180.905 24.7979 180.973Z" fill="#2E353A"/>
<path d="M26.528 181.756C26.528 181.839 26.1985 181.962 25.9376 182.292C25.6767 182.621 25.5806 182.965 25.5119 182.951C25.4433 182.937 25.3884 182.512 25.7316 182.113C26.0749 181.715 26.528 181.687 26.528 181.756Z" fill="#2E353A"/>
<path d="M27.3793 183.706C27.3107 183.706 27.2145 183.336 27.3793 182.91C27.5441 182.484 27.9423 182.319 27.9835 182.388C28.0247 182.457 27.7775 182.676 27.6127 183.02C27.448 183.363 27.4205 183.706 27.3381 183.706" fill="#2E353A"/>
<path d="M24.6743 179.092C24.6743 179.16 24.2898 179.092 23.8504 179.092C23.411 179.092 23.054 179.257 23.0266 179.188C22.9991 179.119 23.3149 178.845 23.8367 178.831C24.3584 178.817 24.7155 179.051 24.6743 179.119" fill="#2E353A"/>
<path d="M41.4122 107.098C41.4122 107.853 42.6206 126.82 36.4279 140.54C35.4103 142.524 34.5651 144.592 33.9014 146.721C33.5307 148.602 25.4844 179.682 25.4844 179.682L16.2161 179.339C16.2161 179.339 14.7332 163.751 16.2161 154.728C17.699 145.704 20.4726 146.762 20.4726 140.994C20.4726 135.225 19.0996 123.139 19.0996 123.139C17.5419 120.125 16.6079 116.827 16.3534 113.443C16.1693 109.759 16.8121 106.079 18.2345 102.676L20.6649 98.3906L41.1102 97.3194L41.4122 107.098Z" fill="#2E353A"/>
<path d="M41.4123 107.098V106.452C41.4123 106.031 41.4123 105.4 41.4123 104.557C41.4123 102.882 41.3162 100.437 41.2338 97.237L20.7748 98.2807L18.3444 102.566C17.7214 104.081 17.2343 105.648 16.8889 107.249C16.508 108.943 16.3374 110.677 16.3809 112.413C16.5034 114.223 16.779 116.02 17.2048 117.783C17.6304 119.636 18.2902 121.426 19.1683 123.112C19.5253 126.271 19.8411 129.539 20.1157 132.918C20.253 134.594 20.3766 136.31 20.459 138.041C20.459 138.906 20.5413 139.785 20.5413 140.65C20.5413 141.09 20.5413 141.529 20.5413 142.024C20.5125 142.461 20.4575 142.897 20.3766 143.328C20.2192 144.197 19.9274 145.036 19.5115 145.814C19.0996 146.597 18.6328 147.38 18.2483 148.218C17.4769 149.89 16.9187 151.653 16.5869 153.464C15.9195 157.171 15.6069 160.933 15.6532 164.699C15.6532 169.739 15.8866 174.683 16.3122 179.463V179.572H16.4084L25.6904 179.902H25.7728V179.82C28.4503 169.396 30.9631 159.658 33.1737 150.896L33.9701 147.655C34.1075 147.119 34.2036 146.583 34.3684 146.075C34.5331 145.567 34.7116 145.073 34.9176 144.578C35.3158 143.589 35.7414 142.642 36.1808 141.708L36.5104 141.021C36.6202 140.801 36.7301 140.568 36.8262 140.334L37.3891 138.961C38.7035 135.543 39.683 132.006 40.3138 128.399C41.2101 123.261 41.6695 118.055 41.6869 112.839C41.6869 109.186 41.5633 107.208 41.5633 107.208V107.579C41.5633 107.826 41.5633 108.183 41.5633 108.664C41.5633 109.611 41.5633 111.026 41.5633 112.784C41.4736 117.955 40.9546 123.109 40.0117 128.193C39.3733 131.788 38.3845 135.312 37.0596 138.714L36.4966 140.087C36.4054 140.322 36.2999 140.552 36.1808 140.774L35.8513 141.461C35.4119 142.394 34.9862 143.342 34.5743 144.331C34.3821 144.825 34.1898 145.334 34.0251 145.842C33.8603 146.35 33.7642 146.899 33.6269 147.435L32.8305 150.676L25.3883 179.586L25.4982 179.504L16.2299 179.16L16.3397 179.257C15.9278 174.491 15.6806 169.547 15.6944 164.52C15.6497 160.768 15.9578 157.021 16.6143 153.327C16.9482 151.531 17.5016 149.783 18.262 148.122C18.6465 147.298 19.0996 146.528 19.5115 145.718C19.9368 144.92 20.2421 144.064 20.4178 143.177C20.4178 142.738 20.5413 142.285 20.5825 141.804C20.6237 141.323 20.5825 140.911 20.5825 140.43C20.5825 139.552 20.5825 138.673 20.5002 137.807C20.4178 136.077 20.2942 134.36 20.1569 132.671C19.8823 129.306 19.5527 126.023 19.1957 122.865C18.3269 121.202 17.6761 119.434 17.2597 117.605C16.8304 115.85 16.5502 114.063 16.4221 112.262C16.3802 110.545 16.5462 108.83 16.9164 107.153C17.2572 105.561 17.7397 104.003 18.3581 102.497L20.7748 98.2121H20.7061L41.1514 97.1133C41.2475 100.286 41.3162 102.758 41.3711 104.434C41.3711 105.258 41.3711 105.889 41.4397 106.329C41.5084 106.768 41.4397 106.974 41.4397 106.974" fill="#4D5A64"/>
<path d="M34.7665 68.2444C34.7665 68.2444 29.2742 67.2693 29.7822 74.3561C30.098 78.5999 31.3475 85.8514 32.0341 90.4935C32.2675 92.1004 32.7893 94.9708 34.9176 96.6601L50.1176 107.18L54.9097 101.44L41.3299 88.5158L39.2016 75.7295L34.7665 68.2444Z" fill="#4D5A64"/>
<path d="M35.4118 42.7128C36.2841 43.4149 36.9742 44.3171 37.4235 45.3427C37.8729 46.3684 38.0684 47.4874 37.9933 48.6047C37.9109 49.6897 37.6088 50.9258 38.3228 51.7498C39.0368 52.5739 40.3824 52.5464 41.069 53.3842C41.7555 54.222 41.2063 55.8426 41.4809 57.0786C41.6314 57.6553 41.9819 58.1598 42.4698 58.5019C42.9577 58.8441 43.5514 59.0016 44.1447 58.9465C42.7548 60.0738 41.0837 60.8004 39.3114 61.0478L37.9383 59.3035C38.1638 59.6318 38.274 60.0257 38.2517 60.4234C38.2293 60.8211 38.0756 61.2001 37.8147 61.501C37.2766 62.0923 36.5735 62.5085 35.7963 62.6959C33.9732 63.2618 32.0437 63.3976 30.1593 63.0926C28.275 62.7876 26.4868 62.0501 24.9352 60.9379" fill="#2E353A"/>
<path d="M15.0764 52.2717C15.4197 51.4752 15.7218 50.6511 15.9826 49.8271C16.3808 47.9867 15.4883 45.9266 16.3808 44.3335C17.1463 43.2237 18.3133 42.4554 19.635 42.191C20.9477 41.9263 22.18 41.3571 23.2325 40.5291C23.9191 39.8424 24.331 38.8948 25.0175 38.2081C26.0901 37.2989 27.4565 36.8108 28.8622 36.8347C30.2942 36.6939 31.738 36.9306 33.0501 37.5214C33.7041 37.818 34.2788 38.2649 34.7274 38.8258C35.176 39.3866 35.4858 40.0456 35.6315 40.7489C35.6588 41.4456 35.7415 42.1391 35.8787 42.8227C36.2143 43.5121 36.6046 44.1734 37.0458 44.8004C37.4021 45.5334 37.5051 46.364 37.3386 47.1619C37.1721 47.9598 36.7456 48.6798 36.1258 49.2091L26.3082 61.8856C24.2486 62.6684 19.2506 61.7208 17.6578 60.1963C16.065 58.6718 14.3899 54.4555 15.0764 52.3541" fill="#2E353A"/>
<path d="M35.8651 47.506C35.4669 44.6219 33.2699 41.2296 30.3727 41.7515L21.5575 44.718C20.6924 44.8828 21.3103 46.2974 21.3927 47.1764L23.315 67.077C23.315 67.077 22.1204 67.9285 21.6948 67.7637C21.6656 67.7544 21.6339 67.7562 21.606 67.7689C21.5781 67.7816 21.5559 67.8042 21.5437 67.8324C21.53 67.8677 21.53 67.9069 21.5437 67.9423C22.601 69.4805 27.6128 76.1827 32.7619 74.15C33.9153 73.6968 32.6383 70.0298 32.7619 68.6564L32.6108 65.2229C32.501 63.465 32.4461 62.7508 32.4461 62.7645C32.4461 62.7783 36.0847 61.8581 36.4829 56.9825C36.5543 53.7868 36.3291 50.5914 35.8101 47.4373" fill="#EEBE9C"/>
<path d="M35.2609 51.9284C35.2727 52.0895 35.2224 52.2491 35.1203 52.3743C35.0181 52.4995 34.8719 52.5807 34.7117 52.6014C34.635 52.6152 34.5564 52.6137 34.4803 52.597C34.4042 52.5803 34.3321 52.5486 34.2683 52.504C34.2045 52.4593 34.1502 52.4024 34.1084 52.3366C34.0667 52.2708 34.0384 52.1975 34.0251 52.1207C34.0097 51.9588 34.0588 51.7974 34.1616 51.6714C34.2644 51.5454 34.4127 51.465 34.5743 51.4477C34.7291 51.424 34.8869 51.4628 35.0131 51.5556C35.1393 51.6483 35.2235 51.7873 35.2472 51.9421" fill="#2E353A"/>
<path d="M29.2742 52.3129C29.2861 52.4741 29.2358 52.6337 29.1336 52.7588C29.0314 52.884 28.8852 52.9653 28.725 52.9859C28.5686 53.0098 28.4091 52.9714 28.2808 52.8789C28.1524 52.7865 28.0654 52.6474 28.0384 52.4915C28.0266 52.3303 28.0769 52.1708 28.1791 52.0456C28.2812 51.9204 28.4275 51.8391 28.5877 51.8185C28.6643 51.8047 28.743 51.8062 28.8191 51.8229C28.8952 51.8396 28.9672 51.8712 29.031 51.9159C29.0948 51.9606 29.1492 52.0174 29.1909 52.0832C29.2326 52.149 29.261 52.2224 29.2742 52.2992" fill="#2E353A"/>
<path d="M35.4805 49.9095C35.4118 50.0194 34.8351 49.6623 34.1074 49.7584C33.3796 49.8545 32.9128 50.3627 32.8304 50.2666C32.748 50.1704 32.8304 50.0331 33.0364 49.8133C33.2979 49.5234 33.6524 49.334 34.0387 49.2777C34.4226 49.2273 34.8119 49.315 35.1372 49.5249C35.3844 49.6897 35.4942 49.8545 35.453 49.9095" fill="#2E353A"/>
<path d="M29.0133 50.4314C28.9309 50.5275 28.3542 50.1292 27.6402 50.1567C26.9262 50.1842 26.2671 50.6237 26.2671 50.5275C26.2671 50.4314 26.2671 50.294 26.5417 50.1018C26.8597 49.8394 27.2556 49.6897 27.6676 49.676C28.0758 49.6556 28.4784 49.7769 28.8073 50.0194C29.0545 50.1979 29.1506 50.3765 29.1094 50.4314" fill="#2E353A"/>
<path d="M31.4436 54.9911C31.7823 54.853 32.1379 54.7606 32.5009 54.7164C32.6794 54.7164 32.8304 54.634 32.8442 54.5241C32.8513 54.3469 32.798 54.1726 32.6931 54.0297L32.1027 52.7662C31.5556 51.7068 31.0964 50.6044 30.7296 49.47C31.3732 50.4805 31.9246 51.5469 32.3773 52.6563L32.9678 53.9198C33.0881 54.1171 33.1366 54.35 33.105 54.579C33.0857 54.6419 33.0521 54.6993 33.0068 54.747C32.9616 54.7947 32.9059 54.8312 32.8442 54.8537C32.7485 54.8667 32.6515 54.8667 32.5558 54.8537C32.1955 54.9339 31.8261 54.9662 31.4573 54.9499" fill="#2E353A"/>
<path d="M32.501 62.8332C30.2321 63.0367 27.9512 62.6089 25.9102 61.5971C26.6411 62.6361 27.6718 63.4269 28.8644 63.8638C30.057 64.3007 31.3545 64.3628 32.5834 64.0418L32.501 62.8332Z" fill="#E7996E"/>
<path d="M29.4115 56.9276C29.4858 56.7612 29.6046 56.6186 29.7548 56.5155C29.9373 56.4538 30.1351 56.4538 30.3177 56.5155C30.6055 56.5551 30.8716 56.6906 31.0729 56.9001C31.1728 57.0038 31.2433 57.1323 31.2771 57.2723C31.3109 57.4123 31.3068 57.5588 31.2651 57.6967C31.2651 57.9714 30.7846 58.1224 30.4962 58.1774C30.2092 58.2163 29.9176 58.1531 29.6724 57.9988C29.5598 57.9522 29.4613 57.877 29.3866 57.7807C29.312 57.6843 29.2637 57.5702 29.2467 57.4495C29.2599 57.2821 29.3167 57.1211 29.4115 56.9825" fill="#E7996E"/>
<path d="M29.5487 55.9937C29.6586 55.9937 29.7135 56.7078 30.3726 57.1748C31.0317 57.6417 31.7457 57.4907 31.7457 57.6006C31.7457 57.7104 31.5809 57.7516 31.2651 57.7791C30.8418 57.8219 30.4174 57.7096 30.0705 57.4632C29.7396 57.2317 29.5089 56.8832 29.4252 56.4881C29.4252 56.1859 29.4252 55.9937 29.4252 55.9937" fill="#2E353A"/>
<path d="M28.9446 47.8219C28.9446 48.0142 28.2306 47.973 27.4617 48.1378C26.6928 48.3026 26.0886 48.5498 25.9513 48.3987C25.814 48.2477 25.9513 48.1378 26.2259 47.9455C26.5499 47.7034 26.9252 47.5391 27.3228 47.4652C27.7205 47.3914 28.1297 47.41 28.519 47.5198C28.8073 47.6022 28.9721 47.7395 28.9446 47.8219Z" fill="#2E353A"/>
<path d="M35.0686 47.4648C34.945 47.6159 34.4095 47.4648 33.7779 47.5472C33.1463 47.6296 32.6245 47.7395 32.4872 47.5472C32.3499 47.355 32.4872 47.3138 32.7206 47.1627C33.0269 46.9599 33.3833 46.8458 33.7504 46.8331C34.1163 46.8089 34.4818 46.8849 34.8077 47.0528C35.0411 47.1901 35.1235 47.3412 35.0686 47.4236" fill="#2E353A"/>
<path d="M19.6626 45.4047C20.1733 44.7512 20.8735 44.2715 21.6673 44.0313C24.9591 42.7659 28.3877 41.8901 31.8831 41.4219C32.0574 41.8063 32.091 42.2398 31.9781 42.6466C31.8651 43.0533 31.6128 43.4073 31.2652 43.6468C30.5563 44.0989 29.7832 44.4415 28.9721 44.6631C28.5687 44.7777 28.1922 44.9716 27.8645 45.2333C27.5368 45.4951 27.2645 45.8194 27.0635 46.1876C26.7203 47.0116 27.0635 47.9867 26.7065 48.8245C26.1848 50.1979 24.1663 50.7335 23.6583 52.1756C23.2738 53.2743 23.9054 54.4417 24.0702 55.5954C24.1496 56.1351 24.121 56.6853 23.9861 57.2139C23.8512 57.7425 23.6127 58.2391 23.2844 58.6748C22.9561 59.1104 22.5446 59.4766 22.0737 59.7519C21.6028 60.0273 21.082 60.2063 20.5414 60.2787C20.3629 60.2787 20.1706 60.2787 19.9921 60.2787L19.2781 47.8357C19.1429 46.9783 19.2772 46.1 19.6626 45.3223" fill="#2E353A"/>
<path d="M11.3005 55.8838C11.9596 55.2932 12.7834 54.7851 13.0443 53.9473C13.415 52.7249 12.4401 51.2829 13.0443 50.1704C13.6484 49.058 15.3099 49.209 15.7905 48.179C16.2024 47.3687 15.7905 46.6408 15.9003 45.9403C16.0401 45.5589 16.2979 45.2321 16.6363 45.0073C16.9746 44.7825 17.3758 44.6715 17.7815 44.6905L23.4523 52.931C23.9741 55.6778 24.4958 57.1473 23.9054 58.7542C23.5161 59.6349 23.226 60.5561 23.0404 61.501C22.9469 61.9632 22.9777 62.4419 23.1297 62.8883C23.2816 63.3347 23.5493 63.7327 23.9054 64.0418C20.5276 64.3027 17.3558 62.531 14.4311 60.8143L11.4241 58.8915C11.0834 58.7374 10.7896 58.4957 10.5727 58.1911C10.1196 57.4357 10.6689 56.4606 11.3142 55.8838" fill="#2E353A"/>
<path d="M14.4174 59.8804C14.5334 59.9165 14.6532 59.9395 14.7744 59.9491C15.1281 59.9884 15.486 59.9651 15.8317 59.8804C16.3808 59.7433 16.8862 59.4692 17.3009 59.0838C17.8457 58.5596 18.1864 57.8586 18.262 57.1061C18.3154 56.6728 18.278 56.2332 18.1522 55.8151C18.0003 55.3671 17.7878 54.9419 17.5205 54.5516C17.2433 54.1503 17.0259 53.7108 16.8752 53.2469C16.7948 53.0085 16.7691 52.7551 16.8 52.5055C16.8309 52.2558 16.9176 52.0164 17.0537 51.8048C17.4413 51.451 17.9146 51.2048 18.4268 51.0906C18.7095 50.9812 18.9566 50.7958 19.1408 50.555C19.3192 50.2933 19.4017 49.9779 19.3742 49.6623C19.3097 49.0642 19.1808 48.4747 18.9897 47.9043C18.9349 47.6185 18.9349 47.3249 18.9897 47.0391C19.0653 46.7575 19.2411 46.5133 19.4841 46.3524C20.0052 46.0486 20.5972 45.8875 21.2004 45.8854C21.8155 45.8674 22.4157 45.6925 22.9442 45.3773C23.4525 45.0637 23.8655 44.6173 24.1388 44.0863C24.3601 43.5692 24.508 43.0237 24.5782 42.4657C24.6324 41.947 24.7429 41.4359 24.9078 40.9412C25.0793 40.4877 25.3516 40.0791 25.7041 39.7463C26.2803 39.1832 27.0209 38.8184 27.8184 38.7048C28.6159 38.5912 29.4288 38.7347 30.1392 39.1145C30.654 39.3567 31.1195 39.6919 31.5123 40.1034C31.8255 40.4577 32.0931 40.8499 32.3087 41.2708C32.3168 41.2393 32.3168 41.2062 32.3087 41.1747C32.3087 41.1747 32.3087 41.0373 32.1989 40.9274C32.0343 40.615 31.8313 40.3243 31.5947 40.0622C31.2076 39.6301 30.7415 39.2758 30.2216 39.0184C29.5602 38.6649 28.8148 38.4987 28.0659 38.5377C27.1499 38.6045 26.2858 38.9881 25.6218 39.6227C25.2546 39.9759 24.9647 40.4015 24.7704 40.8725C24.601 41.3808 24.486 41.9056 24.4272 42.4382C24.3598 42.9775 24.2165 43.5046 24.0015 44.0039C23.7395 44.4991 23.351 44.9161 22.8756 45.2125C22.3721 45.5125 21.8 45.678 21.2142 45.6931C20.5762 45.689 19.9492 45.86 19.4017 46.1876C19.1229 46.3752 18.9226 46.6587 18.8387 46.9841C18.7702 47.2963 18.7702 47.6196 18.8387 47.9318C19.0139 48.4972 19.1425 49.0759 19.2232 49.6623C19.2347 49.938 19.1629 50.2108 19.0172 50.4451C18.8566 50.659 18.6371 50.8213 18.3856 50.9121C18.1384 51.0219 17.8638 51.0906 17.6029 51.2005C17.3253 51.2987 17.0821 51.4752 16.9027 51.7087C16.7513 51.9393 16.6542 52.2012 16.6185 52.4747C16.5828 52.7483 16.6096 53.0263 16.6967 53.2881C16.8533 53.7786 17.0849 54.2419 17.3832 54.6615C17.6378 55.0425 17.8453 55.4529 18.0011 55.8838C18.1198 56.2844 18.1572 56.7046 18.111 57.1199C18.0461 57.8439 17.7247 58.521 17.2047 59.0289C16.8242 59.4095 16.3509 59.6841 15.8317 59.8255C15.3845 59.9469 14.9171 59.9749 14.4586 59.9079" fill="#4D5A64"/>
<path d="M9.89995 54.0297C9.84381 54.1122 9.80633 54.2059 9.7901 54.3044C9.73591 54.5927 9.78967 54.8909 9.94114 55.1422C10.0377 55.3302 10.1852 55.4873 10.3668 55.5954C10.5835 55.7336 10.8379 55.8008 11.0945 55.7877C11.4031 55.7811 11.7041 55.6907 11.9653 55.5262C12.2265 55.3617 12.4381 55.1293 12.5775 54.8538C12.7434 54.5365 12.8239 54.1815 12.8109 53.8237C12.8091 53.4365 12.7297 53.0535 12.5775 52.6975C12.1934 51.982 11.9334 51.2064 11.8085 50.4039C11.7932 50.1926 11.8206 49.9803 11.889 49.7797C11.9574 49.5792 12.0655 49.3944 12.2067 49.2365C12.3769 49.0937 12.5738 48.9861 12.786 48.9201C12.9982 48.854 13.2213 48.8309 13.4425 48.852C13.9374 48.8906 14.4351 48.8394 14.9117 48.7009C15.1603 48.6032 15.3685 48.424 15.5021 48.1927C15.6371 47.9663 15.7214 47.7133 15.7493 47.4511C15.777 46.9443 15.7355 46.436 15.6257 45.9404C15.5606 45.4817 15.5887 45.0146 15.7081 44.567C15.955 43.7052 16.5192 42.969 17.2872 42.5069C18.0139 42.138 18.8204 41.954 19.6351 41.9712C20.363 41.9734 21.0864 41.8575 21.7771 41.6279C22.7738 41.2536 23.6056 40.5383 24.1251 39.609C24.32 39.2782 24.4548 38.9155 24.5233 38.5377C24.3886 38.8968 24.228 39.2457 24.0428 39.5815C23.8147 39.9594 23.5325 40.3018 23.2052 40.5978C22.7752 40.9945 22.2713 41.3026 21.7222 41.5043C21.0418 41.7133 20.3331 41.8152 19.6214 41.8064C18.7778 41.7802 17.9414 41.9692 17.191 42.3558C16.3751 42.8374 15.7753 43.6143 15.5159 44.5258C15.3923 45.0055 15.3643 45.5048 15.4335 45.9953C15.5296 46.4743 15.5711 46.9627 15.5571 47.4511C15.5471 47.6831 15.4741 47.908 15.3458 48.1016C15.2176 48.2952 15.039 48.4502 14.8293 48.5498C14.3818 48.6679 13.9183 48.7142 13.4562 48.6872C12.9585 48.647 12.4651 48.8049 12.0832 49.1266C11.9192 49.3129 11.7955 49.5311 11.7199 49.7674C11.6443 50.0038 11.6184 50.2532 11.6438 50.5001C11.6658 50.9378 11.773 51.367 11.9596 51.7636C12.1243 52.1482 12.3029 52.5052 12.4402 52.8623C12.5852 53.1972 12.6689 53.5554 12.6873 53.9198C12.6898 54.253 12.6146 54.5822 12.4676 54.8812C12.3422 55.1414 12.1479 55.3622 11.9058 55.5195C11.6637 55.6769 11.3831 55.7649 11.0945 55.7739C10.8587 55.7884 10.6242 55.7309 10.4217 55.6091C10.2183 55.4849 10.0547 55.3052 9.95009 55.091C9.84547 54.8769 9.80425 54.6373 9.83129 54.4005C9.85051 54.3067 9.87808 54.2148 9.91367 54.1259" fill="#2E353A"/>
<path d="M45.5589 56.0761C45.6617 56.36 45.6617 56.6711 45.5589 56.955C45.5024 57.1185 45.4103 57.2674 45.2892 57.3909C45.168 57.5144 45.021 57.6095 44.8587 57.6692C44.6424 57.7338 44.4124 57.7372 44.1942 57.679C43.9761 57.6208 43.7783 57.5033 43.6229 57.3396C43.4488 57.141 43.3471 56.8892 43.3346 56.6254C43.3207 56.3363 43.3626 56.0472 43.4581 55.7739C43.7567 55.1653 43.925 54.5011 43.9524 53.8237C43.9248 53.4451 43.8191 53.0763 43.6418 52.7406C43.4646 52.405 43.2197 52.1097 42.9226 51.8734C42.6088 51.624 42.2498 51.4375 41.8653 51.3241C41.4772 51.2102 41.0752 51.1501 40.6708 51.1455C40.2739 51.1459 39.8781 51.1044 39.4899 51.0219C39.1308 50.9473 38.8097 50.7478 38.5837 50.4588C38.3811 50.1626 38.2668 49.8149 38.2541 49.4562C38.24 49.1063 38.2677 48.7559 38.3365 48.4125C38.5238 47.769 38.6299 47.1046 38.6523 46.4348C38.6144 45.8385 38.4046 45.2661 38.0482 44.7867C37.7425 44.4105 37.3701 44.0939 36.9497 43.8528C36.6386 43.6721 36.3404 43.4702 36.0572 43.2485C35.833 43.045 35.647 42.8032 35.5079 42.5343L35.5766 42.6991C35.6826 42.9074 35.827 43.0938 36.0022 43.2485C36.2755 43.4832 36.5645 43.6988 36.8673 43.894C37.2739 44.1323 37.6324 44.4443 37.9246 44.8141C38.2535 45.2728 38.4441 45.8161 38.4738 46.3798C38.446 47.0356 38.34 47.6857 38.158 48.3163C38.0722 48.6758 38.0398 49.0461 38.0619 49.415C38.0729 49.808 38.1969 50.1894 38.4189 50.5138C38.6686 50.8446 39.0295 51.0738 39.435 51.1593C39.8332 51.2389 40.2374 51.2848 40.6433 51.2966C41.0326 51.2978 41.4202 51.3486 41.7967 51.4477C42.1605 51.5573 42.5005 51.7344 42.799 51.9696C43.0781 52.1898 43.3079 52.4662 43.4734 52.7809C43.639 53.0955 43.7367 53.4414 43.7602 53.7962C43.7355 54.4488 43.5766 55.0893 43.2934 55.6778C43.1977 55.9699 43.1558 56.2771 43.1698 56.5842C43.1842 56.8825 43.3062 57.1655 43.513 57.3808C43.6877 57.5597 43.9079 57.6875 44.1499 57.7505C44.3919 57.8134 44.6464 57.809 44.8861 57.7379C45.171 57.6242 45.4055 57.4118 45.5467 57.1394C45.6879 56.8671 45.7263 56.553 45.6551 56.2546C45.6422 56.1767 45.6142 56.102 45.5727 56.0349" fill="#2E353A"/>
<path d="M41.5084 89.2438V84.5604C42.0798 81.8146 41.7474 78.9575 40.561 76.4162C39.678 74.8626 38.6966 73.3671 37.6226 71.9389L32.9541 65.8959C30.4001 67.7637 26.377 66.4178 22.9306 65.168C21.1164 66.1623 19.4406 67.3905 17.9462 68.8213C16.2848 70.6754 21.9694 93.9957 21.9694 93.9957C19.4017 99.146 16.0651 103.719 15.5708 108.43L42.4833 109.474L41.3436 97.1134L41.5084 89.2438Z" fill="#4D5A64"/>
<path d="M41.1376 97.237C41.117 97.0636 41.117 96.8884 41.1376 96.7151C41.1376 96.3305 41.1376 95.8498 41.1376 95.273C41.1376 94.0232 41.1376 92.3751 41.22 90.5485C41.3024 88.7219 41.3024 87.0188 41.3573 85.8103C41.3573 85.206 41.3573 84.7115 41.4397 84.4368C41.4205 84.2634 41.4205 84.0884 41.4397 83.9149C41.4603 84.0929 41.4603 84.2726 41.4397 84.4506C41.4397 84.8351 41.4397 85.3158 41.4397 85.824C41.4397 87.0875 41.4397 88.7356 41.3573 90.5622C41.2749 92.3889 41.2749 94.0781 41.22 95.3005C41.22 95.9048 41.22 96.3992 41.1376 96.6739C41.136 96.85 41.1129 97.0252 41.069 97.1958" fill="#2E353A"/>
<path d="M53.4405 101.508C54.9238 101.594 56.3731 101.987 57.697 102.662C59.3173 103.678 61.9262 105.258 63.0109 107.222C63.5052 108.128 62.0909 108.32 61.3907 107.798C60.704 107.152 59.9325 106.602 59.0976 106.164L58.5758 106.04C59.0561 107.134 59.5923 108.202 60.1823 109.24C60.7316 110.078 61.2122 111.493 59.5644 111.562C59.5644 111.562 58.4523 113.004 57.3401 111.932C57.3401 111.932 56.4613 113.237 55.0607 111.424C55.0607 111.424 54.2369 112.468 53.8936 112.07C53.0832 111.489 52.4623 110.681 52.1086 109.749C51.6235 108.241 51.0597 106.761 50.4197 105.313L53.4405 101.508Z" fill="#EEBE9C"/>
<path d="M112.209 65.1131C112.497 65.1131 124.566 63.8495 124.566 63.8495C125.01 61.8151 125.331 59.7559 125.528 57.6829C125.528 56.4194 124.608 48.0691 124.608 48.0691L129.111 45.9403C129.111 45.9403 135.126 66.2255 133.821 67.9148C132.71 69.2308 131.352 70.3178 129.825 71.1148C129.619 71.1148 118.182 76.1964 110.218 73.5595C102.254 70.9225 112.25 65.1543 112.25 65.1543" fill="#EEBE9C"/>
<path d="M101.677 76.0042C103.448 77.7621 106.497 79.2317 111.577 77.9544C121.642 75.4411 129.18 73.3123 132.173 71.6917C135.167 70.0711 133.999 62.8882 134.26 62.5585C134.549 61.9502 134.59 61.2534 134.375 60.6153C134.16 59.9772 133.705 59.4478 133.107 59.1388C130.255 58.4511 127.292 58.3576 124.402 58.8641C123.969 59.3702 123.719 60.0079 123.694 60.6737C123.669 61.3394 123.87 61.994 124.264 62.5311L111 64.2753C109.369 64.197 107.735 64.2983 106.126 64.5774" fill="#4D5A64"/>
<path d="M106.167 64.6461H106.483L107.417 64.495C108.618 64.3419 109.831 64.2914 111.042 64.3439L124.306 62.5723V62.7096C123.869 62.0735 123.656 61.31 123.701 60.5396C123.732 60.1355 123.859 59.7447 124.072 59.3997C124.184 59.2306 124.308 59.0699 124.443 58.919L124.621 58.8229H124.772H125.061C126.701 58.6285 128.356 58.5917 130.004 58.713C130.872 58.7703 131.734 58.8896 132.585 59.0701L133.231 59.2349C133.456 59.3079 133.662 59.4299 133.835 59.592C134.17 59.9123 134.424 60.3077 134.576 60.7456C134.752 61.1807 134.814 61.6535 134.755 62.119C134.715 62.359 134.626 62.5882 134.494 62.792C134.494 62.792 134.494 62.9431 134.494 63.053V63.3963C134.494 64.3028 134.563 65.2367 134.494 66.1431C134.511 67.4701 134.297 68.7899 133.862 70.0436C133.646 70.6716 133.267 71.2308 132.764 71.6642C132.514 71.8676 132.237 72.0341 131.94 72.1586C131.652 72.3097 131.363 72.4333 131.075 72.5569C129.921 73.0651 128.754 73.4633 127.601 73.8479C126.448 74.2324 125.322 74.5621 124.223 74.8917C119.802 76.1827 115.779 77.1853 112.387 78.0368C111.586 78.2483 110.775 78.4179 109.957 78.545C109.22 78.6432 108.476 78.6799 107.732 78.6548C106.541 78.6317 105.365 78.375 104.272 77.8994C103.584 77.5969 102.942 77.1993 102.364 76.7183C102.16 76.5579 101.971 76.3786 101.801 76.1827L102.391 76.6908C102.977 77.1493 103.618 77.5322 104.3 77.8308C105.39 78.276 106.555 78.5135 107.732 78.5312C108.467 78.5475 109.202 78.5016 109.929 78.3939C110.745 78.2688 111.552 78.0945 112.346 77.872C115.724 77.0205 119.747 75.9904 124.155 74.6994C125.253 74.3698 126.393 74.0264 127.532 73.6419C128.672 73.2573 129.839 72.8591 130.979 72.3646C131.267 72.2273 131.555 72.1174 131.83 71.9663C132.267 71.7904 132.659 71.5191 132.977 71.1721C133.295 70.8252 133.532 70.4115 133.67 69.9612C134.083 68.7264 134.287 67.4313 134.274 66.1294C134.274 65.2092 134.274 64.289 134.274 63.3826V62.8607C134.274 62.8607 134.274 62.792 134.274 62.7508V62.6821C134.39 62.509 134.465 62.3118 134.494 62.1053C134.55 61.677 134.493 61.2415 134.329 60.8418C134.192 60.4335 133.956 60.0655 133.643 59.7705C133.498 59.6258 133.318 59.5216 133.121 59.4684L132.503 59.3036C131.666 59.1231 130.817 59.0038 129.963 58.9465C128.329 58.8204 126.688 58.8526 125.061 59.0426H124.772H124.635H124.539C124.417 59.1798 124.307 59.3268 124.209 59.4821C124.004 59.7943 123.881 60.1534 123.852 60.5259C123.808 61.2558 124.006 61.9799 124.415 62.586L124.498 62.7096H124.36L111.083 64.3989C109.883 64.3394 108.68 64.3761 107.485 64.5088L106.538 64.6186H106.222" fill="#2E353A"/>
<path d="M173.901 13.8164L174.355 14.6405C175 15.8126 175.156 17.1923 174.788 18.4788C174.42 19.7652 173.558 20.854 172.391 21.5075L70.2059 78.4076L64.8234 68.7114L167.009 11.8113C168.181 11.1695 169.559 11.0157 170.844 11.3833C172.13 11.751 173.218 12.6104 173.874 13.7752" fill="#B67638"/>
<path d="M150.779 0.466964L163.287 22.9496L155.9 27.0698L143.378 4.58717C143.259 4.36616 143.231 4.10739 143.3 3.86617C143.37 3.62494 143.53 3.42037 143.748 3.29617L149.488 0.0961388C149.709 -0.0227991 149.968 -0.0505843 150.209 0.0187046C150.45 0.0879936 150.654 0.248868 150.779 0.466964Z" fill="#B67638"/>
<path d="M138.668 12.498L147.785 28.8827C147.963 29.1997 148.008 29.5743 147.91 29.9244C147.813 30.2746 147.58 30.5716 147.264 30.7505L142.266 33.4973C142.108 33.5849 141.934 33.6405 141.755 33.6609C141.576 33.6814 141.394 33.6663 141.221 33.6166C141.047 33.5668 140.886 33.4834 140.744 33.371C140.603 33.2586 140.486 33.1196 140.398 32.9617L131.281 16.577C131.193 16.4192 131.138 16.2457 131.117 16.0664C131.097 15.8871 131.112 15.7055 131.162 15.5321C131.211 15.3586 131.295 15.1966 131.407 15.0554C131.519 14.9142 131.658 14.7966 131.816 14.7091L136.814 11.9623C136.972 11.8748 137.146 11.8192 137.325 11.7987C137.504 11.7783 137.686 11.7933 137.859 11.8431C138.032 11.8928 138.194 11.9763 138.336 12.0886C138.477 12.201 138.594 12.3401 138.682 12.498" fill="#B67638"/>
<path d="M150.845 9.24324L139.349 15.638L144.988 25.7804L156.484 19.3856L150.845 9.24324Z" fill="#B67638"/>
<path d="M165.498 12.6902C165.498 12.6902 145.479 23.9521 120.722 37.7411C95.965 51.5301 75.8493 62.6684 75.8218 62.6134C75.7943 62.5585 95.8414 51.2829 120.598 37.5488C145.355 23.8148 165.471 12.6353 165.498 12.6902Z" fill="#2E353A"/>
<path d="M28.8348 97.182C36.3593 110.724 52.1773 116.245 64.3154 109.543C76.4535 102.84 80.0647 86.4008 72.5539 72.8728C65.0431 59.3448 49.1428 53.81 37.0733 60.5122C25.0039 67.2144 21.324 83.654 28.8348 97.182ZM65.9906 76.4986C71.277 85.9751 68.7367 97.4842 60.2373 102.195C51.7379 106.906 40.6434 103.033 35.3707 93.5425C30.0981 84.0523 32.6245 72.5569 41.124 67.8461C49.6234 63.1354 60.7179 67.0084 65.9906 76.4986Z" fill="#B67638"/>
<path d="M87.2871 56.0898L92.8619 66.1157C93.0391 66.4318 93.152 66.78 93.194 67.14C93.2361 67.5001 93.2065 67.8649 93.1069 68.2134C93.0073 68.562 92.8398 68.8873 92.6139 69.1708C92.3881 69.4543 92.1083 69.6902 91.7908 69.865L91.3377 70.126C91.0216 70.3032 90.6735 70.4161 90.3136 70.4582C89.9536 70.5003 89.5889 70.4707 89.2404 70.3711C88.892 70.2715 88.5667 70.1039 88.2833 69.878C87.9999 69.6521 87.764 69.3723 87.5892 69.0547L82.0007 59.0289C81.8235 58.7127 81.7106 58.3645 81.6686 58.0045C81.6265 57.6445 81.6561 57.2797 81.7557 56.9311C81.8552 56.5826 82.0228 56.2572 82.2487 55.9737C82.4745 55.6903 82.7543 55.4543 83.0717 55.2795L83.5249 55.0186C83.8416 54.8391 84.1908 54.7245 84.5522 54.6813C84.9136 54.638 85.28 54.6671 85.6301 54.7668C85.9802 54.8665 86.3069 55.0348 86.5914 55.2619C86.8759 55.489 87.1124 55.7704 87.2871 56.0898Z" fill="#B67638"/>
<path d="M97.9973 50.1292L103.572 60.1551C103.749 60.4713 103.862 60.8194 103.904 61.1795C103.946 61.5395 103.917 61.9043 103.817 62.2528C103.717 62.6014 103.55 62.9268 103.324 63.2102C103.098 63.4937 102.818 63.7296 102.501 63.9045L102.048 64.1654C101.732 64.3427 101.384 64.4556 101.024 64.4976C100.664 64.5397 100.299 64.5101 99.9506 64.4105C99.6021 64.3109 99.2768 64.1433 98.9934 63.9174C98.71 63.6915 98.4741 63.4117 98.2993 63.0942L92.7109 53.0683C92.5315 52.7515 92.4169 52.4022 92.3737 52.0407C92.3305 51.6792 92.3595 51.3128 92.4592 50.9626C92.5588 50.6125 92.7271 50.2856 92.9542 50.0011C93.1812 49.7165 93.4626 49.48 93.7819 49.3052L94.235 49.058C94.5517 48.8786 94.9009 48.7639 95.2623 48.7207C95.6237 48.6775 95.9901 48.7065 96.3402 48.8062C96.6903 48.9059 97.0171 49.0742 97.3015 49.3013C97.586 49.5284 97.8225 49.8099 97.9973 50.1292Z" fill="#B67638"/>
<path d="M87.1773 55.9113C87.1773 55.9113 88.5504 58.1637 90.0608 60.9929C91.5712 63.8221 92.807 66.1569 92.807 66.1843C92.807 66.2118 91.4339 63.9319 89.9097 61.1027C88.3856 58.2735 87.1636 55.9525 87.1636 55.925" fill="#2E353A"/>
<path d="M82.2479 59.4272C82.2479 59.4272 83.621 61.5697 85.0765 64.2753C86.532 66.9809 87.8227 69.1921 87.6991 69.2333C87.5755 69.2745 86.326 67.0907 84.8843 64.3851C83.4425 61.6795 82.1381 59.4684 82.2479 59.4409" fill="#2E353A"/>
<path d="M97.9286 50.0331C97.9286 50.0331 99.3017 52.2717 100.867 55.0872C102.432 57.9027 103.613 60.2237 103.613 60.2512C103.613 60.2787 102.24 58.0263 100.675 55.1971C99.1094 52.3679 97.9286 50.0605 97.9286 50.0331Z" fill="#2E353A"/>
<path d="M92.7657 53.1644C92.7657 53.1644 94.1388 55.3756 95.6492 58.1774C97.1596 60.9791 98.3954 63.2864 98.3954 63.3139C98.3954 63.3413 97.0223 61.089 95.5119 58.2872C94.0015 55.4855 92.7657 53.1919 92.7657 53.1644Z" fill="#2E353A"/>
<path d="M123.482 37.8922C123.977 37.952 124.477 37.825 124.883 37.5359C125.29 37.2469 125.574 36.8166 125.681 36.3292C125.787 35.8417 125.708 35.3321 125.459 34.8998C125.209 34.4676 124.808 34.1438 124.333 33.9917C124.637 33.6779 124.834 33.2767 124.898 32.8446C124.962 32.4125 124.889 31.9713 124.688 31.5831C124.488 31.1949 124.171 30.8793 123.783 30.6806C123.394 30.482 122.952 30.4104 122.521 30.4758C122.508 30.1493 122.432 29.8284 122.295 29.5315C122.159 29.2346 121.965 28.9676 121.725 28.7456C121.485 28.5237 121.204 28.3512 120.898 28.238C120.591 28.1249 120.266 28.0732 119.939 28.0861C119.529 28.1118 119.131 28.2292 118.772 28.4294C118.292 28.0261 117.688 27.7994 117.061 27.7869C116.434 27.7744 115.822 27.9769 115.326 28.3608C115.068 28.3112 114.804 28.3132 114.548 28.3667C114.291 28.4201 114.048 28.524 113.832 28.6722C113.616 28.8204 113.432 29.01 113.29 29.23C113.148 29.4501 113.051 29.6961 113.005 29.9539C112.945 30.2738 112.963 30.6034 113.059 30.9145C113.155 31.2256 113.325 31.5087 113.554 31.7394" fill="#2E353A"/>
<path d="M114.886 30.3385H115.326C117.46 30.3392 119.516 31.146 121.082 32.5974C122.647 34.0488 123.607 36.0379 123.77 38.1669C124.086 42.2871 124.388 46.8056 124.347 49.003C124.305 50.2791 123.82 51.5009 122.976 52.4583C122.132 53.4157 120.98 54.049 119.719 54.2495L120.09 59.7431L109.106 59.3722L108.186 39.5128C107.787 34.7746 110.218 30.5994 114.955 30.3385" fill="#EEBE9C"/>
<path d="M119.761 54.2494C117.646 54.2493 115.577 53.6389 113.801 52.4915C114.353 53.5668 115.23 54.4405 116.308 54.988C117.385 55.5355 118.608 55.7288 119.802 55.5404L119.761 54.2494Z" fill="#E7996E"/>
<path d="M121.271 42.4519C121.271 42.6208 121.205 42.7829 121.087 42.9036C120.969 43.0242 120.808 43.0938 120.639 43.0974C120.558 43.105 120.476 43.0964 120.398 43.0721C120.321 43.0478 120.248 43.0084 120.186 42.956C120.123 42.9037 120.072 42.8395 120.034 42.7671C119.996 42.6947 119.973 42.6156 119.967 42.5343C119.967 42.3655 120.033 42.2033 120.151 42.0827C120.269 41.962 120.429 41.8924 120.598 41.8888C120.764 41.8774 120.927 41.9315 121.053 42.0394C121.179 42.1473 121.257 42.3004 121.271 42.4657" fill="#2E353A"/>
<path d="M122.781 40.3918C122.699 40.4742 122.205 40.1171 121.504 40.1171C120.804 40.1171 120.296 40.4605 120.214 40.3781C120.131 40.2957 120.214 40.1858 120.488 40.021C120.798 39.8157 121.161 39.7059 121.532 39.7051C121.892 39.7088 122.242 39.8239 122.534 40.0347C122.754 40.1995 122.823 40.3506 122.781 40.3918Z" fill="#2E353A"/>
<path d="M114.941 42.1497C114.941 42.3186 114.875 42.4807 114.757 42.6014C114.639 42.722 114.478 42.7917 114.309 42.7952C114.228 42.8008 114.147 42.7903 114.07 42.7643C113.993 42.7383 113.921 42.6974 113.86 42.6438C113.799 42.5902 113.749 42.525 113.713 42.452C113.677 42.379 113.656 42.2996 113.65 42.2184C113.65 42.0482 113.716 41.8846 113.834 41.7617C113.951 41.6388 114.112 41.5663 114.282 41.5592C114.363 41.5536 114.445 41.5641 114.522 41.5901C114.599 41.6161 114.67 41.657 114.731 41.7106C114.793 41.7642 114.843 41.8294 114.879 41.9024C114.915 41.9754 114.936 42.0548 114.941 42.136" fill="#2E353A"/>
<path d="M115.902 40.5017C115.82 40.5841 115.326 40.227 114.625 40.227C113.925 40.227 113.417 40.5704 113.335 40.4879C113.252 40.4055 113.335 40.2957 113.609 40.1309C113.914 39.9259 114.272 39.816 114.639 39.815C115.004 39.8167 115.359 39.9319 115.655 40.1446C115.875 40.3094 115.943 40.4742 115.902 40.5017Z" fill="#2E353A"/>
<path d="M118.429 45.7069C118.8 45.5961 119.182 45.527 119.568 45.5009C119.747 45.5009 119.912 45.5009 119.939 45.3361C119.952 45.1508 119.914 44.9656 119.829 44.8004L119.294 43.427C118.812 42.2689 118.422 41.075 118.127 39.8562C118.702 40.97 119.188 42.1272 119.582 43.3172L120.09 44.6906C120.199 44.9071 120.228 45.1551 120.173 45.391C120.145 45.4517 120.105 45.5062 120.055 45.551C120.006 45.5959 119.947 45.6302 119.884 45.6519C119.784 45.6653 119.682 45.6653 119.582 45.6519C119.199 45.6931 118.812 45.6931 118.429 45.6519" fill="#2E353A"/>
<path d="M116.52 37.8098C116.424 37.9883 115.834 37.8098 115.147 37.8098C114.46 37.8098 113.774 37.9059 113.774 37.7136C113.774 37.5214 113.884 37.4664 114.145 37.3291C114.491 37.1629 114.873 37.0828 115.257 37.0956C115.636 37.1123 116.005 37.2258 116.328 37.4252C116.575 37.5901 116.685 37.7686 116.644 37.851" fill="#2E353A"/>
<path d="M122.823 37.5488C122.672 37.7136 122.095 37.5488 121.45 37.5488C120.804 37.5488 120.159 37.645 120.076 37.4802C119.994 37.3154 120.076 37.2467 120.379 37.0956C120.733 36.908 121.131 36.818 121.532 36.8347C121.929 36.8356 122.318 36.9448 122.658 37.1506C122.905 37.3154 122.987 37.4802 122.919 37.5626" fill="#2E353A"/>
<path d="M123.331 36.0793C123.331 36.0793 122.136 33.2226 120.763 32.5496C119.102 31.7393 118.388 33.566 116.795 33.1127C115.202 32.6595 113.623 31.8904 111.989 33.1127C110.355 34.3351 111.042 35.3926 110.918 37.4252C110.451 45.6656 108.954 47.9318 108.543 44.0725C108.543 43.6467 107.321 43.3034 107.169 41.518C106.858 39.2603 106.932 36.9661 107.389 34.7333C107.856 33.3315 108.792 32.1335 110.039 31.341C112.251 29.9811 114.877 29.4597 117.44 29.8715C119.527 30.0913 123.55 32.5084 123.344 36.0793" fill="#2E353A"/>
<path d="M108.831 43.9352C108.82 43.6097 108.681 43.3017 108.445 43.078C108.208 42.8542 107.893 42.7329 107.568 42.7403H107.54C106.689 42.8227 105.741 43.3034 105.796 45.0614C105.78 45.3685 105.824 45.6758 105.927 45.9656C106.031 46.2553 106.19 46.5216 106.397 46.7491C106.604 46.9766 106.854 47.1606 107.133 47.2905C107.412 47.4205 107.714 47.4937 108.021 47.506C108.353 47.5322 108.687 47.4805 108.996 47.3549C108.996 47.3549 108.927 45.2399 108.872 43.9352" fill="#EEBE9C"/>
<path d="M108.24 46.2013C108.24 46.2013 108.24 46.2013 108.103 46.2837C108.038 46.3109 107.968 46.3249 107.897 46.3249C107.826 46.3249 107.756 46.3109 107.691 46.2837C107.491 46.1588 107.327 45.9845 107.214 45.7776C107.101 45.5708 107.043 45.3383 107.046 45.1026C107.024 44.8355 107.066 44.567 107.169 44.3197C107.198 44.2225 107.249 44.1333 107.318 44.0593C107.387 43.9854 107.473 43.9287 107.568 43.894C107.628 43.8746 107.693 43.8779 107.751 43.9031C107.81 43.9284 107.856 43.974 107.883 44.0313C107.883 44.1137 107.883 44.1824 107.883 44.1824C107.883 44.1824 107.883 44.1824 107.883 44.0038C107.879 43.9645 107.865 43.9268 107.844 43.8934C107.822 43.8601 107.794 43.8321 107.76 43.8116C107.713 43.7885 107.661 43.7766 107.609 43.7766C107.556 43.7766 107.505 43.7885 107.458 43.8116C107.331 43.8388 107.214 43.8987 107.117 43.9855C107.021 44.0722 106.949 44.1827 106.909 44.306C106.786 44.5821 106.729 44.8831 106.744 45.185C106.72 45.4713 106.787 45.7579 106.935 46.0042C107.083 46.2506 107.304 46.4444 107.568 46.5584C107.652 46.5808 107.74 46.5838 107.826 46.5671C107.911 46.5505 107.992 46.5146 108.062 46.4622C108.158 46.3798 108.172 46.3112 108.158 46.3112" fill="#E7996E"/>
<path d="M108.913 37.9059C109.312 38.2217 109.784 38.4298 110.286 38.5102C110.527 38.5506 110.774 38.5018 110.982 38.3728C111.189 38.2439 111.342 38.0437 111.412 37.8098C111.412 37.5901 111.412 37.3291 111.55 37.1643C111.687 36.9995 112.03 37.027 112.291 37.0544C112.797 37.0196 113.279 36.8294 113.672 36.5098C114.066 36.1902 114.35 35.7568 114.488 35.269C114.605 35.4387 114.783 35.5573 114.984 35.6007C115.186 35.644 115.396 35.6089 115.573 35.5025C115.861 35.3283 116.116 35.1052 116.328 34.8432C116.449 34.6732 116.61 34.5355 116.797 34.4421C116.983 34.3487 117.19 34.3025 117.399 34.3076C117.616 34.386 117.842 34.4368 118.072 34.4587C118.484 34.4587 118.69 33.9505 118.745 33.5385C118.799 33.1265 118.854 32.6595 119.211 32.4398C119.571 32.3097 119.964 32.3097 120.324 32.4398C120.694 32.4398 121.189 32.4398 121.285 32.0415C121.3 31.9432 121.296 31.8429 121.272 31.7463C121.249 31.6496 121.206 31.5586 121.147 31.4784C120.897 31.1004 120.525 30.8185 120.094 30.6788C119.663 30.5391 119.197 30.5499 118.772 30.7093C118.568 30.0131 118.097 29.4258 117.461 29.0759C116.826 28.7259 116.078 28.6417 115.38 28.8415C115.03 28.9497 114.705 29.127 114.425 29.3629C114.144 29.5988 113.913 29.8885 113.746 30.2149C113.479 29.9645 113.164 29.7702 112.82 29.6434C112.477 29.5166 112.111 29.4598 111.745 29.4765C111.379 29.4931 111.021 29.5828 110.69 29.7403C110.359 29.8978 110.063 30.1198 109.819 30.3934C109.598 30.6348 109.421 30.9138 109.298 31.2175C108.79 31.0774 108.247 31.143 107.787 31.4C107.327 31.657 106.987 32.0848 106.84 32.5909C106.772 32.8407 106.753 33.1017 106.786 33.3586C106.819 33.6155 106.903 33.8633 107.032 34.0879C106.741 34.2311 106.491 34.4462 106.306 34.713C106.121 34.9798 106.007 35.2893 105.975 35.6123C105.969 35.756 105.992 35.8993 106.043 36.0339C106.093 36.1685 106.17 36.2918 106.268 36.3966C106.366 36.5014 106.485 36.5856 106.616 36.6443C106.747 36.703 106.888 36.735 107.032 36.7385H107.211C107.061 36.9935 107.019 37.2974 107.094 37.5833C107.169 37.8692 107.354 38.1137 107.609 38.263C107.864 38.4124 108.167 38.4543 108.453 38.3796C108.739 38.3049 108.984 38.1197 109.133 37.8647" fill="#2E353A"/>
<path d="M118.937 31.602C118.943 31.6568 118.943 31.712 118.937 31.7668C118.894 31.9801 118.815 32.1845 118.703 32.3711C118.51 32.7184 118.224 33.0051 117.877 33.1991C117.531 33.3931 117.137 33.4869 116.74 33.4698C116.797 33.6044 116.827 33.7493 116.827 33.8956C116.827 34.0419 116.797 34.1868 116.74 34.3214C116.603 34.6044 116.422 34.864 116.204 35.0905C116.104 35.2225 115.989 35.3424 115.861 35.4476C115.714 35.5472 115.544 35.6086 115.367 35.6261C115.183 35.6526 114.996 35.634 114.821 35.5717C114.647 35.5095 114.49 35.4056 114.364 35.269H114.474C114.435 35.5941 114.326 35.9069 114.155 36.1864C113.985 36.466 113.757 36.7057 113.486 36.8896C113.186 37.1067 112.826 37.2222 112.456 37.2192C112.112 37.2019 111.773 37.1276 111.454 36.9995H111.536C111.378 37.3798 111.122 37.7114 110.794 37.9609C110.649 38.0902 110.475 38.1837 110.286 38.2338C110.098 38.2839 109.9 38.2892 109.71 38.2493C109.368 38.1876 109.054 38.023 108.808 37.7776C108.563 37.5321 108.398 37.2175 108.337 36.8759H108.405C108.074 37.0423 107.698 37.0954 107.334 37.027C107.065 36.9745 106.812 36.8619 106.593 36.6974C106.457 36.5898 106.341 36.4597 106.249 36.3128C106.214 36.2721 106.186 36.2256 106.167 36.1755C106.292 36.3667 106.444 36.538 106.62 36.6836C106.84 36.8315 107.088 36.9342 107.348 36.9858C107.696 37.0418 108.052 36.984 108.364 36.821C108.429 37.1279 108.582 37.4094 108.803 37.6312C109.025 37.8531 109.307 38.0058 109.614 38.0708C109.788 38.1013 109.968 38.0925 110.139 38.045C110.31 37.9975 110.468 37.9124 110.602 37.7961C110.902 37.5547 111.138 37.2435 111.289 36.8896C111.597 37.0097 111.92 37.0837 112.25 37.1094C112.592 37.1104 112.924 36.9994 113.197 36.7935C113.454 36.6204 113.67 36.3951 113.834 36.1324C113.997 35.8697 114.103 35.5755 114.145 35.269V35.1317L114.241 35.2416C114.352 35.3637 114.492 35.4564 114.647 35.5115C114.803 35.5666 114.97 35.5824 115.133 35.5574C115.289 35.5407 115.44 35.4891 115.573 35.4064L115.902 35.0767C116.111 34.856 116.287 34.6062 116.424 34.3351C116.475 34.2132 116.501 34.0825 116.501 33.9505C116.501 33.8186 116.475 33.6879 116.424 33.566V33.4836H116.506C116.939 33.5116 117.369 33.3958 117.729 33.154C118.003 32.9757 118.237 32.7418 118.415 32.4673C118.557 32.2191 118.658 31.9503 118.717 31.6707" fill="#4D5A64"/>
<path d="M118.415 48.0279C118.415 47.9181 117.632 48.1103 116.932 47.5884C116.232 47.0665 116.108 46.215 115.998 46.215C115.888 46.215 115.902 46.421 115.998 46.7644C116.106 47.2151 116.368 47.6137 116.74 47.8906C117.095 48.1521 117.538 48.2653 117.976 48.2065C118.291 48.2065 118.456 48.0279 118.442 47.973" fill="#2E353A"/>
<path d="M141.867 166.511L144.874 176.757C144.874 176.757 156.298 177.142 157.04 178.982L137.377 185.519L132.036 169.753L141.867 166.511Z" fill="#4D5A64"/>
<path d="M138.544 177.924C138.374 178.044 138.254 178.222 138.206 178.424C138.158 178.627 138.185 178.84 138.284 179.023C138.401 179.196 138.579 179.318 138.782 179.367C138.985 179.415 139.199 179.385 139.382 179.284C139.56 179.154 139.684 178.964 139.732 178.75C139.78 178.535 139.749 178.31 139.643 178.117C139.505 177.945 139.306 177.835 139.087 177.809C138.869 177.783 138.649 177.844 138.476 177.979" fill="#DEDEDE"/>
<path d="M155.955 178.24C155.955 178.24 156.958 178.323 157.067 178.982L137.405 185.519L136.938 183.912L155.955 178.24Z" fill="#2E353A"/>
<path d="M145.19 176.551C145.19 176.647 144.751 176.853 144.38 177.32C144.009 177.787 143.9 178.268 143.79 178.254C143.68 178.24 143.652 177.65 144.106 177.087C144.559 176.524 145.177 176.455 145.19 176.537" fill="white"/>
<path d="M147.524 176.716C147.524 176.798 147.222 177.1 147.03 177.622C146.838 178.144 146.893 178.597 146.797 178.625C146.701 178.652 146.453 178.13 146.701 177.485C146.948 176.839 147.497 176.62 147.524 176.716Z" fill="white"/>
<path d="M149.515 178.79C149.515 178.79 149.145 178.405 149.213 177.801C149.282 177.196 149.666 176.839 149.735 176.894C149.804 176.949 149.625 177.334 149.57 177.842C149.515 178.35 149.57 178.748 149.57 178.79" fill="white"/>
<path d="M144.243 174.285C144.243 174.395 143.748 174.408 143.213 174.614C142.677 174.82 142.32 175.15 142.238 175.081C142.156 175.013 142.458 174.532 143.089 174.299C143.721 174.065 144.256 174.202 144.243 174.299" fill="white"/>
<path d="M96.02 166.649L91.7497 176.441C91.7497 176.441 100.249 184.064 99.6312 185.959L80.408 178.336L86.4495 162.817L96.02 166.649Z" fill="#4D5A64"/>
<path d="M86.12 173.186C85.9125 173.169 85.7061 173.23 85.5411 173.357C85.3761 173.484 85.2643 173.668 85.2275 173.873C85.1994 174.08 85.2522 174.29 85.375 174.458C85.4978 174.627 85.6811 174.742 85.8865 174.779C86.1058 174.794 86.3229 174.728 86.4971 174.594C86.6714 174.46 86.7911 174.267 86.834 174.051C86.838 173.832 86.7574 173.62 86.6091 173.459C86.4608 173.298 86.2561 173.2 86.0376 173.186" fill="#DEDEDE"/>
<path d="M99.3016 184.627C99.3016 184.627 100.016 185.341 99.6723 185.904L80.4491 178.281L81.1082 176.743L99.3016 184.627Z" fill="#2E353A"/>
<path d="M92.093 176.414C92.093 176.496 91.5712 176.414 90.9945 176.482C90.4178 176.551 90.0058 176.894 89.9372 176.826C89.8685 176.757 90.2118 176.263 90.9258 176.139C91.6398 176.015 92.1616 176.331 92.093 176.414Z" fill="white"/>
<path d="M93.8093 178.034C93.8093 178.144 93.315 178.144 92.8481 178.405C92.3813 178.666 92.1067 179.064 92.0243 179.023C91.9419 178.982 92.0243 178.433 92.6696 178.103C93.315 177.773 93.8368 177.952 93.8093 178.103" fill="white"/>
<path d="M93.974 180.918C93.8916 180.918 93.974 180.383 94.386 179.957C94.7979 179.531 95.3471 179.504 95.3609 179.6C95.3746 179.696 94.9901 179.861 94.6331 180.204C94.2761 180.548 94.0839 180.932 93.9878 180.905" fill="white"/>
<path d="M92.8206 174.065C92.752 174.134 92.3675 173.845 91.832 173.667C91.2965 173.488 90.8022 173.502 90.7885 173.392C90.7747 173.282 91.2965 173.117 91.9419 173.324C92.5872 173.53 92.903 174.01 92.8206 174.065Z" fill="white"/>
<path d="M103.242 112.866L96.5554 140.238C96.5554 140.238 84.3762 160.743 82.3165 170.989L93.4523 175.37C93.4523 175.37 101.553 155.62 103.929 152.022C104.975 150.371 106.184 148.829 107.54 147.421C108.429 146.537 109.069 145.433 109.394 144.221L114.502 124.678L103.242 112.866Z" fill="#2E353A"/>
<path d="M100.359 108.485C100.759 110.756 101.694 112.9 103.086 114.739C104.478 116.577 106.287 118.059 108.364 119.06L123.221 143.301C123.988 148.22 125.131 153.073 126.64 157.818C128.864 164.41 133.354 177.238 133.354 177.238L145.575 172.678L137.748 146.048L136.485 136.805L124.347 105.917L113.925 99.6679L100.359 108.485Z" fill="#2E353A"/>
<path d="M100.359 108.485L100.592 108.334L101.265 107.881L103.901 106.137L113.925 99.558L124.36 105.793L136.526 136.667L137.803 145.91L144.613 168.805L145.739 172.623V172.719H145.643L133.409 177.279H133.299V177.183L127.189 159.507C126.708 158.134 126.228 156.76 125.816 155.318C125.404 153.876 125.061 152.571 124.731 151.198C124.1 148.451 123.578 145.814 123.166 143.219L108.323 118.978C106.535 118.138 104.944 116.931 103.654 115.435C102.144 113.641 101.072 111.52 100.524 109.241C100.455 108.952 100.414 108.732 100.386 108.581C100.38 108.504 100.38 108.426 100.386 108.348V108.568C100.386 108.719 100.455 108.938 100.537 109.241C100.756 110.098 101.05 110.934 101.416 111.74C101.999 113.059 102.772 114.285 103.709 115.38C104.993 116.867 106.58 118.061 108.364 118.882L123.303 143.301C123.715 145.883 124.241 148.534 124.882 151.253C125.198 152.626 125.569 154 125.967 155.373C126.365 156.747 126.832 158.12 127.34 159.493L133.45 177.155L133.313 177.087L145.547 172.513L145.479 172.651L144.366 168.846L137.748 146.048C137.309 142.861 136.869 139.73 136.471 136.805L124.36 105.903L113.952 99.6404L103.97 106.219L101.224 107.936L100.537 108.389L100.304 108.526" fill="#4D5A64"/>
<path d="M106.895 56.1585C104.814 57.7832 103.022 59.7472 101.595 61.968C99.5214 65.6349 99.3017 71.0874 99.233 79.5338C99.233 87.3485 100.345 89.5184 99.8921 92.4713C99.0133 98.2258 98.3542 117.536 98.3542 117.536C98.3542 117.536 109.765 113.141 112.003 111.204L114.227 109.268L128.535 113.992L125.651 96.4129L123.674 74.4385L121.134 62.8057L120.694 58.246L108.446 53.2881L106.895 56.1585Z" fill="#4D5A64"/>
<path d="M120.255 58.0675C120.406 58.0675 119.912 59.0975 119.019 60.5671V60.6357H118.951C117.715 60.1551 116.067 59.5508 114.268 58.8915C112.25 58.1499 110.424 57.5181 109.106 56.9276C108.46 56.6666 107.925 56.4469 107.568 56.2821C107.378 56.2043 107.194 56.1125 107.018 56.0074C107.218 56.0485 107.411 56.1131 107.595 56.1997L109.16 56.7902L114.351 58.6855C116.136 59.3448 117.783 59.9628 119.019 60.4709H118.909C119.454 59.7177 119.914 58.9071 120.282 58.0537" fill="#2E353A"/>
<path d="M135.002 48.9206L133.244 46.1738C132.379 44.8691 131.089 44.2373 130.883 43.5506C130.677 42.8639 129.51 39.8562 129.359 39.1145C129.197 38.389 129.123 37.6466 129.139 36.9034C129.139 36.9034 130.073 36.5051 130.512 37.8373C130.9 39.0847 131.358 40.3091 131.885 41.5043C132.064 41.6416 132.324 41.5043 132.324 41.5043C131.94 40.4742 131.61 39.4304 131.322 38.3729C131.322 37.8785 131.459 34.596 131.459 34.596C131.691 34.5518 131.932 34.5909 132.138 34.7065C132.344 34.8221 132.502 35.0067 132.585 35.2278C132.904 36.1841 133.062 37.1865 133.052 38.1944L133.725 40.5566L133.492 38.2218L133.821 33.9368C134.152 33.9754 134.462 34.1167 134.709 34.3409C134.955 34.5651 135.125 34.8609 135.194 35.1866C135.483 36.354 135.098 37.9334 135.29 38.318C135.493 39.1106 135.626 39.9194 135.689 40.7352C135.689 40.7352 135.922 35.6948 136.457 35.5437C136.993 35.3926 137.432 35.942 137.364 36.9171C137.244 38.2924 137.304 39.6774 137.542 41.0373C137.817 41.9849 140.687 45.6657 140.453 47.3138C140.311 48.2924 140.224 49.2782 140.192 50.2666H135.263L135.002 48.9206Z" fill="#EEBE9C"/>
<path d="M117.811 61.6109C118.085 61.7208 129.825 64.6324 129.825 64.6324C130.938 62.8639 131.942 61.0293 132.832 59.1388C133.203 57.9164 135.263 49.7309 135.263 49.7309L140.22 49.264C140.22 49.264 138.97 70.3869 137.158 71.5269C135.655 72.4231 133.988 73.0113 132.256 73.2573C132.063 73.1887 119.582 74.0676 113.032 68.8762C106.483 63.6847 117.797 61.6658 117.797 61.6658" fill="#EEBE9C"/>
<g opacity="0.3">
<mask id="mask4_1_857" style="mask-type:luminance" maskUnits="userSpaceOnUse" x="109" y="72" width="15" height="6">
<path d="M123.935 72.7217H109.202V77.5149H123.935V72.7217Z" fill="white"/>
</mask>
<g mask="url(#mask4_1_857)">
<path d="M109.408 72.8041C110.671 74.2214 112.347 75.2063 114.2 75.6196C117.317 76.3063 123.935 77.5149 123.935 77.5149L123.619 74.2737L109.202 72.7217" fill="black"/>
</g>
</g>
<path d="M104.19 68.3268C105.247 70.5792 107.623 72.9964 112.84 73.532C123.152 74.6033 130.965 75.1664 134.343 74.6582C137.721 74.1501 139.053 67.0084 139.396 66.7886C139.879 66.3169 140.158 65.6746 140.174 64.9994C140.189 64.3242 139.939 63.6698 139.478 63.1766C137.034 61.5544 134.28 60.4555 131.391 59.9491C130.811 60.2783 130.36 60.7942 130.11 61.4126C129.861 62.0311 129.828 62.7157 130.018 63.3551L116.946 60.471C115.44 59.8434 113.87 59.3829 112.264 59.0976" fill="#4D5A64"/>
<path d="M112.264 59.0976H112.579C112.893 59.1413 113.205 59.2009 113.513 59.2761C114.694 59.5418 115.852 59.9047 116.973 60.3611L130.045 63.2178L129.935 63.3276C129.741 62.5792 129.799 61.7875 130.1 61.0753C130.272 60.7109 130.526 60.3912 130.842 60.1413C131.002 60.0188 131.172 59.9086 131.35 59.8117H131.542H131.707H132.009C133.617 60.1915 135.185 60.725 136.691 61.4049C137.487 61.7445 138.254 62.1488 138.984 62.6135C139.176 62.7233 139.355 62.8607 139.533 62.9843C139.723 63.1259 139.878 63.3091 139.986 63.5199C140.198 63.9466 140.306 64.4171 140.302 64.8933C140.313 65.3703 140.205 65.8425 139.986 66.2667C139.879 66.4899 139.712 66.6797 139.506 66.8161C139.448 66.889 139.406 66.9732 139.382 67.0633L139.272 67.3792C138.998 68.2444 138.723 69.1371 138.38 70.0024C137.934 71.2541 137.284 72.4235 136.457 73.4634C136.154 73.8615 135.77 74.19 135.329 74.4269C134.889 74.6638 134.403 74.8036 133.903 74.8368L132.956 74.9192C131.707 74.9192 130.471 74.9192 129.262 74.9192C128.054 74.9192 126.873 74.823 125.72 74.7544C121.12 74.4659 117.001 74.0402 113.527 73.6831C112.703 73.6007 111.879 73.4908 111.055 73.326C110.329 73.1697 109.618 72.9538 108.927 72.6805C107.816 72.2478 106.8 71.6042 105.934 70.7852C105.39 70.2714 104.928 69.6788 104.561 69.0273C104.42 68.8055 104.3 68.571 104.204 68.3268C104.204 68.3268 104.327 68.574 104.602 68.9998C104.979 69.6363 105.441 70.2185 105.975 70.7303C106.851 71.5225 107.866 72.1464 108.968 72.5706C109.656 72.8325 110.363 73.0391 111.083 73.1887C111.891 73.3444 112.707 73.459 113.527 73.532C117.001 73.8616 121.12 74.2737 125.72 74.5484C126.873 74.6308 128.04 74.6857 129.249 74.7132C130.457 74.7406 131.679 74.7132 132.929 74.7132L133.862 74.6308C134.17 74.6099 134.474 74.5546 134.769 74.466C135.355 74.2364 135.871 73.8577 136.265 73.3672C137.081 72.3521 137.717 71.2048 138.146 69.9749C138.49 69.1234 138.764 68.2444 139.039 67.3655L139.162 67.0496C139.179 66.9923 139.202 66.9371 139.231 66.8848C139.224 66.8531 139.224 66.8203 139.231 66.7886C139.4 66.6639 139.54 66.5047 139.643 66.3217C139.836 65.9339 139.93 65.5047 139.918 65.0719C139.919 64.643 139.821 64.2197 139.629 63.8358C139.537 63.6535 139.406 63.494 139.245 63.3688L138.709 62.998C137.984 62.546 137.227 62.1467 136.444 61.8032C134.949 61.1295 133.396 60.5961 131.803 60.21H131.514H131.281C131.115 60.299 130.958 60.4049 130.814 60.5259C130.513 60.7432 130.276 61.0372 130.127 61.3774C129.84 62.0496 129.782 62.7978 129.963 63.5062V63.6573H129.825L116.767 60.7319C115.655 60.2663 114.507 59.8897 113.335 59.6057C112.936 59.4958 112.621 59.4409 112.415 59.386H112.099" fill="#2E353A"/>
<path d="M134.329 67.4479C134.034 67.3644 133.752 67.2395 133.492 67.077C132.186 66.343 131.093 65.283 130.32 64.0006C130.138 63.7521 130.004 63.473 129.922 63.1766C131.008 64.9484 132.524 66.4174 134.329 67.4479Z" fill="#2E353A"/>
<path d="M42.2361 102.319C43.7153 102.403 45.1605 102.796 46.4789 103.472C48.1129 104.502 50.7217 106.082 51.7927 108.046C52.2871 108.938 50.8865 109.131 50.1862 108.609C49.4874 107.977 48.7179 107.429 47.8932 106.974L47.3577 106.851C47.852 107.95 48.3875 109.021 48.9779 110.051C49.5684 111.081 49.994 112.303 48.36 112.372C48.36 112.372 47.2478 113.745 46.1356 112.743C46.1356 112.743 45.2569 114.047 43.8563 112.248C43.8563 112.248 43.0325 113.278 42.6892 112.88C41.8788 112.299 41.2579 111.491 40.9042 110.559C40.4204 109.049 39.8519 107.568 39.2015 106.123L42.2361 102.319Z" fill="#EEBE9C"/>
<path d="M19.896 67.7637C18.5542 68.2001 17.3951 69.0696 16.6006 70.2359C15.6017 72.1514 15.2409 74.336 15.5708 76.4711C16.1749 80.6875 18.111 87.8017 19.1957 92.3614C19.5665 93.9408 20.3354 96.7563 22.601 98.2533L38.6387 107.867L42.9227 101.508L28.2993 89.5871L25.4158 73.2436L19.896 67.7637Z" fill="#4D5A64"/>
<path d="M17.1223 83.8463C17.1301 83.9055 17.1301 83.9655 17.1223 84.0248L17.2596 84.5192L17.7402 86.442L19.5252 93.5288C19.9541 95.1623 20.8744 96.6246 22.1616 97.7176C22.8998 98.2992 23.6852 98.8183 24.5095 99.2696L27.0909 100.835L38.6386 107.812H38.4876L40.0391 105.519L42.7853 101.398V101.536L28.3679 89.7382C27.4067 85.7004 26.7202 82.4042 26.2808 80.1243C26.0611 78.9844 25.9101 78.0917 25.814 77.4737L25.7041 76.787C25.7041 76.6222 25.7041 76.5398 25.7041 76.5398V76.7732L25.8277 77.4599C25.9513 78.0642 26.1023 78.9707 26.3495 80.1106C26.8163 82.3905 27.5303 85.6866 28.5052 89.7244L43.005 101.453H43.0874V101.536L40.3412 105.656L38.7896 107.949V108.032H38.6935L27.1596 101.028L24.5782 99.4619C23.7479 99.0028 22.9579 98.4745 22.2165 97.8824C20.9121 96.7595 19.9826 95.2642 19.5527 93.5974L17.8363 86.4969L17.3832 84.5742L17.2734 84.066C17.2657 84.0067 17.2657 83.9468 17.2734 83.8875" fill="#2E353A"/>
<path d="M17.3832 70.0573C17.4793 69.9838 17.5929 69.9365 17.7127 69.92C19.0643 69.4784 20.5312 69.5517 21.832 70.126C22.7803 70.6228 23.5843 71.3561 24.1662 72.2547C24.3407 72.5259 24.4836 72.8162 24.5919 73.12C24.6386 73.2289 24.6665 73.345 24.6743 73.4633C24.4854 73.0761 24.2746 72.7001 24.0427 72.3371C23.4339 71.5005 22.6457 70.8107 21.7359 70.3182C20.7861 69.9044 19.7454 69.7435 18.7151 69.8513C17.9187 69.9337 17.4518 70.0847 17.4381 70.0573" fill="#2E353A"/>
</g>
</g>
</g>
<defs>
<clipPath id="clip0_1_857">
<rect width="175" height="186" fill="white"/>
</clipPath>
</defs>
</svg>
