<svg width="37" height="37" viewBox="0 0 37 37" fill="none" xmlns="http://www.w3.org/2000/svg">
<path d="M28.5779 0H8.42212C3.77071 0 0 3.77071 0 8.42213V28.5779C0 33.2293 3.77071 37 8.42212 37H28.5779C33.2293 37 37 33.2293 37 28.5779V8.42213C37 3.77071 33.2293 0 28.5779 0Z" fill="#F8F8F8"/>
<path d="M13.0151 12.1482H8V19.8201H13.0151V12.1482Z" fill="#4178BC"/>
<path fill-rule="evenodd" clip-rule="evenodd" d="M13.0151 19.8202H8V23.5838C8.08785 24.3704 8.75723 24.9868 9.56277 24.9868H13.0151V19.8202Z" fill="#2863AF"/>
<path fill-rule="evenodd" clip-rule="evenodd" d="M13.0151 19.8201V24.9867H23.7217C24.587 24.9867 25.295 24.276 25.295 23.4074V20.1957L20.2957 15.9806V19.8192H13.0151V19.8201Z" fill="#00AA4C"/>
<path fill-rule="evenodd" clip-rule="evenodd" d="M20.2957 15.9814L25.2941 20.1966V11.8994L20.2957 15.9814Z" fill="#008041"/>
<path fill-rule="evenodd" clip-rule="evenodd" d="M25.2941 11.8994V20.1965L28.4478 22.8561C28.9002 23.2371 29.7786 23.1383 29.7786 22.4143V9.74858C29.7786 9.13571 29.0882 8.80061 28.5971 9.20273L25.295 11.8994H25.2941Z" fill="#00AA4C"/>
<path fill-rule="evenodd" clip-rule="evenodd" d="M20.2957 15.9815L25.295 11.8995V8.57672C25.295 7.73368 24.6282 7.03968 23.7981 7H13.0151V12.1481H20.2948V15.9815H20.2957Z" fill="#FDB813"/>
<path fill-rule="evenodd" clip-rule="evenodd" d="M13.0151 12.1481V7H13.001L8 12.1384V12.1481H13.0151Z" fill="#E93525"/>
<path fill-rule="evenodd" clip-rule="evenodd" d="M24.8768 28.8174H25.9723C25.9617 28.6843 25.9072 28.5749 25.8089 28.4885C25.7122 28.3994 25.5831 28.3553 25.4188 28.3553C25.2835 28.3553 25.1667 28.3968 25.0683 28.4806C24.9717 28.5643 24.9084 28.6763 24.8777 28.8174H24.8768ZM25.4496 30.0705C25.1685 30.0705 24.9374 29.9744 24.7556 29.7813C24.5738 29.5881 24.4824 29.3439 24.4824 29.0493C24.4824 28.7548 24.5711 28.5141 24.7477 28.3218C24.9243 28.1261 25.1509 28.0282 25.4259 28.0282C25.7008 28.0282 25.9336 28.1208 26.1005 28.3059C26.2692 28.4885 26.3535 28.746 26.3535 29.0767L26.35 29.1155H24.8487C24.854 29.3033 24.9164 29.455 25.0358 29.5696C25.1553 29.6843 25.2985 29.7416 25.4645 29.7416C25.6929 29.7416 25.873 29.6269 26.0021 29.3968L26.3219 29.5537C26.2358 29.7151 26.1163 29.8421 25.9635 29.9329C25.8124 30.0246 25.6411 30.0696 25.4487 30.0696L25.4496 30.0705ZM26.986 28.8174H28.0814C28.0709 28.6843 28.0164 28.5749 27.918 28.4885C27.8214 28.3994 27.6923 28.3553 27.528 28.3553C27.3927 28.3553 27.2759 28.3968 27.1775 28.4806C27.0809 28.5643 27.0176 28.6763 26.9869 28.8174H26.986ZM27.5587 30.0705C27.2776 30.0705 27.0466 29.9744 26.8648 29.7813C26.6829 29.5881 26.5916 29.3439 26.5916 29.0493C26.5916 28.7548 26.6803 28.5141 26.8569 28.3218C27.0334 28.1261 27.2601 28.0282 27.535 28.0282C27.81 28.0282 28.0428 28.1208 28.2097 28.3059C28.3783 28.4885 28.4627 28.746 28.4627 29.0767L28.4592 29.1155H26.9579C26.9632 29.3033 27.0255 29.455 27.145 29.5696C27.2645 29.6843 27.4076 29.7416 27.5737 29.7416C27.8021 29.7416 27.9822 29.6269 28.1113 29.3968L28.431 29.5537C28.345 29.7151 28.2255 29.8421 28.0726 29.9329C27.9215 30.0246 27.7502 30.0696 27.5579 30.0696L27.5587 30.0705ZM29.4905 30.0388C29.3341 30.0388 29.205 29.9902 29.1004 29.8941C28.9994 29.798 28.9467 29.6631 28.9449 29.4911V28.4188H28.6094V28.0899H28.9449V27.5026H29.3033V28.0899H29.7716V28.4188H29.3033V29.3738C29.3033 29.5017 29.3279 29.589 29.3771 29.6358C29.4263 29.6798 29.4826 29.7019 29.5449 29.7019C29.5739 29.7019 29.6011 29.6992 29.6266 29.694C29.6556 29.686 29.6811 29.6772 29.7048 29.6666L29.8181 29.9876C29.7241 30.0211 29.6152 30.0388 29.4905 30.0388ZM9.59262 28.8201V28.3924H11.0192C11.0342 28.4673 11.0421 28.5573 11.0421 28.6543C11.0421 28.9753 10.9542 29.3721 10.6731 29.6552C10.399 29.9417 10.0494 30.0943 9.5856 30.0943C8.72559 30.0943 8.00262 29.3915 8.00262 28.5282C8.00262 27.6649 8.72559 26.962 9.58472 26.962C10.06 26.962 10.399 27.149 10.6538 27.3933L10.3534 27.6948C10.1706 27.5229 9.9238 27.3888 9.58472 27.3888C8.9575 27.3888 8.46645 27.8968 8.46645 28.5273C8.46645 29.1578 8.9575 29.6657 9.58472 29.6657C9.99144 29.6657 10.2234 29.5017 10.3718 29.3527C10.493 29.231 10.5721 29.0573 10.6028 28.8192H9.59175L9.59262 28.8201ZM12.7744 29.0864C12.7744 28.7231 12.5117 28.4753 12.2078 28.4753C11.9038 28.4753 11.6412 28.7231 11.6412 29.0864C11.6412 29.4497 11.9038 29.6975 12.2078 29.6975C12.5117 29.6975 12.7744 29.4453 12.7744 29.0864ZM13.2154 29.0864C13.2154 29.6666 12.763 30.0952 12.2069 30.0952C11.6508 30.0952 11.1984 29.6675 11.1984 29.0864C11.1984 28.5052 11.6508 28.0776 12.2069 28.0776C12.763 28.0776 13.2154 28.5017 13.2154 29.0864ZM14.9731 29.0864C14.9731 28.7231 14.7105 28.4753 14.4065 28.4753C14.1026 28.4753 13.8399 28.7231 13.8399 29.0864C13.8399 29.4497 14.1026 29.6975 14.4065 29.6975C14.7105 29.6975 14.9731 29.4453 14.9731 29.0864ZM15.4141 29.0864C15.4141 29.6666 14.9617 30.0952 14.4057 30.0952C13.8496 30.0952 13.3972 29.6675 13.3972 29.0864C13.3972 28.5052 13.8496 28.0776 14.4057 28.0776C14.9617 28.0776 15.4141 28.5017 15.4141 29.0864ZM17.1341 29.0899C17.1341 28.7345 16.8978 28.4753 16.5974 28.4753C16.297 28.4753 16.0378 28.7354 16.0378 29.0899C16.0378 29.4444 16.2926 29.6975 16.5974 29.6975C16.9022 29.6975 17.1341 29.4417 17.1341 29.0899ZM17.5224 28.1393V29.9497C17.5224 30.6948 17.0849 30.9999 16.5675 30.9999C16.0809 30.9999 15.7875 30.6719 15.6777 30.4038L16.0616 30.2433C16.1301 30.4074 16.297 30.6022 16.5675 30.6022C16.8987 30.6022 17.1043 30.3959 17.1043 30.0105V29.865H17.0893C16.9901 29.9876 16.8003 30.0943 16.5605 30.0943C16.058 30.0943 15.5977 29.6552 15.5977 29.0899C15.5977 28.5246 16.058 28.0776 16.5605 28.0776C16.8003 28.0776 16.9901 28.1843 17.0893 28.3033H17.1043V28.1393H17.5224ZM18.27 27.0793V30.0335H17.829V27.0793H18.27ZM18.92 29.0555L19.8178 28.6816C19.7686 28.5555 19.6202 28.4673 19.4454 28.4673C19.2213 28.4673 18.9095 28.6657 18.9209 29.0555H18.92ZM19.9733 29.4188L20.3159 29.6481C20.2052 29.8121 19.939 30.0952 19.4787 30.0952C18.9077 30.0952 18.4817 29.6525 18.4817 29.0864C18.4817 28.4867 18.9113 28.0784 19.4287 28.0784C19.9461 28.0784 20.2043 28.4947 20.2887 28.7204L20.3343 28.835L18.9912 29.3924C19.094 29.5952 19.2538 29.6984 19.4779 29.6984C19.7019 29.6984 19.8582 29.5881 19.9724 29.4197L19.9733 29.4188ZM21.7768 30.0079H21.4184V27.2054H21.7768L22.7475 28.9118H22.7633L23.734 27.2054H24.0924V30.0079H23.734V28.3447L23.7498 27.8747H23.734L22.8608 29.4126H22.6499L21.7768 27.8747H21.761L21.7768 28.3447V30.0079Z" fill="#575B61"/>
</svg>
