<svg width="18" height="21" viewBox="0 0 18 21" fill="none" xmlns="http://www.w3.org/2000/svg">
<path d="M1 10.3906C1 8.82231 1 8.03815 1.31643 7.34869C1.63402 6.65924 2.22878 6.14994 3.41945 5.12904L4.57432 4.13931C6.72815 2.29499 7.80218 1.37109 9.08408 1.37109C10.366 1.37109 11.4412 2.29383 13.5938 4.13816L14.7487 5.12788C15.9382 6.14879 16.5341 6.65808 16.8506 7.34754C17.1682 8.037 17.1682 8.82115 17.1682 10.3895V15.2873C17.1682 17.4653 17.1682 18.5532 16.4914 19.23C15.8147 19.9067 14.7268 19.9067 12.5487 19.9067H5.61948C3.44139 19.9067 2.35351 19.9067 1.67675 19.23C1 18.5532 1 17.4653 1 15.2873V10.3906Z" stroke="currentColor"/>
<path d="M11.9716 19.9068V14.1324C11.9716 13.8261 11.8499 13.5324 11.6334 13.3158C11.4168 13.0992 11.123 12.9775 10.8167 12.9775H7.35213C7.04584 12.9775 6.7521 13.0992 6.53552 13.3158C6.31894 13.5324 6.19727 13.8261 6.19727 14.1324V19.9068" stroke="currentColor" stroke-linecap="round" stroke-linejoin="round"/>
</svg>
