<svg width="17" height="14" viewBox="0 0 17 14" fill="none" xmlns="http://www.w3.org/2000/svg">
<path d="M13.6923 1H3.30769C2.03319 1 1 2.03319 1 3.30769V10.2308C1 11.5053 2.03319 12.5385 3.30769 12.5385H13.6923C14.9668 12.5385 16 11.5053 16 10.2308V3.30769C16 2.03319 14.9668 1 13.6923 1Z" stroke="#3C3F40" stroke-linecap="round" stroke-linejoin="round"/>
<path d="M6.55 9.44623V4.60008C6.54759 4.51826 6.56754 4.43734 6.60771 4.36602C6.64788 4.2947 6.70674 4.23569 6.77795 4.19533C6.84916 4.15498 6.93003 4.13481 7.01186 4.137C7.09368 4.13919 7.17336 4.16366 7.24231 4.20777L11.3962 6.63085C11.4656 6.67157 11.5231 6.72973 11.5631 6.79956C11.6031 6.86939 11.6241 6.94846 11.6241 7.02893C11.6241 7.1094 11.6031 7.18847 11.5631 7.25829C11.5231 7.32812 11.4656 7.38628 11.3962 7.427L7.24231 9.85008C7.17184 9.89077 7.09187 9.91211 7.0105 9.91193C6.92913 9.91174 6.84925 9.89005 6.77896 9.84905C6.70868 9.80805 6.65048 9.7492 6.61027 9.67846C6.57006 9.60772 6.54927 9.5276 6.55 9.44623V9.44623Z" stroke="#3C3F40" stroke-linecap="round" stroke-linejoin="round"/>
</svg>
