<svg width="21" height="20" viewBox="0 0 21 20" fill="none" xmlns="http://www.w3.org/2000/svg">
<path d="M1 5.71436V2.14293C1 1.76405 1.15051 1.40068 1.41842 1.13277C1.68633 0.864865 2.04969 0.714355 2.42857 0.714355H6" stroke="currentColor" stroke-linecap="round" stroke-linejoin="round"/>
<path d="M19.5715 5.71436V2.14293C19.5715 1.76405 19.421 1.40068 19.1531 1.13277C18.8852 0.864865 18.5218 0.714355 18.143 0.714355H14.5715" stroke="currentColor" stroke-linecap="round" stroke-linejoin="round"/>
<path d="M1 14.2859V17.8573C1 18.2362 1.15051 18.5996 1.41842 18.8675C1.68633 19.1354 2.04969 19.2859 2.42857 19.2859H6" stroke="currentColor" stroke-linecap="round" stroke-linejoin="round"/>
<path d="M19.5715 14.2859V17.8573C19.5715 18.2362 19.421 18.5996 19.1531 18.8675C18.8852 19.1354 18.5218 19.2859 18.143 19.2859H14.5715" stroke="currentColor" stroke-linecap="round" stroke-linejoin="round"/>
<path d="M1.71436 10.7143H5.28578L7.42864 5L10.2858 12.8571L13.1429 7.14286L15.2858 10.7143H18.8572" stroke="currentColor" stroke-linecap="round" stroke-linejoin="round"/>
</svg>
