<svg width="15" height="15" viewBox="0 0 15 15" fill="none" xmlns="http://www.w3.org/2000/svg">
<path d="M6.99463 7.5155H13.9999" stroke="white" stroke-linecap="round" stroke-linejoin="round"/>
<path d="M11.9985 5.51404L14 7.51555L11.9985 9.51706" stroke="white" stroke-linecap="round" stroke-linejoin="round"/>
<path d="M12.1989 12.0089C11.3002 12.9456 10.1419 13.592 8.87293 13.865C7.60393 14.1379 6.28228 14.025 5.07797 13.5407C3.87367 13.0565 2.84179 12.2229 2.11506 11.1474C1.38834 10.0719 1 8.80356 1 7.50553C1 6.2075 1.38834 4.93915 2.11506 3.86363C2.84179 2.7881 3.87367 1.95459 5.07797 1.47031C6.28228 0.986022 7.60393 0.873108 8.87293 1.14609C10.1419 1.41907 11.3002 2.06546 12.1989 3.00212" stroke="white" stroke-linecap="round" stroke-linejoin="round"/>
</svg>
