<svg width="40" height="25" viewBox="0 0 40 25" fill="none" xmlns="http://www.w3.org/2000/svg">
<path fill-rule="evenodd" clip-rule="evenodd" d="M20.0102 20.9617C22.1188 22.9044 24.9508 24.0832 28.0307 24.0832C34.6455 24.0832 40 18.6878 40 12.0519C40 5.41599 34.6455 0 28.0307 0C24.9508 0 22.1188 1.17828 20.0102 3.12156C17.5915 5.33333 16.0615 8.51703 16.0615 12.0519C16.0615 15.5867 17.5915 18.7704 20.0102 20.9617Z" fill="#E9B040"/>
<path fill-rule="evenodd" clip-rule="evenodd" d="M38.4087 18.7492C38.4087 18.5423 38.574 18.377 38.7809 18.377C39.0084 18.377 39.1731 18.5423 39.1731 18.7492C39.1731 18.9766 39.0078 19.142 38.7809 19.142C38.5746 19.142 38.4087 18.9766 38.4087 18.7492ZM38.7809 19.0599C38.9462 19.0599 39.0905 18.9151 39.0905 18.7498C39.0905 18.5845 38.9457 18.4608 38.7809 18.4608C38.6361 18.4608 38.4919 18.5851 38.4919 18.7498C38.4919 18.9145 38.6367 19.0599 38.7809 19.0599ZM38.7393 18.9356H38.6567V18.5839H38.8015C38.8226 18.5839 38.8636 18.5839 38.8841 18.605C38.9257 18.6255 38.9257 18.6466 38.9257 18.6876C38.9257 18.7287 38.9052 18.7703 38.8642 18.7703L38.9468 18.9356H38.8431L38.8015 18.7908H38.7399V18.9356V18.7287H38.8226C38.8431 18.7287 38.8431 18.7076 38.8431 18.6871C38.8431 18.6665 38.8431 18.666 38.8226 18.6454H38.7399V18.935L38.7393 18.9356Z" fill="#E9B040"/>
<path fill-rule="evenodd" clip-rule="evenodd" d="M23.8757 10.7704C23.8341 10.3366 23.7514 9.92276 23.6688 9.48897H16.3511C16.4338 9.05517 16.5581 8.64131 16.6818 8.22803H23.3176C23.1734 7.79307 23.0081 7.36513 22.8217 6.94658H17.1988C17.4057 6.50868 17.6332 6.08075 17.8811 5.66513H22.1188C21.8463 5.22371 21.542 4.80223 21.2096 4.40419H18.7909C19.1649 3.94753 19.5729 3.51901 20.0108 3.12274C17.8811 1.1988 15.0697 0 11.9692 0C5.37437 0 0 5.39547 0 12.0519C0 18.7083 5.37437 24.0832 11.9692 24.0832C15.0703 24.0832 17.8811 22.905 20.0108 20.9617C20.4417 20.5724 20.8427 20.1504 21.2102 19.7001H18.7915C18.4609 19.2869 18.1713 18.8736 17.8817 18.4187H22.1194C22.3862 18.0101 22.6206 17.5816 22.8223 17.1372H17.1994C17.0135 16.724 16.8271 16.3107 16.6823 15.8757H23.3182C23.463 15.4624 23.5662 15.0286 23.6694 14.5943C23.752 14.181 23.8347 13.7472 23.8763 13.3128C23.9179 12.8937 23.939 12.4728 23.9384 12.0513C23.9384 11.6181 23.9179 11.1837 23.8763 10.7704H23.8757Z" fill="#CC2131"/>
<path fill-rule="evenodd" clip-rule="evenodd" d="M38.4087 14.8424C38.4087 14.6149 38.574 14.4502 38.7809 14.4502C39.0084 14.4502 39.1731 14.6155 39.1731 14.8424C39.1731 15.0493 39.0078 15.2351 38.7809 15.2351C38.5746 15.2351 38.4087 15.0487 38.4087 14.8424ZM38.7809 15.1314C38.9462 15.1314 39.0905 15.0071 39.0905 14.8424C39.0905 14.6776 38.9457 14.5534 38.7809 14.5534C38.6361 14.5534 38.4919 14.6776 38.4919 14.8424C38.4919 15.0071 38.6367 15.1314 38.7809 15.1314ZM38.7393 15.0071H38.6567V14.6765H38.8841C38.9257 14.6976 38.9257 14.7386 38.9257 14.7802C38.9257 14.8007 38.9052 14.8418 38.8642 14.8629L38.9468 15.0077H38.8431L38.8015 14.8834H38.7399V15.0071V14.8213H38.7815C38.802 14.8213 38.8231 14.8213 38.8231 14.8002C38.8437 14.8002 38.8437 14.7796 38.8437 14.7585C38.8437 14.7585 38.8437 14.738 38.8231 14.738C38.8231 14.7169 38.802 14.738 38.7815 14.738H38.7399V15.0065L38.7393 15.0071Z" fill="white"/>
<path fill-rule="evenodd" clip-rule="evenodd" d="M27.9275 9.2812L27.7001 10.6043C27.2452 10.3768 26.9146 10.2736 26.5423 10.2736C25.5704 10.2736 24.8886 11.2245 24.8886 12.5681C24.8886 13.4984 25.3435 14.0565 26.1085 14.0565C26.4181 14.0565 26.7903 13.9533 27.2036 13.7469L26.9761 15.1316C26.5007 15.2558 26.1906 15.318 25.8389 15.318C24.4332 15.318 23.565 14.305 23.565 12.6724C23.565 10.5017 24.7638 8.97168 26.4796 8.97168C26.7071 8.97168 26.9134 8.9922 27.0787 9.03382L27.5958 9.15809C27.7616 9.22023 27.8027 9.24075 27.927 9.28178L27.9275 9.2812ZM23.7514 10.191H23.6271C23.1933 10.191 22.9454 10.3979 22.552 10.997L22.6763 10.232H21.498L20.692 15.1931H21.9945C22.4699 12.1542 22.5936 11.6378 23.2138 11.6378H23.2965C23.4208 11.0381 23.5855 10.6043 23.7924 10.2115L23.7508 10.191H23.7514ZM16.2684 15.1316C15.9173 15.2558 15.6277 15.2969 15.3381 15.2969C14.6769 15.2969 14.3046 14.9246 14.3046 14.2018C14.3046 14.0776 14.3251 13.9128 14.3462 13.7675L14.4289 13.2715L14.491 12.8794L15.0491 9.48872H16.3306L16.1858 10.2332H16.847L16.6817 11.4531H16.0205L15.6693 13.5207C15.6488 13.6033 15.6488 13.6655 15.6488 13.7276C15.6488 13.9756 15.7731 14.0793 16.0826 14.0793C16.2274 14.0793 16.3511 14.0793 16.4337 14.0377L16.2684 15.1327V15.1316ZM11.2862 11.8037C11.2862 12.4239 11.5752 12.8577 12.2576 13.1889C12.7951 13.4368 12.8778 13.5195 12.8778 13.7264C12.8778 14.0365 12.6503 14.1813 12.1333 14.1813C11.7406 14.1813 11.3888 14.1198 10.9755 13.9955L10.7897 15.1322L10.8519 15.1533L11.0793 15.1949C11.162 15.2154 11.2651 15.2365 11.4304 15.2365C11.7194 15.2781 11.968 15.2781 12.1333 15.2781C13.4974 15.2781 14.1387 14.7611 14.1387 13.6244C14.1387 12.9421 13.8702 12.5493 13.2295 12.2392C12.6714 11.9912 12.6093 11.9291 12.6093 11.7017C12.6093 11.4332 12.8368 11.3089 13.25 11.3089C13.498 11.3089 13.8497 11.3294 14.1804 11.371L14.3662 10.2344C14.0356 10.1722 13.5185 10.1312 13.2295 10.1312C11.7822 10.1312 11.2657 10.8956 11.2862 11.8054V11.8037ZM37.8292 15.1937H36.6093L36.6714 14.7183C36.3197 15.0905 35.9475 15.2558 35.4721 15.2558C34.5212 15.2558 33.901 14.4498 33.901 13.21C33.901 11.5563 34.873 10.1505 36.0096 10.1505C36.5266 10.1505 36.8989 10.378 37.2506 10.8329L37.5396 9.09654H38.8211L37.8286 15.1949L37.8292 15.1937ZM35.927 14.0359C36.5266 14.0359 36.9399 13.3331 36.9399 12.3611C36.9399 11.7204 36.7125 11.3892 36.2576 11.3892C35.679 11.3892 35.2452 12.0716 35.2452 13.0429C35.2452 13.7047 35.4726 14.0354 35.927 14.0354V14.0359ZM20.2371 15.0899C19.7822 15.2347 19.3689 15.2969 18.8935 15.2969C17.4461 15.2969 16.7022 14.5325 16.7022 13.0646C16.7022 11.3693 17.6531 10.1083 18.9556 10.1083C20.0307 10.1083 20.7125 10.8112 20.7125 11.9068C20.7125 12.2791 20.6709 12.6308 20.5472 13.1472H17.9843C17.9637 13.2094 17.9637 13.251 17.9637 13.292C17.9637 13.8706 18.3565 14.1602 19.1004 14.1602C19.5758 14.1602 19.9891 14.0776 20.444 13.8501L20.2371 15.0899ZM19.5137 12.1337V11.8857C19.5137 11.4724 19.2862 11.245 18.8935 11.245C18.4802 11.245 18.1906 11.5551 18.0663 12.1337H19.5137ZM6.34567 15.1931H5.06421L5.8087 10.5005L4.13449 15.1931H3.24521L3.14203 10.5415L2.35651 15.1931H1.15771L2.17068 9.09478H4.03131L4.09345 12.8776L5.33328 9.09478H7.35922L6.34625 15.1931H6.34567ZM9.54989 12.9814C9.42561 12.9814 9.36406 12.9608 9.2603 12.9608C8.53692 12.9608 8.16467 13.2293 8.16467 13.7253C8.16467 14.0354 8.32998 14.2212 8.61957 14.2212C9.15713 14.2212 9.52937 13.7253 9.54989 12.9808V12.9814ZM10.5007 15.1931H9.42561L9.44613 14.6761C9.11551 15.0894 8.68112 15.2758 8.08143 15.2758C7.37857 15.2758 6.90315 14.7382 6.90315 13.9322C6.90315 12.7129 7.72971 12.01 9.17706 12.01C9.32185 12.01 9.50768 12.0305 9.71461 12.051C9.75623 11.8857 9.75623 11.8236 9.75623 11.7409C9.75623 11.4103 9.52878 11.286 8.92909 11.286C8.55685 11.286 8.14357 11.3277 7.85398 11.4103L7.66815 11.4724L7.54388 11.493L7.72971 10.3768C8.37043 10.191 8.80481 10.1289 9.28023 10.1289C10.3964 10.1289 10.9961 10.6248 10.9961 11.5756C10.9961 11.8236 10.9755 12.01 10.8929 12.5681L10.6033 14.3255L10.5617 14.635L10.5412 14.883L10.5206 15.0694L10.5007 15.1931ZM30.015 12.9814C29.8702 12.9814 29.8081 12.9608 29.726 12.9608C28.9815 12.9608 28.6093 13.2293 28.6093 13.7253C28.6093 14.0354 28.7957 14.2212 29.0847 14.2212C29.6018 14.2212 29.9939 13.7253 30.015 12.9808V12.9814ZM30.9659 15.1931H29.8908L29.9113 14.6761C29.5807 15.0894 29.1469 15.2758 28.5472 15.2758C27.8443 15.2758 27.3689 14.7382 27.3689 13.9322C27.3689 12.7129 28.1954 12.01 29.6428 12.01C29.7876 12.01 29.974 12.0305 30.1598 12.051C30.2015 11.8857 30.222 11.8236 30.222 11.7409C30.222 11.4103 29.9945 11.286 29.3954 11.286C29.0232 11.286 28.5894 11.3277 28.2998 11.4103L28.1345 11.4724L28.0102 11.493L28.196 10.3768C28.8373 10.191 29.2711 10.1289 29.7466 10.1289C30.8627 10.1289 31.4419 10.6248 31.4419 11.5756C31.4419 11.8236 31.4419 12.01 31.3387 12.5681L31.0696 14.3255L31.028 14.635L30.9864 14.883L30.9659 15.0694V15.1931ZM34.4386 10.1904H34.3143C33.8805 10.1904 33.6325 10.3973 33.2392 10.9964L33.3635 10.2314H32.1852L31.3997 15.1925H32.6811C33.1565 12.1536 33.2808 11.6372 33.901 11.6372H33.9837C34.1079 11.0375 34.2727 10.6037 34.4796 10.2109L34.438 10.1904H34.4386Z" fill="white"/>
</svg>
