<svg width="63" height="60" viewBox="0 0 63 60" fill="none" xmlns="http://www.w3.org/2000/svg">
<path d="M16.0911 55.1787C16.0911 55.5026 16.3535 55.7679 16.6802 55.7679H36.1438C36.4677 55.7679 36.733 55.5054 36.733 55.1787C36.733 54.8549 36.4705 54.5896 36.1438 54.5896H16.6802C16.3535 54.5896 16.0911 54.8521 16.0911 55.1787Z" fill="black"/>
<path d="M53.9162 12.3917C53.5392 11.5792 52.8719 10.9621 52.0315 10.6522C51.1911 10.3422 50.2808 10.3785 49.4684 10.7555L45.7883 12.4531V4.82202C45.7883 2.16388 43.6273 0.00279213 40.9691 0.00279213H11.8638C11.861 0.00279213 11.8554 0 11.8526 0H6.12314C3.465 0 1.30113 2.16387 1.30113 4.82202V7.95199C0.53609 8.30381 0 9.07164 0 9.96791V17.7469C0 18.6432 0.53609 19.4138 1.30391 19.7628V22.2925C0.53609 22.6443 0 23.415 0 24.3112V25.0874C0 25.9837 0.53609 26.7543 1.30391 27.1061V55.1808C1.30391 57.836 3.46778 59.9972 6.12593 59.9972H11.8107C11.8274 59.9972 11.8414 60 11.8554 60L40.9686 59.9972C43.6267 59.9972 45.7878 57.8361 45.7878 55.178V42.4155L60.8734 35.4435C61.6859 35.0666 62.3057 34.3993 62.6129 33.5561C62.9228 32.7156 62.8865 31.8054 62.5096 30.9929L53.9162 12.3917ZM37.2752 1.17809V2.43733C37.2752 3.75804 36.2003 4.83301 34.8796 4.83301L17.9427 4.8358C16.622 4.8358 15.547 3.76083 15.547 2.44012V1.18089L37.2752 1.17809ZM1.1757 9.96782C1.1757 9.38985 1.64478 8.92359 2.21993 8.92359H3.68024V18.7941H2.22272C1.64475 18.7941 1.17849 18.325 1.17849 17.7498L1.1757 9.96782ZM1.1757 24.3107C1.1757 23.7327 1.64478 23.2665 2.21993 23.2665H3.68024V26.134L2.22272 26.1312C1.64475 26.1312 1.17849 25.6621 1.17849 25.0842L1.1757 24.3107ZM8.70025 58.8184H6.12309C4.11275 58.8184 2.47933 57.185 2.47933 55.1803V27.3065H4.26908C4.59296 27.3065 4.85822 27.0441 4.85822 26.7174V22.6744C4.85822 22.3505 4.59576 22.0853 4.26908 22.0853L2.47933 22.0881V19.9689H4.26908C4.59296 19.9689 4.85822 19.7064 4.85822 19.3797V8.33414C4.85822 8.01025 4.59576 7.74499 4.26908 7.74499L2.47933 7.74779V4.82159C2.47933 2.81126 4.11554 1.17783 6.12309 1.17783H8.70025C8.63882 1.23088 8.58019 1.29231 8.52155 1.35094C8.48805 1.38445 8.45175 1.41516 8.41825 1.44867C8.34006 1.52685 8.26747 1.60782 8.19767 1.69158C8.16416 1.73067 8.13066 1.76697 8.09994 1.80606C8.03293 1.88983 7.96872 1.97638 7.90449 2.06573C7.87378 2.10761 7.84586 2.1495 7.81794 2.19417C7.75931 2.28352 7.70346 2.37845 7.64762 2.47339C7.62249 2.51806 7.59736 2.56274 7.57503 2.6102C7.52477 2.70793 7.4773 2.80566 7.43263 2.90617C7.41308 2.95084 7.39354 2.99831 7.37678 3.04577C7.3349 3.14908 7.29581 3.25518 7.25952 3.36407C7.24556 3.40875 7.23439 3.45063 7.22322 3.4953C7.18971 3.60978 7.159 3.72426 7.13387 3.84153C7.12829 3.87224 7.1227 3.90575 7.11712 3.93646C7.06407 4.22405 7.02777 4.52002 7.02777 4.82437V55.1803C7.02777 55.4847 7.06128 55.7778 7.11712 56.0654C7.1227 56.099 7.12549 56.1297 7.13387 56.1632C7.159 56.2777 7.18971 56.3921 7.22042 56.5038C7.23438 56.5513 7.24555 56.5987 7.25951 56.6434C7.29302 56.7467 7.33211 56.8472 7.3712 56.9478C7.39074 57.0008 7.41308 57.0539 7.43542 57.1041C7.4773 57.1963 7.52197 57.2884 7.56665 57.3777C7.59457 57.4336 7.62528 57.4894 7.65599 57.5425C7.70346 57.6262 7.75372 57.7072 7.80398 57.7882C7.84027 57.8468 7.87936 57.9027 7.91846 57.9585C7.97151 58.0311 8.02456 58.1037 8.0804 58.1735C8.12786 58.2321 8.17533 58.288 8.22558 58.3466C8.28143 58.408 8.33448 58.4723 8.39312 58.5309C8.45175 58.5923 8.51318 58.6482 8.5774 58.7068C8.62207 58.7403 8.65837 58.7821 8.70025 58.8184ZM44.6125 55.1775C44.6125 57.185 42.9791 58.8212 40.9688 58.8212L11.8634 58.8184C11.8606 58.8184 11.855 58.8156 11.8522 58.8156C11.0286 58.8156 10.2719 58.5392 9.6604 58.0757C8.78086 57.4112 8.21132 56.3586 8.21132 55.1747V4.82156C8.21132 2.81401 9.84475 1.1778 11.8551 1.1778H14.3736V2.43704C14.3736 4.40549 15.9763 6.00818 17.9447 6.00818H34.8816C36.85 6.00818 38.4527 4.40549 38.4527 2.43704V1.1778H40.9712C42.9787 1.1778 44.6149 2.81123 44.6149 4.82156V12.9973L18.5696 25.0343C17.7571 25.4112 17.1372 26.0785 16.8301 26.9217C16.5201 27.7622 16.5564 28.6724 16.9334 29.4849L25.5301 48.0858C25.907 48.8983 26.5743 49.5153 27.4148 49.8253C27.7917 49.9649 28.1826 50.0319 28.5735 50.0319C29.0538 50.0319 29.5312 49.9286 29.9779 49.722L44.6146 42.9594L44.6125 55.1775ZM61.5108 33.1506C61.3097 33.6951 60.9077 34.1307 60.38 34.3735L29.4819 48.6528C28.9542 48.8957 28.3623 48.9209 27.8178 48.7198C27.2734 48.5188 26.8378 48.1167 26.5949 47.589L17.9982 28.9882C17.7553 28.4605 17.7301 27.8685 17.9312 27.3241C18.1322 26.7796 18.5343 26.344 19.062 26.1011L49.9622 11.8219C50.2525 11.6878 50.5625 11.6208 50.8752 11.6208C51.1292 11.6208 51.3833 11.6655 51.629 11.7549C52.1735 11.9559 52.6091 12.358 52.852 12.8856L61.4487 31.4865C61.686 32.0142 61.7118 32.6062 61.5108 33.1506Z" fill="black"/>
<path d="M33.7964 30.5043L31.0294 24.518C30.8926 24.222 30.5436 24.0964 30.2476 24.2304L22.0247 28.0305C21.8823 28.0947 21.7734 28.2148 21.7203 28.36C21.6673 28.5052 21.6729 28.6671 21.7371 28.8095L24.5041 34.7958C24.6046 35.0108 24.8168 35.1365 25.0374 35.1365C25.1211 35.1365 25.2049 35.1197 25.2831 35.0834L33.506 31.2833C33.802 31.1493 33.9304 30.8003 33.7964 30.5043ZM25.3248 33.7711L23.052 28.8542L30.2084 25.5483L32.4812 30.4652L25.3248 33.7711Z" fill="black"/>
<path d="M32.705 38.9395C32.5681 38.6435 32.2191 38.5179 31.9231 38.6519L29.2371 39.8944C28.9411 40.0312 28.8127 40.3803 28.9495 40.6763C29.05 40.8913 29.2622 41.0169 29.4828 41.0169C29.5666 41.0169 29.6503 41.0001 29.7285 40.9639L32.4145 39.7213C32.7105 39.5817 32.839 39.2327 32.705 38.9395Z" fill="black"/>
<path d="M36.281 37.8759C36.3648 37.8759 36.4486 37.8592 36.5268 37.8229L39.2128 36.5803C39.5087 36.4435 39.6372 36.0945 39.5004 35.7985C39.3635 35.5025 39.0145 35.3769 38.7185 35.5109L36.0325 36.7534C35.7365 36.8903 35.6081 37.2393 35.7449 37.5353C35.8454 37.7475 36.0577 37.8759 36.281 37.8759Z" fill="black"/>
<path d="M43.0772 34.7344C43.161 34.7344 43.2447 34.7177 43.3229 34.6814L46.0089 33.4389C46.3049 33.302 46.4333 32.953 46.2965 32.657C46.1597 32.3611 45.8107 32.2354 45.5147 32.3694L42.8287 33.612C42.5327 33.7488 42.4042 34.0978 42.5411 34.3938C42.6444 34.606 42.8566 34.7344 43.0772 34.7344Z" fill="black"/>
<path d="M52.314 29.2285L49.628 30.4682C49.332 30.605 49.2036 30.954 49.3404 31.25C49.4409 31.465 49.6531 31.5907 49.8737 31.5907C49.9574 31.5907 50.0412 31.5739 50.1194 31.5376L52.8054 30.2979C53.1014 30.1611 53.2298 29.812 53.093 29.516C52.959 29.2201 52.6099 29.0944 52.314 29.2285Z" fill="black"/>
<path d="M46.3946 35.9353L30.75 43.1639C30.4541 43.3007 30.3256 43.6498 30.4625 43.9458C30.563 44.1607 30.7752 44.2864 30.9957 44.2864C31.0795 44.2864 31.1633 44.2696 31.2415 44.2333L46.886 37.0047C47.1819 36.8679 47.3104 36.5189 47.1736 36.2229C47.0395 35.9297 46.6905 35.8013 46.3946 35.9353Z" fill="black"/>
</svg>
