<svg width="42" height="42" viewBox="0 0 42 42" fill="none" xmlns="http://www.w3.org/2000/svg">
<rect width="42" height="42" rx="21" fill="white"/>
<path d="M21.5 28C21.0359 28 20.5908 28.1844 20.2626 28.5126C19.9344 28.8408 19.75 29.2859 19.75 29.75C19.75 30.2141 19.9344 30.6592 20.2626 30.9874C20.5908 31.3156 21.0359 31.5 21.5 31.5C21.9641 31.5 22.4092 31.3156 22.7374 30.9874C23.0656 30.6592 23.25 30.2141 23.25 29.75C23.25 29.2859 23.0656 28.8408 22.7374 28.5126C22.4092 28.1844 21.9641 28 21.5 28ZM21.5 19.25C21.0359 19.25 20.5908 19.4344 20.2626 19.7626C19.9344 20.0908 19.75 20.5359 19.75 21C19.75 21.4641 19.9344 21.9092 20.2626 22.2374C20.5908 22.5656 21.0359 22.75 21.5 22.75C21.9641 22.75 22.4092 22.5656 22.7374 22.2374C23.0656 21.9092 23.25 21.4641 23.25 21C23.25 20.5359 23.0656 20.0908 22.7374 19.7626C22.4092 19.4344 21.9641 19.25 21.5 19.25ZM23.25 12.25C23.25 11.7859 23.0656 11.3408 22.7374 11.0126C22.4092 10.6844 21.9641 10.5 21.5 10.5C21.0359 10.5 20.5908 10.6844 20.2626 11.0126C19.9344 11.3408 19.75 11.7859 19.75 12.25C19.75 12.7141 19.9344 13.1592 20.2626 13.4874C20.5908 13.8156 21.0359 14 21.5 14C21.9641 14 22.4092 13.8156 22.7374 13.4874C23.0656 13.1592 23.25 12.7141 23.25 12.25Z" fill="black"/>
</svg>
