<svg width="71" height="58" viewBox="0 0 71 58" fill="none" xmlns="http://www.w3.org/2000/svg">
<path d="M59.0898 23.4307L59.1787 23.4482L59.1904 23.4502C65.9974 24.6065 70.8495 30.4597 70.8496 37.3271C70.8496 43.1813 67.2285 48.3875 61.8672 50.5566L61.7734 50.5938V56.2471C61.7734 56.9085 61.3785 57.4417 60.7686 57.7139C60.5479 57.7872 60.3552 57.8496 60.167 57.8496C59.8136 57.8496 59.4636 57.7476 59.1572 57.498L59.0283 57.3828L53.2461 51.6113L53.2021 51.5684H44.5762C39.1427 51.5683 34.2901 48.6044 31.8271 43.7607H31.8281L31.8242 43.7539L31.7832 43.6729C31.6148 43.2855 31.7636 42.8124 32.1797 42.5537L32.2734 42.502L32.2803 42.498C32.6819 42.269 33.2058 42.4089 33.4834 42.8535L33.5361 42.9463V42.9473C35.6842 47.1608 39.908 49.749 44.5762 49.749H53.5791C53.8222 49.749 54.0792 49.871 54.2891 50.0088L59.6221 55.3301L59.8779 55.5859V49.9648C59.8779 49.6351 60.0724 49.3038 60.3721 49.1426L60.5068 49.084H60.5078C65.5449 47.3837 68.9541 42.7254 68.9541 37.4004C68.954 31.4864 64.7335 26.386 58.8838 25.2744C58.3498 25.1403 57.9969 24.6912 58.1162 24.2148C58.2416 23.7149 58.6455 23.373 59.0898 23.4307ZM18.5186 2.11426C9.43199 2.0412 2.04614 9.41394 2.0459 18.5537C2.0459 25.4097 6.34342 31.5745 12.7236 33.9639L13.3477 34.1826C13.7223 34.3073 13.9763 34.6857 13.9766 35.0625V43.2402L14.2324 42.9854L21.8447 35.3887C22.0262 35.2076 22.2744 35.1397 22.5439 35.1396H34.4023C43.4874 35.1395 50.9482 27.7684 50.9482 18.627C50.9481 9.4861 43.561 2.11441 34.4023 2.11426H18.5186ZM15.9258 17.8467C16.2241 17.4898 16.8422 17.4723 17.2295 17.8467C17.3676 18.0561 17.4901 18.3115 17.4902 18.5537C17.4902 18.8175 17.4247 19.0601 17.251 19.2402C17.0412 19.3779 16.7848 19.5 16.542 19.5C16.297 19.4999 16.048 19.3763 15.9248 19.2588C15.7876 19.0499 15.668 18.7947 15.668 18.5537C15.668 18.2849 15.7346 18.0374 15.916 17.8564L15.917 17.8574L15.9258 17.8467ZM22.5859 17.8467C22.8842 17.4895 23.5033 17.4721 23.8906 17.8467C24.0287 18.0561 24.1512 18.3115 24.1514 18.5537C24.1514 18.817 24.086 19.0593 23.9131 19.2393C23.703 19.3773 23.4465 19.5 23.2031 19.5C22.9582 19.5 22.7092 19.3763 22.5859 19.2588C22.4487 19.0499 22.3281 18.7948 22.3281 18.5537C22.3282 18.285 22.395 18.0374 22.5762 17.8564L22.5771 17.8574L22.5859 17.8467ZM29.1738 17.8467C29.4716 17.4901 30.0891 17.472 30.4766 17.8447C30.6152 18.0545 30.7381 18.3107 30.7383 18.5537C30.7383 18.8169 30.6738 19.0593 30.501 19.2393C30.291 19.3773 30.0344 19.4999 29.791 19.5C29.5462 19.5 29.2971 19.3763 29.1738 19.2588C29.0366 19.0499 28.916 18.7948 28.916 18.5537C28.9161 18.285 28.9828 18.0374 29.1641 17.8564L29.165 17.8574L29.1738 17.8467ZM35.752 17.8564C36.1287 17.4805 36.685 17.4774 37.0654 17.8457C37.2037 18.0552 37.326 18.3112 37.3262 18.5537C37.3262 18.8176 37.2607 19.0601 37.0869 19.2402C36.8771 19.3779 36.6207 19.5 36.3779 19.5C36.19 19.4999 35.9994 19.4276 35.8652 19.3408L35.752 19.252C35.5705 19.0709 35.5039 18.8227 35.5039 18.5537C35.504 18.3185 35.5551 18.0999 35.6895 17.9277L35.752 17.8564ZM12.0811 35.7627L11.9834 35.7266C4.86901 33.0458 0.150391 26.2345 0.150391 18.5537C0.150634 8.41034 8.42708 0.150391 18.5918 0.150391H34.4756C44.6402 0.15057 52.9167 8.41045 52.917 18.5537C52.917 28.6964 44.5678 36.9579 34.4023 36.958H22.9219L22.8779 37.002L15.1924 44.6719C14.8534 45.0102 14.3783 45.2129 13.9072 45.2129C12.8919 45.2129 12.0812 44.4031 12.0811 43.3906V35.7627Z" fill="black" stroke="white" stroke-width="0.3"/>
</svg>
