<svg width="26" height="29" viewBox="0 0 26 29" fill="none" xmlns="http://www.w3.org/2000/svg">
<g clip-path="url(#clip0_4251_181)">
<path d="M18.625 7.5C18.625 6.81056 18.4844 6.12787 18.2111 5.49091C17.9378 4.85395 17.5373 4.2752 17.0324 3.78769C16.5275 3.30018 15.928 2.91347 15.2683 2.64963C14.6086 2.3858 13.9016 2.25 13.1875 2.25C12.4734 2.25 11.7664 2.3858 11.1067 2.64963C10.447 2.91347 9.84753 3.30018 9.34261 3.78769C8.83769 4.2752 8.43716 4.85395 8.16391 5.49091C7.89065 6.12787 7.75 6.81056 7.75 7.5C7.75 8.18944 7.89065 8.87213 8.16391 9.50909C8.43716 10.146 8.83769 10.7248 9.34261 11.2123C9.84753 11.6998 10.447 12.0865 11.1067 12.3504C11.7664 12.6142 12.4734 12.75 13.1875 12.75C13.9016 12.75 14.6086 12.6142 15.2683 12.3504C15.928 12.0865 16.5275 11.6998 17.0324 11.2123C17.5373 10.7248 17.9378 10.146 18.2111 9.50909C18.4844 8.87213 18.625 8.18944 18.625 7.5ZM5.9375 7.5C5.9375 5.64348 6.70134 3.86301 8.06098 2.55025C9.42061 1.2375 11.2647 0.5 13.1875 0.5C15.1103 0.5 16.9544 1.2375 18.314 2.55025C19.6737 3.86301 20.4375 5.64348 20.4375 7.5C20.4375 9.35652 19.6737 11.137 18.314 12.4497C16.9544 13.7625 15.1103 14.5 13.1875 14.5C11.2647 14.5 9.42061 13.7625 8.06098 12.4497C6.70134 11.137 5.9375 9.35652 5.9375 7.5ZM2.3125 26.75H24.0625C23.9945 22.3914 20.3129 18.875 15.776 18.875H10.599C6.06777 18.875 2.38613 22.3914 2.3125 26.75ZM0.5 26.8758C0.5 21.4891 5.01992 17.125 10.599 17.125H15.776C21.3551 17.125 25.875 21.4891 25.875 26.8758C25.875 27.7727 25.1217 28.5 24.1928 28.5H2.18223C1.25332 28.5 0.5 27.7727 0.5 26.8758Z" fill="#6772E5"/>
</g>
<defs>
<clipPath id="clip0_4251_181">
<rect width="25.375" height="28" fill="white" transform="translate(0.5 0.5)"/>
</clipPath>
</defs>
</svg>
