<svg width="49" height="49" viewBox="0 0 49 49" fill="none" xmlns="http://www.w3.org/2000/svg">
<path d="M24.3171 1C20.0994 1.00132 15.961 2.14663 12.3427 4.31396C8.72439 6.48128 5.76171 9.58945 3.7702 13.3074C1.7787 17.0254 0.832945 21.2139 1.03368 25.4269C1.23442 29.6399 2.57412 33.7195 4.91011 37.2313L1 47.6343L14.0935 45.2667C17.2463 46.8074 20.7063 47.6166 24.2154 47.634C27.7246 47.6514 31.1924 46.8765 34.3604 45.3671C37.5283 43.8577 40.3147 41.6527 42.5119 38.9165C44.7091 36.1803 46.2603 32.9834 47.05 29.5643C47.8397 26.1451 47.8474 22.5918 47.0727 19.1692C46.2979 15.7466 44.7606 12.543 42.5754 9.79726C40.3902 7.0515 37.6134 4.83438 34.4521 3.31116C31.2907 1.78795 27.8263 0.997932 24.3171 1V1Z" stroke="#102542" stroke-width="1.5" stroke-linecap="round" stroke-linejoin="round"/>
<path d="M30 17L17 30" stroke="#102542" stroke-width="1.5" stroke-linecap="round" stroke-linejoin="round"/>
<path d="M17 17L30 30" stroke="#102542" stroke-width="1.5" stroke-linecap="round" stroke-linejoin="round"/>
</svg>
