<svg width="14" height="16" viewBox="0 0 14 16" fill="none" xmlns="http://www.w3.org/2000/svg">
<path fill-rule="evenodd" clip-rule="evenodd" d="M2.05827 0.0229508C1.72043 0.0226166 1.38807 0.108361 1.09256 0.272094C0.789504 0.426564 0.534199 0.660594 0.354009 0.949099C0.173819 1.2376 0.075539 1.56971 0.0697021 1.90981V14.1121C0.075539 14.4522 0.173819 14.7843 0.354009 15.0728C0.534199 15.3613 0.789504 15.5953 1.09256 15.7498C1.39343 15.9169 1.73253 16.0031 2.07669 15.9999C2.42085 15.9967 2.75828 15.9042 3.05599 15.7315L12.9188 9.63095C13.2232 9.47756 13.479 9.24265 13.6577 8.95241C13.8363 8.66217 13.9309 8.328 13.9308 7.98717C13.9307 7.64634 13.8359 7.31224 13.657 7.02212C13.4781 6.732 13.2222 6.49727 12.9177 6.34409L3.05484 0.289237C2.75186 0.114361 2.4081 0.0225089 2.05827 0.0229508Z" stroke="currentColor" fill="currentColor"/>
</svg>
