<svg width="60" height="60" viewBox="0 0 60 60" fill="none" xmlns="http://www.w3.org/2000/svg">
<path d="M52.2158 0.150391C53.1794 0.150473 54.1064 0.520654 54.8037 1.18555V1.18652L58.7793 5.16211C59.4653 5.84909 59.8506 6.78111 59.8506 7.75195C59.8505 8.66191 59.5117 9.5372 58.9043 10.209L58.7793 10.3408L45.8936 23.2275L45.8496 23.2715V45.9658L45.8428 46.2549C45.7698 47.7005 45.1631 49.0722 44.1348 50.1006C43.038 51.1972 41.5509 51.8138 40 51.8154H23.7871L23.75 51.8408L12.501 59.3408C12.0796 59.6207 11.5902 59.7815 11.085 59.8057C10.5797 59.8299 10.077 59.7169 9.63086 59.4785C9.18467 59.2401 8.81156 58.8847 8.55078 58.4512C8.32266 58.0719 8.18832 57.6448 8.15723 57.2051L8.15039 57.0156V51.8154H6L5.70996 51.8076C4.36103 51.7394 3.07638 51.2074 2.0752 50.3008L1.86523 50.1006C0.768569 49.0039 0.152068 47.5167 0.150391 45.9658V22.9658L0.157227 22.6758C0.22538 21.3267 0.758381 20.0423 1.66504 19.041L1.86523 18.8311C2.89342 17.8029 4.26459 17.1962 5.70996 17.123L6 17.1152H33.7002L33.7441 17.0713L49.625 1.18848C50.3227 0.521915 51.2509 0.150391 52.2158 0.150391ZM6 18.8154C4.89935 18.8154 3.84371 19.253 3.06543 20.0312C2.28726 20.8095 1.84961 21.8653 1.84961 22.9658V45.9658C1.8497 47.0663 2.28723 48.1222 3.06543 48.9004C3.84369 49.6786 4.89943 50.1152 6 50.1152H9C9.22528 50.1152 9.44121 50.2051 9.60059 50.3643C9.75999 50.5237 9.84961 50.7404 9.84961 50.9658V57.0186C9.8514 57.2166 9.90704 57.4108 10.0098 57.5801C10.1124 57.7493 10.2589 57.8874 10.4336 57.9805C10.6084 58.0735 10.8051 58.1177 11.0029 58.1084C11.1511 58.1014 11.2959 58.0649 11.4287 58.001L11.5576 57.9277H11.5586L23.0586 50.2578C23.1633 50.1881 23.2819 50.1433 23.4053 50.125L23.5303 50.1152H40C41.1006 50.1152 42.1563 49.6786 42.9346 48.9004C43.7128 48.1222 44.1503 47.0663 44.1504 45.9658V24.9717L43.8936 25.2275L36.9072 32.2148C36.2535 32.8598 35.4656 33.3499 34.6016 33.6514L34.2266 33.7686L27.0195 35.7363C26.8226 35.7886 26.6198 35.8154 26.416 35.8154L26.2852 35.8115C25.9813 35.7934 25.6835 35.7141 25.4102 35.5781C25.0977 35.4227 24.8253 35.1969 24.6143 34.9189C24.4033 34.641 24.2591 34.3182 24.1934 33.9756C24.1359 33.6756 24.1397 33.367 24.2041 33.0693L24.2354 32.9424L26.2012 25.7422V25.7412C26.44 24.8538 26.8795 24.0349 27.4844 23.3477L27.7539 23.0615L32 18.8154H6ZM28.3301 25.0664C28.1689 25.3289 28.0359 25.6075 27.9336 25.8975L27.8418 26.1914V26.1924L25.8701 33.3965C25.8414 33.4907 25.8394 33.5909 25.8633 33.6865C25.8875 33.7832 25.9379 33.8714 26.0088 33.9414V33.9424C26.0819 34.0156 26.1734 34.0681 26.2734 34.0947C26.3485 34.1147 26.4264 34.1197 26.5029 34.1094L26.5781 34.0938L33.7783 32.1299H33.7793C34.1738 32.0186 34.5513 31.8521 34.8994 31.6357L35.0596 31.5361L34.9258 31.4023L28.5645 25.0381L28.4297 24.9043L28.3301 25.0664ZM47.1396 14.0264L33.6562 27.5146L33.5498 27.6201L33.6562 27.7266L36.2178 30.2891L36.3242 30.3955L36.4297 30.2891L49.915 16.8018L50.0215 16.6953L49.915 16.5898L47.3525 14.0264L47.2461 13.9199L47.1396 14.0264ZM29.6797 23.5391L29.5742 23.6455L29.6797 23.752L32.2412 26.3125L32.3467 26.4189L32.4531 26.3125L45.9385 12.8242L46.0439 12.7188L45.9385 12.6123L43.3779 10.0527L43.2725 9.94629L29.6797 23.5391ZM47.1387 6.07812L44.5801 8.63867L44.4736 8.74414L51.2227 15.4932L51.3291 15.3877L53.8877 12.8281L53.9941 12.7227L53.8877 12.6162L47.3506 6.07812L47.2451 5.97266L47.1387 6.07812ZM52.2158 1.82422C51.7633 1.82422 51.3261 1.97865 50.9756 2.25879L50.8301 2.38672L50.8291 2.38867L48.5527 4.66406L48.4473 4.77051L48.5527 4.87695L55.0938 11.4141L55.2002 11.5195L55.3066 11.4131L57.5771 9.13867L57.5781 9.1377C57.9408 8.76769 58.1444 8.27005 58.1445 7.75195C58.1445 7.29848 57.9889 6.86004 57.707 6.50977L57.5781 6.36523L57.5771 6.36426L53.6025 2.38867L53.6006 2.38672L53.4561 2.25879C53.1056 1.97852 52.6684 1.82429 52.2158 1.82422Z" fill="black" stroke="white" stroke-width="0.3"/>
</svg>
