<svg width="72" height="74" viewBox="0 0 72 74" fill="none" xmlns="http://www.w3.org/2000/svg">
<path d="M35.457 47.7557C42.1519 47.7557 47.5791 42.3284 47.5791 35.6336C47.5791 28.9387 42.1519 23.5114 35.457 23.5114C28.7621 23.5114 23.3348 28.9387 23.3348 35.6336C23.3348 42.3284 28.7621 47.7557 35.457 47.7557Z" stroke="currentColor" stroke-width="4" stroke-linecap="round" stroke-linejoin="round"/>
<path d="M57.0073 72C54.9677 68.0426 51.8778 64.7232 48.0764 62.4059C44.275 60.0885 39.9089 58.8626 35.4568 58.8626C31.0048 58.8626 26.6387 60.0885 22.8373 62.4059C19.0359 64.7232 15.946 68.0426 13.9064 72" stroke="currentColor" stroke-width="4" stroke-linecap="round" stroke-linejoin="round"/>
<path d="M62.3952 56.1604C66.2185 51.1736 68.5701 45.2166 69.1841 38.9629C69.7981 32.7093 68.65 26.4086 65.8697 20.7735C63.0893 15.1384 58.7876 10.3936 53.4512 7.07595C48.1147 3.75827 41.9563 2 35.6726 2C29.3889 2 23.2306 3.75827 17.8941 7.07595C12.5576 10.3936 8.25596 15.1384 5.4756 20.7735C2.69525 26.4086 1.54715 32.7093 2.16116 38.9629C2.77517 45.2166 5.12679 51.1736 8.95005 56.1604" stroke="currentColor" stroke-width="4" stroke-linecap="round" stroke-linejoin="round"/>
</svg>
