<svg width="29" height="30" viewBox="0 0 29 30" fill="none" xmlns="http://www.w3.org/2000/svg">
<path d="M14.5873 19.257C17.2371 19.257 19.3851 17.109 19.3851 14.4592C19.3851 11.8094 17.2371 9.66132 14.5873 9.66132C11.9375 9.66132 9.78943 11.8094 9.78943 14.4592C9.78943 17.109 11.9375 19.257 14.5873 19.257Z" stroke="#6E6E6E" stroke-width="2" stroke-linecap="round" stroke-linejoin="round"/>
<path d="M23.1168 28.8527C22.3095 27.2864 21.0865 25.9726 19.582 25.0554C18.0774 24.1382 16.3493 23.653 14.5872 23.653C12.8252 23.653 11.0971 24.1382 9.59252 25.0554C8.08795 25.9726 6.86499 27.2864 6.05774 28.8527" stroke="#6E6E6E" stroke-width="2" stroke-linecap="round" stroke-linejoin="round"/>
<path d="M25.2492 22.5835C26.7624 20.6098 27.6931 18.252 27.9362 15.7769C28.1792 13.3018 27.7248 10.808 26.6243 8.57767C25.5239 6.34733 23.8213 4.46941 21.7092 3.15629C19.597 1.84318 17.1596 1.14727 14.6726 1.14727C12.1855 1.14727 9.74811 1.84318 7.63598 3.15629C5.52384 4.46941 3.82127 6.34733 2.72083 8.57767C1.62039 10.808 1.16598 13.3018 1.409 15.7769C1.65202 18.252 2.58277 20.6098 4.09599 22.5835" stroke="#6E6E6E" stroke-width="2" stroke-linecap="round" stroke-linejoin="round"/>
</svg>
