<svg width="18" height="18" viewBox="0 0 18 18" fill="none" xmlns="http://www.w3.org/2000/svg">
<path d="M7.65625 0.900391C9.05857 0.900425 10.3802 1.41632 11.4277 2.34766C13.3802 2.73705 15.0226 4.1338 15.6992 6.04297L15.8223 6.43359L15.8242 6.43945H15.8232L17.0293 12.2627L17.0352 12.2686L17.042 12.2939C17.1766 12.7902 17.0767 13.3357 16.751 13.7607L16.749 13.7637L16.7158 13.8018L16.7168 13.8027C16.391 14.2066 15.9088 14.4336 15.3926 14.4336H13.0889C13.0361 15.9156 11.8225 17.0996 10.3281 17.0996C8.83382 17.0996 7.62014 15.9156 7.56738 14.4336H5.26367C4.74658 14.4335 4.26556 14.1989 3.94043 13.7959L3.93945 13.7949C3.77302 13.5836 3.67275 13.3492 3.61816 13.0996H2.59863C2.08143 13.0996 1.59959 12.866 1.27441 12.4629V12.4619C0.949347 12.0519 0.828062 11.5276 0.941406 11.0244L2.09375 5.40039L2.09473 5.39844L2.1543 5.15234C2.82142 2.63287 5.05407 0.900391 7.65625 0.900391ZM8.43457 14.4336C8.48723 15.4322 9.3176 16.2334 10.3281 16.2334C11.3387 16.2334 12.17 15.4323 12.2227 14.4336H8.43457ZM10.3281 3.09375C8.04337 3.09379 6.10485 4.66026 5.6084 6.9082L4.45605 12.5332L4.45508 12.5361C4.39546 12.7928 4.45511 13.048 4.61621 13.251L4.67969 13.3232C4.83537 13.4807 5.04021 13.5664 5.26367 13.5664H15.3926C15.6525 13.5664 15.8904 13.4428 16.0527 13.2324L16.0605 13.2217L16.0713 13.209C16.2196 13.0013 16.2615 12.7451 16.1953 12.4922L16.1943 12.4873L14.9814 6.63379H14.9805C14.4703 4.81167 12.9297 3.45728 11.0957 3.16699H11.0527L11.04 3.1543C10.8014 3.11762 10.5702 3.09375 10.3281 3.09375ZM7.66309 1.7666C5.37904 1.7666 3.43962 3.33231 2.94238 5.5791L2.94336 5.58008L1.79004 11.2002V11.2031C1.73051 11.4597 1.78916 11.7151 1.9502 11.918L2.01367 11.9893C2.16948 12.1471 2.3748 12.2334 2.59863 12.2334H3.62988L4.75977 6.7334V6.73145L4.81738 6.49219C5.43546 4.15121 7.40378 2.48796 9.77148 2.2627C9.11959 1.94189 8.40582 1.76665 7.66309 1.7666Z" fill="#3C3F40" stroke="#3C3F40" stroke-width="0.2"/>
</svg>
