<svg width="25" height="25" viewBox="0 0 25 25" fill="none" xmlns="http://www.w3.org/2000/svg">
<path d="M12.25 23.5C18.4632 23.5 23.5 18.4632 23.5 12.25C23.5 6.0368 18.4632 1 12.25 1C6.0368 1 1 6.0368 1 12.25C1 18.4632 6.0368 23.5 12.25 23.5Z" stroke="#F87060" stroke-width="2" stroke-linecap="round" stroke-linejoin="round"/>
<path d="M9.65381 9.65389C9.65381 9.14042 9.80607 8.63848 10.0913 8.21155C10.3766 7.78461 10.7821 7.45186 11.2565 7.25536C11.7308 7.05886 12.2528 7.00745 12.7564 7.10762C13.2601 7.2078 13.7226 7.45506 14.0857 7.81814C14.4488 8.18121 14.6961 8.64381 14.7962 9.14741C14.8964 9.65101 14.845 10.173 14.6485 10.6474C14.452 11.1218 14.1192 11.5272 13.6923 11.8125C13.2654 12.0978 12.7634 12.25 12.25 12.25V13.9808" stroke="#F87060" stroke-width="2" stroke-linecap="round" stroke-linejoin="round"/>
<path d="M12.2501 18.3076C12.0111 18.3076 11.8174 18.1139 11.8174 17.875C11.8174 17.636 12.0111 17.4423 12.2501 17.4423" stroke="#F87060" stroke-width="2" stroke-linecap="round" stroke-linejoin="round"/>
<path d="M12.25 18.3076C12.489 18.3076 12.6827 18.1139 12.6827 17.875C12.6827 17.636 12.489 17.4423 12.25 17.4423" stroke="#F87060" stroke-width="2" stroke-linecap="round" stroke-linejoin="round"/>
</svg>
