<svg width="10" height="10" viewBox="0 0 10 10" fill="none" xmlns="http://www.w3.org/2000/svg">
<path d="M4.62305 0C7.17619 5.17973e-05 9.24609 2.06989 9.24609 4.62305C9.24604 7.17616 7.17616 9.24604 4.62305 9.24609C2.06989 9.24609 5.17978e-05 7.17619 0 4.62305C0 2.06986 2.06986 0 4.62305 0ZM4.62305 1.15527C2.70816 1.15527 1.15527 2.70816 1.15527 4.62305C1.15532 6.53789 2.70819 8.08984 4.62305 8.08984C6.53786 8.08979 8.08979 6.53786 8.08984 4.62305C8.08984 2.70819 6.53789 1.15533 4.62305 1.15527ZM6.02051 2.91211C6.24618 2.68644 6.61222 2.68644 6.83789 2.91211C7.04614 3.12043 7.06199 3.44814 6.88574 3.6748L6.83789 3.72949L4.27246 6.29492C4.06419 6.50319 3.73645 6.51893 3.50977 6.34277L3.45508 6.29492L2.19141 5.03125C1.96594 4.80556 1.9658 4.43947 2.19141 4.21387C2.39965 4.0058 2.72748 3.99 2.9541 4.16602L3.00879 4.21387L3.86328 5.06934L6.02051 2.91211Z" fill="currentColor"/>
</svg>
