<svg width="147" height="482" viewBox="0 0 147 482" fill="none" xmlns="http://www.w3.org/2000/svg">
<g opacity="0.05">
<path d="M81.2374 530.957C96.8693 550.116 113.268 567.639 129.991 584.13C130.021 584.101 130.05 584.086 130.08 584.057C113.15 567.079 96.2942 548.583 80.1461 527.39C-2.08409 416.208 -17.1114 301.062 30.4776 193.078C35.8161 181.464 41.8182 170.278 48.307 159.417C41.1251 171.03 34.5184 182.953 28.6785 195.347C-20.1199 302.152 -5.47594 422.177 81.2374 530.957Z" fill="#F87060" stroke="#F87060" stroke-width="0.6" stroke-linecap="round" stroke-linejoin="round"/>
<path d="M172.375 1.5011C121.025 60.8502 80.9868 105.992 48.3071 159.431C81.503 106.95 122.323 61.7345 174.1 2.9012C173.525 2.44432 172.935 1.97271 172.36 1.51584L172.375 1.5011Z" fill="white" stroke="#222221" stroke-width="0.6" stroke-linecap="round" stroke-linejoin="round"/>
<path d="M80.1757 527.375C96.3238 548.568 113.165 567.064 130.11 584.042C130.493 583.732 130.862 583.438 131.245 583.128C113.047 564.352 94.8196 543.66 77.359 519.166C0.0986346 408.25 -12.2742 291.438 34.5333 186.932C43.5585 167.404 54.3239 149.292 66.1512 131.798C52.6428 151.281 40.4469 171.384 30.463 193.078C-17.1113 301.062 -2.08394 416.208 80.1757 527.375Z" fill="white" stroke="#F87060" stroke-width="0.6" stroke-linecap="round" stroke-linejoin="round"/>
<path d="M171.741 1C129.284 49.9884 95.6308 88.8962 66.166 131.798C95.8963 89.5594 129.741 50.4306 172.36 1.50109C172.154 1.33897 171.947 1.16212 171.741 1Z" fill="white" stroke="#222221" stroke-width="0.6" stroke-linecap="round" stroke-linejoin="round"/>
<path d="M171.741 1.00001C113.047 69.8255 67.198 119.33 34.5331 186.932C-12.2744 291.438 0.0984195 408.25 77.344 519.181C94.8047 543.675 113.032 564.367 131.23 583.143C131.761 582.73 132.277 582.303 132.808 581.876C112.737 560.329 92.5041 536.41 73.2886 506.904C2.25151 395.826 -5.90367 277.658 40.8006 177.588C72.8314 112.948 116.689 65.9495 172.168 1.33898C172.021 1.22107 171.873 1.10317 171.741 1.00001Z" fill="white" stroke="#F87060" stroke-width="0.6" stroke-linecap="round" stroke-linejoin="round"/>
<path d="M172.169 1.339C116.69 65.9495 72.8317 112.948 40.8008 177.588C-5.90344 277.658 2.25174 395.826 73.2741 506.904C92.4896 536.409 112.723 560.314 132.794 581.876C133.369 581.419 133.929 580.962 134.504 580.505C112.103 555.244 89.5844 527.302 68.5697 491.135C4.80299 379.835 2.10427 260.71 49.2215 165.754C80.4264 105.403 122.013 61.4839 173.555 2.45907C173.098 2.09062 172.626 1.72218 172.169 1.339Z" fill="#F87060" stroke="#F87060" stroke-width="0.6" stroke-linecap="round" stroke-linejoin="round"/>
<path d="M173.554 2.45899C122.013 61.4839 80.4114 105.403 49.2064 165.754C2.10399 260.724 4.80272 379.835 68.5842 491.135C89.5989 527.301 112.118 555.244 134.519 580.505C135.05 580.078 135.581 579.65 136.111 579.237C110.938 549.202 86.1185 516.617 63.8356 472.477C8.15033 361.162 11.8666 241.698 59.7211 152.195C89.7906 97.1936 128.767 56.7678 175.811 4.257C175.059 3.65275 174.307 3.0485 173.554 2.45899Z" fill="white" stroke="#F87060" stroke-width="0.6" stroke-linecap="round" stroke-linejoin="round"/>
<path d="M175.811 4.25709C128.768 56.7679 89.7908 97.1789 59.7214 152.18C11.8668 241.683 8.15056 361.148 63.8211 472.447C86.1188 516.587 110.924 549.172 136.097 579.208C136.539 578.854 136.982 578.501 137.409 578.147C108.741 542.025 81.9453 504.119 59.5297 451.476C12.56 339.395 23.6793 223.246 72.1975 137.605C100.91 87.8204 136.716 52.1991 178.819 6.67409C177.817 5.87824 176.814 5.06767 175.811 4.27182L175.811 4.25709Z" fill="white" stroke="#F87060" stroke-width="0.6" stroke-linecap="round" stroke-linejoin="round"/>
<path d="M178.819 6.67408C136.731 52.2139 100.91 87.8204 72.2267 137.649C23.7085 223.29 12.5891 339.424 59.5588 451.52C81.9745 504.148 108.77 542.069 137.439 578.191C137.822 577.896 138.191 577.587 138.574 577.292C105.349 533.742 76.9752 489.175 56.2407 428.927C18.488 317.848 36.7892 203.306 86.5757 122.823C116.999 73.3037 148.853 38.9793 179.35 7.10147C179.173 6.9541 178.996 6.82146 178.819 6.67408Z" fill="#F87060" stroke="#F87060" stroke-width="0.6" stroke-linecap="round" stroke-linejoin="round"/>
<path d="M179.35 7.10145C148.853 38.9793 116.999 73.3036 86.5462 122.823C36.7598 203.291 18.4586 317.848 56.2113 428.927C76.9458 489.16 105.319 533.742 138.545 577.292C138.958 576.953 139.385 576.614 139.798 576.29C100.984 524.722 71.2387 471.091 54.1615 405.39C25.7732 295.726 51.1973 184.427 102.458 108.409C129.726 67.4085 157.436 37.7708 183.863 10.7417C182.359 9.53318 180.854 8.32468 179.335 7.11618L179.35 7.10145Z" fill="white" stroke="#F87060" stroke-width="0.6" stroke-linecap="round" stroke-linejoin="round"/>
<path d="M183.878 10.7122C157.451 37.756 129.741 67.379 102.473 108.38C51.2123 184.382 25.7882 295.697 54.1765 405.361C71.2537 471.062 100.999 524.693 139.813 576.26C140.388 575.803 140.963 575.347 141.524 574.89C96.7957 515.998 65.6793 450.974 53.6456 381.545C34.607 273.487 66.6231 167.552 119.669 94.9534C143.264 62.1471 166.712 37.2844 189.039 14.8535C187.314 13.4681 185.588 12.0975 183.863 10.7122L183.878 10.7122Z" fill="#F87060" stroke="#F87060" stroke-width="0.6" stroke-linecap="round" stroke-linejoin="round"/>
<path d="M189.054 14.8683C166.727 37.2992 143.279 62.1619 119.683 94.9682C66.6379 167.567 34.6218 273.502 53.6604 381.559C65.6941 450.974 96.8106 515.998 141.539 574.905C142.32 574.271 143.102 573.652 143.883 573.018C93.5514 508.157 61.1814 431.624 54.7517 358.171C44.9891 251.778 82.5796 153.522 137.793 83.0601C157.392 57.7995 176.563 37.6529 194.85 19.5254C192.918 17.978 190.986 16.4305 189.054 14.883L189.054 14.8683Z" fill="white" stroke="#F87060" stroke-width="0.6" stroke-linecap="round" stroke-linejoin="round"/>
<path d="M194.849 19.5106C176.548 37.6529 157.377 57.7847 137.793 83.0453C82.594 153.507 44.9887 251.764 54.7513 358.156C61.1811 431.624 93.5659 508.157 143.883 573.003C144.871 572.208 145.859 571.426 146.847 570.631C90.9851 500.464 57.9662 414.999 57.4353 335.843C56.757 231.219 98.5947 142.66 156.345 73.053C171.829 54.4392 186.871 38.8171 201.279 24.6541C199.141 22.9445 196.988 21.2202 194.849 19.5106Z" fill="white" stroke="#F87060" stroke-width="0.6" stroke-linecap="round" stroke-linejoin="round"/>
<path d="M201.279 24.6542C186.871 38.8172 171.829 54.454 156.345 73.0531C98.5947 142.66 56.757 231.219 57.4354 335.843C57.9663 414.999 90.9999 500.464 146.847 570.631C148.027 569.687 149.222 568.729 150.401 567.786C88.3454 492.034 55.533 400.409 61.5793 315.269C69.9115 213.092 114.271 135.173 174.882 65.3158C186.399 52.3023 197.533 40.851 208.299 30.284C205.954 28.4123 203.609 26.5406 201.279 24.6542Z" fill="#F87060" stroke="#F87060" stroke-width="0.6" stroke-linecap="round" stroke-linejoin="round"/>
<path d="M208.299 30.2693C197.534 40.8363 186.385 52.3023 174.882 65.301C114.271 135.158 69.9117 213.077 61.5795 315.254C55.5479 400.394 88.3604 492.019 150.402 567.771C151.773 566.666 153.159 565.576 154.531 564.47C85.5584 482.675 53.8373 386.895 66.9475 296.979C83.5676 198.59 129.638 130.383 192.888 60.0249C200.778 51.5359 208.461 43.7249 215.923 36.3707C213.387 34.3369 210.836 32.3031 208.299 30.2693Z" fill="white" stroke="#F87060" stroke-width="0.6" stroke-linecap="round" stroke-linejoin="round"/>
<path d="M215.923 36.3855C208.446 43.7397 200.778 51.5507 192.888 60.0397C129.638 130.413 83.5674 198.604 66.9474 296.994C53.8372 386.895 85.5583 482.69 154.531 564.485C156.064 563.262 157.583 562.039 159.117 560.815C82.5941 472.226 53.5275 375.09 73.2592 281.564C83.8329 234.624 103.166 196.32 126.084 160.831C149.355 125.358 176.209 92.6986 209.892 57.3427C214.729 52.3171 219.433 47.542 224.093 42.9291C221.365 40.7479 218.651 38.5667 215.923 36.4002L215.923 36.3855Z" fill="white" stroke="#F87060" stroke-width="0.6" stroke-linecap="round" stroke-linejoin="round"/>
<path d="M224.093 42.9143C219.448 47.5272 214.729 52.317 209.892 57.3279C176.209 92.6839 149.355 125.343 126.084 160.817C103.166 196.305 83.8182 234.609 73.2592 281.549C53.5275 375.075 82.5941 472.197 159.117 560.801C160.739 559.504 162.362 558.192 163.998 556.895C162.671 555.436 161.344 553.962 160.031 552.488C79.394 458.785 54.7073 363.137 80.1904 269.434C93.1384 225.324 114.654 189.983 138.987 156.837C163.718 123.692 191.266 92.7133 225.45 57.2689C227.913 54.7488 230.331 52.2728 232.75 49.8411C229.859 47.5272 226.984 45.2134 224.093 42.9143Z" fill="#F87060" stroke="#F87060" stroke-width="0.6" stroke-linecap="round" stroke-linejoin="round"/>
<path d="M232.75 49.8558C230.331 52.2875 227.913 54.7635 225.45 57.2837C191.266 92.7281 163.718 123.707 138.987 156.852C114.654 189.998 93.1382 225.339 80.1902 269.449C54.6924 363.137 79.3939 458.8 160.031 552.503C161.344 553.977 162.671 555.451 163.998 556.91C165.65 555.583 167.302 554.257 168.953 552.931C165.856 549.659 162.819 546.343 159.84 542.968C77.344 445.993 57.2731 352.894 87.4163 261.034C101.972 219.974 125.331 187.079 150.903 155.909C176.902 124.694 205.113 95.204 239.165 59.8186C240.049 58.9048 240.92 57.9911 241.804 57.0921C238.781 54.6751 235.758 52.2581 232.75 49.8411L232.75 49.8558Z" fill="white" stroke="#F87060" stroke-width="0.6" stroke-linecap="round" stroke-linejoin="round"/>
<path d="M241.804 57.1068C240.92 58.0206 240.05 58.9196 239.165 59.8333C205.114 95.2188 176.902 124.709 150.903 155.924C125.331 187.094 101.972 219.989 87.4164 261.048C57.2732 352.894 77.3441 445.993 159.84 542.983C162.819 546.358 165.857 549.674 168.953 552.945C170.576 551.648 172.183 550.352 173.805 549.055C169.647 544.81 165.591 540.477 161.639 536.056C118.12 486.64 94.5983 438.934 84.0246 392.701C73.8343 346.425 76.6068 301.607 94.672 256.716C110.053 218.825 134.991 187.743 161.668 158.179C188.774 128.467 217.619 100.274 250.726 64.9621C250.859 64.8294 250.977 64.6968 251.11 64.5494C248.013 62.0735 244.916 59.5828 241.804 57.1068Z" fill="white" stroke="#F87060" stroke-width="0.6" stroke-linecap="round" stroke-linejoin="round"/>
<path d="M251.11 64.5493C250.977 64.682 250.859 64.8146 250.726 64.962C217.619 100.274 188.774 128.482 161.668 158.179C134.991 187.743 110.053 218.825 94.6719 256.715C76.6067 301.607 73.8342 346.424 84.0245 392.701C94.5982 438.934 118.12 486.64 161.639 536.056C165.591 540.477 169.646 544.81 173.805 549.054C176.342 547.021 178.878 544.987 181.429 542.953C177.625 539.077 173.908 535.157 170.281 531.133C126.334 481.585 103.668 435.397 93.4774 390.785C83.7885 346.1 86.5757 302.977 104.936 257.865C119.742 221.816 144.503 190.911 171.047 161.892C197.961 132.667 226.659 105.314 257.879 71.5056C258.144 71.2108 258.41 70.9161 258.69 70.6213C256.168 68.6022 253.646 66.5831 251.125 64.5641L251.11 64.5493Z" fill="#F87060" stroke="#F87060" stroke-width="0.6" stroke-linecap="round" stroke-linejoin="round"/>
<path d="M258.69 70.6213C258.41 70.9161 258.159 71.2109 257.879 71.5056C226.659 105.314 197.961 132.667 171.047 161.893C144.503 190.911 119.742 221.816 104.936 257.865C86.5757 302.977 83.7884 346.1 93.4773 390.785C103.668 435.397 126.319 481.585 170.281 531.133C173.894 535.142 177.625 539.077 181.429 542.953C184.217 540.713 187.019 538.473 189.806 536.247C187.476 533.771 185.175 531.281 182.919 528.761C141.022 481.084 119.226 437.696 108.534 395.148C98.3734 352.541 99.3319 310.774 115.303 265.131C142.91 191.088 199.155 140.302 255.445 76.487C256.92 74.8658 258.38 73.2152 259.855 71.5646C259.471 71.2551 259.073 70.9456 258.69 70.6361L258.69 70.6213Z" fill="white" stroke="#F87060" stroke-width="0.6" stroke-linecap="round" stroke-linejoin="round"/>
<path d="M182.919 528.761C185.175 531.281 187.476 533.771 189.806 536.247C192.328 534.228 194.835 532.224 197.357 530.205C193.478 525.769 189.703 521.259 186.031 516.705C151.331 472.993 132.764 432.832 123.237 393.143C114.124 353.425 114.05 314.163 125.715 271.439C138.619 225.162 163.88 184.545 192.254 146.3C160.739 182.275 131.348 220.254 115.289 265.131C99.3174 310.774 98.3736 352.541 108.52 395.148C119.211 437.696 141.008 481.084 182.904 528.761L182.919 528.761Z" fill="white" stroke="#F87060" stroke-width="0.6" stroke-linecap="round" stroke-linejoin="round"/>
<path d="M186.031 516.69C189.703 521.244 193.478 525.754 197.357 530.19C199.908 528.142 202.474 526.093 205.025 524.044C203.595 522.261 202.209 520.463 200.808 518.65C143.279 441.483 121.733 367.617 133.251 285.439C139.504 246.517 153.086 210.999 170.266 177.662C151.287 206.636 135.094 237.66 125.715 271.424C114.05 314.149 114.109 353.41 123.238 393.129C132.764 432.817 151.331 472.978 186.031 516.69Z" fill="#F87060" stroke="#F87060" stroke-width="0.6" stroke-linecap="round" stroke-linejoin="round"/>
<path d="M200.807 518.65C202.194 520.463 203.595 522.261 205.025 524.044C207.827 521.804 210.614 519.564 213.416 517.324C165.724 449.766 137.852 372.334 141.022 295.668C142.291 265.691 147.452 236.731 155.607 208.906C145.476 233.017 137.557 258.44 133.251 285.425C121.733 367.603 143.279 441.469 200.807 518.636L200.807 518.65Z" fill="white" stroke="#F87060" stroke-width="0.6" stroke-linecap="round" stroke-linejoin="round"/>
<path d="M213.416 517.324C216.587 514.789 219.743 512.254 222.913 509.719C170.87 426.745 139.017 324.45 151.832 222.789C145.874 246.325 142.099 270.643 141.037 295.667C137.852 372.334 165.738 449.766 213.431 517.324L213.416 517.324Z" fill="white" stroke="#F87060" stroke-width="0.6" stroke-linecap="round" stroke-linejoin="round"/>
<path d="M222.914 509.734C226.718 506.683 230.523 503.633 234.328 500.597C193.98 427.011 155.784 349.372 149.193 258.116C146.568 348.488 177.02 436.104 222.914 509.734Z" fill="#F87060" stroke="#F87060" stroke-width="0.6" stroke-linecap="round" stroke-linejoin="round"/>
<path d="M223.828 42.708C204.008 61.3513 188.258 81.94 177.95 102.514C154.044 149.867 145.417 205.295 149.207 258.101C150.608 200.52 165.931 143.176 193.788 95.3219C203.079 79.2577 215.422 63.1346 230.331 47.9104C228.164 46.1714 225.996 44.4323 223.828 42.6932L223.828 42.708Z" fill="white" stroke="#222221" stroke-width="0.6" stroke-linecap="round" stroke-linejoin="round"/>
<path d="M221.085 40.5121C196.295 61.9851 177.359 86.4793 166.771 110.251C144.724 159.417 141.553 213.165 149.458 261.52C145.063 207.668 153.513 150.898 177.949 102.514C188.258 81.9253 204.007 61.3366 223.828 42.708C222.913 41.9711 221.999 41.249 221.099 40.5121L221.085 40.5121Z" fill="white" stroke="#222221" stroke-width="0.6" stroke-linecap="round" stroke-linejoin="round"/>
<path d="M246.037 491.223C250.697 487.495 255.372 483.751 260.032 480.023C238.796 434.35 210.349 396.194 186.119 347.81C162.244 300.531 142.586 243.009 147.098 184.161C140.329 244.616 155.46 301.74 175.619 350.92C196.206 400.881 221.822 442.869 246.037 491.238L246.037 491.223Z" fill="white" stroke="#F87060" stroke-width="0.6" stroke-linecap="round" stroke-linejoin="round"/>
<path d="M162.524 117.576C153.646 138.489 148.647 161.215 147.083 184.161C149.767 159.225 156.094 134.097 166.756 110.266C169.75 103.575 173.407 96.8251 177.654 90.09C171.49 99.1537 166.402 108.394 162.509 117.591L162.524 117.576Z" fill="white" stroke="#222221" stroke-width="0.6" stroke-linecap="round" stroke-linejoin="round"/>
<path d="M222.766 41.8531C195.012 64.2988 173.717 91.0479 162.524 117.576C133.944 181.98 147.275 258.779 172.537 318.555C198.02 380.646 235.419 425.729 260.032 480.008C264.382 476.515 268.747 473.037 273.098 469.544C250.151 417.873 211.882 376.902 184.556 317.774C157.48 261.122 141.361 186.298 168.614 123.898C179.616 97.2378 201.604 70.2086 230.361 47.9104C227.839 45.8913 225.302 43.8575 222.781 41.8384L222.766 41.8531Z" fill="#F87060" stroke="#F87060" stroke-width="0.6" stroke-linecap="round" stroke-linejoin="round"/>
<path d="M230.346 47.9252C201.589 70.2087 179.601 97.2378 168.6 123.913C141.347 186.313 157.466 261.137 184.541 317.789C211.868 376.917 250.137 417.873 273.083 469.559C275.989 467.23 278.909 464.902 281.814 462.573C261.168 412.008 224.698 373.085 198.242 315.534C172.124 260.459 156.035 186.755 183.981 123.825C194.171 99.6401 214.036 75.5291 239.858 55.5741C236.687 53.0392 233.502 50.4896 230.331 47.9547L230.346 47.9252Z" fill="white" stroke="#F87060" stroke-width="0.6" stroke-linecap="round" stroke-linejoin="round"/>
</g>
</svg>
