<svg width="17" height="17" viewBox="0 0 17 17" fill="none" xmlns="http://www.w3.org/2000/svg">
<path d="M2.15385 3.30774C1.84783 3.30774 1.55434 3.4293 1.33795 3.64569C1.12157 3.86208 1 4.15557 1 4.46159V14.8462C1 15.1522 1.12157 15.4457 1.33795 15.6621C1.55434 15.8785 1.84783 16 2.15385 16H14.8462C15.1522 16 15.4457 15.8785 15.662 15.6621C15.8784 15.4457 16 15.1522 16 14.8462V4.46159C16 4.15557 15.8784 3.86208 15.662 3.64569C15.4457 3.4293 15.1522 3.30774 14.8462 3.30774H12.5385" stroke="#3C3F40" stroke-linecap="round" stroke-linejoin="round"/>
<path d="M1 7.9231H16" stroke="#3C3F40" stroke-linecap="round" stroke-linejoin="round"/>
<path d="M4.46167 1V5.61538" stroke="#3C3F40" stroke-linecap="round" stroke-linejoin="round"/>
<path d="M12.5383 1V5.61538" stroke="#3C3F40" stroke-linecap="round" stroke-linejoin="round"/>
<path d="M4.46167 3.30774H10.2309" stroke="#3C3F40" stroke-linecap="round" stroke-linejoin="round"/>
</svg>
