<svg width="18" height="18" viewBox="0 0 18 18" fill="none" xmlns="http://www.w3.org/2000/svg">
<path d="M9 5.92306V4.0769" stroke="#3C3F40" stroke-linecap="round" stroke-linejoin="round"/>
<path d="M7.15381 10.8462C7.15381 11.7692 7.97842 12.0769 8.99996 12.0769C10.0215 12.0769 10.8461 12.0769 10.8461 10.8462C10.8461 9.00002 7.15381 9.00002 7.15381 7.15386C7.15381 5.9231 7.97842 5.9231 8.99996 5.9231C10.0215 5.9231 10.8461 6.39079 10.8461 7.15386" stroke="#3C3F40" stroke-linecap="round" stroke-linejoin="round"/>
<path d="M9 12.0769V13.9231" stroke="#3C3F40" stroke-linecap="round" stroke-linejoin="round"/>
<path d="M9 17C13.4183 17 17 13.4183 17 9C17 4.58172 13.4183 1 9 1C4.58172 1 1 4.58172 1 9C1 13.4183 4.58172 17 9 17Z" stroke="#3C3F40" stroke-linecap="round" stroke-linejoin="round"/>
</svg>
