<svg width="16" height="17" viewBox="0 0 16 17" fill="none" xmlns="http://www.w3.org/2000/svg">
<path d="M5.92391 3.01923L6.42827 1.73846C6.51333 1.52161 6.66298 1.33509 6.85762 1.20332C7.05226 1.07155 7.28282 1.00069 7.5191 1H8.4809C8.71718 1.00069 8.94774 1.07155 9.14238 1.20332C9.33702 1.33509 9.48667 1.52161 9.57173 1.73846L10.0761 3.01923L11.7886 3.98846L13.1726 3.78077C13.4031 3.75 13.6377 3.78732 13.8465 3.88799C14.0554 3.98866 14.2291 4.14814 14.3456 4.34615L14.8148 5.15385C14.935 5.35502 14.9904 5.58732 14.9736 5.8201C14.9569 6.05288 14.8688 6.27519 14.7209 6.45769L13.8647 7.53077V9.46923L14.7444 10.5423C14.8922 10.7248 14.9803 10.9471 14.9971 11.1799C15.0138 11.4127 14.9584 11.645 14.8382 11.8462L14.369 12.6538C14.2525 12.8519 14.0788 13.0113 13.87 13.112C13.6611 13.2127 13.4266 13.25 13.1961 13.2192L11.812 13.0115L10.0996 13.9808L9.59519 15.2615C9.51013 15.4784 9.36048 15.6649 9.16584 15.7967C8.9712 15.9284 8.74064 15.9993 8.50436 16H7.5191C7.28282 15.9993 7.05226 15.9284 6.85762 15.7967C6.66298 15.6649 6.51333 15.4784 6.42827 15.2615L5.92391 13.9808L4.21142 13.0115L2.82736 13.2192C2.5969 13.25 2.36234 13.2127 2.15349 13.112C1.94464 13.0113 1.77092 12.8519 1.65442 12.6538L1.18525 11.8462C1.06503 11.645 1.00964 11.4127 1.02639 11.1799C1.04314 10.9471 1.13125 10.7248 1.27908 10.5423L2.13533 9.46923V7.53077L1.25563 6.45769C1.10779 6.27519 1.01968 6.05288 1.00293 5.8201C0.986177 5.58732 1.04157 5.35502 1.16179 5.15385L1.63097 4.34615C1.74747 4.14814 1.92118 3.98866 2.13003 3.88799C2.33888 3.78732 2.57344 3.75 2.8039 3.78077L4.18796 3.98846L5.92391 3.01923ZM5.65413 8.5C5.65413 8.95642 5.79171 9.40259 6.04948 9.78208C6.30725 10.1616 6.67362 10.4574 7.10227 10.632C7.53093 10.8067 8.0026 10.8524 8.45766 10.7634C8.91271 10.6743 9.3307 10.4545 9.65878 10.1318C9.98686 9.80905 10.2103 9.39786 10.3008 8.95021C10.3913 8.50256 10.3449 8.03856 10.1673 7.61688C9.98975 7.19521 9.68907 6.8348 9.30329 6.58122C8.91752 6.32765 8.46397 6.19231 8 6.19231C7.37784 6.19231 6.78116 6.43544 6.34122 6.86821C5.90128 7.30099 5.65413 7.88796 5.65413 8.5V8.5Z" stroke="#3C3F40" stroke-linecap="round" stroke-linejoin="round"/>
</svg>
