<svg width="128" height="364" viewBox="0 0 128 364" fill="none" xmlns="http://www.w3.org/2000/svg">
<g opacity="0.24">
<path d="M-50.7894 168.337C-38.468 157.927 -31.5905 147.331 -30.1683 136.56C-30.5879 121.989 -30.6696 108.106 -30.4248 94.8753C-35.3673 81.5282 -37.6754 71.3633 -37.2907 64.3925C-36.8127 55.9296 -29.9702 49.6582 -32.3482 39.6916L-30.4597 39.2486L-30.4248 39.3069C-29.0726 48.2943 -31.6721 51.3252 -32.7795 58.9954C-34.0267 67.6681 -31.6021 77.0636 -25.4939 87.1818C-24.7129 81.9362 -18.3132 74.3942 -6.29499 64.5674C4.35942 55.545 9.37188 46.6158 8.73075 37.7915L8.73075 37.7682L11.2836 37.7682C11.8665 48.0962 8.06631 57.2818 -0.116833 65.3251C-9.83868 73.7297 -16.7046 82.146 -20.7029 90.5856C-23.5355 95.3766 -23.8503 111.02 -21.6471 137.505C-19.0593 133.04 -16.0868 130.219 -12.7412 129.042C-7.27417 128.062 -1.25921 119.903 5.31528 104.539C7.26198 98.6288 9.97804 93.3366 13.4285 88.6855C18.2777 82.1576 25.0854 80.8987 28.5475 71.9462C28.5824 71.8413 28.6291 71.7364 28.699 71.6548L30.4592 72.2842C30.4592 72.2842 30.4592 72.4008 30.4359 72.4474C28.0929 80.8754 22.2644 83.2301 17.1937 89.7346C8.05465 101.461 10.7707 113.969 1.14211 127.386C17.7415 134.439 33.2685 124.927 47.7464 98.8387L50.9054 100.739C38.6773 127.841 23.1853 139.591 4.42935 135.978C-2.5881 134.637 -7.84536 135.266 -11.3657 137.878C-21.2275 156.983 -33.3506 170.785 -47.7353 179.306C-44.1216 180.227 -40.6129 181.474 -37.2324 183.036C-36.4397 183.398 -35.6704 183.782 -34.901 184.179C-32.7561 185.076 -30.4714 185.624 -28.14 185.811C-17.9286 186.405 -9.93194 183.363 -4.15012 176.718C6.38771 167.148 14.0463 162.136 18.8373 161.693C23.1387 158.58 26.4143 154.617 28.6874 149.826C32.9538 139.195 38.246 132.83 44.5524 130.755C55.0203 127.305 71.678 126.839 77.7629 114.844L79.593 115.904C79.5697 116.021 79.5231 116.126 79.4648 116.231C70.3608 131.898 60.7088 129.286 47.5482 134.252C41.5449 136.514 36.2294 144.487 31.6016 158.161C48.4458 159.897 61.1518 158.475 69.708 153.883L71.0718 156.144C67.3766 159.373 35.4833 165.656 30.8439 166.495C22.1478 168.384 14.6991 173.816 8.48596 182.792C1.53845 190.159 -5.24587 195.031 -11.8437 197.444C6.46931 203.751 26.5075 202.748 44.1094 194.67C57.1069 189.075 68.6705 180.623 77.9377 169.934L79.4998 171.613C79.4998 171.613 79.4764 171.659 79.4648 171.683C69.6031 182.85 59.1002 191.674 47.9562 198.144C57.0835 201.617 63.9844 204.986 68.6705 208.25C72.7621 210.815 83.4514 210.605 100.75 207.621L101.158 209.672C101.077 209.719 100.983 209.742 100.879 209.766C82.8919 214.603 70.2675 214.895 62.9819 210.652C53.6564 203.961 42.0811 202.364 28.256 205.849C14.4193 209.754 -0.151808 210.348 -14.2567 207.551C-16.5181 206.723 -19.5372 206.152 -23.3257 205.826C-22.9294 207.003 -22.568 208.04 -22.2183 208.973C-14.5947 229.338 1.50347 239.211 26.1112 238.57C30.9721 237.497 36.276 234.641 42.0228 229.979C47.1752 226.738 53.738 225.398 61.723 225.934C74.5106 226.587 82.5072 224.313 85.7245 219.114C85.7478 219.091 85.7712 219.056 85.7945 219.033L87.8461 220.059C87.8461 220.059 87.7878 220.152 87.7528 220.199C81.8311 227.741 73.4265 230.457 60.7205 229.221C53.5282 229.244 44.7622 233.534 34.4459 242.102C40.1228 245.273 45.3451 249.178 49.9845 253.724C55.1835 254.365 60.4291 254.447 65.6514 253.98C71.713 254.004 76.5039 255.076 80.001 257.198C84.7337 260.065 89.7229 264.506 95.7728 261.231L96.309 262.268C88.1259 266.383 84.0693 262.105 77.3432 259.68C71.7479 257.652 63.2967 257.268 52.0011 258.526C53.3184 278.39 57.7247 289.242 65.2084 291.084L64.544 292.996C54.892 290.105 49.5066 279.8 48.4108 262.058C42.5124 251.672 30.5525 246.24 12.5426 245.762C19.8981 251.847 23.7915 259.086 24.2344 267.479C24.9455 281.141 32.5225 287.972 44.7506 293.754C44.7739 293.765 44.8088 293.789 44.8322 293.8L43.853 296.108C43.7714 296.085 43.6898 296.062 43.6198 296.027C23.127 286.468 24.7823 282.854 19.595 265.043C16.9722 256.067 11.1321 250.052 2.063 247.021C-1.93532 245.459 -5.56061 243.524 -8.92945 241.286C-9.57058 243.046 -10.1301 244.818 -10.6314 246.625C-10.6663 246.765 -10.7013 246.893 -10.7363 247.033C-10.9694 247.895 -11.1792 248.758 -11.3774 249.632C-13.7438 260.275 -11.902 266.675 -5.82871 268.843C10.8989 278.938 21.6815 296.773 26.4959 322.313L24.2228 323.176L24.2228 323.164C17.3102 297.962 5.89812 282.668 -10.0019 277.317C-11.5523 289.452 -16.8095 290.828 -14.0701 308.266C-12.8811 315.867 -13.7554 321.077 -15.399 323.758L-16.7745 323.374C-15.3524 314.549 -18.6979 310.505 -19.444 302.263C-20.0618 295.537 -19.9336 290.338 -18.9078 286.759C-17.2175 280.861 -11.2958 272.305 -20.1084 267.969C-28.0001 279.276 -33.269 287.937 -35.9268 293.975C-40.2399 303.802 -36.7195 325.332 -48.5279 328.724L-48.5279 326.509C-40.5546 321.427 -42.9326 309.082 -41.4522 300.899C-38.911 286.864 -29.3523 268.062 -22.3815 260.007C-21.9619 248.979 -22.3465 241.461 -23.5239 237.439C-23.7337 236.833 -23.9902 236.192 -24.2932 235.516C-24.3748 235.376 -24.4564 235.248 -24.538 235.119L-24.4331 235.201C-26.7062 230.165 -31.2641 223.148 -38.1066 214.137C-39.0625 213.158 -39.9718 212.202 -40.8344 211.269C-42.5363 209.439 -44.0633 207.702 -45.4272 206.07C-47.1524 206.199 -48.9359 206.339 -50.7894 206.502L-50.7894 363.054L-52.6311 363.054L-52.6311 121.301C-52.0483 121.488 -51.4305 121.581 -50.7894 121.616L-50.7894 168.325L-50.7894 168.337Z" fill="#F87060"/>
<path opacity="0.54" fill-rule="evenodd" clip-rule="evenodd" d="M1.84144 29.1073C3.34518 27.1489 3.92802 24.6427 3.43843 22.218C2.94884 19.7934 1.43345 17.7185 -0.711421 16.4945C-4.72139 22.0199 -4.19684 26.1931 0.862258 29.014C-0.0469798 24.5494 -0.501597 22.3113 -0.501597 22.3113C1.06043 26.8342 1.84144 29.0956 1.84144 29.0956L1.84144 29.1073Z" fill="#F87060"/>
<path opacity="0.54" fill-rule="evenodd" clip-rule="evenodd" d="M1.80652 50.1594C3.27529 48.2593 3.83482 45.8231 3.35689 43.4684C2.87896 41.1137 1.41019 39.0854 -0.676393 37.9081C-4.5698 43.2702 -4.0569 47.3384 0.850657 50.0778C-0.0352671 45.7415 -0.478228 43.5616 -0.478228 43.5616C1.03717 47.9563 1.79487 50.1594 1.79487 50.1594L1.80652 50.1594Z" fill="#F87060"/>
<path opacity="0.54" fill-rule="evenodd" clip-rule="evenodd" d="M10.8989 36.381C13.4401 34.0264 14.8389 30.6808 14.7224 27.2071C14.6058 23.745 12.9972 20.4927 10.3044 18.3129C3.46182 25.0272 3.21703 30.9373 9.57003 36.0313C9.34855 29.6317 9.24364 26.4261 9.24364 26.4261C10.351 33.0589 10.9106 36.3694 10.9106 36.3694L10.8989 36.381Z" fill="#F87060"/>
<path opacity="0.54" fill-rule="evenodd" clip-rule="evenodd" d="M13.9297 43.0254C17.928 44.1444 22.2061 43.48 25.6682 41.1952C29.1303 38.9105 31.4383 35.2385 31.9745 31.1353C20.8539 28.3493 14.6757 31.7881 13.4401 41.4517C19.8281 37.2319 23.0337 35.122 23.0337 35.122C16.9605 40.3909 13.9297 43.037 13.9297 43.037L13.9297 43.0254Z" fill="#F87060"/>
<path opacity="0.54" fill-rule="evenodd" clip-rule="evenodd" d="M10.1761 54.799C12.8922 56.5358 16.2377 57.0138 19.3268 56.0929C22.4275 55.1836 24.9687 52.9688 26.2976 50.0313C18.6507 45.4501 13.2652 46.6042 10.1645 53.5167C15.8763 51.8148 18.7323 50.9638 18.7323 50.9638C13.0204 53.5167 10.1645 54.799 10.1645 54.799L10.1761 54.799Z" fill="#F87060"/>
<path opacity="0.54" fill-rule="evenodd" clip-rule="evenodd" d="M2.44764 72.4592C5.6766 72.4475 8.7307 71.037 10.8406 68.5891C12.9505 66.1411 13.8831 62.9005 13.4168 59.7065C4.49925 59.9979 0.617506 63.8914 1.74823 71.3751C5.62997 66.8522 7.57667 64.5908 7.57667 64.5908C4.1612 69.8364 2.44764 72.4592 2.44764 72.4592Z" fill="#F87060"/>
<path opacity="0.54" fill-rule="evenodd" clip-rule="evenodd" d="M-9.51232 78.4625C-7.48402 79.8147 -4.96613 80.2227 -2.62309 79.5699C-0.268401 78.9288 1.6783 77.2852 2.72742 75.0937C-2.98446 71.515 -7.06437 72.3193 -9.51232 77.495C-5.17596 76.2943 -2.99611 75.6998 -2.99611 75.6998C-7.34414 77.5416 -9.52397 78.4742 -9.52397 78.4742L-9.51232 78.4625Z" fill="#F87060"/>
<path opacity="0.54" fill-rule="evenodd" clip-rule="evenodd" d="M8.15952 93.1386C10.9688 91.53 12.9388 88.7906 13.5683 85.6199C14.1978 82.4492 13.4168 79.162 11.4351 76.6091C3.79984 81.2602 2.33107 86.5758 7.01714 92.5441C8.17118 86.6807 8.75403 83.7548 8.75403 83.7548C8.35769 90.0146 8.15952 93.1386 8.15952 93.1386Z" fill="#F87060"/>
<path opacity="0.54" fill-rule="evenodd" clip-rule="evenodd" d="M22.8588 77.6464C24.0712 75.5249 24.2926 72.9953 23.4883 70.6872C22.684 68.3908 20.9121 66.5491 18.6507 65.6515C15.48 71.5965 16.5641 75.6181 21.8913 77.6931C20.3992 73.4499 19.6415 71.3167 19.6415 71.3167C21.7864 75.5249 22.8588 77.6348 22.8588 77.6348L22.8588 77.6464Z" fill="#F87060"/>
<path opacity="0.54" fill-rule="evenodd" clip-rule="evenodd" d="M3.38019 102.744C4.25446 100.844 4.25445 98.6638 3.39184 96.7637C2.52923 94.8637 0.88561 93.4299 -1.10772 92.8354C-3.3575 98.1509 -2.14518 101.485 2.5642 102.86C0.96721 99.3516 0.174546 97.603 0.174546 97.603C2.31941 101.03 3.39184 102.755 3.39184 102.755L3.38019 102.744Z" fill="#F87060"/>
<path opacity="0.54" fill-rule="evenodd" clip-rule="evenodd" d="M28.9087 69.3118C31.753 67.7964 33.8046 65.1153 34.5274 61.968C35.2501 58.8206 34.5623 55.5217 32.6623 52.9106C24.9104 57.3286 23.2901 62.5858 27.7897 68.6823C29.1069 62.8656 29.7714 59.963 29.7714 59.963C29.2002 66.1878 28.9087 69.3118 28.9087 69.3118Z" fill="#F87060"/>
<path opacity="0.54" fill-rule="evenodd" clip-rule="evenodd" d="M37.3018 54.8455C41.3001 52.7123 44.1677 48.9588 45.1818 44.5525C46.196 40.1345 45.2401 35.5067 42.5707 31.8465C31.6948 38.0479 29.4217 45.4151 35.7281 53.9713C37.5815 45.8115 38.5141 41.7432 38.5141 41.7432C37.7098 50.4858 37.3018 54.8572 37.3018 54.8572L37.3018 54.8455Z" fill="#F87060"/>
<path opacity="0.54" fill-rule="evenodd" clip-rule="evenodd" d="M47.6064 52.3276C50.0194 52.0012 52.1876 50.649 53.5165 48.6091C54.857 46.5691 55.2533 44.0512 54.5889 41.7082C47.9328 42.7923 45.4033 46.0795 46.977 51.5816C49.4482 47.8164 50.6838 45.928 50.6838 45.928C48.6322 50.1827 47.6064 52.316 47.6064 52.316L47.6064 52.3276Z" fill="#F87060"/>
<path opacity="0.54" fill-rule="evenodd" clip-rule="evenodd" d="M35.9962 68.1344C39.2135 68.3792 42.3725 67.2135 44.6689 64.9404C46.9653 62.6673 48.1543 59.52 47.9328 56.291C39.0153 55.883 34.8421 59.4501 35.39 67.0037C39.6215 62.7956 41.7313 60.6973 41.7313 60.6973C37.9079 65.6515 36.0078 68.1344 36.0078 68.1344L35.9962 68.1344Z" fill="#F87060"/>
<path opacity="0.54" fill-rule="evenodd" clip-rule="evenodd" d="M29.8996 76.9355C32.7089 79.8847 36.6723 81.4817 40.7522 81.2835C44.8321 81.097 48.6206 79.1386 51.1501 75.933C43.1302 67.9946 36.1827 67.7965 30.2843 75.3501C37.8146 74.9888 41.5798 74.8023 41.5798 74.8023C33.793 76.2127 29.8996 76.9238 29.8996 76.9238L29.8996 76.9355Z" fill="#F87060"/>
<path opacity="0.54" fill-rule="evenodd" clip-rule="evenodd" d="M21.9846 88.8371C24.5608 90.7721 27.8597 91.4949 31.0187 90.8071C34.1777 90.131 36.8704 88.1144 38.4325 85.2817C31.1469 80.1411 25.6915 80.8988 22.0895 87.5548C27.9179 86.2842 30.8322 85.6548 30.8322 85.6548C24.9454 87.7763 22.0079 88.8371 22.0079 88.8371L21.9846 88.8371Z" fill="#F87060"/>
<path opacity="0.54" fill-rule="evenodd" clip-rule="evenodd" d="M13.5101 101.648C16.0862 103.583 19.3851 104.306 22.5442 103.618C25.7032 102.942 28.3959 100.925 29.9579 98.0927C22.6724 92.952 17.217 93.7097 13.615 100.366C19.4434 99.0952 22.3577 98.4657 22.3577 98.4657C16.4709 100.587 13.5217 101.648 13.5217 101.648L13.5101 101.648Z" fill="#F87060"/>
<path opacity="0.54" fill-rule="evenodd" clip-rule="evenodd" d="M8.91718 126.174C12.0762 125.545 14.8156 123.575 16.4126 120.765C18.0096 117.956 18.3126 114.599 17.2402 111.556C8.54416 113.55 5.47839 118.107 8.01959 125.242C10.9688 120.054 12.4376 117.466 12.4376 117.466C10.0829 123.26 8.91718 126.162 8.91718 126.162L8.91718 126.174Z" fill="#F87060"/>
<path opacity="0.54" fill-rule="evenodd" clip-rule="evenodd" d="M26.7872 121.383C29.2119 120.229 31.007 118.084 31.7298 115.508C32.4408 112.92 32.0095 110.158 30.5291 107.931C23.9313 111.312 22.3809 115.601 25.8897 120.835C27.2069 116.056 27.8597 113.678 27.8597 113.678C27.1486 118.83 26.7872 121.407 26.7872 121.407L26.7872 121.383Z" fill="#F87060"/>
<path opacity="0.54" fill-rule="evenodd" clip-rule="evenodd" d="M39.3183 108.293C42.2675 105.751 43.9811 102.044 43.9928 98.1394C44.0044 94.2344 42.3258 90.5275 39.3883 87.963C31.4266 95.2369 30.9137 101.858 37.8379 107.85C37.8496 100.646 37.8612 97.0437 37.8612 97.0437C38.8404 104.539 39.33 108.293 39.33 108.293L39.3183 108.293Z" fill="#F87060"/>
<path opacity="0.54" fill-rule="evenodd" clip-rule="evenodd" d="M52.3158 62.1196C55.5331 62.3644 58.7038 61.1987 60.9885 58.9256C63.2733 56.6525 64.474 53.4935 64.2525 50.2762C55.3349 49.8682 51.1618 53.4352 51.7097 60.9889C55.9411 56.7807 58.051 54.6825 58.051 54.6825C54.2275 59.6367 52.3275 62.1196 52.3275 62.1196L52.3158 62.1196Z" fill="#F87060"/>
<path opacity="0.54" fill-rule="evenodd" clip-rule="evenodd" d="M49.1685 68.1345C50.4507 69.953 52.4557 71.1187 54.6705 71.3402C56.8853 71.5617 59.0768 70.8156 60.6971 69.2885C57.0136 64.3693 53.2834 63.7049 49.5065 67.3069C53.5864 67.7149 55.6381 67.913 55.6381 67.913C51.3367 68.0529 49.1801 68.1229 49.1801 68.1229L49.1685 68.1345Z" fill="#F87060"/>
<path opacity="0.54" fill-rule="evenodd" clip-rule="evenodd" d="M49.693 97.1252C53.7147 96.4608 57.2584 94.0711 59.3799 90.5857C61.5131 87.112 62.026 82.8689 60.7904 78.9871C49.7163 81.167 45.6597 86.8089 48.5973 95.9246C52.5257 89.49 54.4957 86.2727 54.4957 86.2727C51.29 93.5116 49.693 97.1252 49.693 97.1252Z" fill="#F87060"/>
<path opacity="0.54" fill-rule="evenodd" clip-rule="evenodd" d="M64.5089 76.9003C68.5306 76.2359 72.0742 73.8462 74.1958 70.3608C76.329 66.8871 76.8419 62.644 75.6063 58.7622C64.5322 60.942 60.4756 66.584 63.4132 75.6997C67.3415 69.2651 69.3116 66.0478 69.3116 66.0478C66.1059 73.2867 64.5089 76.9003 64.5089 76.9003Z" fill="#F87060"/>
<path opacity="0.54" fill-rule="evenodd" clip-rule="evenodd" d="M72.3307 77.5416C73.613 79.36 75.6179 80.5257 77.8328 80.7472C80.0476 80.9687 82.2391 80.2227 83.8594 78.6956C80.1758 73.7764 76.4456 73.1119 72.6688 76.7139C76.7487 77.1219 78.8003 77.3201 78.8003 77.3201C74.4989 77.46 72.3424 77.5299 72.3424 77.5299L72.3307 77.5416Z" fill="#F87060"/>
<path opacity="0.54" fill-rule="evenodd" clip-rule="evenodd" d="M45.5898 128.459C48.2592 127.142 50.2409 124.74 50.9986 121.861C51.7563 118.982 51.2317 115.916 49.5531 113.445C42.2676 117.28 40.6006 122.083 44.564 127.841C45.9628 122.514 46.6622 119.856 46.6622 119.856C45.9395 125.591 45.5781 128.459 45.5781 128.459L45.5898 128.459Z" fill="#F87060"/>
<path opacity="0.54" fill-rule="evenodd" clip-rule="evenodd" d="M57.3633 123.353C61.4781 121.337 64.5089 117.63 65.6863 113.2C66.8636 108.77 66.0476 104.049 63.4715 100.261C52.2575 106.159 49.7047 113.55 55.8012 122.409C57.9578 114.226 59.0302 110.123 59.0302 110.123C57.9111 118.935 57.3633 123.341 57.3633 123.341L57.3633 123.353Z" fill="#F87060"/>
<path opacity="0.54" fill-rule="evenodd" clip-rule="evenodd" d="M65.3366 94.6423C67.4465 93.9546 69.16 92.3809 70.0227 90.3293C70.8853 88.2777 70.8153 85.9579 69.8361 83.9646C64.0543 86.0395 62.3291 89.4084 64.6605 94.0828C66.2458 90.2943 67.0501 88.4059 67.0501 88.4059C65.9194 92.5674 65.3482 94.6423 65.3482 94.6423L65.3366 94.6423Z" fill="#F87060"/>
<path opacity="0.54" fill-rule="evenodd" clip-rule="evenodd" d="M69.9177 117.105C72.0276 116.417 73.7412 114.844 74.6038 112.792C75.4664 110.74 75.3964 108.421 74.4173 106.427C68.6354 108.502 66.9102 111.871 69.2416 116.546C70.8269 112.757 71.6313 110.869 71.6313 110.869C70.5005 115.03 69.9293 117.105 69.9293 117.105L69.9177 117.105Z" fill="#F87060"/>
<path opacity="0.54" fill-rule="evenodd" clip-rule="evenodd" d="M74.4289 96.2393C78.2291 97.7197 82.4955 97.4749 86.0975 95.5748C89.7111 93.6747 92.3106 90.2942 93.2432 86.3192C82.6121 82.5308 76.2358 85.3168 74.1142 94.6539C80.7819 91.1336 84.1042 89.3617 84.1042 89.3617C77.6579 93.9429 74.4289 96.2393 74.4289 96.2393Z" fill="#F87060"/>
<path opacity="0.54" fill-rule="evenodd" clip-rule="evenodd" d="M81.4231 113.34C84.5471 112.314 87.0767 109.994 88.3473 106.964C89.6179 103.933 89.5246 100.506 88.0675 97.5566C79.523 100.622 76.9701 105.611 80.4089 112.512C82.7519 106.917 83.9293 104.119 83.9293 104.119C82.2507 110.263 81.4231 113.34 81.4231 113.34Z" fill="#F87060"/>
<path opacity="0.54" fill-rule="evenodd" clip-rule="evenodd" d="M91.7628 103.42C94.269 103.455 96.6587 102.406 98.3256 100.529C99.9926 98.6639 100.762 96.1693 100.447 93.6864C93.5346 93.7913 90.4689 96.7521 91.2499 102.581C94.3157 99.1301 95.8544 97.3933 95.8544 97.3933C93.1383 101.415 91.7745 103.42 91.7745 103.42L91.7628 103.42Z" fill="#F87060"/>
<path opacity="0.54" fill-rule="evenodd" clip-rule="evenodd" d="M88.2657 111.859C90.5388 114.331 93.7677 115.683 97.1249 115.59C100.482 115.485 103.618 113.946 105.739 111.347C99.2698 104.714 93.5579 104.457 88.6037 110.577C94.7936 110.379 97.8943 110.286 97.8943 110.286C91.483 111.335 88.2657 111.871 88.2657 111.871L88.2657 111.859Z" fill="#F87060"/>
<path opacity="0.54" fill-rule="evenodd" clip-rule="evenodd" d="M76.2241 123.936C78.7186 126.652 82.274 128.144 85.9692 128.039C89.6528 127.934 93.1149 126.221 95.4463 123.365C88.3239 116.068 82.0409 115.788 76.5971 122.514C83.4047 122.304 86.8202 122.199 86.8202 122.199C79.7561 123.353 76.2357 123.936 76.2357 123.936L76.2241 123.936Z" fill="#F87060"/>
<path opacity="0.54" fill-rule="evenodd" clip-rule="evenodd" d="M63.7629 134.113C66.0127 136.549 69.2066 137.889 72.5172 137.796C75.8278 137.703 78.9402 136.164 81.0384 133.6C74.6388 127.037 68.9968 126.78 64.1009 132.842C70.2208 132.655 73.2866 132.562 73.2866 132.562C66.9452 133.6 63.7745 134.124 63.7745 134.124L63.7629 134.113Z" fill="#F87060"/>
<path opacity="0.54" fill-rule="evenodd" clip-rule="evenodd" d="M45.7064 157.263C50.1127 155.841 53.6914 152.589 55.5098 148.334C57.3283 144.079 57.2118 139.242 55.1835 135.08C43.1186 139.346 39.4816 146.352 44.2843 156.097C47.6298 148.229 49.3084 144.289 49.3084 144.289C46.9071 152.938 45.7064 157.263 45.7064 157.263Z" fill="#F87060"/>
<path opacity="0.54" fill-rule="evenodd" clip-rule="evenodd" d="M60.0443 154.116C63.0285 154.069 65.8378 152.729 67.7495 150.432C69.6613 148.147 70.4889 145.14 70.0226 142.202C61.7929 142.587 58.2492 146.224 59.3915 153.125C62.9236 148.905 64.6838 146.784 64.6838 146.784C61.5947 151.668 60.0443 154.104 60.0443 154.104L60.0443 154.116Z" fill="#F87060"/>
<path opacity="0.54" fill-rule="evenodd" clip-rule="evenodd" d="M72.0859 154.745C76.0376 154.675 79.7678 152.903 82.2973 149.873C84.8386 146.842 85.9343 142.867 85.3048 138.962C74.394 139.463 69.6962 144.289 71.2116 153.44C75.8861 147.833 78.2291 145.035 78.2291 145.035C74.1259 151.505 72.0859 154.745 72.0859 154.745Z" fill="#F87060"/>
<path opacity="0.54" fill-rule="evenodd" clip-rule="evenodd" d="M86.8901 136.281C89.4313 137.831 92.5204 138.216 95.3647 137.307C98.209 136.409 100.517 134.311 101.694 131.583C94.5487 127.491 89.6062 128.657 86.8668 135.092C92.1124 133.425 94.7352 132.586 94.7352 132.586C89.5129 135.045 86.8901 136.281 86.8901 136.281Z" fill="#F87060"/>
<path opacity="0.54" fill-rule="evenodd" clip-rule="evenodd" d="M98.349 128.377C100.855 128.412 103.245 127.352 104.912 125.486C106.579 123.621 107.348 121.127 107.022 118.644C100.109 118.749 97.0434 121.71 97.8244 127.538C100.902 124.088 102.429 122.351 102.429 122.351C99.7128 126.372 98.349 128.377 98.349 128.377Z" fill="#F87060"/>
<path opacity="0.54" fill-rule="evenodd" clip-rule="evenodd" d="M99.876 145.863C103.886 145.921 107.721 144.231 110.402 141.235C113.072 138.239 114.307 134.229 113.794 130.254C102.697 130.429 97.7777 135.173 99.0367 144.51C103.968 138.973 106.427 136.199 106.427 136.199C102.067 142.645 99.8876 145.863 99.8876 145.863L99.876 145.863Z" fill="#F87060"/>
<path opacity="0.54" fill-rule="evenodd" clip-rule="evenodd" d="M88.4406 152.076C90.9468 152.111 93.3365 151.062 95.0034 149.185C96.6704 147.32 97.4397 144.814 97.125 142.342C90.2124 142.447 87.1467 145.408 87.9277 151.237C90.9935 147.786 92.5322 146.049 92.5322 146.049C89.8161 150.071 88.4522 152.076 88.4522 152.076L88.4406 152.076Z" fill="#F87060"/>
<path opacity="0.54" fill-rule="evenodd" clip-rule="evenodd" d="M82.2274 171.123C86.5987 171.181 90.7719 169.34 93.6861 166.076C96.6003 162.812 97.9409 158.452 97.3813 154.116C85.2931 154.302 79.9426 159.478 81.3065 169.643C86.6687 163.604 89.3497 160.597 89.3497 160.597C84.6054 167.614 82.2274 171.123 82.2274 171.123Z" fill="#F87060"/>
<path opacity="0.54" fill-rule="evenodd" clip-rule="evenodd" d="M68.5655 174.702C71.8877 173.758 74.6387 171.426 76.1075 168.291C77.5763 165.167 77.6113 161.553 76.2124 158.394C67.0967 161.262 64.2058 166.391 67.528 173.793C70.2324 168.011 71.5846 165.12 71.5846 165.12C69.568 171.508 68.5539 174.714 68.5539 174.714L68.5655 174.702Z" fill="#F87060"/>
<path opacity="0.54" fill-rule="evenodd" clip-rule="evenodd" d="M83.0784 176.229C84.6637 178.164 87.0067 179.318 89.513 179.388C92.0192 179.458 94.4205 178.444 96.1108 176.602C91.5762 171.38 87.3331 170.937 83.3815 175.285C87.9976 175.413 90.3173 175.471 90.3173 175.471C85.4913 175.984 83.0784 176.229 83.0784 176.229Z" fill="#F87060"/>
<path opacity="0.54" fill-rule="evenodd" clip-rule="evenodd" d="M50.7771 165.015C51.7213 167.405 53.6563 169.258 56.0693 170.109C58.4939 170.96 61.1634 170.715 63.3898 169.445C60.5922 162.928 56.5822 161.18 51.3716 164.187C55.8478 165.749 58.0743 166.53 58.0743 166.53C53.2017 165.516 50.7654 165.015 50.7654 165.015L50.7771 165.015Z" fill="#F87060"/>
<path opacity="0.54" fill-rule="evenodd" clip-rule="evenodd" d="M34.9004 170.004C36.1244 173.093 38.619 175.495 41.7547 176.59C44.8904 177.698 48.3408 177.383 51.2201 175.728C47.5948 167.288 42.4191 165.027 35.6698 168.92C41.4632 170.948 44.3542 171.963 44.3542 171.963C38.0478 170.657 34.9004 169.993 34.9004 169.993L34.9004 170.004Z" fill="#F87060"/>
<path opacity="0.54" fill-rule="evenodd" clip-rule="evenodd" d="M19.2685 174.422C20.2127 176.812 22.1478 178.665 24.5608 179.516C26.9854 180.367 29.6548 180.122 31.8813 178.852C29.0836 172.336 25.0737 170.575 19.863 173.594C24.3393 175.156 26.5774 175.938 26.5774 175.938C21.7048 174.923 19.2685 174.422 19.2685 174.422Z" fill="#F87060"/>
<path opacity="0.54" fill-rule="evenodd" clip-rule="evenodd" d="M3.6716 196.057C7.8098 197.514 12.3676 197.118 16.1794 194.95C19.9912 192.782 22.6723 189.075 23.5349 184.773C11.9946 181.066 5.23362 184.26 3.2636 194.355C10.3044 190.345 13.8248 188.34 13.8248 188.34C7.0521 193.481 3.6716 196.057 3.6716 196.057Z" fill="#F87060"/>
<path opacity="0.54" fill-rule="evenodd" clip-rule="evenodd" d="M29.2352 196.162C32.5924 196.955 36.1244 196.255 38.9221 194.25C41.7197 192.245 43.5032 189.11 43.818 185.683C34.4924 183.748 29.48 186.813 28.7806 194.868C33.9446 191.15 36.5208 189.285 36.5208 189.285C31.6598 193.866 29.2352 196.162 29.2352 196.162Z" fill="#F87060"/>
<path opacity="0.54" fill-rule="evenodd" clip-rule="evenodd" d="M53.3999 186.918C55.8595 186.172 57.8645 184.4 58.9136 182.057C59.9628 179.714 59.9395 177.033 58.8554 174.714C52.1293 176.963 50.0544 180.81 52.6306 186.254C54.554 181.929 55.5215 179.761 55.5215 179.761C54.111 184.529 53.4116 186.918 53.4116 186.918L53.3999 186.918Z" fill="#F87060"/>
<path opacity="0.54" fill-rule="evenodd" clip-rule="evenodd" d="M-5.40912 174.947C-2.59981 173.501 -0.55986 170.902 0.197838 167.836C0.94388 164.77 0.326065 161.518 -1.50407 158.942C-9.15099 163.161 -10.8179 168.291 -6.49322 174.317C-5.1177 168.64 -4.42995 165.808 -4.42995 165.808C-5.08274 171.904 -5.40912 174.947 -5.40912 174.947Z" fill="#F87060"/>
<path opacity="0.54" fill-rule="evenodd" clip-rule="evenodd" d="M-11.6689 146.644C-8.40496 148.975 -4.27842 149.779 -0.385017 148.835C3.52004 147.891 6.81895 145.303 8.66074 141.736C-0.559869 135.558 -7.30922 136.654 -11.599 145.047C-4.39499 143.298 -0.793007 142.424 -0.793007 142.424C-8.05525 145.233 -11.6806 146.644 -11.6806 146.644L-11.6689 146.644Z" fill="#F87060"/>
<path opacity="0.54" fill-rule="evenodd" clip-rule="evenodd" d="M7.64663 163.115C11.7732 162.346 15.3635 159.828 17.4967 156.202C19.6183 152.577 20.0729 148.217 18.7207 144.231C7.36687 146.69 3.29861 152.577 6.50426 161.903C10.421 155.2 12.3793 151.854 12.3793 151.854C9.23197 159.361 7.64663 163.115 7.64663 163.115Z" fill="#F87060"/>
<path opacity="0.54" fill-rule="evenodd" clip-rule="evenodd" d="M22.4275 147.11C24.7356 146.702 26.7522 145.303 27.9529 143.286C29.1536 141.27 29.4217 138.833 28.6873 136.607C22.3343 137.936 20.0379 141.211 21.7864 146.434C24.0012 142.704 25.1086 140.838 25.1086 140.838C23.3135 145.023 22.4275 147.121 22.4275 147.121L22.4275 147.11Z" fill="#F87060"/>
<path opacity="0.54" fill-rule="evenodd" clip-rule="evenodd" d="M102.837 153.836C105.949 155.526 109.644 155.783 112.955 154.547C116.266 153.311 118.888 150.689 120.124 147.366C111.393 142.937 105.599 144.627 102.744 152.437C108.863 150.141 111.929 148.987 111.929 148.987C105.879 152.227 102.848 153.848 102.848 153.848L102.837 153.836Z" fill="#F87060"/>
<path opacity="0.54" fill-rule="evenodd" clip-rule="evenodd" d="M95.2832 170.296C97.6845 172.487 100.925 173.513 104.154 173.128C107.383 172.744 110.286 170.972 112.104 168.279C105.285 162.427 99.7478 162.672 95.493 169.013C101.461 168.291 104.434 167.929 104.434 167.929C98.3256 169.503 95.2715 170.284 95.2715 170.284L95.2832 170.296Z" fill="#F87060"/>
<path opacity="0.54" fill-rule="evenodd" clip-rule="evenodd" d="M110.868 159.816C112.244 161.914 114.447 163.301 116.93 163.639C119.413 163.978 121.907 163.22 123.796 161.565C119.844 155.888 115.671 155.002 111.276 158.907C115.858 159.525 118.142 159.828 118.142 159.828C113.293 159.828 110.868 159.816 110.868 159.816Z" fill="#F87060"/>
<path opacity="0.54" fill-rule="evenodd" clip-rule="evenodd" d="M71.6662 185.811C73.6479 188.224 76.5738 189.658 79.6862 189.751C82.8102 189.844 85.8061 188.573 87.916 186.265C82.2624 179.749 76.9701 179.213 72.0393 184.633C77.7978 184.785 80.6887 184.867 80.6887 184.867C74.6737 185.496 71.6662 185.811 71.6662 185.811Z" fill="#F87060"/>
<path opacity="0.54" fill-rule="evenodd" clip-rule="evenodd" d="M56.1509 197.444C58.9836 200.907 63.18 202.958 67.6446 203.086C72.1092 203.215 76.4106 201.396 79.4414 198.097C71.3399 188.76 63.7512 187.979 56.6988 195.754C64.9519 195.976 69.0784 196.092 69.0784 196.092C60.4523 197.002 56.1509 197.456 56.1509 197.456L56.1509 197.444Z" fill="#F87060"/>
<path opacity="0.54" fill-rule="evenodd" clip-rule="evenodd" d="M83.4514 207.061C85.9343 207.399 88.4289 206.653 90.3173 204.998C92.1941 203.343 93.2665 200.965 93.2548 198.459C86.3773 197.713 82.9735 200.277 83.0318 206.152C86.5055 203.098 88.2424 201.571 88.2424 201.571C85.0484 205.22 83.4514 207.05 83.4514 207.05L83.4514 207.061Z" fill="#F87060"/>
<path opacity="0.54" fill-rule="evenodd" clip-rule="evenodd" d="M82.7753 194.938C84.8852 196.29 87.473 196.652 89.8743 195.941C92.2757 195.23 94.2457 193.516 95.2831 191.243C89.3498 187.688 85.1766 188.585 82.7753 193.947C87.2049 192.63 89.4197 191.977 89.4197 191.977C84.9901 193.959 82.7753 194.95 82.7753 194.95L82.7753 194.938Z" fill="#F87060"/>
<path opacity="0.54" fill-rule="evenodd" clip-rule="evenodd" d="M96.5887 206.269C100.272 206.77 104.002 205.651 106.8 203.203C109.598 200.743 111.195 197.2 111.171 193.481C100.937 192.374 95.8659 196.197 95.9592 204.928C101.123 200.382 103.711 198.12 103.711 198.12C98.955 203.564 96.5887 206.28 96.5887 206.28L96.5887 206.269Z" fill="#F87060"/>
<path opacity="0.54" fill-rule="evenodd" clip-rule="evenodd" d="M93.08 185.286C94.6653 187.221 97.0083 188.375 99.5146 188.445C102.021 188.515 104.422 187.501 106.112 185.659C101.578 180.437 97.3347 180.006 93.383 184.342C97.9992 184.47 100.307 184.529 100.307 184.529C95.4813 185.041 93.0683 185.286 93.0683 185.286L93.08 185.286Z" fill="#F87060"/>
<path opacity="0.54" fill-rule="evenodd" clip-rule="evenodd" d="M111.311 188.993C112.978 190.054 115.018 190.345 116.918 189.786C118.818 189.226 120.369 187.874 121.196 186.067C116.51 183.258 113.211 183.969 111.311 188.201C114.808 187.163 116.569 186.639 116.569 186.639C113.072 188.201 111.311 188.982 111.311 188.982L111.311 188.993Z" fill="#F87060"/>
<path opacity="0.54" fill-rule="evenodd" clip-rule="evenodd" d="M112.943 198.808C115.345 200.347 118.282 200.755 121.022 199.951C123.749 199.146 125.999 197.188 127.176 194.6C120.427 190.555 115.683 191.581 112.943 197.678C117.979 196.186 120.509 195.428 120.509 195.428C115.473 197.678 112.943 198.808 112.943 198.808Z" fill="#F87060"/>
<path opacity="0.54" fill-rule="evenodd" clip-rule="evenodd" d="M103.466 209.498C104.259 212.237 106.182 214.498 108.77 215.687C111.358 216.888 114.331 216.9 116.93 215.734C114.54 208.239 110.297 205.872 104.212 208.635C108.992 210.838 111.37 211.946 111.37 211.946C106.101 210.302 103.466 209.486 103.466 209.486L103.466 209.498Z" fill="#F87060"/>
<path opacity="0.54" fill-rule="evenodd" clip-rule="evenodd" d="M113.736 203.926C114.062 205.872 115.228 207.586 116.918 208.612C118.609 209.638 120.66 209.882 122.537 209.276C121.464 203.914 118.725 201.956 114.319 203.389C117.443 205.289 119.005 206.234 119.005 206.234C115.496 204.695 113.736 203.926 113.736 203.926Z" fill="#F87060"/>
<path opacity="0.54" fill-rule="evenodd" clip-rule="evenodd" d="M107.208 179.015C110.157 180.728 113.701 181.066 116.918 179.959C120.136 178.852 122.723 176.404 123.994 173.233C115.706 168.745 110.087 170.226 107.138 177.651C113.083 175.599 116.067 174.562 116.067 174.562C110.157 177.523 107.208 179.003 107.208 179.003L107.208 179.015Z" fill="#F87060"/>
<path opacity="0.54" fill-rule="evenodd" clip-rule="evenodd" d="M91.0051 215.466C91.891 218.555 94.0825 221.12 97.0084 222.472C99.9226 223.824 103.291 223.847 106.229 222.53C103.525 214.056 98.7336 211.374 91.8561 214.498C97.2532 216.993 99.9576 218.24 99.9576 218.24C94.0009 216.387 91.0168 215.454 91.0168 215.454L91.0051 215.466Z" fill="#F87060"/>
<path opacity="0.54" fill-rule="evenodd" clip-rule="evenodd" d="M52.3158 209.055C51.4066 212.144 51.8729 215.478 53.5981 218.182C55.335 220.898 58.1559 222.728 61.3383 223.195C63.623 214.592 61.0235 209.754 53.5398 208.693C56.7454 213.706 58.3541 216.212 58.3541 216.212C54.3325 211.444 52.3158 209.055 52.3158 209.055Z" fill="#F87060"/>
<path opacity="0.54" fill-rule="evenodd" clip-rule="evenodd" d="M35.39 207.598C34.7605 211.503 35.8679 215.489 38.4091 218.52C40.9503 221.551 44.6805 223.334 48.6322 223.393C50.0544 212.552 46.1143 207.073 36.8354 206.968C41.5332 212.563 43.8879 215.361 43.8879 215.361C38.2226 210.185 35.4016 207.598 35.4016 207.598L35.39 207.598Z" fill="#F87060"/>
<path opacity="0.54" fill-rule="evenodd" clip-rule="evenodd" d="M20.306 209.358C20.7839 211.981 22.3809 214.277 24.689 215.629C26.9854 216.981 29.7597 217.273 32.2893 216.433C30.7506 209.218 27.0087 206.618 21.087 208.635C25.3418 211.141 27.4633 212.389 27.4633 212.389C22.6957 210.372 20.3176 209.358 20.3176 209.358L20.306 209.358Z" fill="#F87060"/>
<path opacity="0.54" fill-rule="evenodd" clip-rule="evenodd" d="M-16.6814 214.615C-15.2709 218.59 -12.2051 221.772 -8.26511 223.311C-4.33674 224.85 0.0695686 224.605 3.81143 222.647C-0.408364 211.759 -6.90125 208.635 -15.6556 213.286C-8.39333 216.119 -4.75638 217.541 -4.75638 217.541C-12.7064 215.594 -16.6814 214.615 -16.6814 214.615Z" fill="#F87060"/>
<path opacity="0.54" fill-rule="evenodd" clip-rule="evenodd" d="M7.02879 211.421C7.40181 213.473 8.66076 215.268 10.4559 216.329C12.2627 217.389 14.4309 217.623 16.4126 216.958C15.2119 211.305 12.286 209.265 7.63495 210.85C10.9688 212.808 12.6241 213.787 12.6241 213.787C8.8939 212.202 7.01713 211.421 7.01713 211.421L7.02879 211.421Z" fill="#F87060"/>
<path opacity="0.54" fill-rule="evenodd" clip-rule="evenodd" d="M4.25447 233.639C7.3552 234.397 10.6308 233.767 13.2419 231.914C15.8414 230.06 17.52 227.169 17.8231 223.999C9.18533 222.157 4.52257 224.978 3.83482 232.438C8.63746 229.011 11.0388 227.298 11.0388 227.298C6.50424 231.529 4.24281 233.639 4.24281 233.639L4.25447 233.639Z" fill="#F87060"/>
<path opacity="0.54" fill-rule="evenodd" clip-rule="evenodd" d="M23.2085 233.814C25.8546 234.14 28.5124 233.289 30.4941 231.506C32.4758 229.711 33.5832 227.158 33.5249 224.488C26.181 223.801 22.5791 226.598 22.7423 232.858C26.4025 229.547 28.221 227.892 28.221 227.892C24.8755 231.844 23.1969 233.814 23.1969 233.814L23.2085 233.814Z" fill="#F87060"/>
<path opacity="0.54" fill-rule="evenodd" clip-rule="evenodd" d="M40.0411 240.528C41.0786 243.792 43.4799 246.45 46.6273 247.814C49.7746 249.178 53.3533 249.096 56.4424 247.616C53.3183 238.663 48.1427 235.959 40.9154 239.479C46.7322 241.985 49.6464 243.233 49.6464 243.233C43.2468 241.426 40.0528 240.528 40.0528 240.528L40.0411 240.528Z" fill="#F87060"/>
<path opacity="0.54" fill-rule="evenodd" clip-rule="evenodd" d="M53.6098 233.464C53.9595 236.11 55.4282 238.465 57.6547 239.934C59.8812 241.403 62.6205 241.834 65.1967 241.123C64.031 233.849 60.4407 231.063 54.4257 232.776C58.529 235.492 60.5922 236.845 60.5922 236.845C55.9411 234.595 53.6214 233.464 53.6214 233.464L53.6098 233.464Z" fill="#F87060"/>
<path opacity="0.54" fill-rule="evenodd" clip-rule="evenodd" d="M61.6297 249.866C64.6489 251.497 68.2159 251.742 71.4215 250.542C74.6272 249.341 77.1567 246.8 78.3457 243.582C69.8828 239.304 64.2758 240.948 61.5248 248.513C67.4465 246.275 70.4074 245.156 70.4074 245.156C64.5439 248.303 61.6181 249.866 61.6181 249.866L61.6297 249.866Z" fill="#F87060"/>
<path opacity="0.54" fill-rule="evenodd" clip-rule="evenodd" d="M71.3399 231.821C71.6896 234.467 73.1583 236.821 75.3848 238.29C77.5996 239.759 80.3506 240.19 82.9268 239.479C81.7611 232.205 78.1708 229.419 72.1558 231.133C76.2591 233.849 78.3223 235.201 78.3223 235.201C73.6712 232.951 71.3515 231.821 71.3515 231.821L71.3399 231.821Z" fill="#F87060"/>
<path opacity="0.54" fill-rule="evenodd" clip-rule="evenodd" d="M83.1832 227.286C85.2815 229.932 88.4172 231.541 91.786 231.704C95.1549 231.856 98.4305 230.538 100.762 228.09C94.7702 220.933 89.0467 220.245 83.6145 226.015C89.851 226.295 92.9634 226.435 92.9634 226.435C86.4355 227.006 83.1832 227.286 83.1832 227.286Z" fill="#F87060"/>
<path opacity="0.54" fill-rule="evenodd" clip-rule="evenodd" d="M86.6454 237.358C87.8577 239.724 90.0492 241.449 92.637 242.079C95.2248 242.708 97.9642 242.195 100.132 240.645C96.577 234.199 92.264 232.788 87.1816 236.425C91.9609 237.591 94.3506 238.174 94.3506 238.174C89.2099 237.626 86.6454 237.346 86.6454 237.346L86.6454 237.358Z" fill="#F87060"/>
<path opacity="0.54" fill-rule="evenodd" clip-rule="evenodd" d="M77.7278 253.071C79.7678 253.899 82.0759 253.806 84.0459 252.803C86.0159 251.801 87.4497 249.994 87.9859 247.861C82.2624 245.727 78.7886 247.173 77.5646 252.209C81.2016 250.355 83.0201 249.434 83.0201 249.434C79.4997 251.859 77.7278 253.071 77.7278 253.071Z" fill="#F87060"/>
<path opacity="0.54" fill-rule="evenodd" clip-rule="evenodd" d="M70.6288 223.113C72.6804 223.707 74.8952 223.393 76.702 222.227C78.5089 221.061 79.7095 219.184 80.0126 217.063C74.2774 215.571 71.0718 217.319 70.3957 222.297C73.7179 220.152 75.3848 219.08 75.3848 219.08C72.2258 221.772 70.6405 223.124 70.6405 223.124L70.6288 223.113Z" fill="#F87060"/>
<path opacity="0.54" fill-rule="evenodd" clip-rule="evenodd" d="M110.472 221.714C111.428 223.567 113.13 224.908 115.147 225.398C117.163 225.887 119.296 225.479 120.998 224.279C118.224 219.243 114.855 218.147 110.892 220.991C114.622 221.901 116.487 222.355 116.487 222.355C112.477 221.924 110.472 221.714 110.472 221.714Z" fill="#F87060"/>
<path opacity="0.54" fill-rule="evenodd" clip-rule="evenodd" d="M103.082 226.505C103.117 229.443 104.434 232.217 106.672 234.105C108.91 235.994 111.871 236.821 114.762 236.367C114.424 228.265 110.845 224.756 104.049 225.852C108.199 229.349 110.274 231.086 110.274 231.086C105.483 228.02 103.082 226.493 103.082 226.493L103.082 226.505Z" fill="#F87060"/>
<path opacity="0.54" fill-rule="evenodd" clip-rule="evenodd" d="M101.951 243.548C103.163 245.914 105.355 247.639 107.942 248.28C110.53 248.91 113.27 248.397 115.438 246.846C111.883 240.389 107.569 238.99 102.475 242.627C107.255 243.792 109.656 244.375 109.656 244.375C104.515 243.827 101.951 243.548 101.951 243.548Z" fill="#F87060"/>
<path opacity="0.54" fill-rule="evenodd" clip-rule="evenodd" d="M87.7061 257.652C91.0633 259.016 94.8402 258.853 98.0691 257.221C101.298 255.577 103.653 252.616 104.539 249.108C95.1549 245.599 89.4547 247.977 87.438 256.242C93.3947 253.199 96.3789 251.684 96.3789 251.684C90.5971 255.671 87.7061 257.652 87.7061 257.652Z" fill="#F87060"/>
<path opacity="0.54" fill-rule="evenodd" clip-rule="evenodd" d="M98.8851 262.793C101.391 263.667 104.142 263.399 106.439 262.082C108.735 260.765 110.344 258.515 110.857 255.915C103.874 253.712 99.806 255.659 98.6403 261.767C102.883 259.319 104.993 258.107 104.993 258.107C100.913 261.231 98.8851 262.793 98.8851 262.793Z" fill="#F87060"/>
<path opacity="0.54" fill-rule="evenodd" clip-rule="evenodd" d="M54.9619 261.592C55.0085 265.521 56.7571 269.216 59.7529 271.757C62.7487 274.287 66.6887 275.394 70.5705 274.788C70.1159 263.947 65.3482 259.273 56.2558 260.73C61.7929 265.404 64.5672 267.736 64.5672 267.736C58.1559 263.644 54.9503 261.592 54.9503 261.592L54.9619 261.592Z" fill="#F87060"/>
<path opacity="0.54" fill-rule="evenodd" clip-rule="evenodd" d="M72.8319 259.681C71.7012 262.408 71.8178 265.486 73.135 268.12C74.4523 270.755 76.8536 272.69 79.7095 273.424C82.6121 265.8 80.7003 261.149 73.986 259.471C76.4339 264.343 77.6579 266.78 77.6579 266.78C74.4406 262.047 72.8319 259.681 72.8319 259.681Z" fill="#F87060"/>
<path opacity="0.54" fill-rule="evenodd" clip-rule="evenodd" d="M59.4965 283.239C61.0585 285.885 63.6813 287.727 66.7004 288.275C69.7196 288.834 72.832 288.053 75.2333 286.13C70.7104 278.938 65.6513 277.609 60.0443 282.143C65.628 283.169 68.414 283.67 68.414 283.67C62.469 283.379 59.4965 283.227 59.4965 283.227L59.4965 283.239Z" fill="#F87060"/>
<path opacity="0.54" fill-rule="evenodd" clip-rule="evenodd" d="M77.4597 278.565C76.6787 280.558 76.8069 282.796 77.7978 284.696C78.7886 286.596 80.5605 287.96 82.647 288.45C84.6404 282.878 83.1833 279.521 78.2874 278.402C80.1292 281.899 81.05 283.647 81.05 283.647C78.6487 280.255 77.4481 278.565 77.4481 278.565L77.4597 278.565Z" fill="#F87060"/>
<path opacity="0.54" fill-rule="evenodd" clip-rule="evenodd" d="M84.7919 277.131C85.1183 280.453 86.8785 283.472 89.6062 285.396C92.3339 287.319 95.761 287.972 99.0133 287.179C97.836 278.017 93.4413 274.392 85.841 276.303C90.8885 279.859 93.4063 281.642 93.4063 281.642C87.6711 278.635 84.8036 277.131 84.8036 277.131L84.7919 277.131Z" fill="#F87060"/>
<path opacity="0.54" fill-rule="evenodd" clip-rule="evenodd" d="M90.8535 265.626C90.5154 268.668 91.5179 271.71 93.6045 273.96C95.6911 276.21 98.6403 277.446 101.706 277.341C102.382 268.901 99.1299 264.81 91.9492 265.089C95.796 269.239 97.7311 271.314 97.7311 271.314C93.1499 267.526 90.8652 265.637 90.8652 265.637L90.8535 265.626Z" fill="#F87060"/>
<path opacity="0.54" fill-rule="evenodd" clip-rule="evenodd" d="M84.2907 265.719C83.3815 267.176 83.16 268.959 83.6729 270.603C84.1858 272.247 85.3865 273.576 86.9485 274.263C89.3265 270.16 88.6737 267.304 84.9668 265.707C85.911 268.738 86.3889 270.253 86.3889 270.253C84.9901 267.234 84.279 265.719 84.279 265.719L84.2907 265.719Z" fill="#F87060"/>
<path opacity="0.54" fill-rule="evenodd" clip-rule="evenodd" d="M66.2108 296.598C68.2275 300.025 71.643 302.415 75.548 303.126C79.4647 303.849 83.498 302.834 86.5988 300.351C80.747 291.038 74.1842 289.312 66.9219 295.176C74.1492 296.493 77.7745 297.157 77.7745 297.157C70.0693 296.773 66.2108 296.586 66.2108 296.586L66.2108 296.598Z" fill="#F87060"/>
<path opacity="0.54" fill-rule="evenodd" clip-rule="evenodd" d="M64.3807 303.954C63.553 306.914 64.0426 310.085 65.7445 312.65C67.4348 315.214 70.1508 316.916 73.205 317.312C75.2566 309.071 72.7037 304.501 65.558 303.592C68.6937 308.325 70.2558 310.691 70.2558 310.691C66.3507 306.203 64.3923 303.954 64.3923 303.954L64.3807 303.954Z" fill="#F87060"/>
<path opacity="0.54" fill-rule="evenodd" clip-rule="evenodd" d="M55.9178 291.807C54.0644 294.255 53.3533 297.391 53.9944 300.386C54.6239 303.394 56.5356 305.97 59.2167 307.462C64.1476 300.55 63.4598 295.362 57.1418 291.889C58.3191 297.437 58.902 300.212 58.902 300.212C56.9203 294.593 55.9178 291.795 55.9178 291.795L55.9178 291.807Z" fill="#F87060"/>
<path opacity="0.54" fill-rule="evenodd" clip-rule="evenodd" d="M47.0352 278.133C44.7621 280.197 43.4915 283.146 43.5731 286.223C43.6431 289.289 45.0419 292.18 47.4082 294.138C53.5281 288.252 53.7962 283.018 48.2126 278.448C48.3524 284.125 48.4224 286.958 48.4224 286.958C47.5015 281.071 47.0352 278.133 47.0352 278.133Z" fill="#F87060"/>
<path opacity="0.54" fill-rule="evenodd" clip-rule="evenodd" d="M42.151 260.73C38.7006 262.746 36.2876 266.15 35.5532 270.079C34.8072 274.007 35.8097 278.064 38.2926 281.199C47.6764 275.359 49.4366 268.785 43.5732 261.453C42.2093 268.703 41.5332 272.34 41.5332 272.34C41.9529 264.6 42.1627 260.73 42.1627 260.73L42.151 260.73Z" fill="#F87060"/>
<path opacity="0.54" fill-rule="evenodd" clip-rule="evenodd" d="M23.2785 250.798C22.8006 253.829 23.6632 256.93 25.6448 259.273C27.6265 261.616 30.5291 262.991 33.5948 263.038C34.6673 254.61 31.6015 250.378 24.3859 250.309C28.0462 254.645 29.8879 256.801 29.8879 256.801C25.4816 252.803 23.2785 250.798 23.2785 250.798Z" fill="#F87060"/>
<path opacity="0.54" fill-rule="evenodd" clip-rule="evenodd" d="M25.9946 269.531C25.6798 271.559 26.251 273.634 27.5799 275.196C28.9088 276.77 30.8438 277.679 32.8954 277.714C33.6182 272.084 31.5549 269.239 26.7406 269.204C29.1885 272.107 30.4125 273.552 30.4125 273.552C27.4633 270.871 25.9829 269.531 25.9829 269.531L25.9946 269.531Z" fill="#F87060"/>
<path opacity="0.54" fill-rule="evenodd" clip-rule="evenodd" d="M-9.0344 249.05C-9.67553 253.164 -8.50984 257.349 -5.82876 260.532C-3.14767 263.714 0.780699 265.567 4.94221 265.626C6.39932 254.214 2.23781 248.467 -7.53066 248.385C-2.56483 254.26 -0.0819086 257.186 -0.0819086 257.186C-6.05024 251.766 -9.04606 249.05 -9.04606 249.05L-9.0344 249.05Z" fill="#F87060"/>
<path opacity="0.54" fill-rule="evenodd" clip-rule="evenodd" d="M9.63993 254.283C8.71904 256.125 8.63744 258.27 9.43011 260.17C10.2111 262.07 11.7848 263.539 13.7315 264.18C16.1328 259.028 15.0371 255.706 10.4559 254.202C11.913 257.711 12.6358 259.459 12.6358 259.459C10.6424 256.009 9.63993 254.283 9.63993 254.283Z" fill="#F87060"/>
<path opacity="0.54" fill-rule="evenodd" clip-rule="evenodd" d="M4.55755 274.916C6.02632 277.621 8.59084 279.544 11.5867 280.208C14.5825 280.873 17.7182 280.208 20.1895 278.367C15.923 271.023 10.9106 269.519 5.15206 273.844C10.6891 275.068 13.4634 275.674 13.4634 275.674C7.53006 275.173 4.55755 274.916 4.55755 274.916Z" fill="#F87060"/>
<path opacity="0.54" fill-rule="evenodd" clip-rule="evenodd" d="M21.1919 281.374C19.3968 283.286 18.5225 285.897 18.7906 288.508C19.0587 291.119 20.4575 293.486 22.6024 294.989C27.4167 289.546 27.2885 285.069 22.2177 281.561C22.7306 286.387 22.9754 288.8 22.9754 288.8C21.7864 283.845 21.1803 281.374 21.1803 281.374L21.1919 281.374Z" fill="#F87060"/>
<path opacity="0.54" fill-rule="evenodd" clip-rule="evenodd" d="M21.7747 299.792C22.2527 301.785 23.5699 303.487 25.4 304.431C27.2185 305.376 29.3634 305.492 31.2751 304.734C29.7947 299.244 26.8222 297.402 22.3459 299.197C25.7148 300.946 27.3934 301.82 27.3934 301.82C23.6515 300.468 21.7747 299.792 21.7747 299.792Z" fill="#F87060"/>
<path opacity="0.54" fill-rule="evenodd" clip-rule="evenodd" d="M33.8513 293.556C31.9628 296.959 31.6481 301.004 32.977 304.653C34.3059 308.302 37.1618 311.192 40.7871 312.58C45.7296 303.033 43.9228 296.656 35.39 293.451C37.8612 300.188 39.0969 303.569 39.0969 303.569C35.5998 296.889 33.8513 293.556 33.8513 293.556Z" fill="#F87060"/>
<path opacity="0.54" fill-rule="evenodd" clip-rule="evenodd" d="M39.2485 317.65C39.7264 319.644 41.0436 321.346 42.8738 322.29C44.6922 323.234 46.8371 323.351 48.7488 322.593C47.2684 317.114 44.2959 315.261 39.8197 317.056C43.1885 318.804 44.8671 319.679 44.8671 319.679C41.1252 318.326 39.2485 317.65 39.2485 317.65Z" fill="#F87060"/>
<path opacity="0.54" fill-rule="evenodd" clip-rule="evenodd" d="M25.4816 313.442C26.1694 316.31 28.0578 318.734 30.669 320.098C33.2801 321.462 36.3575 321.614 39.0969 320.53C36.9753 312.673 32.7089 310.027 26.2976 312.591C31.1236 315.097 33.5366 316.356 33.5366 316.356C28.1627 314.41 25.4816 313.442 25.4816 313.442Z" fill="#F87060"/>
<path opacity="0.54" fill-rule="evenodd" clip-rule="evenodd" d="M48.6905 313.221C48.6089 316.706 50.0427 320.063 52.6306 322.406C55.2184 324.749 58.6921 325.869 62.1542 325.449C62.096 315.797 58.0044 311.484 49.8679 312.498C54.6472 316.823 57.0369 318.991 57.0369 318.991C51.4649 315.144 48.6789 313.221 48.6789 313.221L48.6905 313.221Z" fill="#F87060"/>
<path opacity="0.54" fill-rule="evenodd" clip-rule="evenodd" d="M46.6855 298.008C45.6364 299.769 45.3916 301.902 46.0444 303.86C46.6855 305.807 48.1427 307.392 50.0427 308.185C52.8171 303.231 51.9661 299.827 47.5132 297.985C48.7022 301.587 49.2967 303.394 49.2967 303.394C47.5598 299.804 46.6972 298.02 46.6972 298.02L46.6855 298.008Z" fill="#F87060"/>
<path opacity="0.54" fill-rule="evenodd" clip-rule="evenodd" d="M32.569 326.486C32.6856 330.018 34.3175 333.329 37.0686 335.567C39.8079 337.805 43.3866 338.726 46.872 338.12C46.2775 328.363 41.9062 324.213 33.7347 325.682C38.8054 329.797 41.3466 331.86 41.3466 331.86C35.4949 328.27 32.5807 326.486 32.5807 326.486L32.569 326.486Z" fill="#F87060"/>
<path opacity="0.54" fill-rule="evenodd" clip-rule="evenodd" d="M25.0154 325.344C22.4975 328.107 21.3085 331.825 21.7514 335.532C22.1944 339.239 24.2227 342.584 27.3118 344.683C34.0378 336.849 33.7697 330.485 26.4841 325.589C27.3001 332.443 27.7198 335.87 27.7198 335.87C25.9246 328.853 25.027 325.344 25.027 325.344L25.0154 325.344Z" fill="#F87060"/>
<path opacity="0.54" fill-rule="evenodd" clip-rule="evenodd" d="M17.9979 314.969C15.41 316.38 13.5682 318.851 12.9504 321.73C12.321 324.61 12.9737 327.617 14.7456 329.972C21.7747 325.857 23.2085 321.054 19.0353 315.541C17.8813 320.856 17.3101 323.514 17.3101 323.514C17.7764 317.825 18.0095 314.981 18.0095 314.981L17.9979 314.969Z" fill="#F87060"/>
<path opacity="0.54" fill-rule="evenodd" clip-rule="evenodd" d="M13.7665 301.004C10.8056 302.625 8.68409 305.457 7.97301 308.756C7.25029 312.055 8.00799 315.505 10.0246 318.21C18.0912 313.489 19.7348 307.975 14.9438 301.645C13.6266 307.742 12.9622 310.796 12.9622 310.796C13.4984 304.268 13.7548 301.004 13.7548 301.004L13.7665 301.004Z" fill="#F87060"/>
<path opacity="0.54" fill-rule="evenodd" clip-rule="evenodd" d="M7.12208 291.597C4.81401 292.856 3.15873 295.059 2.5992 297.636C2.03967 300.212 2.62252 302.893 4.1962 305.003C10.4793 301.331 11.7615 297.029 8.03132 292.099C7.00551 296.855 6.49261 299.233 6.49261 299.233C6.91225 294.138 7.11042 291.597 7.11042 291.597L7.12208 291.597Z" fill="#F87060"/>
<path opacity="0.54" fill-rule="evenodd" clip-rule="evenodd" d="M-5.58401 282.924C-8.91788 285.547 -10.9578 289.499 -11.156 293.742C-11.3658 297.985 -9.71055 302.112 -6.63313 305.038C2.3893 297.507 3.27523 290.327 -3.97536 283.472C-4.33672 291.317 -4.52324 295.234 -4.52324 295.234C-5.22265 287.028 -5.57235 282.924 -5.57235 282.924L-5.58401 282.924Z" fill="#F87060"/>
<path opacity="0.54" fill-rule="evenodd" clip-rule="evenodd" d="M-10.9927 307.311C-12.1001 310.505 -11.7737 314.013 -10.0951 316.951C-8.41655 319.877 -5.5373 321.94 -2.22674 322.581C0.594228 313.675 -1.90035 308.476 -9.68715 306.996C-6.57476 312.405 -5.01274 315.109 -5.01274 315.109C-8.9994 309.91 -10.9927 307.311 -10.9927 307.311Z" fill="#F87060"/>
<path opacity="0.54" fill-rule="evenodd" clip-rule="evenodd" d="M5.62995 321.322C2.84395 322.838 0.862277 325.495 0.197834 328.584C-0.478266 331.685 0.232807 334.914 2.12122 337.455C9.68655 333.037 11.2253 327.85 6.73735 321.917C5.50172 327.64 4.8839 330.496 4.8839 330.496C5.38515 324.376 5.62995 321.311 5.62995 321.311L5.62995 321.322Z" fill="#F87060"/>
<path opacity="0.54" fill-rule="evenodd" clip-rule="evenodd" d="M1.61995 308.814C0.395977 310.423 -0.0819534 312.486 0.337695 314.468C0.745686 316.45 1.99297 318.163 3.76482 319.142C7.02875 314.596 6.58579 311.169 2.42428 308.873C3.18198 312.533 3.56665 314.363 3.56665 314.363C2.27273 310.656 1.61995 308.803 1.61995 308.803L1.61995 308.814Z" fill="#F87060"/>
<path opacity="0.54" fill-rule="evenodd" clip-rule="evenodd" d="M11.8897 335.707C10.0013 339.064 9.66322 343.074 10.9571 346.699C12.2511 350.325 15.0604 353.216 18.6507 354.603C23.6049 345.172 21.8563 338.843 13.4167 335.614C15.8181 342.305 17.0187 345.662 17.0187 345.662C13.5916 339.029 11.878 335.707 11.878 335.707L11.8897 335.707Z" fill="#F87060"/>
<path opacity="0.54" fill-rule="evenodd" clip-rule="evenodd" d="M3.1354 343.727C1.24698 345.965 0.419348 348.914 0.873967 351.805C1.32859 354.696 3.00718 357.249 5.4901 358.811C10.5375 352.481 10.1412 347.504 4.30109 343.878C5.14038 349.229 5.56003 351.898 5.56003 351.898C3.95138 346.454 3.14706 343.727 3.14706 343.727L3.1354 343.727Z" fill="#F87060"/>
</g>
</svg>
