<svg width="55" height="58" viewBox="0 0 55 58" fill="none" xmlns="http://www.w3.org/2000/svg">
<path opacity="0.51" d="M34.4071 -1.48973L42.0081 13.9958C42.181 14.3889 42.4529 14.7293 42.7968 14.9832C43.1407 15.2372 43.5445 15.3957 43.9681 15.4431L60.7476 17.9516C61.2335 18.0146 61.6915 18.2158 62.0683 18.5317C62.445 18.8476 62.725 19.2652 62.8753 19.7356C63.0257 20.2061 63.0404 20.71 62.9175 21.1885C62.7947 21.667 62.5395 22.1004 62.1818 22.4381L50.0871 34.5467C49.7784 34.8377 49.5468 35.202 49.4132 35.6064C49.2796 36.0109 49.2483 36.4426 49.3222 36.8623L52.2383 53.8916C52.3228 54.3809 52.2694 54.8843 52.0843 55.3445C51.8992 55.8047 51.5898 56.2033 51.1913 56.4948C50.7929 56.7864 50.3213 56.9592 49.8303 56.9936C49.3393 57.028 48.8485 56.9227 48.4139 56.6896L33.3076 48.6332C32.9207 48.4416 32.4956 48.342 32.0646 48.342C31.6337 48.342 31.2085 48.4416 30.8217 48.6332L15.7153 56.6896C15.2807 56.9227 14.79 57.028 14.299 56.9936C13.808 56.9592 13.3364 56.7864 12.9379 56.4948C12.5395 56.2033 12.2301 55.8047 12.045 55.3445C11.8599 54.8843 11.8065 54.3809 11.8909 53.8916L14.807 36.6693C14.881 36.2496 14.8497 35.8179 14.7161 35.4135C14.5825 35.0091 14.3508 34.6448 14.0422 34.3537L1.80409 22.4381C1.44203 22.0912 1.1874 21.6458 1.07107 21.1559C0.95473 20.666 0.981669 20.1525 1.14862 19.6777C1.31557 19.2029 1.61538 18.7871 2.01171 18.4808C2.40805 18.1744 2.88391 17.9906 3.38165 17.9516L20.1612 15.4431C20.5847 15.3957 20.9886 15.2372 21.3325 14.9832C21.6764 14.7293 21.9483 14.3889 22.1212 13.9958L29.7222 -1.48973C29.9292 -1.94075 30.2597 -2.32259 30.6748 -2.5902C31.0898 -2.85781 31.5721 -3 32.0646 -3C32.5572 -3 33.0394 -2.85781 33.4545 -2.5902C33.8696 -2.32259 34.2001 -1.94075 34.4071 -1.48973V-1.48973Z" stroke="currentColor" stroke-width="2" stroke-linecap="round" stroke-linejoin="round"/>
</svg>
