<svg width="12" height="12" viewBox="0 0 12 12" fill="none" xmlns="http://www.w3.org/2000/svg">
<path d="M6.38824 1.25171L7.61421 3.83263C7.64209 3.89814 7.68595 3.95488 7.74142 3.99721C7.79689 4.03953 7.86202 4.06595 7.93034 4.07384L10.6367 4.49194C10.7151 4.50244 10.789 4.53597 10.8497 4.58862C10.9105 4.64127 10.9556 4.71087 10.9799 4.78927C11.0041 4.86768 11.0065 4.95167 10.9867 5.03142C10.9669 5.11118 10.9257 5.18341 10.868 5.23968L8.91728 7.25778C8.86749 7.30629 8.83012 7.367 8.80858 7.43441C8.78703 7.50181 8.78199 7.57376 8.79391 7.64372L9.26425 10.4819C9.27787 10.5635 9.26926 10.6474 9.2394 10.7241C9.20955 10.8008 9.15965 10.8672 9.09538 10.9158C9.03111 10.9644 8.95505 10.9932 8.87585 10.9989C8.79666 11.0047 8.71751 10.9871 8.64741 10.9483L6.2109 9.60554C6.14851 9.5736 6.07993 9.55699 6.01043 9.55699C5.94092 9.55699 5.87234 9.5736 5.80995 9.60554L3.37344 10.9483C3.30334 10.9871 3.2242 11.0047 3.145 10.9989C3.06581 10.9932 2.98975 10.9644 2.92547 10.9158C2.8612 10.8672 2.8113 10.8008 2.78145 10.7241C2.75159 10.6474 2.74299 10.5635 2.7566 10.4819L3.22694 7.61155C3.23886 7.5416 3.23382 7.46965 3.21227 7.40225C3.19073 7.33484 3.15336 7.27413 3.10357 7.22562L1.12969 5.23968C1.07129 5.18187 1.03023 5.10764 1.01146 5.02598C0.992698 4.94432 0.997043 4.85875 1.02397 4.77961C1.0509 4.70048 1.09925 4.63119 1.16318 4.58013C1.2271 4.52907 1.30386 4.49843 1.38414 4.49194L4.09052 4.07384C4.15883 4.06595 4.22397 4.03953 4.27943 3.99721C4.3349 3.95488 4.37876 3.89814 4.40665 3.83263L5.63261 1.25171C5.666 1.17654 5.71931 1.1129 5.78625 1.0683C5.8532 1.0237 5.93098 1 6.01043 1C6.08987 1 6.16765 1.0237 6.2346 1.0683C6.30154 1.1129 6.35485 1.17654 6.38824 1.25171Z" fill="white" stroke="#F87060" stroke-linecap="round" stroke-linejoin="round"/>
</svg>
