<svg width="14" height="17" viewBox="0 0 14 17" fill="none" xmlns="http://www.w3.org/2000/svg">
<path d="M9.91637 12.3112V4.98358C9.91637 4.98358 10.7386 6.36067 13.7104 6.44478C13.8689 6.44925 14 6.31824 14 6.15895V4.0881C14 3.93402 13.8778 3.81193 13.7245 3.803C11.4193 3.67199 10.3245 1.89517 10.2171 0.265737C10.2075 0.11463 10.0756 0 9.92526 0H7.57494C7.41864 0 7.29124 0.127285 7.29124 0.285092V11.9338C7.29124 13.1992 6.32904 14.3002 5.07128 14.3597C3.63353 14.4282 2.46466 13.1881 2.64244 11.7224C2.76836 10.687 3.59502 9.83913 4.62314 9.69546C4.82758 9.66718 5.02684 9.66494 5.22017 9.68653C5.39128 9.70589 5.54164 9.57785 5.54164 9.40516V7.3291C5.54164 7.18171 5.42979 7.05368 5.28313 7.04475C4.98832 7.0254 4.6861 7.03209 4.37944 7.06708C2.11208 7.32537 0.282482 9.1692 0.031376 11.4485C-0.299729 14.455 2.03356 17 4.95869 17C7.69716 17 9.91712 14.7691 9.91712 12.0172" fill="#373737"/>
</svg>
