<svg width="27" height="24" viewBox="0 0 27 24" fill="none" xmlns="http://www.w3.org/2000/svg">
<path d="M8.02417 8.58058C8.17936 7.19324 8.65676 5.8614 9.41826 4.69139C10.1798 3.52139 11.2043 2.54563 12.41 1.84203C13.6157 1.13842 14.9692 0.726463 16.3624 0.639038C17.7557 0.551614 19.1501 0.791147 20.4343 1.33851C21.7185 1.88588 22.8569 2.72591 23.7587 3.79155C24.6605 4.85719 25.3006 6.1189 25.628 7.47596C25.9554 8.83302 25.961 10.2478 25.6443 11.6074C25.3276 12.967 24.6974 14.2337 23.8041 15.3064" stroke="currentColor" stroke-linecap="round" stroke-linejoin="round"/>
<path d="M16.9191 5.5957V9.57551H19.9039" stroke="currentColor" stroke-linecap="round" stroke-linejoin="round"/>
<path d="M0.999756 13.5553H8.95936C9.61265 13.5553 10.2596 13.684 10.8631 13.934C11.4667 14.184 12.0151 14.5504 12.477 15.0124C12.939 15.4743 13.3054 16.0227 13.5554 16.6263C13.8054 17.2299 13.9341 17.8768 13.9341 18.5301V18.5301" stroke="currentColor" stroke-linecap="round" stroke-linejoin="round"/>
<path d="M7.96441 18.53H17.9139C18.9694 18.53 19.9817 18.9493 20.7281 19.6957C21.4744 20.442 21.8937 21.4543 21.8937 22.5098C21.8937 22.7737 21.7889 23.0268 21.6023 23.2134C21.4157 23.4 21.1626 23.5048 20.8988 23.5048H0.999756" stroke="currentColor" stroke-linecap="round" stroke-linejoin="round"/>
</svg>
