<svg width="15" height="15" viewBox="0 0 15 15" fill="none" xmlns="http://www.w3.org/2000/svg">
<path d="M11.5 1L14 3.5H2C1.73478 3.5 1.48043 3.60536 1.29289 3.79289C1.10536 3.98043 1 4.23478 1 4.5V6.5C1 6.76522 1.10536 7.01957 1.29289 7.20711C1.48043 7.39464 1.73478 7.5 2 7.5H13C13.2652 7.5 13.5196 7.60536 13.7071 7.79289C13.8946 7.98043 14 8.23478 14 8.5V10.5C14 10.7652 13.8946 11.0196 13.7071 11.2071C13.5196 11.3946 13.2652 11.5 13 11.5H1L3.5 14" stroke="#3C3F40" stroke-linecap="round" stroke-linejoin="round"/>
</svg>
