<svg width="39" height="13" viewBox="0 0 39 13" fill="none" xmlns="http://www.w3.org/2000/svg">
<path d="M20.1695 4.15616C20.1467 5.9677 21.7325 6.97726 22.9268 7.57796C24.1547 8.19439 24.566 8.58909 24.5614 9.14104C24.5523 9.98549 23.5819 10.3566 22.6755 10.3723C21.0927 10.3975 20.171 9.93045 19.4398 9.5782L18.8701 12.3333C19.6044 12.6824 20.9632 12.9874 22.3738 13C25.6826 13 27.8489 11.3143 27.8595 8.69917C27.8717 5.38115 23.4128 5.19717 23.4433 3.71429C23.4539 3.26455 23.8698 2.78493 24.7808 2.66227C25.2317 2.60094 26.4763 2.55377 27.887 3.22366L28.4415 0.558244C27.6828 0.273618 26.7079 0 25.4922 0C22.3769 0 20.1863 1.70933 20.168 4.15616M33.7641 0.229588C33.1594 0.229588 32.6506 0.592839 32.4236 1.15266L27.6965 12.805H31.0038L31.6619 10.9274H35.7034L36.0858 12.805H39L36.4544 0.229588H33.7626M34.2257 3.62622L35.1809 8.34849H32.5668L34.2257 3.62622ZM16.16 0.229588L13.5535 12.8034H16.7054L19.3088 0.229588H16.1585M11.4969 0.229588L8.2171 8.7888L6.89024 1.51119C6.73485 0.698198 6.11941 0.229588 5.43694 0.229588H0.0746455L0 0.594412C1.1014 0.841297 2.3521 1.23914 3.10921 1.66372C3.57232 1.92319 3.70485 2.1512 3.85719 2.7692L6.37077 12.8034H9.70087L14.8072 0.229588H11.4985" fill="url(#paint0_linear_336_7021)"/>
<defs>
<linearGradient id="paint0_linear_336_7021" x1="17.726" y1="13.3517" x2="18.1187" y2="5.5926e-05" gradientUnits="userSpaceOnUse">
<stop stop-color="#222357"/>
<stop offset="1" stop-color="#254AA5"/>
</linearGradient>
</defs>
</svg>
