<svg width="56" height="55" viewBox="0 0 56 55" fill="none" xmlns="http://www.w3.org/2000/svg">
<path d="M52.1271 39.4442C35.9479 37.1407 19.5239 37.1407 3.3447 39.4442C3.05493 39.4852 2.75975 39.4639 2.47888 39.3817C2.19801 39.2994 1.93793 39.1582 1.716 38.9675C1.49408 38.7767 1.31543 38.5407 1.19198 38.2754C1.06854 38.01 1.00315 37.7214 1.00018 37.4288V3.04253C0.996222 2.74775 1.05698 2.45568 1.17818 2.18693C1.29937 1.91818 1.47805 1.67929 1.70161 1.4871C1.92517 1.29492 2.18817 1.15412 2.47207 1.07463C2.75597 0.995149 3.05384 0.978914 3.3447 1.02707C19.5268 3.28935 35.945 3.28935 52.1271 1.02707C52.4145 0.979502 52.7088 0.994807 52.9898 1.07193C53.2707 1.14906 53.5316 1.28618 53.7544 1.47383C53.9773 1.66149 54.1568 1.89523 54.2806 2.15894C54.4044 2.42266 54.4696 2.71008 54.4716 3.0014V37.3876C54.4745 37.6837 54.4135 37.977 54.2926 38.2473C54.1717 38.5177 53.9939 38.7587 53.7713 38.954C53.5487 39.1492 53.2865 39.2941 53.0028 39.3788C52.719 39.4634 52.4203 39.4857 52.1271 39.4442V39.4442Z" stroke="#616262" stroke-width="1.5" stroke-linecap="round" stroke-linejoin="round"/>
<path d="M27.736 37.7168V47.9998" stroke="#616262" stroke-width="1.5" stroke-linecap="round" stroke-linejoin="round"/>
<path d="M17.4529 48H38.0189" stroke="#616262" stroke-width="1.5" stroke-linecap="round" stroke-linejoin="round"/>
<circle cx="27.5" cy="42.5" r="12.5" fill="white"/>
<path d="M22.8231 36.5018L33.3673 47.8571" stroke="#616262" stroke-width="1.3" stroke-linecap="round" stroke-linejoin="round"/>
<path d="M33.3674 36.5018L22.8232 47.8571" stroke="#616262" stroke-width="1.3" stroke-linecap="round" stroke-linejoin="round"/>
</svg>
