<svg width="37" height="37" viewBox="0 0 37 37" fill="none" xmlns="http://www.w3.org/2000/svg">
<path d="M28.5779 0H8.42212C3.77071 0 0 3.77071 0 8.42212V28.5779C0 33.2293 3.77071 37 8.42212 37H28.5779C33.2293 37 37 33.2293 37 28.5779V8.42212C37 3.77071 33.2293 0 28.5779 0Z" fill="#2D8CFF"/>
<path d="M5.38072 23.7721H10.038C10.038 23.7721 10.9508 23.7955 10.8339 24.8953L7.39371 28.3593H9.99168C9.99168 28.3593 11.2556 28.219 11.1387 29.5292H6.66842C6.66842 29.5292 5.7089 29.576 5.68551 28.3593L9.14948 24.9191H6.5515C6.5515 24.9191 5.24083 24.9191 5.38153 23.7721H5.38072Z" fill="white"/>
<path d="M25.3973 14.3903C25.3973 10.3978 22.1607 7.16125 18.1682 7.16125C14.1757 7.16125 10.9391 10.3978 10.9391 14.3903C10.9391 18.3828 14.1757 21.619 18.1682 21.619C22.1607 21.619 25.3973 18.3824 25.3973 14.3903Z" fill="#2D8CFF" stroke="white" stroke-miterlimit="10"/>
<path d="M13.7419 28.4065C12.7723 28.4065 11.9865 27.6207 11.9865 26.6511C11.9865 25.6815 12.7723 24.8958 13.7419 24.8958C14.7115 24.8958 15.4972 25.6815 15.4972 26.6511C15.4972 27.6207 14.7115 28.4065 13.7419 28.4065ZM16.6442 26.6511C16.6442 25.0482 15.3449 23.7488 13.7419 23.7488C12.1389 23.7488 10.8395 25.0482 10.8395 26.6511C10.8395 28.2541 12.1389 29.5535 13.7419 29.5535C15.3449 29.5535 16.6442 28.2541 16.6442 26.6511Z" fill="white"/>
<path d="M19.8276 28.4065C18.858 28.4065 18.0722 27.6207 18.0722 26.6511C18.0722 25.6815 18.8584 24.8958 19.8276 24.8958C20.7968 24.8958 21.583 25.6815 21.583 26.6511C21.583 27.6207 20.7968 28.4065 19.8276 28.4065ZM22.7296 26.6511C22.7296 25.0482 21.4302 23.7488 19.8272 23.7488C18.2242 23.7488 16.9249 25.0482 16.9249 26.6511C16.9249 28.2541 18.2242 29.5535 19.8272 29.5535C21.4302 29.5535 22.7296 28.2541 22.7296 26.6511Z" fill="white"/>
<path d="M23.0037 23.7486V29.5295C23.0037 29.5295 24.1039 29.74 24.1507 28.5696V26.0889C24.1507 26.0889 24.1975 24.9186 25.3445 24.8952C25.3445 24.8952 26.4443 24.942 26.4911 26.0422V28.5934C26.4911 28.5934 26.5612 29.6235 27.6848 29.5295V26.0656C27.6848 26.0656 27.7082 24.825 28.8786 24.8952C28.8786 24.8952 29.8615 24.9653 29.9316 25.8781V28.2886C29.9316 28.2886 29.8381 29.6698 31.1254 29.5291V25.9716C31.1254 25.9716 31.0552 23.982 28.9955 23.7482C28.9955 23.7482 27.6848 23.7014 27.0647 24.544C27.0647 24.544 25.6928 22.9894 24.0576 24.1695C24.0576 24.1695 23.683 23.795 23.0045 23.7482L23.0037 23.7486Z" fill="white"/>
<path d="M13.4935 11.757H18.8177C18.8177 11.757 20.1163 11.8868 20.1594 12.9257V16.9513H15.0082C15.0082 16.9513 13.5363 17.1246 13.4931 15.6096V11.757H13.4935Z" fill="white"/>
<path d="M22.7566 11.757V16.9573L20.4626 15.4366V13.3156L22.7566 11.757Z" fill="white"/>
</svg>
