<svg width="140" height="143" viewBox="0 0 140 143" fill="none" xmlns="http://www.w3.org/2000/svg">
<path d="M92.5346 95.9992C91.2956 95.9992 90.2452 95.6985 89.3879 95.097C88.1848 95.6985 86.9639 95.9992 85.7204 95.9992H81.043C79.7502 95.9992 78.8165 95.4875 78.2509 94.4685C76.7382 95.492 75.1671 95.9992 73.5466 95.9992H70.8398V94.4685H71.2483C71.9216 94.4685 72.5949 94.2441 73.2593 93.7997C73.9236 93.3508 74.395 92.682 74.6688 91.7887L77.3217 81.8054C77.5058 81.15 77.8469 80.6293 78.3497 80.2478C78.8524 79.8662 79.4315 79.6732 80.0869 79.6732H84.7374L81.4829 91.7932C81.4111 92.1029 81.3752 92.3857 81.3752 92.6416C81.3752 93.1174 81.5099 93.4989 81.7837 93.7907C82.1832 94.2486 82.7398 94.473 83.4535 94.473C84.1269 94.473 84.8002 94.2486 85.4646 93.8042C86.1289 93.3553 86.6003 92.6865 86.8741 91.7932L90.1285 79.5654C90.3126 78.928 90.6537 78.4163 91.1565 78.0347C91.6592 77.6532 92.2383 77.4602 92.8937 77.4602H97.5172L93.6882 91.7662C93.6343 92.0221 93.6074 92.26 93.6074 92.4755C93.6074 92.9333 93.7331 93.3328 93.989 93.6785C94.3526 94.2082 94.9092 94.473 95.6588 94.473C96.3322 94.473 97.0055 94.2486 97.6698 93.8042C98.3342 93.3553 98.8055 92.6865 99.0794 91.7932L102.935 77.321C103.119 76.6836 103.461 76.1718 103.963 75.7903C104.466 75.4087 105.045 75.2157 105.7 75.2157H110.324L106.603 89.1941C106.037 91.1288 104.919 92.7448 103.25 94.0511C101.58 95.3528 99.8066 96.0082 97.9302 96.0082H92.539L92.5346 95.9992Z" fill="#102542"/>
<path d="M93.8902 74.5244C94.4827 74.0486 94.8777 73.465 95.0797 72.7737C95.1336 72.5358 95.1606 72.3069 95.1606 72.0914C95.1606 71.674 95.0528 71.3059 94.8329 70.9962C94.4872 70.5203 93.9755 70.2869 93.3022 70.2869C92.6288 70.2869 91.9645 70.5248 91.3719 70.9962C90.7794 71.472 90.3754 72.0645 90.1554 72.7737C90.1016 72.9937 90.0746 73.2002 90.0746 73.4022C90.0746 73.8242 90.1914 74.1967 90.4293 74.5244C90.7749 75.0002 91.2866 75.2337 91.96 75.2337C92.6333 75.2337 93.2977 74.9958 93.8902 74.5244Z" fill="#102542"/>
<path d="M97.9482 69.461C98.5497 68.9852 98.9492 68.4016 99.1512 67.7103C99.2051 67.4724 99.232 67.2525 99.232 67.0549C99.232 66.6375 99.1153 66.2604 98.8774 65.9327C98.5318 65.4569 98.02 65.2235 97.3467 65.2235C96.6734 65.2235 96.0359 65.4614 95.4299 65.9327C94.8284 66.4085 94.4289 67.0011 94.2269 67.7103C94.1731 67.9303 94.1461 68.1413 94.1461 68.3388C94.1461 68.7607 94.2628 69.1333 94.5007 69.461C94.8464 69.9368 95.3581 70.1702 96.0314 70.1702C96.7048 70.1702 97.3422 69.9323 97.9482 69.461Z" fill="#102542"/>
<path d="M99.398 74.5244C99.9995 74.0486 100.399 73.465 100.601 72.7737C100.655 72.5358 100.682 72.3204 100.682 72.1184C100.682 71.7009 100.565 71.3238 100.327 70.9962C99.9816 70.5203 99.4698 70.2869 98.7965 70.2869C98.1232 70.2869 97.4813 70.5248 96.8798 70.9962C96.2783 71.472 95.8787 72.0645 95.6767 72.7737C95.6229 72.9937 95.5959 73.2002 95.5959 73.4022C95.5959 73.8242 95.7127 74.1967 95.9506 74.5244C96.2783 75.0002 96.79 75.2337 97.4813 75.2337C98.1726 75.2337 98.7965 74.9958 99.398 74.5244Z" fill="#102542"/>
<path d="M115.401 91.7842C115.199 92.6775 115.32 93.3418 115.756 93.7817C116.173 94.2396 116.721 94.464 117.398 94.464L116.963 95.9948H114.992C114.737 95.9948 114.49 95.9768 114.252 95.9409C113.632 97.5659 112.591 98.9484 111.132 100.098C109.471 101.408 107.702 102.068 105.826 102.068H102.626L102.899 101.027C103.025 100.681 103.245 100.506 103.555 100.506C104.228 100.506 104.901 100.286 105.566 99.8507C106.23 99.4108 106.701 98.7464 106.975 97.8532L112.447 77.339C112.631 76.7015 112.972 76.1898 113.475 75.8082C113.978 75.4267 114.557 75.2337 115.212 75.2337H119.836L117.758 83.0039L115.405 91.7842H115.401Z" fill="#102542"/>
<path d="M116.963 95.9993V94.4686H119.89C119.014 93.5214 118.579 92.3633 118.579 90.9942C118.579 90.4286 118.651 89.827 118.799 89.1896C120.24 83.7715 121.308 79.8079 122 77.2896C122.184 76.6522 122.52 76.1404 123.01 75.7589C123.503 75.3773 124.078 75.1843 124.733 75.1843H134.775C136.651 75.1843 137.993 75.7275 138.797 76.8138C139.601 77.9001 140 79.0268 140 80.1939C140 80.7595 139.919 81.361 139.753 81.9984L137.756 89.4949C137.136 91.3533 136.009 92.9064 134.375 94.1454C132.742 95.3843 131.013 96.0037 129.191 96.0037H116.963V95.9993ZM128.998 93.6875C129.653 93.1668 130.093 92.5249 130.309 91.7573L133.617 79.4218C133.671 79.1659 133.698 78.928 133.698 78.7126C133.698 78.2547 133.581 77.8552 133.343 77.5095C132.961 76.9799 132.396 76.715 131.646 76.715C130.897 76.715 130.223 76.9754 129.568 77.4961C128.912 78.0168 128.464 78.6587 128.226 79.4263L124.917 91.7618C124.864 92.0176 124.837 92.2555 124.837 92.471C124.837 92.9289 124.962 93.3284 125.218 93.674C125.6 94.2037 126.156 94.4686 126.888 94.4686C127.62 94.4686 128.338 94.2082 128.993 93.6875H128.998Z" fill="#102542"/>
<path d="M17.9428 80.4812C18.0146 78.955 17.4445 77.8911 16.2415 77.2851C15.5682 76.9529 14.7602 76.7868 13.822 76.7868C12.0219 76.7868 10.3566 77.4647 8.82585 78.8248C7.29065 80.1849 6.1415 82.2274 5.37839 84.9521C4.62425 87.6993 4.70954 89.643 5.63874 90.7832C6.56794 91.9234 7.83381 92.4934 9.42736 92.4934C11.0209 92.4934 12.4035 92.0401 13.6604 91.1378C14.9173 90.2355 15.8599 89.0505 16.4929 87.5871H11.3262L12.3721 83.8613H21.673L18.3423 95.8466H15.2494L15.5547 93.059C14.3517 94.1184 13.3372 94.8681 12.4978 95.3035C11.0523 96.0621 9.43185 96.4392 7.63629 96.4392C4.67812 96.4392 2.53692 95.4157 1.21719 93.3643C-0.174362 91.3039 -0.371873 88.4849 0.62017 84.9117C1.62568 81.2937 3.42572 78.3983 6.02479 76.2167C8.62385 74.0351 11.5596 72.9444 14.832 72.9444C17.6689 72.9444 19.7473 73.6626 21.067 75.1035C22.3868 76.5444 22.8761 78.34 22.5304 80.4902H17.9383L17.9428 80.4812Z" fill="#102542"/>
<path d="M39.2112 82.1017C39.5927 83.0802 39.6915 84.2159 39.5164 85.5087C39.4267 86.2673 39.1708 87.3581 38.7578 88.7811H27.4548C27.0553 90.4375 27.2483 91.6001 28.0428 92.2645C28.5187 92.6775 29.1785 92.884 30.018 92.884C30.9068 92.884 31.7013 92.6326 32.4015 92.1253C32.7741 91.8515 33.1467 91.4745 33.5238 90.9897H37.9319C37.5458 91.9682 36.7558 92.9648 35.5707 93.9748C33.7078 95.5818 31.5038 96.3853 28.9586 96.3853C26.8578 96.3853 25.1924 95.7075 23.9624 94.3563C22.7325 93.0007 22.5395 90.8011 23.3879 87.7487C24.1824 84.8893 25.5156 82.6987 27.3875 81.1725C29.2593 79.6462 31.3511 78.8831 33.6674 78.8831C35.041 78.8831 36.2081 79.139 37.1687 79.6552C38.1294 80.1714 38.8117 80.9839 39.2112 82.0927V82.1017ZM28.3526 85.9352H35.0635C35.3103 84.795 35.2026 83.9286 34.7403 83.3361C34.2779 82.7436 33.5866 82.4518 32.6709 82.4518C31.6699 82.4518 30.808 82.766 30.0853 83.39C29.3626 84.0184 28.7835 84.8668 28.3481 85.9352H28.3526Z" fill="#102542"/>
<path d="M41.698 82.5596L42.5509 79.4847H44.8537L46.142 74.8791H50.4154L49.1271 79.4847H51.807L50.9541 82.5596H48.2742L45.8367 91.2859C45.6527 91.9638 45.6213 92.3857 45.747 92.5518C45.8726 92.7179 46.3754 92.8032 47.2552 92.8032C47.3854 92.8032 47.5246 92.8032 47.6727 92.7942C47.8208 92.7897 47.969 92.7807 48.1216 92.7718L47.2148 95.9993L45.1499 96.0756C43.094 96.1474 41.8012 95.7928 41.2671 95.0162C40.9259 94.5224 40.8945 93.7593 41.1728 92.7269L44.0053 82.5596H41.7025H41.698Z" fill="#102542"/>
<path d="M60.4974 83.601C60.677 82.995 60.5872 82.573 60.2371 82.3441C59.8825 82.1152 59.2989 81.9984 58.4864 81.9984C57.5707 81.9984 56.8525 82.2229 56.3362 82.6763C55.9726 83.0129 55.6584 83.4663 55.3936 84.0364H52.3097L52.2693 84.18L51.5511 86.8509C51.8878 86.5906 52.2558 86.3616 52.6598 86.1596C53.5576 85.7152 54.7831 85.3965 56.3407 85.208L57.7009 85.0464C58.4505 84.9566 58.9981 84.8444 59.3483 84.7052C59.9677 84.4718 60.3493 84.1037 60.5019 83.6055L60.4974 83.601Z" fill="#102542"/>
<path d="M57.5617 87.4928L56.6504 87.6544C55.7841 87.798 55.1466 87.9776 54.7292 88.1841C54.0289 88.5387 53.571 89.0864 53.3556 89.8315C53.1536 90.4914 53.194 90.9717 53.4723 91.2635C53.7506 91.5597 54.1546 91.7034 54.6798 91.7034C55.5147 91.7034 56.3542 91.461 57.2026 90.9672C58.051 90.4779 58.6839 89.5846 59.0969 88.2873L59.5143 86.8464C59.2315 86.999 58.9487 87.1247 58.6659 87.219C58.3876 87.3132 58.015 87.403 57.5572 87.4838L57.5617 87.4928Z" fill="#102542"/>
<path d="M71.1719 77.1369C70.2068 75.8352 68.7839 75.1798 66.903 75.1798H56.8928C56.2374 75.1798 55.6584 75.3728 55.1556 75.7544C54.6529 76.1359 54.3117 76.6477 54.1277 77.2851L52.9471 81.6573C53.176 81.3655 53.4184 81.0917 53.6877 80.8403C55.1017 79.534 57.0544 78.8831 59.5457 78.8831C61.1662 78.8831 62.5129 79.2063 63.5857 79.8482C64.6541 80.4901 64.9279 81.7066 64.3982 83.4932L62.3782 90.2894C62.2391 90.7607 62.082 91.3308 61.9069 92.0041C61.7812 92.5114 61.7543 92.857 61.8261 93.0366C61.8979 93.2161 62.0416 93.3687 62.257 93.4855L62.0999 94.0555H57.8848C57.8534 93.7548 57.8579 93.4765 57.8848 93.2116C57.9163 92.9468 57.9656 92.6505 58.042 92.3139C57.3327 92.8929 56.5696 93.3867 55.7571 93.7952C54.7741 94.2755 53.7551 94.5179 52.7047 94.5179C51.4029 94.5179 50.4288 94.1543 49.7779 93.4316L49.0911 95.9948H61.3188C62.9797 95.9948 64.5643 95.474 66.0771 94.4371C66.1309 94.5628 66.2028 94.684 66.297 94.7917C66.8806 95.5952 67.7379 95.9948 68.8691 95.9948H70.8398L71.2797 94.464C70.6063 94.464 70.0542 94.2396 69.6233 93.7952C69.1923 93.3463 69.0801 92.6775 69.2821 91.7842L69.9106 89.432C69.9465 89.3243 70.0183 89.0864 70.1305 88.7228C70.2562 88.211 70.4223 87.5871 70.6243 86.8509C70.8263 86.1102 71.0193 85.3696 71.2123 84.6199C71.4054 83.8703 71.5715 83.2418 71.7196 82.7301C71.8094 82.3485 71.8722 82.1017 71.9126 81.9894C72.3884 80.0547 72.1415 78.4387 71.1719 77.1325V77.1369Z" fill="#102542"/>
<path fill-rule="evenodd" clip-rule="evenodd" d="M5.46375 109.672C11.3711 107.94 17.3234 108.133 23.2756 110.014L23.5674 110.108L23.3789 110.35C20.9324 113.519 17.5433 113.955 13.9836 112.99C17.669 115.53 22.3913 113.03 25.6951 110.691L25.7804 110.633L25.8792 110.66C36.069 113.533 46.941 108.07 55.1198 102.418L55.1781 102.382H55.2455C56.2151 102.387 57.1847 102.391 58.1498 102.396H58.666L58.3024 102.764C47.4797 113.596 23.3923 115.544 8.85734 115.997C9.01894 116.222 9.18503 116.442 9.34663 116.666C18.0865 116.599 26.8263 116.572 35.5662 116.594H35.9163L35.7592 116.908C34.7402 118.911 32.635 120.239 30.6464 121.128L30.5611 121.168L30.4758 121.133C27.585 119.885 24.546 120.024 21.6372 120.89C24.1689 120.544 26.9161 120.495 29.1875 121.321L29.7441 121.523L29.1875 121.725C25.5964 123.04 21.4846 123.718 17.669 124.145C17.7947 124.261 17.9249 124.373 18.0506 124.49C24.959 124.432 34.7447 123.296 38.1967 116.285L38.2505 116.177L38.3717 116.163C43.7135 115.638 49.7466 112.343 54.213 109.533L54.6709 109.246L54.5362 109.771C53.0414 115.557 48.3775 119.306 43.2332 121.81C47.0667 121.15 50.1685 118.641 52.6419 115.665L52.7317 115.557L52.8663 115.598C53.4454 115.764 54.0245 115.925 54.5991 116.092C54.2893 115.782 53.9796 115.472 53.6699 115.158L53.5576 115.046L53.6295 114.906C54.608 113.017 55.7168 110.638 56.0714 108.523L56.0894 108.424L56.1791 108.375C57.656 107.522 59.1283 106.647 60.5513 105.709C61.4356 105.125 62.3828 104.479 63.1683 103.77L63.6038 103.375L63.523 103.958C61.9608 115.364 53.1716 121.42 42.8068 124.701L42.7305 124.728L42.6541 124.697C40.082 123.557 37.447 123.467 34.8704 124.082C37.0161 123.785 39.2471 123.835 41.1638 124.665L41.7384 124.917L41.1324 125.074C34.9961 126.654 28.4558 127.35 22.1265 127.659C22.4587 127.911 22.7908 128.162 23.1185 128.418C28.4738 128.458 33.8335 128.292 39.1842 127.983L39.7453 127.951L39.3458 128.351C37.1957 130.51 34.2644 132.871 31.1042 133.253C31.3736 133.432 31.6429 133.612 31.9167 133.791C32.3297 133.67 32.7472 133.544 33.1602 133.423L33.627 133.284L33.416 133.724C33.3083 133.948 33.205 134.168 33.0973 134.393C33.223 134.482 33.3487 134.568 33.4744 134.658C34.2779 133.27 35.6111 132.234 36.9802 131.457C38.062 130.752 39.1438 130.021 40.1583 129.221C40.7419 128.759 41.4332 128.189 41.8865 127.597L41.9449 127.525L42.0347 127.516C45.3116 127.161 48.7007 125.805 51.6319 124.351L52.1392 124.1L51.9282 124.625C49.6478 130.281 43.2691 133.845 37.7792 136.072C42.0975 135.861 46.5146 132.952 49.7107 130.389L49.8498 130.276L49.9845 130.393C51.3536 131.578 53.0235 132.431 54.7472 133.055C53.3646 132.153 52.0539 131.089 51.0528 129.823L50.9451 129.684L51.0573 129.549C52.5746 127.74 53.5846 125.684 53.9796 123.35L53.9976 123.251L54.0828 123.202C57.4989 121.159 61.2157 118.556 63.7294 115.427L64.0212 115.064L64.111 115.521C64.4656 117.371 64.4926 119.283 64.331 121.159L64.322 121.236L64.2681 121.29C62.2346 123.328 60.0396 125.208 57.7458 126.946C60.0486 125.918 62.2212 124.558 63.9629 122.726L64.3714 122.295L64.3354 122.888C63.7564 132.081 56.7313 137.113 48.7007 140.008C50.2359 140.417 51.7666 140.83 53.3018 141.234C54.3477 139.582 57.2385 138.051 58.8859 137.234L59.1508 137.104L59.1957 137.396C59.4336 138.953 59.878 140.839 60.8341 142.14C61.3099 142.158 61.7858 142.176 62.2616 142.19C60.7892 140.345 60.6725 137.782 60.9418 135.515L60.9553 135.421L61.0316 135.367C62.3783 134.388 64.6676 132.57 65.0761 130.855L65.2332 130.196L65.4846 130.824C66.0053 132.135 66.4318 133.486 66.7415 134.864V134.891L66.746 134.922C66.6203 137.459 66.6382 140.013 66.7235 142.549L67.6752 142.477L68.6268 142.549C68.6582 141.575 68.6807 140.596 68.6897 139.622V139.29L68.9949 139.429C69.9196 139.856 70.8892 140.152 71.8813 140.255C70.7321 139.806 69.6862 139.093 68.7615 138.271L68.6897 138.208V138.114C68.6807 137.176 68.6672 136.238 68.6223 135.299C68.4832 132.462 68.0298 129.648 67.2846 126.91L67.2308 126.717L67.6034 126.582L67.6842 126.762C69.2732 130.2 71.2169 133.113 74.3187 135.367L74.395 135.421L74.4085 135.515C74.6823 137.782 74.5611 140.34 73.0888 142.19C73.5646 142.172 74.0404 142.154 74.5162 142.14C75.4724 140.839 75.9168 138.953 76.1547 137.396L76.1996 137.104L76.4644 137.234C78.1118 138.051 80.9982 139.582 82.0486 141.234C83.5838 140.825 85.119 140.417 86.6497 140.008C78.6146 137.113 71.5895 132.076 71.0149 122.888L70.979 122.295L71.3875 122.726C73.1292 124.558 75.3018 125.918 77.6046 126.946C75.3063 125.208 73.1157 123.328 71.0822 121.29L71.0284 121.236V121.159C70.8578 119.288 70.8892 117.375 71.2438 115.521L71.3336 115.064L71.6254 115.427C74.1392 118.551 77.856 121.155 81.272 123.202L81.3573 123.251L81.3752 123.35C81.7703 125.684 82.7803 127.74 84.2975 129.549L84.4097 129.684L84.302 129.823C83.301 131.089 81.9902 132.157 80.6077 133.055C82.3314 132.431 84.0012 131.583 85.3703 130.393L85.505 130.276L85.6442 130.389C88.8403 132.952 93.2618 135.861 97.5801 136.072C92.0857 133.845 85.7115 130.281 83.4312 124.625L83.2202 124.1L83.7274 124.351C86.6587 125.805 90.0478 127.161 93.3247 127.516L93.4144 127.525L93.4728 127.597C93.9262 128.189 94.6175 128.759 95.201 129.221C96.2155 130.021 97.2973 130.757 98.3746 131.457C99.7482 132.238 101.086 133.275 101.889 134.662C102.015 134.572 102.141 134.487 102.267 134.397C102.159 134.173 102.056 133.953 101.948 133.728L101.737 133.288L102.204 133.428C102.617 133.553 103.034 133.674 103.447 133.796C103.716 133.616 103.986 133.437 104.26 133.257C101.099 132.875 98.1637 130.514 96.018 128.355L95.6185 127.956L96.1796 127.987C101.526 128.297 106.886 128.463 112.245 128.422C112.573 128.167 112.905 127.915 113.237 127.664C106.908 127.354 100.368 126.658 94.2314 125.078L93.6254 124.921L94.2 124.67C96.1167 123.839 98.3432 123.79 100.493 124.086C97.9123 123.467 95.2818 123.557 92.7097 124.701L92.6334 124.733L92.5571 124.706C82.1922 121.424 73.403 115.369 71.8409 103.963L71.7601 103.379L72.2 103.774C72.9855 104.483 73.9327 105.13 74.817 105.713C76.24 106.651 77.7123 107.527 79.1892 108.38L79.2789 108.429L79.2969 108.528C79.647 110.642 80.7603 113.021 81.7388 114.911L81.8107 115.05L81.6984 115.162C81.3887 115.472 81.079 115.782 80.7648 116.096C81.3438 115.93 81.9229 115.768 82.4975 115.602L82.6321 115.562L82.7219 115.67C85.1908 118.646 88.2971 121.155 92.1306 121.815C86.9864 119.31 82.3224 115.562 80.8276 109.776L80.6929 109.25L81.1508 109.538C85.6172 112.352 91.6503 115.643 96.9921 116.168L97.1133 116.181L97.1671 116.289C100.624 123.305 110.405 124.436 117.313 124.495C117.439 124.378 117.565 124.266 117.695 124.149C113.879 123.723 109.767 123.045 106.176 121.73L105.62 121.528L106.176 121.326C108.452 120.504 111.199 120.549 113.727 120.895C110.818 120.028 107.779 119.889 104.888 121.137L104.803 121.173L104.717 121.133C102.724 120.244 100.624 118.915 99.6046 116.913L99.4475 116.599H99.7976C108.537 116.572 117.277 116.599 126.017 116.671C126.179 116.446 126.345 116.226 126.506 116.002C111.958 115.548 87.7988 113.6 77.0031 102.71L76.644 102.347H77.1557C78.1073 102.333 79.059 102.324 80.0106 102.311H80.078L80.1363 102.351C88.333 108.034 99.2545 113.551 109.485 110.664L109.583 110.638L109.669 110.696C112.968 113.03 117.69 115.535 121.38 112.994C117.816 113.959 114.427 113.519 111.985 110.355L111.796 110.112L112.088 110.018C118.04 108.137 123.993 107.944 129.9 109.677C124.455 106.535 117.206 107.168 111.33 108.407C105.359 109.663 99.4295 109.143 93.7601 106.916L93.2663 106.723L93.7556 106.517C96.3861 105.412 98.9223 105.682 101.625 106.288C103.595 106.732 106.176 107.554 108.178 107.096C109.395 106.817 110.302 106.117 111.029 105.188C109.538 106.005 107.985 106.328 106.208 106.135C103.838 105.875 101.602 104.802 99.2724 104.304C96.3591 103.684 93.9755 104.151 91.4752 105.803L91.372 105.87L91.2598 105.816C89.4283 104.923 87.6821 103.873 86.0123 102.701C85.7833 102.562 85.5634 102.409 85.3569 102.239C84.9484 101.907 84.5893 101.521 84.2885 101.09H51.4164C50.9496 101.539 50.4513 101.956 49.9306 102.342C49.7196 102.499 49.5042 102.652 49.2842 102.795C47.6592 103.927 45.9535 104.946 44.1714 105.816L44.0592 105.87L43.9559 105.803C41.4601 104.151 39.0765 103.689 36.1587 104.304C33.829 104.797 31.5935 105.875 29.2234 106.135C27.4458 106.328 25.8927 106.005 24.4023 105.188C25.1295 106.113 26.0408 106.817 27.2528 107.096C29.2548 107.554 31.8314 106.728 33.8066 106.288C36.5089 105.682 39.0451 105.412 41.6756 106.517L42.1649 106.723L41.6711 106.916C36.0016 109.143 30.0718 109.663 24.1016 108.407C18.2211 107.168 10.9716 106.535 5.53108 109.677L5.46375 109.672Z" fill="#102542"/>
<path d="M139.394 68.5318H99.9054C99.7976 68.7787 99.6675 69.0166 99.5148 69.241H139.394V68.5318Z" fill="#F87060"/>
<path d="M75.1761 68.5318C79.1847 63.787 83.2651 61.1386 87.4128 60.5909C93.0239 60.7525 98.3702 60.784 103.465 60.6897C108.605 62.593 112.519 63.4818 115.203 63.3336C118.462 63.1496 120.877 60.5146 124.715 61.4304L124.886 60.7032L124.864 60.6897C121.403 60.169 120.236 61.17 117.282 61.5964C113.942 62.0768 110.324 61.1431 106.428 58.7909C108.448 58.4901 111.352 56.0257 115.136 51.3977C118.611 47.2949 122.049 45.3646 125.447 45.6115H125.456V44.6285C121.479 44.404 117.942 45.8674 114.844 49.0186C111.608 52.7623 108.367 55.4063 105.117 56.946C103.272 58.0368 97.2479 58.158 87.0492 57.3096C88.7684 56.313 89.8547 55.1684 90.3081 53.8801C90.6852 51.7748 93.8274 49.4585 99.7438 46.9268C102.02 46.1771 104.058 45.1312 105.849 43.8025C108.362 41.9351 108.847 39.3136 112.295 37.9804C112.335 37.967 112.375 37.949 112.407 37.9221L112.164 37.2443C112.164 37.2443 112.12 37.2443 112.102 37.2532C108.856 38.1555 107.949 40.3999 105.445 42.3526C100.929 45.8719 96.1123 44.826 90.9455 48.5338C88.2298 42.1416 91.8927 36.1624 101.939 30.5872L101.207 29.3708C90.7705 34.0796 86.2457 40.0453 87.6372 47.2679C88.1535 49.9702 87.9111 51.9947 86.9055 53.3504C79.5483 57.148 74.2334 61.8164 70.9521 67.3557C70.5974 65.9641 70.1171 64.613 69.5156 63.3112C69.3765 63.006 69.2283 62.7097 69.0757 62.4134C68.7301 61.5875 68.5191 60.7076 68.4473 59.8099C68.2183 55.8776 69.3899 52.7982 71.9486 50.5718C75.634 46.5138 77.5642 43.5646 77.7348 41.7197C78.9333 40.0633 80.4595 38.8019 82.3044 37.9266C86.3983 36.2836 88.8492 34.2457 89.6483 31.8172C90.977 27.7862 91.1565 21.3716 95.7756 19.0284L95.3671 18.3236C95.3222 18.3326 95.2818 18.3505 95.2414 18.373C89.2083 21.8788 90.2139 25.5956 88.3016 30.6636C87.4307 32.9753 84.3604 35.0223 79.0949 36.8043C78.426 30.3179 78.9737 25.425 80.7423 22.1302L79.8715 21.605C78.628 23.028 76.2085 35.3095 75.8853 37.0961C75.1581 40.4448 73.0663 43.3132 69.6099 45.7058C66.7729 48.3812 64.8966 50.9937 63.9674 53.5344C61.5389 46.4824 61.9249 38.766 65.0357 31.9878C67.1904 26.9827 70.4448 22.5297 74.5611 18.961L73.9147 18.3595C73.9147 18.3595 73.8968 18.3685 73.8878 18.373C69.5874 22.1706 66.1893 26.2151 63.698 30.5064C62.3603 26.9916 61.063 24.3342 59.8062 22.5297C58.8186 20.9541 58.8994 16.8378 60.0486 10.1763L59.2585 10.0192C59.2406 10.0506 59.2316 10.0865 59.2226 10.1269C57.3597 17.0533 57.2475 21.9147 58.8815 24.7203C61.4581 28.3114 62.073 32.7688 60.7309 38.0927C59.2271 43.421 58.9982 49.0321 60.0755 54.4636C60.3942 55.3345 60.6142 56.4971 60.7398 57.956C60.2865 57.8033 59.887 57.6642 59.5279 57.5295C51.6858 54.5938 47.8837 48.3946 48.1306 38.9186C48.5435 37.0467 49.6433 35.0043 51.4389 32.7913C52.6868 30.8072 53.203 28.28 52.9965 25.2051C52.7451 20.2808 53.6205 17.2014 55.6225 15.9625C55.6315 15.9535 55.645 15.9445 55.6539 15.9355L55.2589 15.1455C55.2589 15.1455 55.223 15.1679 55.2051 15.1814C52.3007 17.4617 51.2548 20.6982 51.7307 25.5911C51.7217 28.3608 50.0698 31.7364 46.7704 35.7091C45.5495 33.523 44.0457 31.512 42.295 29.7254C42.0481 27.7233 42.0167 25.7033 42.1963 23.6923C42.1873 21.3581 41.7743 19.5132 40.9573 18.1665C39.8531 16.344 38.1428 14.4228 39.4042 12.093L39.0047 11.8866C37.4201 15.0378 39.0675 16.5999 40.0012 19.19C40.7823 21.3446 40.9304 24.5991 40.4456 28.9488C32.7965 28.4416 28.6174 26.7448 27.9082 23.8629L27.172 24.1188C28.2852 27.8356 32.2534 29.9094 39.0855 30.3314C43.0851 32.6028 45.1769 37.2083 45.3609 44.1437C43.0177 41.3112 40.2301 39.8119 36.9981 39.6413C31.7372 39.3675 29.1067 36.4497 26.8802 31.7409C26.8757 31.7319 26.8667 31.7184 26.8622 31.7095L25.9734 32.0865C25.9824 32.118 25.9914 32.1494 26.0049 32.1763C29.6857 40.0678 31.0773 39.4303 37.9363 41.4279C41.3928 42.4379 43.709 44.6868 44.8761 48.1792C45.4776 49.7189 46.2228 51.1149 47.0847 52.4122C46.4068 52.6591 45.7245 52.8745 45.0288 53.0676C44.9749 53.081 44.9255 53.0945 44.8716 53.108C44.5395 53.1977 44.2073 53.2785 43.8706 53.3549C39.7723 54.2661 37.3079 53.5569 36.4729 51.2181C32.5856 44.7766 25.7176 40.6244 15.8824 38.7705L15.5503 39.6458H15.5547C25.2597 42.3077 31.1491 46.7023 33.2095 52.8252C28.5366 53.4222 28.0069 55.4467 21.2915 54.3918C18.3648 53.9339 16.3583 54.2706 15.3258 54.9035L15.4739 55.4332C18.872 54.8856 20.4297 56.1739 23.6033 56.4612C26.1934 56.6991 28.1954 56.6497 29.5735 56.2547C31.8449 55.6038 35.1397 53.3234 36.8096 56.717C32.4554 59.756 29.1201 61.785 26.7949 62.8084C23.0108 64.4693 14.7198 63.1137 13.4135 67.6609H14.2664C16.2236 64.5905 20.9773 65.5063 24.1285 64.9362C29.5331 63.9576 36.7737 60.2767 39.8755 57.5924C44.122 57.4308 47.0173 57.5789 48.566 58.0323C48.7994 58.1131 49.0463 58.2118 49.3067 58.3285C49.3605 58.36 49.4099 58.3914 49.4593 58.4228L49.4279 58.3824C51.3671 59.2577 54.0694 61.0129 57.5393 63.6479C57.9163 64.016 58.2844 64.3661 58.6435 64.6983C59.3483 65.3536 60.0171 65.9417 60.6456 66.4669C60.5962 67.1312 60.5423 67.818 60.4795 68.5318H0.193787V69.241H93.2887C93.2169 69.0166 93.181 68.7787 93.1675 68.5318H75.1806H75.1761Z" fill="#F87060"/>
<path opacity="0.54" fill-rule="evenodd" clip-rule="evenodd" d="M120.455 62.2025C121.941 62.0005 123.445 62.4538 124.572 63.4414C125.698 64.4289 126.34 65.8609 126.331 67.3602C122.206 67.8001 120.164 66.2604 120.204 62.7411C122.282 64.5726 123.324 65.4883 123.324 65.4883C121.412 63.2977 120.455 62.198 120.455 62.198V62.2025Z" fill="#F87060"/>
<path opacity="0.54" fill-rule="evenodd" clip-rule="evenodd" d="M125.636 61.1835C127.112 59.8593 129.092 59.2398 131.063 59.4867C133.033 59.7336 134.797 60.8244 135.902 62.4718C131.714 66.018 128.333 65.8474 125.766 61.9645C129.402 62.4269 131.22 62.6558 131.22 62.6558C127.498 61.6773 125.636 61.1835 125.636 61.1835Z" fill="#F87060"/>
<path opacity="0.54" fill-rule="evenodd" clip-rule="evenodd" d="M126.888 57.6462C127.494 56.5195 128.558 55.7115 129.806 55.4332C131.054 55.1504 132.36 55.4287 133.388 56.1874C131.624 59.2533 129.541 59.8862 127.13 58.0951C129.438 57.5789 130.587 57.323 130.587 57.323C128.118 57.543 126.884 57.6507 126.884 57.6507L126.888 57.6462Z" fill="#F87060"/>
<path opacity="0.54" fill-rule="evenodd" clip-rule="evenodd" d="M121.91 59.0557C122.053 58.1221 122.592 57.3006 123.391 56.7978C124.19 56.2951 125.164 56.1649 126.067 56.4342C125.6 58.9974 124.307 59.9535 122.193 59.3026C123.665 58.3779 124.401 57.9111 124.401 57.9111C122.74 58.6742 121.91 59.0513 121.91 59.0513V59.0557Z" fill="#F87060"/>
<path opacity="0.54" fill-rule="evenodd" clip-rule="evenodd" d="M112.721 59.5001C112.999 57.6911 114.045 56.0976 115.589 55.119C117.134 54.1449 119.028 53.889 120.779 54.4187C119.872 59.3924 117.367 61.2463 113.264 59.9804C116.124 58.1849 117.551 57.2826 117.551 57.2826C114.328 58.7595 112.717 59.5001 112.717 59.5001H112.721Z" fill="#F87060"/>
<path opacity="0.54" fill-rule="evenodd" clip-rule="evenodd" d="M116.523 50.3922C117.43 49.6919 118.597 49.4226 119.715 49.6515C120.837 49.8805 121.807 50.5807 122.368 51.5773C119.805 53.4357 117.87 53.1933 116.559 50.8456C118.633 51.2675 119.665 51.4785 119.665 51.4785C117.569 50.7558 116.519 50.3922 116.519 50.3922H116.523Z" fill="#F87060"/>
<path opacity="0.54" fill-rule="evenodd" clip-rule="evenodd" d="M123.203 51.9139C124.235 51.1194 125.564 50.8097 126.843 51.07C128.122 51.3304 129.227 52.1294 129.869 53.2651C126.951 55.3838 124.742 55.1055 123.248 52.4302C125.609 52.9105 126.789 53.1529 126.789 53.1529C124.397 52.3269 123.203 51.9139 123.203 51.9139Z" fill="#F87060"/>
<path opacity="0.54" fill-rule="evenodd" clip-rule="evenodd" d="M130.69 52.3314C131.723 51.5369 133.051 51.2271 134.331 51.4875C135.61 51.7479 136.714 52.5469 137.356 53.6826C134.438 55.8013 132.23 55.523 130.735 52.8521C133.096 53.3324 134.277 53.5748 134.277 53.5748C131.884 52.7489 130.69 52.3359 130.69 52.3359V52.3314Z" fill="#F87060"/>
<path opacity="0.54" fill-rule="evenodd" clip-rule="evenodd" d="M128.791 48.2645C129.545 47.6854 130.511 47.461 131.444 47.6495C132.378 47.838 133.177 48.4216 133.648 49.2475C131.521 50.7917 129.914 50.5897 128.827 48.6415C130.546 48.9917 131.408 49.1667 131.408 49.1667C129.667 48.5652 128.796 48.2645 128.796 48.2645H128.791Z" fill="#F87060"/>
<path opacity="0.54" fill-rule="evenodd" clip-rule="evenodd" d="M120.684 48.2779C121.416 47.7123 122.354 47.4969 123.261 47.6809C124.168 47.865 124.949 48.4306 125.402 49.2341C123.337 50.7334 121.771 50.5359 120.716 48.646C122.386 48.9872 123.225 49.1578 123.225 49.1578C121.533 48.5742 120.684 48.2824 120.684 48.2824V48.2779Z" fill="#F87060"/>
<path opacity="0.54" fill-rule="evenodd" clip-rule="evenodd" d="M125.99 44.7766C126.897 43.798 128.185 43.2593 129.523 43.3042C130.856 43.3491 132.109 43.9686 132.948 45.0055C130.362 47.6405 128.087 47.7348 126.125 45.2883C128.589 45.3736 129.824 45.414 129.824 45.414C127.27 44.9876 125.995 44.7721 125.995 44.7721L125.99 44.7766Z" fill="#F87060"/>
<path opacity="0.54" fill-rule="evenodd" clip-rule="evenodd" d="M123.432 43.6095C123.001 42.0698 123.257 40.4224 124.136 39.0892C125.016 37.756 126.43 36.8672 128.01 36.6607C129.083 40.9431 127.759 43.3222 124.038 43.798C125.663 41.3381 126.475 40.1037 126.475 40.1037C124.446 42.4424 123.427 43.6095 123.427 43.6095H123.432Z" fill="#F87060"/>
<path opacity="0.54" fill-rule="evenodd" clip-rule="evenodd" d="M118.898 45.0549C118.229 44.009 118.045 42.7207 118.4 41.5312C118.75 40.3371 119.603 39.3585 120.734 38.8468C122.498 41.7915 122.053 43.8654 119.392 45.0594C120.047 42.8599 120.375 41.7601 120.375 41.7601C119.392 43.9596 118.898 45.0594 118.898 45.0594V45.0549Z" fill="#F87060"/>
<path opacity="0.54" fill-rule="evenodd" clip-rule="evenodd" d="M112.097 48.0311C112.102 46.7876 112.645 45.6115 113.587 44.7991C114.53 43.9866 115.778 43.6275 117.008 43.807C116.896 47.241 115.396 48.7358 112.515 48.3004C114.256 46.8056 115.127 46.0559 115.127 46.0559C113.107 47.3712 112.097 48.0311 112.097 48.0311Z" fill="#F87060"/>
<path opacity="0.54" fill-rule="evenodd" clip-rule="evenodd" d="M104.093 56.6946C103.447 55.6352 103.29 54.3469 103.667 53.1618C104.044 51.9768 104.915 51.0162 106.055 50.5224C107.761 53.503 107.276 55.5634 104.592 56.7081C105.288 54.522 105.638 53.4267 105.638 53.4267C104.61 55.6083 104.098 56.6946 104.098 56.6946H104.093Z" fill="#F87060"/>
<path opacity="0.54" fill-rule="evenodd" clip-rule="evenodd" d="M109.785 52.6366C109.265 51.8556 109.107 50.886 109.359 49.9837C109.606 49.077 110.239 48.3273 111.083 47.9233C112.461 50.1229 112.151 51.694 110.158 52.6366C110.62 50.9668 110.849 50.1273 110.849 50.1273C110.14 51.8017 109.781 52.6411 109.781 52.6411L109.785 52.6366Z" fill="#F87060"/>
<path opacity="0.54" fill-rule="evenodd" clip-rule="evenodd" d="M92.0139 54.8317C92.4852 53.0945 93.6882 51.6491 95.3042 50.868C96.9247 50.087 98.8055 50.0466 100.457 50.7603C99.0165 55.5185 96.3636 57.0537 92.4942 55.3659C95.4883 53.9249 96.9875 53.2067 96.9875 53.2067C93.6747 54.293 92.0139 54.8362 92.0139 54.8362V54.8317Z" fill="#F87060"/>
<path opacity="0.54" fill-rule="evenodd" clip-rule="evenodd" d="M104.134 45.8315C104.753 44.7497 105.808 43.9911 107.029 43.7487C108.25 43.5063 109.516 43.807 110.499 44.5701C108.708 47.5104 106.661 48.0759 104.363 46.2714C106.621 45.827 107.747 45.6026 107.747 45.6026C105.337 45.7552 104.134 45.8315 104.134 45.8315Z" fill="#F87060"/>
<path opacity="0.54" fill-rule="evenodd" clip-rule="evenodd" d="M110.1 40.171C110.917 39.7042 111.891 39.6189 112.779 39.9286C113.664 40.2384 114.373 40.9207 114.719 41.7915C112.429 43.0125 110.881 42.595 110.082 40.5436C111.716 41.1182 112.537 41.41 112.537 41.41C110.917 40.584 110.104 40.171 110.104 40.171H110.1Z" fill="#F87060"/>
<path opacity="0.54" fill-rule="evenodd" clip-rule="evenodd" d="M100.435 47.6719C101.167 47.3353 102.006 47.3353 102.738 47.6674C103.47 47.9996 104.022 48.6326 104.251 49.4002C102.204 50.2665 100.92 49.7997 100.39 47.9862C101.741 48.6011 102.415 48.9064 102.415 48.9064C101.095 48.0804 100.431 47.6674 100.431 47.6674L100.435 47.6719Z" fill="#F87060"/>
<path opacity="0.54" fill-rule="evenodd" clip-rule="evenodd" d="M113.309 37.8413C113.893 36.746 114.925 35.956 116.137 35.6777C117.349 35.3993 118.619 35.6642 119.625 36.3959C117.924 39.381 115.899 40.0049 113.551 38.2722C115.791 37.765 116.909 37.5091 116.909 37.5091C114.512 37.7291 113.309 37.8413 113.309 37.8413Z" fill="#F87060"/>
<path opacity="0.54" fill-rule="evenodd" clip-rule="evenodd" d="M118.88 34.6093C119.701 33.0696 121.147 31.9653 122.844 31.5748C124.545 31.1843 126.327 31.5524 127.736 32.5803C125.348 36.7685 122.511 37.6438 119.217 35.2153C122.359 34.5016 123.925 34.1425 123.925 34.1425C120.559 34.4522 118.875 34.6093 118.875 34.6093H118.88Z" fill="#F87060"/>
<path opacity="0.54" fill-rule="evenodd" clip-rule="evenodd" d="M119.849 30.6411C119.975 29.7119 120.496 28.877 121.281 28.3653C122.067 27.849 123.037 27.6964 123.939 27.9523C123.521 30.5154 122.255 31.4895 120.137 30.8835C121.587 29.9319 122.314 29.4561 122.314 29.4561C120.675 30.2461 119.854 30.6411 119.854 30.6411H119.849Z" fill="#F87060"/>
<path opacity="0.54" fill-rule="evenodd" clip-rule="evenodd" d="M113.762 35.112C113.668 33.8731 114.117 32.6566 114.992 31.7723C115.868 30.888 117.08 30.4301 118.323 30.5154C118.48 33.9494 117.107 35.5564 114.198 35.3455C115.818 33.716 116.626 32.9035 116.626 32.9035C114.719 34.3759 113.762 35.1076 113.762 35.1076V35.112Z" fill="#F87060"/>
<path opacity="0.54" fill-rule="evenodd" clip-rule="evenodd" d="M110.373 37.4598C109.238 36.3779 108.623 34.8517 108.699 33.2806C108.771 31.7095 109.525 30.2506 110.759 29.2765C113.816 32.3649 113.893 35.0402 110.984 37.3116C111.123 34.4118 111.195 32.9619 111.195 32.9619C110.652 35.9605 110.378 37.4598 110.378 37.4598H110.373Z" fill="#F87060"/>
<path opacity="0.54" fill-rule="evenodd" clip-rule="evenodd" d="M105.79 40.5077C105.045 39.5156 104.767 38.2453 105.032 37.0288C105.292 35.8123 106.069 34.7754 107.159 34.1739C109.139 36.9794 108.847 39.0802 106.284 40.4673C106.773 38.2228 107.016 37.1006 107.016 37.1006C106.199 39.3675 105.79 40.4987 105.79 40.4987V40.5077Z" fill="#F87060"/>
<path opacity="0.54" fill-rule="evenodd" clip-rule="evenodd" d="M100.857 43.7711C100.112 42.7791 99.8335 41.5087 100.098 40.2922C100.359 39.0757 101.135 38.0388 102.226 37.4373C104.206 40.2428 103.914 42.3436 101.351 43.7307C101.84 41.4863 102.082 40.364 102.082 40.364C101.265 42.6309 100.857 43.7666 100.857 43.7666V43.7711Z" fill="#F87060"/>
<path opacity="0.54" fill-rule="evenodd" clip-rule="evenodd" d="M91.4124 45.5397C91.6548 44.3232 92.4134 43.2683 93.4952 42.6534C94.577 42.0384 95.8698 41.9217 97.0414 42.3347C96.2738 45.6834 94.5187 46.8639 91.7715 45.8854C93.769 44.7497 94.7655 44.1841 94.7655 44.1841C92.5346 45.0908 91.4168 45.5397 91.4168 45.5397H91.4124Z" fill="#F87060"/>
<path opacity="0.54" fill-rule="evenodd" clip-rule="evenodd" d="M93.2573 38.6583C93.7017 37.7246 94.5276 37.0333 95.5197 36.755C96.5162 36.4811 97.5801 36.6472 98.4374 37.2173C97.1357 39.758 95.4838 40.3551 93.4682 39.0039C95.3087 38.4967 96.2244 38.2453 96.2244 38.2453C94.2403 38.5191 93.2483 38.6583 93.2483 38.6583H93.2573Z" fill="#F87060"/>
<path opacity="0.54" fill-rule="evenodd" clip-rule="evenodd" d="M98.2983 33.8327C99.2769 32.697 100.704 32.0372 102.208 32.0327C103.712 32.0282 105.139 32.6746 106.127 33.8058C103.326 36.8717 100.776 37.0692 98.4689 34.4028C101.243 34.3983 102.63 34.3938 102.63 34.3938C99.7438 34.0168 98.2983 33.8282 98.2983 33.8282V33.8327Z" fill="#F87060"/>
<path opacity="0.54" fill-rule="evenodd" clip-rule="evenodd" d="M116.079 28.8276C115.984 27.5887 116.433 26.3677 117.309 25.4879C118.184 24.6081 119.401 24.1457 120.639 24.231C120.797 27.665 119.423 29.272 116.514 29.061C118.135 27.4316 118.943 26.6191 118.943 26.6191C117.035 28.0914 116.079 28.8231 116.079 28.8231V28.8276Z" fill="#F87060"/>
<path opacity="0.54" fill-rule="evenodd" clip-rule="evenodd" d="M113.763 30.0396C113.062 29.5458 112.613 28.7737 112.528 27.9209C112.443 27.068 112.73 26.2241 113.318 25.6001C115.212 27.0186 115.468 28.455 114.081 29.9094C113.924 28.3383 113.848 27.5483 113.848 27.5483C113.794 29.2047 113.767 30.0351 113.767 30.0351L113.763 30.0396Z" fill="#F87060"/>
<path opacity="0.54" fill-rule="evenodd" clip-rule="evenodd" d="M102.599 29.8376C102.854 28.2889 103.775 26.9243 105.117 26.1073C106.455 25.2859 108.089 25.0884 109.583 25.5642C108.744 29.8286 106.571 31.3908 103.061 30.2596C105.539 28.7468 106.778 27.9882 106.778 27.9882C103.99 29.2226 102.599 29.8376 102.599 29.8376Z" fill="#F87060"/>
<path opacity="0.54" fill-rule="evenodd" clip-rule="evenodd" d="M110.387 24.1322C110.643 22.5836 111.563 21.219 112.905 20.402C114.243 19.5805 115.877 19.383 117.372 19.8588C116.532 24.1233 114.36 25.6854 110.849 24.5542C113.327 23.0414 114.566 22.2828 114.566 22.2828C111.778 23.5173 110.387 24.1322 110.387 24.1322Z" fill="#F87060"/>
<path opacity="0.54" fill-rule="evenodd" clip-rule="evenodd" d="M110.14 21.1202C109.44 20.6264 108.991 19.8543 108.906 19.0014C108.82 18.1485 109.108 17.3046 109.696 16.6807C111.59 18.0992 111.846 19.5356 110.459 20.99C110.302 19.4189 110.225 18.6289 110.225 18.6289C110.171 20.2853 110.144 21.1157 110.144 21.1157L110.14 21.1202Z" fill="#F87060"/>
<path opacity="0.54" fill-rule="evenodd" clip-rule="evenodd" d="M90.5325 31.4177C91.0398 30.3898 91.9645 29.6266 93.0732 29.3349C94.182 29.0431 95.3626 29.2451 96.3142 29.8915C94.8374 32.697 92.988 33.339 90.7704 31.8127C92.8219 31.2741 93.8453 31.0047 93.8453 31.0047C91.6368 31.283 90.5325 31.4222 90.5325 31.4222V31.4177Z" fill="#F87060"/>
<path opacity="0.54" fill-rule="evenodd" clip-rule="evenodd" d="M92.4987 26.8839C93.2752 25.2993 94.7027 24.1322 96.4085 23.6789C98.1143 23.2255 99.9322 23.5397 101.391 24.5317C99.1198 28.8501 96.2738 29.8331 92.8623 27.4854C96.0135 26.655 97.5935 26.242 97.5935 26.242C94.1999 26.6729 92.5032 26.8839 92.5032 26.8839H92.4987Z" fill="#F87060"/>
<path opacity="0.54" fill-rule="evenodd" clip-rule="evenodd" d="M103.555 23.8135C103.82 23.001 104.426 22.3412 105.216 22.009C106.006 21.6768 106.899 21.7037 107.667 22.0808C106.868 24.3073 105.57 24.9716 103.77 24.0739C105.229 23.4634 105.956 23.1536 105.956 23.1536C104.354 23.5891 103.555 23.809 103.555 23.809V23.8135Z" fill="#F87060"/>
<path opacity="0.54" fill-rule="evenodd" clip-rule="evenodd" d="M94.9047 22.0494C95.1695 21.2369 95.7755 20.577 96.5655 20.2449C97.3556 19.9127 98.2489 19.9396 99.0165 20.3167C98.2175 22.5432 96.9202 23.2075 95.1201 22.3098C96.579 21.6993 97.3062 21.3895 97.3062 21.3895C95.7037 21.825 94.9047 22.0449 94.9047 22.0449V22.0494Z" fill="#F87060"/>
<path opacity="0.54" fill-rule="evenodd" clip-rule="evenodd" d="M102.94 20.3122C102.37 18.8488 102.464 17.2059 103.196 15.8188C103.927 14.4273 105.229 13.4262 106.76 13.0671C108.219 17.161 107.146 19.6164 103.55 20.4334C104.906 17.8658 105.588 16.5864 105.588 16.5864C103.824 19.0688 102.94 20.3122 102.94 20.3122Z" fill="#F87060"/>
<path opacity="0.54" fill-rule="evenodd" clip-rule="evenodd" d="M96.3546 17.6189C96.7496 16.4158 97.6429 15.4418 98.81 14.9525C99.9771 14.4632 101.297 14.4991 102.433 15.0602C101.252 18.3506 99.3307 19.3336 96.6733 18.0094C98.8279 17.1071 99.9053 16.6538 99.9053 16.6538C97.5396 17.3002 96.3546 17.6189 96.3546 17.6189Z" fill="#F87060"/>
<path opacity="0.54" fill-rule="evenodd" clip-rule="evenodd" d="M100.175 13.6372C100.161 12.6721 100.565 11.7519 101.288 11.11C102.006 10.4681 102.967 10.1718 103.923 10.293C103.882 12.9549 102.742 14.1355 100.498 13.8347C101.827 12.6542 102.495 12.0616 102.495 12.0616C100.947 13.1075 100.175 13.6327 100.175 13.6327V13.6372Z" fill="#F87060"/>
<path opacity="0.54" fill-rule="evenodd" clip-rule="evenodd" d="M96.9247 14.9839C95.9731 14.1086 95.4523 12.8651 95.4883 11.5723C95.5287 10.2795 96.1212 9.07204 97.1222 8.25506C99.6764 10.7464 99.7751 12.9459 97.4185 14.8537C97.4948 12.4701 97.5307 11.2761 97.5307 11.2761C97.1267 13.745 96.9202 14.9839 96.9202 14.9839H96.9247Z" fill="#F87060"/>
<path opacity="0.54" fill-rule="evenodd" clip-rule="evenodd" d="M92.2743 19.6209C91.2284 18.6603 90.6538 17.2912 90.6942 15.8682C90.7346 14.4497 91.3945 13.1165 92.4942 12.2188C95.3043 14.9615 95.412 17.381 92.8219 19.4773C92.9027 16.8558 92.9431 15.5405 92.9431 15.5405C92.4987 18.2608 92.2743 19.6164 92.2743 19.6164V19.6209Z" fill="#F87060"/>
<path opacity="0.54" fill-rule="evenodd" clip-rule="evenodd" d="M88.3554 24.4195C87.4172 23.5532 86.901 22.3232 86.9369 21.0484C86.9728 19.7735 87.5654 18.575 88.5529 17.767C91.0802 20.2314 91.1789 22.404 88.8447 24.2893C88.9165 21.9327 88.9524 20.7521 88.9524 20.7521C88.5529 23.1941 88.3509 24.415 88.3509 24.415L88.3554 24.4195Z" fill="#F87060"/>
<path opacity="0.54" fill-rule="evenodd" clip-rule="evenodd" d="M79.4405 31.3728C79.9881 29.676 81.2405 28.2979 82.879 27.5976C84.5174 26.8974 86.3803 26.9423 87.9828 27.7233C86.3399 32.3693 83.6421 33.7699 79.8894 31.9204C82.9194 30.6321 84.4366 29.9857 84.4366 29.9857C81.1059 30.9104 79.4405 31.3728 79.4405 31.3728Z" fill="#F87060"/>
<path opacity="0.54" fill-rule="evenodd" clip-rule="evenodd" d="M80.6525 25.8515C80.6704 24.7023 81.1866 23.6205 82.071 22.8843C82.9508 22.1482 84.1089 21.8294 85.2401 22.009C85.092 25.1782 83.6914 26.5428 81.034 26.1029C82.659 24.7427 83.476 24.0649 83.476 24.0649C81.5951 25.2545 80.657 25.8515 80.657 25.8515H80.6525Z" fill="#F87060"/>
<path opacity="0.54" fill-rule="evenodd" clip-rule="evenodd" d="M80.4101 21.2145C80.437 19.6927 81.1193 18.2563 82.2864 17.2822C83.4536 16.3036 84.9843 15.8817 86.488 16.1241C86.295 20.3257 84.4366 22.1347 80.9128 21.5511C83.072 19.7511 84.1493 18.8488 84.1493 18.8488C81.658 20.4289 80.4101 21.2145 80.4101 21.2145Z" fill="#F87060"/>
<path opacity="0.54" fill-rule="evenodd" clip-rule="evenodd" d="M87.5204 15.5136C86.9234 14.535 86.7753 13.3455 87.1254 12.2502C87.471 11.1549 88.279 10.2661 89.3294 9.81271C90.905 12.5644 90.4561 14.4677 87.9783 15.5226C88.6202 13.5026 88.9434 12.4926 88.9434 12.4926C87.9962 14.5036 87.5204 15.5136 87.5204 15.5136Z" fill="#F87060"/>
<path opacity="0.54" fill-rule="evenodd" clip-rule="evenodd" d="M90.564 11.101C90.5505 10.1359 90.959 9.21566 91.6772 8.57375C92.3954 7.93184 93.3561 7.63557 94.3122 7.76126C94.2718 10.4232 93.1316 11.6037 90.8872 11.303C92.2159 10.1179 92.8847 9.52988 92.8847 9.52988C91.3361 10.5758 90.564 11.101 90.564 11.101Z" fill="#F87060"/>
<path opacity="0.54" fill-rule="evenodd" clip-rule="evenodd" d="M83.8306 10.513C83.8082 8.96878 84.4591 7.49193 85.6127 6.45949C86.7664 5.43154 88.3105 4.95571 89.8413 5.15323C89.7739 9.42664 87.9469 11.321 84.3514 10.8362C86.4836 8.93735 87.5519 7.9902 87.5519 7.9902C85.0696 9.66904 83.8306 10.5085 83.8306 10.5085V10.513Z" fill="#F87060"/>
<path opacity="0.54" fill-rule="evenodd" clip-rule="evenodd" d="M81.4381 14.9165C81.4246 13.9514 81.8286 13.0312 82.5513 12.3893C83.2695 11.7474 84.2346 11.4511 85.1863 11.5723C85.1459 14.2342 84.0057 15.4148 81.7613 15.1141C83.09 13.9335 83.7588 13.3409 83.7588 13.3409C82.2102 14.3869 81.4381 14.9121 81.4381 14.9121V14.9165Z" fill="#F87060"/>
<path opacity="0.54" fill-rule="evenodd" clip-rule="evenodd" d="M74.1032 17.3091C74.0808 15.6258 74.79 14.0188 76.0469 12.8966C77.3038 11.7743 78.9827 11.2581 80.6525 11.4736C80.5807 16.1286 78.5876 18.1889 74.6733 17.6637C76.9986 15.5989 78.1567 14.5664 78.1567 14.5664C75.4544 16.3934 74.1032 17.3091 74.1032 17.3091Z" fill="#F87060"/>
<path opacity="0.54" fill-rule="evenodd" clip-rule="evenodd" d="M72.7251 22.5701C73.0887 21.2908 73.9864 20.2314 75.194 19.6658C76.397 19.1002 77.7885 19.0867 79.005 19.6254C77.9008 23.1357 75.9256 24.2489 73.0752 22.9696C75.3017 21.9282 76.4149 21.4075 76.4149 21.4075C73.955 22.1841 72.7206 22.5746 72.7206 22.5746L72.7251 22.5701Z" fill="#F87060"/>
<path opacity="0.54" fill-rule="evenodd" clip-rule="evenodd" d="M72.1371 16.9815C71.3919 16.371 70.9476 15.4687 70.9206 14.5036C70.8937 13.5385 71.2842 12.6138 71.9935 11.9629C74.0045 13.7091 74.1751 15.343 72.5007 16.8647C72.4513 15.0871 72.4289 14.1939 72.4289 14.1939C72.2314 16.0523 72.1371 16.9815 72.1371 16.9815Z" fill="#F87060"/>
<path opacity="0.54" fill-rule="evenodd" clip-rule="evenodd" d="M76.4554 29.4202C75.5352 29.0566 74.8214 28.3114 74.4937 27.3822C74.166 26.4485 74.2603 25.4206 74.7496 24.5632C77.2589 25.6405 77.9322 27.1847 76.7741 29.1912C76.1726 27.4675 75.8718 26.6101 75.8718 26.6101C76.2624 28.4865 76.4554 29.4246 76.4554 29.4246V29.4202Z" fill="#F87060"/>
<path opacity="0.54" fill-rule="evenodd" clip-rule="evenodd" d="M74.5342 35.534C73.3446 35.0627 72.4199 34.1021 71.9979 32.8945C71.5715 31.687 71.6927 30.3583 72.3301 29.2496C75.5801 30.6456 76.4509 32.6387 74.9516 35.2377C74.1706 33.0068 73.78 31.8935 73.78 31.8935C74.2828 34.322 74.5387 35.534 74.5387 35.534H74.5342Z" fill="#F87060"/>
<path opacity="0.54" fill-rule="evenodd" clip-rule="evenodd" d="M72.8328 41.5536C71.9126 41.19 71.1989 40.4448 70.8712 39.5156C70.5435 38.5819 70.6378 37.554 71.127 36.6966C73.6363 37.7739 74.3142 39.3181 73.1515 41.3246C72.55 39.6009 72.2493 38.7391 72.2493 38.7391C72.6398 40.6154 72.8328 41.5536 72.8328 41.5536Z" fill="#F87060"/>
<path opacity="0.54" fill-rule="evenodd" clip-rule="evenodd" d="M64.5015 47.5597C63.9404 45.9662 64.0931 44.211 64.928 42.7432C65.7629 41.2753 67.1904 40.2429 68.8468 39.9107C70.2742 44.3547 69.0443 46.9582 65.1569 47.7168C66.7011 45.0056 67.4732 43.6499 67.4732 43.6499C65.4936 46.258 64.5015 47.5597 64.5015 47.5597Z" fill="#F87060"/>
<path opacity="0.54" fill-rule="evenodd" clip-rule="evenodd" d="M64.4611 37.7156C64.1558 36.4228 64.4252 35.0627 65.1973 33.9853C65.9693 32.908 67.1768 32.2212 68.4966 32.1C69.2417 35.6911 68.0612 37.6213 64.9593 37.8907C66.3913 35.9021 67.1095 34.91 67.1095 34.91C65.3454 36.7819 64.4611 37.7156 64.4611 37.7156Z" fill="#F87060"/>
<path opacity="0.54" fill-rule="evenodd" clip-rule="evenodd" d="M68.0208 28.4101C68.308 27.463 68.9903 26.6909 69.8926 26.2869C70.7949 25.8829 71.8273 25.8919 72.7206 26.3093C71.8543 28.8994 70.3729 29.6985 68.2766 28.7064C69.942 27.9657 70.7769 27.5932 70.7769 27.5932C68.941 28.1363 68.0208 28.4057 68.0208 28.4057V28.4101Z" fill="#F87060"/>
<path opacity="0.54" fill-rule="evenodd" clip-rule="evenodd" d="M70.3819 61.5471C69.8208 59.9535 69.9734 58.1984 70.8084 56.7305C71.6433 55.2626 73.0708 54.2302 74.7272 53.898C76.1546 58.342 74.9247 60.9456 71.0328 61.7042C72.577 58.9929 73.3491 57.6373 73.3491 57.6373C71.3695 60.2453 70.3774 61.5471 70.3774 61.5471H70.3819Z" fill="#F87060"/>
<path opacity="0.54" fill-rule="evenodd" clip-rule="evenodd" d="M72.6309 51.0566C73.1875 49.9747 74.1886 49.1892 75.3691 48.8974C76.5497 48.6101 77.8021 48.848 78.7942 49.5528C77.1692 52.4975 75.1941 53.1394 72.8733 51.474C75.0594 50.9443 76.1502 50.6795 76.1502 50.6795C73.8025 50.9309 72.6309 51.0566 72.6309 51.0566Z" fill="#F87060"/>
<path opacity="0.54" fill-rule="evenodd" clip-rule="evenodd" d="M83.5299 53.4671C82.6321 52.2102 82.3224 50.6211 82.686 49.1218C83.0496 47.6181 84.0461 46.3477 85.4197 45.6385C87.7988 49.1892 87.3769 51.7882 84.1449 53.4402C84.8182 50.666 85.1549 49.279 85.1549 49.279C84.073 52.0755 83.5299 53.4716 83.5299 53.4716V53.4671Z" fill="#F87060"/>
<path opacity="0.54" fill-rule="evenodd" clip-rule="evenodd" d="M78.7447 57.2243C78.197 56.5061 77.9861 55.5859 78.1701 54.6971C78.3542 53.8127 78.9153 53.0496 79.7008 52.6097C81.1597 54.6387 80.9577 56.1694 79.0993 57.1929C79.4405 55.5589 79.611 54.7419 79.611 54.7419C79.032 56.3939 78.7402 57.2243 78.7402 57.2243H78.7447Z" fill="#F87060"/>
<path opacity="0.54" fill-rule="evenodd" clip-rule="evenodd" d="M77.1871 46.029C77.4833 44.4399 78.4529 43.0574 79.849 42.2359C81.245 41.4189 82.9239 41.2439 84.4591 41.7646C83.5119 46.1367 81.245 47.7034 77.6539 46.4689C80.235 44.9606 81.5233 44.2065 81.5233 44.2065C78.6325 45.4185 77.1871 46.029 77.1871 46.029Z" fill="#F87060"/>
<path opacity="0.54" fill-rule="evenodd" clip-rule="evenodd" d="M83.3503 40.3371C83.5074 39.4483 84.0461 38.6717 84.8227 38.2094C85.5992 37.747 86.5374 37.6438 87.3948 37.9266C86.8831 40.373 85.6217 41.2573 83.6107 40.584C85.0471 39.7311 85.7653 39.3047 85.7653 39.3047C84.1538 39.996 83.3458 40.3371 83.3458 40.3371H83.3503Z" fill="#F87060"/>
<path opacity="0.54" fill-rule="evenodd" clip-rule="evenodd" d="M80.7602 9.3728C80.1093 8.17426 80.0106 6.75129 80.4864 5.47644C80.9622 4.2016 81.9722 3.1916 83.2516 2.71578C84.9573 6.07796 84.3065 8.30893 81.2989 9.40871C82.1832 7.05204 82.6276 5.87147 82.6276 5.87147C81.3797 8.2012 80.7557 9.36831 80.7557 9.36831L80.7602 9.3728Z" fill="#F87060"/>
<path opacity="0.54" fill-rule="evenodd" clip-rule="evenodd" d="M74.4219 12.2816C73.578 11.3569 73.1829 10.109 73.3311 8.86554C73.4792 7.62212 74.1615 6.50439 75.1985 5.80412C77.4519 8.43012 77.3576 10.5623 74.9157 12.2008C75.194 9.90247 75.3331 8.75781 75.3331 8.75781C74.7271 11.11 74.4264 12.2861 74.4264 12.2861L74.4219 12.2816Z" fill="#F87060"/>
<path opacity="0.54" fill-rule="evenodd" clip-rule="evenodd" d="M78.4574 6.27994C77.6494 5.75025 77.1152 4.90185 76.9851 3.94572C76.8549 2.98959 77.1467 2.02896 77.7841 1.30177C79.9702 2.8235 80.3113 4.43052 78.8075 6.12283C78.5696 4.35869 78.4529 3.47887 78.4529 3.47887C78.4529 5.34625 78.4574 6.27994 78.4574 6.27994Z" fill="#F87060"/>
<path opacity="0.54" fill-rule="evenodd" clip-rule="evenodd" d="M68.4472 21.3761C67.518 20.613 66.9659 19.4862 66.93 18.2877C66.8941 17.0847 67.3834 15.931 68.2722 15.1186C70.7815 17.2957 70.988 19.3336 68.9006 21.2324C68.8423 19.0149 68.8108 17.9017 68.8108 17.9017C68.5684 20.2179 68.4472 21.3761 68.4472 21.3761Z" fill="#F87060"/>
<path opacity="0.54" fill-rule="evenodd" clip-rule="evenodd" d="M63.9674 27.3508C62.6342 26.26 61.8441 24.644 61.7947 22.9247C61.7454 21.2055 62.4456 19.5491 63.716 18.382C67.3116 21.5018 67.6123 24.424 64.6182 27.1398C64.533 23.9617 64.4881 22.3726 64.4881 22.3726C64.1379 25.6944 63.9629 27.3508 63.9629 27.3508H63.9674Z" fill="#F87060"/>
<path opacity="0.54" fill-rule="evenodd" clip-rule="evenodd" d="M60.264 16.8378C60.1338 15.8817 60.4211 14.921 61.0585 14.1938C61.6959 13.4711 62.6117 13.0582 63.5768 13.0626C63.8641 15.7111 62.8765 17.0218 60.6141 16.9994C61.7902 15.6617 62.3782 14.9929 62.3782 14.9929C60.9732 16.2228 60.2685 16.8378 60.2685 16.8378H60.264Z" fill="#F87060"/>
<path opacity="0.54" fill-rule="evenodd" clip-rule="evenodd" d="M64.9324 17.0981C64.4117 16.2857 64.2726 15.2891 64.5464 14.3644C64.8202 13.4397 65.4801 12.6811 66.3554 12.2816C67.7245 14.5664 67.3789 16.1734 65.314 17.0981C65.8212 15.3924 66.0726 14.5395 66.0726 14.5395C65.3095 16.2453 64.9279 17.0981 64.9279 17.0981H64.9324Z" fill="#F87060"/>
<path opacity="0.54" fill-rule="evenodd" clip-rule="evenodd" d="M60.5693 11.7788C60.3762 10.3603 60.8072 8.92391 61.7498 7.84658C62.697 6.76924 64.0616 6.15427 65.4936 6.16324C65.92 10.1045 64.4477 12.0571 61.0855 12.0212C62.8361 10.0327 63.707 9.03613 63.707 9.03613C61.6107 10.8676 60.5648 11.7788 60.5648 11.7788H60.5693Z" fill="#F87060"/>
<path opacity="0.54" fill-rule="evenodd" clip-rule="evenodd" d="M68.6492 13.13C67.904 12.5195 67.4596 11.6172 67.4327 10.6521C67.4058 9.68701 67.7963 8.7623 68.5055 8.11141C70.5166 9.85759 70.6827 11.4915 69.0128 13.0133C68.9634 11.2357 68.941 10.3469 68.941 10.3469C68.7435 12.2053 68.6492 13.1345 68.6492 13.1345V13.13Z" fill="#F87060"/>
<path opacity="0.54" fill-rule="evenodd" clip-rule="evenodd" d="M67.2218 6.10936C66.8133 5.46745 66.7011 4.6819 66.9165 3.95021C67.132 3.21852 67.6527 2.6215 68.3485 2.30279C69.4303 4.10732 69.1565 5.37767 67.527 6.10936C67.9265 4.7627 68.1285 4.08487 68.1285 4.08487C67.527 5.43154 67.2263 6.10936 67.2263 6.10936H67.2218Z" fill="#F87060"/>
<path opacity="0.54" fill-rule="evenodd" clip-rule="evenodd" d="M63.4421 5.48093C62.8496 4.55622 62.6925 3.42502 63.0022 2.37013C63.3119 1.31973 64.0661 0.453377 65.0626 0C66.6203 2.59906 66.2252 4.42604 63.8775 5.48093C64.4521 3.54173 64.7439 2.56764 64.7439 2.56764C63.8775 4.50684 63.4421 5.48093 63.4421 5.48093Z" fill="#F87060"/>
<path opacity="0.54" fill-rule="evenodd" clip-rule="evenodd" d="M59.3258 9.13039C58.2709 8.82515 57.4 8.08448 56.9422 7.08795C56.4798 6.09142 56.4753 4.94675 56.9242 3.94573C59.8106 4.86595 60.7218 6.49991 59.6579 8.8431C58.8096 7.00266 58.3831 6.08693 58.3831 6.08693C59.016 8.1159 59.3303 9.13039 59.3303 9.13039H59.3258Z" fill="#F87060"/>
<path opacity="0.54" fill-rule="evenodd" clip-rule="evenodd" d="M61.4715 5.17569C60.7219 5.05 60.062 4.60111 59.667 3.95022C59.2719 3.29934 59.1777 2.50929 59.4111 1.78658C61.476 2.19956 62.2301 3.25445 61.678 4.95125C60.9463 3.74822 60.5827 3.14671 60.5827 3.14671C61.1752 4.49787 61.4715 5.17569 61.4715 5.17569Z" fill="#F87060"/>
<path opacity="0.54" fill-rule="evenodd" clip-rule="evenodd" d="M71.0643 7.68945C70.4044 6.55376 70.2742 5.18914 70.7007 3.95021C71.1271 2.71128 72.0698 1.71474 73.2908 1.22546C75.019 4.41705 74.4489 6.58069 71.5895 7.71638C72.3795 5.42705 72.779 4.2779 72.779 4.2779C71.6388 6.55376 71.0688 7.68945 71.0688 7.68945H71.0643Z" fill="#F87060"/>
<path opacity="0.54" fill-rule="evenodd" clip-rule="evenodd" d="M57.0275 13.929C55.8379 13.5878 54.8504 12.7439 54.3297 11.6172C53.8089 10.495 53.8 9.19772 54.3072 8.06652C57.5706 9.10794 58.6031 10.9529 57.4001 13.6013C56.4394 11.523 55.9591 10.4815 55.9591 10.4815C56.6729 12.7754 57.032 13.9245 57.032 13.9245L57.0275 13.929Z" fill="#F87060"/>
<path opacity="0.54" fill-rule="evenodd" clip-rule="evenodd" d="M59.4964 28.8276C58.3068 29.1777 57.023 28.9982 55.9816 28.3338C54.9357 27.665 54.2309 26.5787 54.0514 25.3532C57.3642 24.4734 59.2271 25.4744 59.6356 28.3563C57.7053 27.1218 56.7402 26.5024 56.7402 26.5024C58.5762 28.051 59.4964 28.8276 59.4964 28.8276Z" fill="#F87060"/>
<path opacity="0.54" fill-rule="evenodd" clip-rule="evenodd" d="M60.0575 35.3455C58.5537 35.5879 57.0185 35.1614 55.8514 34.1828C54.6843 33.2043 53.9975 31.7678 53.975 30.2461C58.1497 29.6984 60.2595 31.2157 60.2999 34.7888C58.1452 32.9798 57.0679 32.0731 57.0679 32.0731C59.0609 34.2547 60.0575 35.341 60.0575 35.341V35.3455Z" fill="#F87060"/>
<path opacity="0.54" fill-rule="evenodd" clip-rule="evenodd" d="M59.3798 41.1541C58.3698 40.97 57.4855 40.3551 56.9648 39.4663C56.444 38.582 56.3318 37.5136 56.655 36.5395C59.4336 37.1321 60.4347 38.573 59.6581 40.8533C58.693 39.2149 58.2127 38.3979 58.2127 38.3979C58.9892 40.2339 59.3798 41.1496 59.3798 41.1496V41.1541Z" fill="#F87060"/>
<path opacity="0.54" fill-rule="evenodd" clip-rule="evenodd" d="M57.3551 55.3973C55.8244 54.8542 54.599 53.6736 54.0064 52.1564C53.4139 50.6436 53.5082 48.9468 54.2623 47.5059C58.4549 49.1309 59.6579 51.6312 57.8669 55.0023C56.7761 52.2057 56.2284 50.8052 56.2284 50.8052C56.9781 53.8666 57.3551 55.3973 57.3551 55.3973Z" fill="#F87060"/>
<path opacity="0.54" fill-rule="evenodd" clip-rule="evenodd" d="M58.5852 46.2669C57.7951 46.1233 57.1038 45.6385 56.6954 44.9472C56.2869 44.2514 56.1971 43.4165 56.453 42.6534C58.6301 43.1157 59.4156 44.2424 58.8051 46.0335C58.051 44.7497 57.6739 44.1122 57.6739 44.1122C58.2844 45.5487 58.5852 46.2714 58.5852 46.2714V46.2669Z" fill="#F87060"/>
<path opacity="0.54" fill-rule="evenodd" clip-rule="evenodd" d="M50.0294 47.3353C49.7376 46.1412 49.98 44.8798 50.6937 43.8743C51.4074 42.8733 52.5207 42.2269 53.7417 42.1102C54.4509 45.4365 53.3646 47.232 50.4917 47.4969C51.8114 45.6474 52.4713 44.7227 52.4713 44.7227C50.8418 46.4689 50.0294 47.3397 50.0294 47.3397V47.3353Z" fill="#F87060"/>
<path opacity="0.54" fill-rule="evenodd" clip-rule="evenodd" d="M49.962 40.0364C49.8363 39.0174 50.164 37.9939 50.8508 37.2308C51.5421 36.4677 52.5252 36.0412 53.5531 36.0637C53.8179 38.8917 52.7406 40.2788 50.3301 40.2159C51.6049 38.8064 52.2423 38.1061 52.2423 38.1061C50.7206 39.3944 49.962 40.0408 49.962 40.0408V40.0364Z" fill="#F87060"/>
<path opacity="0.54" fill-rule="evenodd" clip-rule="evenodd" d="M47.3764 33.5544C46.1196 33.1549 45.0961 32.2302 44.5709 31.0182C44.0457 29.8062 44.0771 28.4281 44.6472 27.2385C48.0947 28.4416 49.1361 30.4346 47.7804 33.2177C46.8153 30.9778 46.335 29.8556 46.335 29.8556C47.0308 32.32 47.3764 33.5499 47.3764 33.5499V33.5544Z" fill="#F87060"/>
<path opacity="0.54" fill-rule="evenodd" clip-rule="evenodd" d="M50.0967 28.3293C49.0777 28.1947 48.171 27.6291 47.6054 26.7717C47.0398 25.9143 46.8737 24.8594 47.1475 23.8674C49.9486 24.3163 51.0214 25.6989 50.3615 28.0151C49.3156 26.435 48.7949 25.6405 48.7949 25.6405C49.6613 27.4316 50.0967 28.3248 50.0967 28.3248V28.3293Z" fill="#F87060"/>
<path opacity="0.54" fill-rule="evenodd" clip-rule="evenodd" d="M43.7808 25.241C43.1524 24.0784 43.0581 22.7048 43.5204 21.4703C43.9828 20.2359 44.9614 19.2618 46.2003 18.8039C47.8477 22.0629 47.2148 24.222 44.3015 25.2814C45.1634 23.001 45.5943 21.8609 45.5943 21.8609C44.3823 24.1188 43.7808 25.2455 43.7808 25.2455V25.241Z" fill="#F87060"/>
<path opacity="0.54" fill-rule="evenodd" clip-rule="evenodd" d="M50.7296 21.5018C49.7107 21.3671 48.8039 20.8015 48.2383 19.9441C47.6727 19.0912 47.5066 18.0319 47.7804 17.0398C50.5815 17.4887 51.6543 18.8713 50.9945 21.1875C49.9486 19.6075 49.4279 18.8129 49.4279 18.8129C50.2942 20.604 50.7296 21.4973 50.7296 21.4973V21.5018Z" fill="#F87060"/>
<path opacity="0.54" fill-rule="evenodd" clip-rule="evenodd" d="M52.4758 16.9411C51.4568 16.1331 50.8373 14.9255 50.7745 13.6283C50.7161 12.331 51.2234 11.0696 52.166 10.1718C54.9222 12.4791 55.1871 14.6831 52.9651 16.775C52.8573 14.3734 52.8035 13.1749 52.8035 13.1749C52.5835 15.6887 52.4758 16.9411 52.4758 16.9411Z" fill="#F87060"/>
<path opacity="0.54" fill-rule="evenodd" clip-rule="evenodd" d="M48.5974 15.6078C47.6861 15.141 47.0218 14.2971 46.7794 13.3006C46.537 12.304 46.7345 11.2491 47.3315 10.4142C49.8139 11.7833 50.357 13.4442 48.9565 15.4014C48.5076 13.5609 48.2832 12.6407 48.2832 12.6407C48.4941 14.6203 48.6019 15.6078 48.6019 15.6078H48.5974Z" fill="#F87060"/>
<path opacity="0.54" fill-rule="evenodd" clip-rule="evenodd" d="M42.5464 19.0418C42.2277 18.2563 42.2636 17.3675 42.6497 16.6089C43.0357 15.8503 43.7315 15.2981 44.5529 15.0916C45.3744 17.2957 44.8178 18.6334 42.8786 19.1047C43.5923 17.7042 43.9469 17.0039 43.9469 17.0039C43.0133 18.3595 42.5464 19.0418 42.5464 19.0418Z" fill="#F87060"/>
<path opacity="0.54" fill-rule="evenodd" clip-rule="evenodd" d="M54.0828 21.7756C53.8539 20.9855 53.9751 20.1326 54.4239 19.4368C54.8728 18.7411 55.5955 18.2787 56.4125 18.162C56.9871 20.3705 56.3138 21.605 54.397 21.8653C55.223 20.586 55.6359 19.9441 55.6359 19.9441C54.599 21.1606 54.0783 21.7711 54.0783 21.7711L54.0828 21.7756Z" fill="#F87060"/>
<path opacity="0.54" fill-rule="evenodd" clip-rule="evenodd" d="M54.6215 6.43256C53.9077 6.06447 53.3915 5.40909 53.203 4.63252C53.0144 3.85594 53.1715 3.03447 53.6339 2.3791C55.5731 3.44745 55.9951 4.74474 54.8998 6.27096C54.5496 4.83452 54.3746 4.11629 54.3746 4.11629C54.5407 5.66047 54.6215 6.43256 54.6215 6.43256Z" fill="#F87060"/>
<path opacity="0.54" fill-rule="evenodd" clip-rule="evenodd" d="M52.7765 9.27852C51.6453 9.26505 50.577 8.75781 49.8498 7.89594C49.1226 7.03407 48.8039 5.8939 48.9789 4.78065C52.0987 4.91083 53.4498 6.28892 53.0279 8.90594C51.6812 7.3079 51.0124 6.50888 51.0124 6.50888C52.193 8.35381 52.781 9.27852 52.781 9.27852H52.7765Z" fill="#F87060"/>
<path opacity="0.54" fill-rule="evenodd" clip-rule="evenodd" d="M46.2138 9.71395C45.3026 9.24711 44.6382 8.4032 44.3913 7.40667C44.1489 6.41014 44.3464 5.35525 44.9435 4.52032C47.4303 5.88943 47.969 7.55031 46.5684 9.51196C46.1195 7.67151 45.8951 6.7468 45.8951 6.7468C46.1061 8.7264 46.2138 9.71395 46.2138 9.71395Z" fill="#F87060"/>
<path opacity="0.54" fill-rule="evenodd" clip-rule="evenodd" d="M40.7822 15.1994C40.257 13.9066 40.3199 12.4522 40.9483 11.2087C41.5813 9.96532 42.7214 9.05857 44.0726 8.71741C45.4237 12.331 44.508 14.526 41.3254 15.3026C42.497 13.0088 43.0805 11.8596 43.0805 11.8596C41.5453 14.0861 40.7822 15.1994 40.7822 15.1994Z" fill="#F87060"/>
<path opacity="0.54" fill-rule="evenodd" clip-rule="evenodd" d="M38.8027 10.8945C38.466 9.92941 38.5692 8.87004 39.0765 7.98573C39.5837 7.10142 40.4501 6.48195 41.4511 6.28444C42.2995 8.97328 41.5499 10.5399 39.1977 10.9888C40.1403 9.35484 40.6072 8.54235 40.6072 8.54235C39.4042 10.1135 38.8027 10.8945 38.8027 10.8945Z" fill="#F87060"/>
<path opacity="0.54" fill-rule="evenodd" clip-rule="evenodd" d="M39.265 27.8086C37.7523 27.7907 36.3293 27.1173 35.3507 25.9637C34.3766 24.8101 33.9502 23.2928 34.1836 21.798C38.3583 21.9731 40.1583 23.809 39.5972 27.3104C37.7971 25.1781 36.8994 24.1098 36.8994 24.1098C38.475 26.5787 39.265 27.8131 39.265 27.8131V27.8086Z" fill="#F87060"/>
<path opacity="0.54" fill-rule="evenodd" clip-rule="evenodd" d="M40.0012 20.9272C38.9508 21.3626 37.7657 21.3177 36.7512 20.8105C35.7368 20.3032 34.9916 19.3785 34.7088 18.2787C37.6445 17.161 39.4356 17.8972 40.082 20.4828C38.2056 19.5401 37.2675 19.0688 37.2675 19.0688C39.09 20.3077 40.0012 20.9272 40.0012 20.9272Z" fill="#F87060"/>
<path opacity="0.54" fill-rule="evenodd" clip-rule="evenodd" d="M30.9292 26.0625C29.9102 25.461 29.201 24.451 28.99 23.2883C28.7745 22.1257 29.0753 20.9272 29.8159 20.0025C32.5856 21.7442 33.0973 23.6923 31.3511 25.8515C30.9561 23.7013 30.7631 22.6285 30.7631 22.6285C30.8753 24.9178 30.9337 26.0625 30.9337 26.0625H30.9292Z" fill="#F87060"/>
<path opacity="0.54" fill-rule="evenodd" clip-rule="evenodd" d="M32.7292 19.1451C31.9616 19.4458 31.0998 19.3965 30.3681 19.0149C29.6364 18.6334 29.1112 17.9511 28.9227 17.1475C31.0684 16.3799 32.3612 16.9411 32.7921 18.8264C31.4454 18.1171 30.7721 17.7625 30.7721 17.7625C32.0784 18.6872 32.7292 19.1496 32.7292 19.1496V19.1451Z" fill="#F87060"/>
<path opacity="0.54" fill-rule="evenodd" clip-rule="evenodd" d="M33.2813 16.3216C32.002 16.1959 30.8393 15.5181 30.0987 14.4677C29.358 13.4173 29.1066 12.0976 29.4119 10.8452C32.9401 11.2985 34.3362 12.9908 33.6 15.9176C32.2309 13.9739 31.5441 13.0043 31.5441 13.0043C32.7022 15.2128 33.2813 16.3171 33.2813 16.3171V16.3216Z" fill="#F87060"/>
<path opacity="0.54" fill-rule="evenodd" clip-rule="evenodd" d="M37.7118 13.9874C36.5402 14.1175 35.3686 13.7315 34.5023 12.928C33.6359 12.1245 33.1601 10.9888 33.2005 9.8082C36.4505 9.54785 38.026 10.8002 37.9183 13.5654C36.3203 12.0841 35.5213 11.3389 35.5213 11.3389C36.9801 13.103 37.7073 13.9829 37.7073 13.9829L37.7118 13.9874Z" fill="#F87060"/>
<path opacity="0.54" fill-rule="evenodd" clip-rule="evenodd" d="M37.676 16.5146C37.1149 16.8647 36.4281 16.95 35.7951 16.7525C35.1622 16.555 34.6505 16.0926 34.3856 15.4911C35.9657 14.5754 37.0655 14.8268 37.6805 16.2542C36.5134 15.8906 35.9298 15.7066 35.9298 15.7066C37.0924 16.2453 37.676 16.5191 37.676 16.5191V16.5146Z" fill="#F87060"/>
<path opacity="0.54" fill-rule="evenodd" clip-rule="evenodd" d="M25.7849 23.4769C24.4651 22.7003 23.5449 21.385 23.2711 19.8813C22.9928 18.373 23.3833 16.8199 24.3395 15.6258C27.9261 17.8792 28.5904 20.4065 26.3325 23.203C25.8253 20.4199 25.5694 19.0239 25.5694 19.0239C25.7175 21.991 25.7894 23.4769 25.7894 23.4769H25.7849Z" fill="#F87060"/>
<path opacity="0.54" fill-rule="evenodd" clip-rule="evenodd" d="M22.9524 24.1816C21.8123 24.5003 20.5913 24.3118 19.6037 23.6564C18.6162 23.0055 17.9608 21.9596 17.8082 20.7835C20.9818 19.9935 22.7414 20.9766 23.0916 23.7282C21.2691 22.5207 20.3579 21.9192 20.3579 21.9192C22.0861 23.423 22.9524 24.1771 22.9524 24.1771V24.1816Z" fill="#F87060"/>
<path opacity="0.54" fill-rule="evenodd" clip-rule="evenodd" d="M27.6298 27.4405C26.6871 28.1543 25.4796 28.4281 24.3259 28.1812C23.1678 27.9388 22.1758 27.2026 21.6012 26.1702C24.2631 24.2714 26.2607 24.5362 27.5983 26.9692C25.4616 26.5158 24.3933 26.2914 24.3933 26.2914C26.5569 27.0545 27.6343 27.4405 27.6343 27.4405H27.6298Z" fill="#F87060"/>
<path opacity="0.54" fill-rule="evenodd" clip-rule="evenodd" d="M32.8952 30.8611C32.1007 31.7364 30.965 32.2257 29.7799 32.1943C28.5994 32.1673 27.4861 31.6287 26.732 30.7174C28.9989 28.3608 31.0144 28.2575 32.774 30.4077C30.5879 30.3538 29.4971 30.3269 29.4971 30.3269C31.764 30.6815 32.8952 30.8611 32.8952 30.8611Z" fill="#F87060"/>
<path opacity="0.54" fill-rule="evenodd" clip-rule="evenodd" d="M39.5971 32.7419C38.8206 34.0706 37.5098 34.9998 35.9971 35.2826C34.4843 35.5699 32.9222 35.1839 31.7147 34.2277C33.9636 30.6142 36.4953 29.9364 39.3188 32.1943C36.5267 32.7195 35.1262 32.9798 35.1262 32.9798C38.1068 32.8182 39.5971 32.7374 39.5971 32.7374V32.7419Z" fill="#F87060"/>
<path opacity="0.54" fill-rule="evenodd" clip-rule="evenodd" d="M43.4217 40.0094C42.2546 40.1935 41.0605 39.8613 40.1583 39.0982C39.256 38.3351 38.7263 37.2173 38.7084 36.0368C41.9538 35.6238 43.5833 36.8044 43.6102 39.583C41.9404 38.1735 41.1099 37.4642 41.1099 37.4642C42.6496 39.161 43.4217 40.0094 43.4217 40.0094Z" fill="#F87060"/>
<path opacity="0.54" fill-rule="evenodd" clip-rule="evenodd" d="M36.208 38.9635C35.427 39.0847 34.6279 38.8648 34.0264 38.353C33.4204 37.8413 33.0703 37.0961 33.0568 36.3061C35.225 36.0278 36.3202 36.8223 36.3337 38.6762C35.216 37.7336 34.6594 37.2622 34.6594 37.2622C35.6918 38.3979 36.208 38.968 36.208 38.968V38.9635Z" fill="#F87060"/>
<path opacity="0.54" fill-rule="evenodd" clip-rule="evenodd" d="M44.095 52.4526C42.5105 52.6995 40.899 52.2506 39.6735 51.2181C38.448 50.1857 37.7343 48.673 37.7119 47.0704C42.1065 46.5093 44.3195 48.1118 44.3509 51.8735C42.0885 49.9613 40.9618 49.0051 40.9618 49.0051C43.0491 51.3034 44.095 52.4571 44.095 52.4571V52.4526Z" fill="#F87060"/>
<path opacity="0.54" fill-rule="evenodd" clip-rule="evenodd" d="M42.0795 45.2614C41.3702 45.616 40.5443 45.6475 39.8126 45.3422C39.0809 45.0415 38.5153 44.4355 38.2684 43.6858C40.2525 42.7611 41.5318 43.1831 42.1109 44.9472C40.7598 44.3861 40.0864 44.1078 40.0864 44.1078C41.4151 44.8754 42.0795 45.2614 42.0795 45.2614Z" fill="#F87060"/>
<path opacity="0.54" fill-rule="evenodd" clip-rule="evenodd" d="M34.1342 47.2186C33.0927 46.653 32.3521 45.6654 32.0962 44.5118C31.8403 43.3581 32.0962 42.1506 32.8055 41.199C35.6335 42.8419 36.2125 44.7721 34.5471 46.9896C34.0758 44.8574 33.8424 43.7891 33.8424 43.7891C34.0354 46.0739 34.1342 47.2186 34.1342 47.2186Z" fill="#F87060"/>
<path opacity="0.54" fill-rule="evenodd" clip-rule="evenodd" d="M31.6474 40.8129C30.9112 41.5042 29.9057 41.8409 28.9002 41.7376C27.8947 41.6344 26.9834 41.0957 26.4044 40.2698C28.5007 38.4159 30.2244 38.4652 31.5756 40.4179C29.7172 40.2204 28.788 40.1261 28.788 40.1261C30.6957 40.584 31.6474 40.8174 31.6474 40.8174V40.8129Z" fill="#F87060"/>
<path opacity="0.54" fill-rule="evenodd" clip-rule="evenodd" d="M24.5549 40.5885C23.7873 40.4044 23.132 39.8972 22.7684 39.1924C22.4048 38.4922 22.3599 37.6662 22.6517 36.93C24.7659 37.5001 25.4752 38.6448 24.7839 40.3685C24.1105 39.0712 23.7739 38.4248 23.7739 38.4248C24.2946 39.8658 24.5549 40.5885 24.5549 40.5885Z" fill="#F87060"/>
<path opacity="0.54" fill-rule="evenodd" clip-rule="evenodd" d="M26.9565 35.938C25.6457 36.6652 24.0881 36.7864 22.6831 36.2747C21.278 35.7629 20.1648 34.6632 19.6306 33.2671C23.307 31.3638 25.7624 32.0596 26.9969 35.3455C24.4023 34.3938 23.1005 33.918 23.1005 33.918C25.6727 35.2647 26.9565 35.938 26.9565 35.938Z" fill="#F87060"/>
<path opacity="0.54" fill-rule="evenodd" clip-rule="evenodd" d="M17.6779 33.8596C16.9103 33.6756 16.2549 33.1684 15.8913 32.4636C15.5278 31.7633 15.4829 30.9374 15.7746 30.2012C17.8844 30.7713 18.5981 31.916 17.9069 33.6397C17.2335 32.3424 16.8969 31.696 16.8969 31.696C17.4176 33.1369 17.6779 33.8596 17.6779 33.8596Z" fill="#F87060"/>
<path opacity="0.54" fill-rule="evenodd" clip-rule="evenodd" d="M19.2984 39.161C18.1941 38.8962 17.2605 38.169 16.7353 37.1635C16.2101 36.158 16.1517 34.9729 16.5692 33.918C19.5947 34.735 20.6136 36.3779 19.6261 38.8468C18.661 36.9884 18.1762 36.0592 18.1762 36.0592C18.9258 38.1286 19.2984 39.161 19.2984 39.161Z" fill="#F87060"/>
<path opacity="0.54" fill-rule="evenodd" clip-rule="evenodd" d="M19.3837 30.2236C18.0416 30.2551 16.7488 29.7029 15.8465 28.7064C14.9442 27.7099 14.5133 26.3722 14.6749 25.039C18.3917 25.0614 20.0526 26.637 19.6621 29.7703C17.9967 27.9298 17.1618 27.0096 17.1618 27.0096C18.6431 29.1553 19.3837 30.2281 19.3837 30.2281V30.2236Z" fill="#F87060"/>
<path opacity="0.54" fill-rule="evenodd" clip-rule="evenodd" d="M25.2417 30.9957C24.5639 31.3997 23.7424 31.494 22.9883 31.2426C22.2387 30.9957 21.6282 30.4346 21.3229 29.7029C23.2307 28.6346 24.5415 28.9623 25.2507 30.677C23.8636 30.2192 23.1679 29.9902 23.1679 29.9902C24.5504 30.6591 25.2372 30.9913 25.2372 30.9913L25.2417 30.9957Z" fill="#F87060"/>
<path opacity="0.54" fill-rule="evenodd" clip-rule="evenodd" d="M14.2754 36.4318C12.9153 36.3869 11.6404 35.7584 10.7785 34.6991C9.91668 33.6442 9.56206 32.2661 9.79548 30.9239C13.5527 31.1529 15.1507 32.8362 14.5851 35.9829C13.0005 34.0302 12.206 33.0516 12.206 33.0516C13.5886 35.3051 14.2754 36.4273 14.2754 36.4273V36.4318Z" fill="#F87060"/>
<path opacity="0.54" fill-rule="evenodd" clip-rule="evenodd" d="M14.7153 39.3406C13.6514 40.3102 12.2195 40.768 10.792 40.5975C9.36456 40.4269 8.07625 39.6458 7.26825 38.4563C10.2848 35.8662 12.7357 35.9694 14.621 38.775C11.9816 38.4607 10.6618 38.2991 10.6618 38.2991C13.3642 38.9904 14.7153 39.3361 14.7153 39.3361V39.3406Z" fill="#F87060"/>
<path opacity="0.54" fill-rule="evenodd" clip-rule="evenodd" d="M18.7104 42.0429C18.1673 43.0394 17.2156 43.7487 16.1069 43.9866C14.9981 44.229 13.84 43.9776 12.9332 43.2953C14.5178 40.5885 16.3672 40.0364 18.4905 41.6434C16.4435 42.0878 15.4201 42.3077 15.4201 42.3077C17.6106 42.1282 18.7059 42.0384 18.7059 42.0384L18.7104 42.0429Z" fill="#F87060"/>
<path opacity="0.54" fill-rule="evenodd" clip-rule="evenodd" d="M24.0881 43.6723C23.4642 44.8125 22.3734 45.6295 21.103 45.9033C19.8327 46.1816 18.5039 45.8898 17.4625 45.1133C19.2805 42.007 21.4038 41.374 23.8412 43.219C21.4935 43.7262 20.3175 43.9821 20.3175 43.9821C22.8312 43.7756 24.0881 43.6768 24.0881 43.6768V43.6723Z" fill="#F87060"/>
<path opacity="0.54" fill-rule="evenodd" clip-rule="evenodd" d="M27.7106 46.231C27.2258 47.1198 26.3774 47.7572 25.3854 47.9727C24.3933 48.1882 23.3609 47.9637 22.5484 47.3577C23.9624 44.9382 25.6188 44.4444 27.5176 45.8809C25.6861 46.2759 24.7704 46.4734 24.7704 46.4734C26.732 46.3118 27.7106 46.2355 27.7106 46.2355V46.231Z" fill="#F87060"/>
<path opacity="0.54" fill-rule="evenodd" clip-rule="evenodd" d="M31.0504 51.1239C30.0404 52.4077 28.5187 53.1933 26.8847 53.2696C25.2507 53.3504 23.6617 52.713 22.535 51.5279C25.4348 48.0535 28.1999 47.7124 30.8394 50.5044C27.8184 50.6436 26.3101 50.7154 26.3101 50.7154C29.4703 50.9848 31.0504 51.1194 31.0504 51.1194V51.1239Z" fill="#F87060"/>
<path opacity="0.54" fill-rule="evenodd" clip-rule="evenodd" d="M21.6596 53.2067C20.4297 53.6332 19.0785 53.5075 17.9473 52.8611C16.8206 52.2147 16.0261 51.1059 15.7792 49.8311C19.2087 48.7448 21.2107 49.7054 21.7808 52.704C19.698 51.5054 18.6565 50.9039 18.6565 50.9039C20.6586 52.4391 21.6596 53.2067 21.6596 53.2067Z" fill="#F87060"/>
<path opacity="0.54" fill-rule="evenodd" clip-rule="evenodd" d="M16.2639 46.8056C15.6804 47.8784 14.6569 48.6415 13.4674 48.8974C12.2733 49.1578 11.0299 48.8839 10.0513 48.1567C11.7526 45.2435 13.7502 44.6509 16.035 46.3791C13.831 46.855 12.7312 47.0929 12.7312 47.0929C15.0879 46.8999 16.2684 46.8056 16.2684 46.8056H16.2639Z" fill="#F87060"/>
<path opacity="0.54" fill-rule="evenodd" clip-rule="evenodd" d="M21.0805 48.3498C20.461 48.8211 19.6665 49.0052 18.9034 48.8436C18.1403 48.6864 17.4804 48.2061 17.1033 47.5238C18.854 46.2669 20.1737 46.4375 21.058 48.04C19.6485 47.7483 18.9438 47.6001 18.9438 47.6001C20.3712 48.0984 21.085 48.3498 21.085 48.3498H21.0805Z" fill="#F87060"/>
<path opacity="0.54" fill-rule="evenodd" clip-rule="evenodd" d="M15.9588 54.0103C15.0834 54.3155 14.1228 54.2257 13.3193 53.7634C12.5158 53.301 11.9547 52.5155 11.7796 51.6087C14.2171 50.8366 15.64 51.5189 16.044 53.6511C14.5627 52.7983 13.822 52.3718 13.822 52.3718C15.245 53.4626 15.9588 54.0103 15.9588 54.0103Z" fill="#F87060"/>
<path opacity="0.54" fill-rule="evenodd" clip-rule="evenodd" d="M14.5851 55.9898C13.9701 57.139 12.8883 57.9604 11.618 58.2477C10.3476 58.535 9.0189 58.2567 7.96851 57.4891C9.75957 54.3693 11.8783 53.7184 14.3293 55.5409C11.9816 56.0706 10.81 56.331 10.81 56.331C13.3237 56.1065 14.5806 55.9898 14.5806 55.9898H14.5851Z" fill="#F87060"/>
<path opacity="0.54" fill-rule="evenodd" clip-rule="evenodd" d="M18.5981 56.4163C18.6251 57.7181 18.0909 58.966 17.1258 59.8413C16.1607 60.7166 14.8679 61.1296 13.5751 60.9725C13.5975 57.3769 15.1282 55.7654 18.1582 56.147C16.3761 57.7585 15.4828 58.5665 15.4828 58.5665C17.5612 57.1345 18.5981 56.4163 18.5981 56.4163Z" fill="#F87060"/>
<path opacity="0.54" fill-rule="evenodd" clip-rule="evenodd" d="M12.4574 60.1016C12.2464 61.0039 11.6584 61.767 10.8414 62.2025C10.0244 62.6334 9.05931 62.6917 8.19745 62.3551C8.84385 59.8817 10.1815 59.0423 12.2015 59.8368C10.6888 60.6358 9.93465 61.0309 9.93465 61.0309C11.618 60.4114 12.4574 60.0972 12.4574 60.0972V60.1016Z" fill="#F87060"/>
<path opacity="0.54" fill-rule="evenodd" clip-rule="evenodd" d="M10.7247 44.3951C9.43186 45.1223 7.88769 45.2524 6.49164 44.7542C5.0956 44.2559 3.98236 43.1741 3.44818 41.7915C7.07969 39.8837 9.51715 40.5571 10.7606 43.807C8.18395 42.8823 6.89116 42.4199 6.89116 42.4199C9.44533 43.7397 10.7247 44.3995 10.7247 44.3995V44.3951Z" fill="#F87060"/>
<path opacity="0.54" fill-rule="evenodd" clip-rule="evenodd" d="M7.63631 47.7662C6.77445 48.4934 5.63876 48.8121 4.52552 48.637C3.41227 48.462 2.42921 47.8156 1.8277 46.8594C4.26516 44.9158 6.18191 45.0684 7.57796 47.3173C5.51756 46.9941 4.48961 46.8325 4.48961 46.8325C6.58591 47.452 7.63631 47.7617 7.63631 47.7617V47.7662Z" fill="#F87060"/>
<path opacity="0.54" fill-rule="evenodd" clip-rule="evenodd" d="M10.8504 53.6107C9.55759 54.3379 8.01342 54.4681 6.61738 53.9698C5.22133 53.4716 4.10809 52.3897 3.57391 51.0072C7.20542 49.0994 9.64288 49.7727 10.8863 53.0227C8.3052 52.098 7.01689 51.6311 7.01689 51.6311C9.57106 52.9509 10.8504 53.6107 10.8504 53.6107Z" fill="#F87060"/>
<path opacity="0.54" fill-rule="evenodd" clip-rule="evenodd" d="M5.14048 55.4198C4.27861 55.909 3.25066 55.9988 2.31697 55.6667C1.38328 55.3345 0.642619 54.6163 0.283508 53.696C2.69853 52.4167 4.3235 52.8611 5.16292 55.0247C3.44368 54.4143 2.58182 54.1045 2.58182 54.1045C4.28759 54.9798 5.14048 55.4153 5.14048 55.4153V55.4198Z" fill="#F87060"/>
<path opacity="0.54" fill-rule="evenodd" clip-rule="evenodd" d="M7.38944 57.5251C6.85526 58.5261 5.9081 59.2443 4.79935 59.4957C3.6906 59.7471 2.52798 59.5047 1.61224 58.8313C3.17437 56.1066 5.02828 55.5365 7.16948 57.13C5.12255 57.5924 4.09908 57.8213 4.09908 57.8213C6.29415 57.6238 7.38944 57.5251 7.38944 57.5251Z" fill="#F87060"/>
<path opacity="0.54" fill-rule="evenodd" clip-rule="evenodd" d="M6.70713 62.5257C6.09215 63.6703 5.01033 64.4963 3.73998 64.7836C2.46962 65.0709 1.14091 64.7925 0.0905151 64.0249C1.88158 60.9052 4.00033 60.2543 6.45126 62.0768C4.10358 62.6065 2.93198 62.8713 2.93198 62.8713C5.44575 62.6469 6.70264 62.5301 6.70264 62.5301L6.70713 62.5257Z" fill="#F87060"/>
<path opacity="0.54" fill-rule="evenodd" clip-rule="evenodd" d="M14.7243 63.7556C14.2574 65.0619 13.2429 66.0988 11.9501 66.5971C10.6573 67.0998 9.21192 67.0145 7.98645 66.3636C9.38698 62.795 11.5192 61.7805 14.3876 63.3157C11.9995 64.2404 10.8055 64.6983 10.8055 64.6983C13.418 64.0653 14.7243 63.7511 14.7243 63.7511V63.7556Z" fill="#F87060"/>
<path opacity="0.54" fill-rule="evenodd" clip-rule="evenodd" d="M21.4936 63.392C20.8337 63.9217 19.9718 64.1417 19.1369 63.989C18.302 63.8364 17.5748 63.3337 17.1393 62.602C19.0112 61.1835 20.4477 61.3361 21.4532 63.0553C19.909 62.7725 19.1414 62.6334 19.1414 62.6334C20.708 63.1361 21.4891 63.392 21.4891 63.392H21.4936Z" fill="#F87060"/>
<path opacity="0.54" fill-rule="evenodd" clip-rule="evenodd" d="M29.2503 60.0792C28.1371 61.3271 26.539 62.0363 24.8647 62.0139C23.1903 61.9915 21.6102 61.2463 20.5329 59.9715C23.7065 56.6048 26.5525 56.4297 29.0708 59.4373C25.9824 59.3969 24.4337 59.3744 24.4337 59.3744C27.6433 59.8458 29.2458 60.0792 29.2458 60.0792H29.2503Z" fill="#F87060"/>
</svg>
